G04*
G04 #@! TF.GenerationSoftware,Altium Limited,Altium Designer,19.1.9 (167)*
G04*
G04 Layer_Color=16711935*
%FSLAX44Y44*%
%MOMM*%
G71*
G01*
G75*
%ADD12C,0.2540*%
%ADD100C,0.1000*%
D12*
X200000Y2106250D02*
X200000Y1750000D01*
X200000Y2980000D02*
X200000Y2618750D01*
X200000Y2980000D02*
X4250000D01*
Y1750000D02*
Y2980000D01*
X200000Y1750000D02*
X4250000D01*
X200000Y2618750D02*
X200000Y2106250D01*
D100*
X1542600Y1911500D02*
G03*
X1542600Y1911500I-5000J0D01*
G01*
X506750Y1937050D02*
G03*
X506750Y1937050I-5000J0D01*
G01*
X662000Y1856000D02*
X678000D01*
X662000Y1864000D02*
X678000D01*
Y1856000D02*
Y1864000D01*
X662000Y1856000D02*
Y1864000D01*
X1841250Y1763730D02*
Y1851731D01*
Y1763730D02*
X2044450D01*
Y1851731D01*
X1841250D02*
X2044450D01*
X1600100Y1902000D02*
Y1974000D01*
X1528100Y1902000D02*
Y1974000D01*
X1600100D01*
X1528100Y1902000D02*
X1600100D01*
X782500Y1853750D02*
Y1861750D01*
X766500Y1853750D02*
Y1861750D01*
Y1853750D02*
X782500D01*
X766500Y1861750D02*
X782500D01*
X766500Y1870750D02*
Y1878750D01*
X782500Y1870750D02*
Y1878750D01*
X766500D02*
X782500D01*
X766500Y1870750D02*
X782500D01*
X1498250Y1902000D02*
X1506250D01*
X1498250Y1918000D02*
X1506250D01*
X1498250Y1902000D02*
Y1918000D01*
X1506250Y1902000D02*
Y1918000D01*
X1580500Y1855500D02*
Y1863500D01*
X1596500Y1855500D02*
Y1863500D01*
X1580500D02*
X1596500D01*
X1580500Y1855500D02*
X1596500D01*
X886000Y1811266D02*
X894000D01*
X886000Y1827266D02*
X894000D01*
X886000Y1811266D02*
Y1827266D01*
X894000Y1811266D02*
Y1827266D01*
X459000Y2005000D02*
X467000D01*
X459000Y1989000D02*
X467000D01*
Y2005000D01*
X459000Y1989000D02*
Y2005000D01*
X481250Y1985000D02*
Y1993000D01*
X497250Y1985000D02*
Y1993000D01*
X481250D02*
X497250D01*
X481250Y1985000D02*
X497250D01*
X826000Y1811266D02*
X834000D01*
X826000Y1827266D02*
X834000D01*
X826000Y1811266D02*
Y1827266D01*
X834000Y1811266D02*
Y1827266D01*
X430250Y1904000D02*
X445750D01*
X430250Y1935000D02*
X445750D01*
X430250Y1904000D02*
Y1935000D01*
X445750Y1904000D02*
Y1935000D01*
X406250D02*
X421750D01*
X406250Y1904000D02*
X421750D01*
Y1935000D01*
X406250Y1904000D02*
Y1935000D01*
X3837750Y2087251D02*
X3850250D01*
X3837750Y2107251D02*
X3850250D01*
X3837750Y2087251D02*
Y2107251D01*
X3850250Y2087251D02*
Y2107251D01*
X3337750Y2087251D02*
X3350250D01*
X3337750Y2107251D02*
X3350250D01*
X3337750Y2087251D02*
Y2107251D01*
X3350250Y2087251D02*
Y2107251D01*
X2837750Y2087250D02*
X2850250D01*
X2837750Y2107250D02*
X2850250D01*
X2837750Y2087250D02*
Y2107250D01*
X2850250Y2087250D02*
Y2107250D01*
X2337750Y2087251D02*
X2350250D01*
X2337750Y2107251D02*
X2350250D01*
X2337750Y2087251D02*
Y2107251D01*
X2350250Y2087251D02*
Y2107251D01*
X1837750Y2087251D02*
X1850250D01*
X1837750Y2107251D02*
X1850250D01*
X1837750Y2087251D02*
Y2107251D01*
X1850250Y2087251D02*
Y2107251D01*
X1337750Y2087250D02*
X1350250D01*
X1337750Y2107250D02*
X1350250D01*
X1337750Y2087250D02*
Y2107250D01*
X1350250Y2087250D02*
Y2107250D01*
X837750Y2087251D02*
X850250D01*
X837750Y2107251D02*
X850250D01*
X837750Y2087251D02*
Y2107251D01*
X850250Y2087251D02*
Y2107251D01*
X337750Y2087250D02*
X350250D01*
X337750Y2107250D02*
X350250D01*
X337750Y2087250D02*
Y2107250D01*
X350250Y2087250D02*
Y2107250D01*
X2167450Y2081600D02*
X2255450D01*
X2167450Y1878400D02*
Y2081600D01*
Y1878400D02*
X2255450D01*
Y2081600D01*
X1664349Y1883515D02*
X1681849D01*
X1664349Y1874015D02*
X1681849D01*
X1664349D02*
Y1883515D01*
X1681849Y1874015D02*
Y1883515D01*
X760750Y1950700D02*
Y1970700D01*
X773250Y1950700D02*
Y1970700D01*
X760750Y1950700D02*
X773250D01*
X760750Y1970700D02*
X773250D01*
X470750Y1978050D02*
X510750D01*
X470750Y1928050D02*
X510750D01*
X470750D02*
Y1978050D01*
X510750Y1928050D02*
Y1978050D01*
X1568500Y1843500D02*
Y1859500D01*
X1560500Y1843500D02*
Y1859500D01*
X1568500D01*
X1560500Y1843500D02*
X1568500D01*
X1525000Y1844500D02*
X1541000D01*
X1525000Y1852500D02*
X1541000D01*
Y1844500D02*
Y1852500D01*
X1525000Y1844500D02*
Y1852500D01*
X1694000Y1848000D02*
X1710000D01*
X1694000Y1840000D02*
X1710000D01*
X1694000D02*
Y1848000D01*
X1710000Y1840000D02*
Y1848000D01*
X1639850Y1858500D02*
X1652350D01*
X1639850Y1878500D02*
X1652350D01*
X1639850Y1858500D02*
Y1878500D01*
X1652350Y1858500D02*
Y1878500D01*
X1628100Y1862500D02*
Y1878500D01*
X1620100Y1862500D02*
Y1878500D01*
X1628100D01*
X1620100Y1862500D02*
X1628100D01*
X1581000Y1847750D02*
X1597000D01*
X1581000Y1839750D02*
X1597000D01*
X1581000D02*
Y1847750D01*
X1597000Y1839750D02*
Y1847750D01*
X786000Y1952650D02*
Y1968650D01*
X794000Y1952650D02*
Y1968650D01*
X786000Y1952650D02*
X794000D01*
X786000Y1968650D02*
X794000D01*
X806000Y1952650D02*
Y1968650D01*
X814000Y1952650D02*
Y1968650D01*
X806000Y1952650D02*
X814000D01*
X806000Y1968650D02*
X814000D01*
X826000Y1952650D02*
Y1968650D01*
X834000Y1952650D02*
Y1968650D01*
X826000Y1952650D02*
X834000D01*
X826000Y1968650D02*
X834000D01*
X843750Y1970649D02*
X856250D01*
X843750Y1950649D02*
X856250D01*
Y1970649D01*
X843750Y1950649D02*
Y1970649D01*
X410000Y1956000D02*
Y1972000D01*
X418000Y1956000D02*
Y1972000D01*
X410000Y1956000D02*
X418000D01*
X410000Y1972000D02*
X418000D01*
X429250Y1955500D02*
Y1986500D01*
X444750Y1955500D02*
Y1986500D01*
X429250Y1955500D02*
X444750D01*
X429250Y1986500D02*
X444750D01*
X682000Y1965250D02*
Y1981250D01*
X674000Y1965250D02*
Y1981250D01*
X682000D01*
X674000Y1965250D02*
X682000D01*
X534000Y1959250D02*
Y1975250D01*
X542000Y1959250D02*
Y1975250D01*
X534000Y1959250D02*
X542000D01*
X534000Y1975250D02*
X542000D01*
M02*
