M48
;Layer_Color=9474304
;FILE_FORMAT=4:4
METRIC,LZ
;TYPE=PLATED
T1F00S00C0.4000
T2F00S00C0.7000
T3F00S00C0.8128
T4F00S00C1.0000
T5F00S00C1.0160
T6F00S00C1.0200
T7F00S00C1.1001
T8F00S00C1.2000
T9F00S00C1.2700
T10F00S00C1.4224
T11F00S00C1.7780
T12F00S00C2.5400
T13F00S00C3.5001
%
T01
X00566Y01956
X008Y01855
X0145725Y0184275
X015105Y018485
X01491Y01872
X014905Y01901
X0147Y0192
X01527Y01883
X01576Y0190575
X0156025Y019705
X01544
X01608Y018955
X0161Y01862
X0159675Y0187025
X01610125Y01831
X016545Y0191375
X0229925Y018775
X016066Y01992199
X01552172Y01990422
X01536Y0199025
X0158Y02050765
X01072Y02065
X0079Y01985
X004755Y0200475
T02
X0036Y0192
Y01955
X00721Y01944
Y01969
X0072075Y0189975
Y0187475
T03
X04121947Y021319
X04096547
X04071147
Y022081
X04096547
X04121947
X04174001Y02338037
X03791
X03674001Y02338037
X03621947Y022081
X03596547
Y021319
X03621947
X03844053Y021319
X03869453
X03894853
Y022081
X03869453
X03844053
X03571147Y022081
Y021319
X03394853
X03369453
X03344053
Y022081
X03369453
X03394853
X03291Y02338037
X03174001Y02338037
X03121947Y022081
X03096547
X03071147
Y021319
X03096547
X03121947
X02894853
X02869453
X02844053
Y022081
X02869453
X02894853
X02791001Y02338037
X02674Y02338037
X02621947Y022081
X02596547
X02571147
Y021319
X02596547
X02621947
X02394853
Y022081
X02369453
X02344053
Y021319
X02369453
X02121947Y021319
X02096547
X02071147
Y022081
X02096547
X02121947
X02174001Y02338037
X02291Y02338037
X01791001Y02338037
X01674Y02338037
X01621947Y022081
X01596547
Y021319
X01621947
X01844053Y021319
X01869453
X01894853
Y022081
X01869453
X01844053
X01571147Y022081
Y021319
X01394853
X01369453
X01344053
Y022081
X01369453
X01394853
X01291Y02338037
X01174001Y02338037
X01121947Y022081
X01096547
X01071147
Y021319
X01096547
X01121947
X00894853
X00869453
X00844053
Y022081
X00869453
X00894853
X00791001Y02338037
X00674Y02338037
X00621947Y022081
X00596547
X00571147
Y021319
X00596547
X00621947
X00394853
X00369453
X00344053
Y022081
X00369453
X00394853
X00291Y02338037
Y02439637
X00674Y02439637
X00791001Y02439637
X01174001
X01291Y02439637
X01674
X01791001Y02439637
X02174001
X02291Y02439637
X02674
X02791001Y02439637
X03174001
X03291Y02439637
X03674001
X03791Y02439637
X04174001
T04
X0141225Y0185225
X0143725
Y0187765
X0141225
Y0190305
X0143725
Y0192825
X0141225
Y0195365
X0143725
Y0197905
X0141225
X01693Y01936
Y01911
X017184
Y01936
X017438
Y01911
T05
X04116Y022838
X0405Y0228159
X04001
X03952
X03903
X0385Y022838
X03616
X0355Y0228159
X03501
X03452
X03403
X0335Y022838
X03116
X0305Y0228159
X03001
X02952
X02903
X0285Y022838
X02616
X0255Y02281591
X02501
X02452
X02403
X0235Y022838
X02116
X0205Y0228159
X02001
X01952
X01903
X0185Y022838
X01616
X0155Y02281591
X01501
X01452
X01403
X0135Y022838
X01116
X0105Y02281591
X01001
X00952
X00903
X0085Y022838
X00616
X0055Y02281591
X00501Y0228159
X00452Y0228159
X00403
X0035Y022838
Y024362
X00403Y0243399
X00452
X00501Y0243399
X0055Y02433991
X00616Y024362
X0085
X00903Y02433991
X00952
X01001
X0105
X01116Y024362
X0135
X01403Y0243399
X01452
X01501
X0155
X01616Y024362
X0185
X01903Y0243399
X01952
X02001
X0205
X02116Y024362
X0235
X02403Y02433991
X02452
X02501
X0255
X02616Y024362
X0285
X02903Y0243399
X02952
X03001
X0305
X03116Y024362
X0335
X03403Y0243399
X03452
X03501
X0355
X03616Y024362
X0385
X03903Y0243399
X03952
X04001
X0405
X04116Y024362
T06
X0189205Y01795031
X0191745
X0194285
X0196825
Y01820431
X0194285
X0191745
X0189205
X0199365
Y01795031
X0219875Y019292
Y019546
X0222415
Y0198
X0219875
X0222415Y019292
Y020054
X0219875
Y020308
X0222415
T07
X010784Y01776801
X0118Y01878401
X012816Y01776801
X0258Y01776801
X026816Y01878401
X027832Y01776801
X035884Y017768
X0369Y018784
X037916Y017768
T08
X00609Y018045
X00736
T09
X00475Y0255
X003988Y026516
X005512
X008988Y026516
X010512
X00975Y0255
X01475Y0255
X013988Y026516
X015512
X018988
X01975Y0255
X020512Y026516
X023988Y026516
X025512
X02475Y0255
X02975Y0255
X028988Y026516
X030512
X033988
X035512
X03475Y0255
X038988Y026516
X040512
X03975Y0255
T10
X006Y026
Y0265
X011Y0265
Y026
X016Y026
Y0265
X021Y0265
Y026
X026Y026
Y0265
X031Y0265
Y026
X036Y026
Y0265
X0367Y0275
X0372
X041Y0265
Y026
X02725Y0278
X02675
X01225
X01175
X0071Y0292
X0066
T11
X00289Y01899
Y01955
X04174Y022928
X03792
X03674Y022928
X03292
X03174001Y022928
X02792
X02674Y022928
X02292
X02174001Y022928
X01792
X01674Y022928
X01292
X01174Y022928
X00792
X00674Y022928
X00292Y022928
X00428Y02474
X00525
X00928Y02474
X01025
X01428Y02474
X01525
X01928Y02474
X02025
X02428Y02474
X02525
X02928Y02474
X03025
X03428Y02474
X03525
X03928Y02474
X04025
X041Y0278
X0385Y0292
X036Y0278
X0335Y0292
X031Y0278
X0285Y0292
X026Y0278
X0235Y0292
X021Y0278
X0185Y0292
X016Y0278
X0135Y0292
X011Y0278
X0085Y0292
X006Y0278
X0035Y0292
T12
X03975Y029564
X03475Y029564
X02975
X02475Y029564
X01975Y029564
X01475
X00975Y029564
X00475Y029564
T13
X0025Y018
X042
Y0293
X0025
M30
