G04*
G04 #@! TF.GenerationSoftware,Altium Limited,Altium Designer,19.1.9 (167)*
G04*
G04 Layer_Physical_Order=2*
G04 Layer_Color=16711680*
%FSLAX44Y44*%
%MOMM*%
G71*
G01*
G75*
%ADD74C,0.5000*%
%ADD78C,1.0000*%
%ADD80C,3.5001*%
%ADD81C,1.5500*%
%ADD82R,1.5500X1.5500*%
%ADD83P,5.3240X8X292.5*%
%ADD84P,3.9930X8X292.5*%
%ADD85P,3.9930X8X202.5*%
%ADD86C,2.5000*%
%ADD87P,2.6620X8X22.5*%
%ADD88P,2.0231X8X292.5*%
%ADD89P,2.2893X8X112.5*%
%ADD90C,1.5240*%
%ADD91R,1.5500X1.5500*%
%ADD92P,3.5741X8X292.5*%
%ADD93C,3.8100*%
%ADD94C,2.5400*%
%ADD95O,1.2700X2.5400*%
%ADD96C,1.1000*%
%ADD97R,1.1000X1.1000*%
%ADD98P,2.6620X8X292.5*%
%ADD99C,0.7000*%
G36*
X3890000Y2939907D02*
Y2899907D01*
X3870185Y2880093D01*
X3590000Y2880093D01*
X3590000Y2880093D01*
X3587643Y2879907D01*
X3112358D01*
X3110001Y2880093D01*
X3110000Y2880093D01*
X3110000D01*
X2090000Y2880092D01*
X2087644Y2879907D01*
X1612358D01*
X1610000Y2880093D01*
X1610000Y2880093D01*
X1610000D01*
X590000Y2880093D01*
X587643Y2879907D01*
X330000D01*
X310000Y2899907D01*
Y2939907D01*
X330000Y2959907D01*
X3870000D01*
X3890000Y2939907D01*
D02*
G37*
G36*
X4140000Y2820000D02*
X4140000Y2740000D01*
X4110086Y2710086D01*
X4110000Y2710093D01*
X4110000Y2710093D01*
X3890000D01*
X3890000Y2710093D01*
X3888822Y2710000D01*
X3611179Y2710000D01*
X3610000Y2710093D01*
X3610000Y2710093D01*
X3589907D01*
X3560000Y2740000D01*
X3560000Y2820000D01*
X3590000Y2850000D01*
X4110000Y2850000D01*
X4140000Y2820000D01*
D02*
G37*
G36*
X3140000Y2820000D02*
X3140000Y2740000D01*
X3110086Y2710086D01*
X3110000Y2710093D01*
X3110000Y2710093D01*
X2890000D01*
X2890000Y2710093D01*
X2888821Y2710000D01*
X2611179Y2710000D01*
X2610000Y2710093D01*
X2610000Y2710093D01*
X2390000D01*
X2390000Y2710093D01*
X2388820Y2710000D01*
X2111180Y2710000D01*
X2110000Y2710093D01*
X2110000Y2710093D01*
X2089907D01*
X2060000Y2740000D01*
X2060000Y2820000D01*
X2090000Y2850000D01*
X3110000Y2850000D01*
X3140000Y2820000D01*
D02*
G37*
G36*
X1640000D02*
X1640000Y2740000D01*
X1610086Y2710086D01*
X1610000Y2710093D01*
X1610000Y2710093D01*
X1390000D01*
X1390000Y2710093D01*
X1388821Y2710000D01*
X1111179Y2710000D01*
X1110000Y2710093D01*
X1110000Y2710093D01*
X890000D01*
X890000Y2710093D01*
X888820Y2710000D01*
X611180Y2710000D01*
X610000Y2710093D01*
X610000Y2710093D01*
X589907D01*
X560000Y2740000D01*
X560000Y2820000D01*
X590000Y2850000D01*
X1610000Y2850000D01*
X1640000Y2820000D01*
D02*
G37*
G36*
X4130000Y2660000D02*
Y2590000D01*
X4110000Y2570000D01*
X4090000D01*
X4050000Y2580000D01*
X4033410Y2584147D01*
X4021279Y2596279D01*
X4017688Y2599346D01*
X4013662Y2601813D01*
X4009299Y2603620D01*
X4004708Y2604722D01*
X4000000Y2605093D01*
X4000000Y2605093D01*
X3950000D01*
X3949718Y2605070D01*
X3890000Y2620000D01*
X3870000Y2640000D01*
X3870000Y2660000D01*
X3890000Y2680000D01*
X4110000D01*
X4130000Y2660000D01*
D02*
G37*
G36*
X3630000Y2660000D02*
Y2590000D01*
X3610000Y2570000D01*
X3590000D01*
X3550000Y2580000D01*
X3533410Y2584147D01*
X3521279Y2596279D01*
X3517688Y2599346D01*
X3513662Y2601813D01*
X3509299Y2603620D01*
X3504708Y2604722D01*
X3500000Y2605093D01*
X3500000Y2605093D01*
X3450000D01*
X3449718Y2605070D01*
X3390000Y2620000D01*
X3370000Y2640000D01*
X3370000Y2660000D01*
X3390000Y2680000D01*
X3610000D01*
X3630000Y2660000D01*
D02*
G37*
G36*
X3130000D02*
Y2590000D01*
X3110000Y2570000D01*
X3090000D01*
X3050000Y2580000D01*
X3033410Y2584147D01*
X3021279Y2596279D01*
X3017688Y2599346D01*
X3013662Y2601813D01*
X3009299Y2603620D01*
X3004708Y2604722D01*
X3000000Y2605093D01*
X3000000Y2605093D01*
X2950000D01*
X2949718Y2605070D01*
X2890000Y2620000D01*
X2870000Y2640000D01*
X2870000Y2660000D01*
X2890000Y2680000D01*
X3110000D01*
X3130000Y2660000D01*
D02*
G37*
G36*
X2630000D02*
Y2590000D01*
X2610000Y2570000D01*
X2590000D01*
X2550000Y2580000D01*
X2533410Y2584147D01*
X2521279Y2596279D01*
X2517688Y2599346D01*
X2513662Y2601813D01*
X2509299Y2603620D01*
X2504707Y2604722D01*
X2500000Y2605093D01*
X2500000Y2605093D01*
X2450000D01*
X2449718Y2605070D01*
X2390000Y2620000D01*
X2370000Y2640000D01*
X2370000Y2660000D01*
X2390000Y2680000D01*
X2610000D01*
X2630000Y2660000D01*
D02*
G37*
G36*
X2130000Y2660000D02*
Y2590000D01*
X2110000Y2570000D01*
X2090000D01*
X2050000Y2580000D01*
X2033410Y2584147D01*
X2021279Y2596279D01*
X2017688Y2599346D01*
X2013662Y2601813D01*
X2009299Y2603620D01*
X2004707Y2604722D01*
X2000000Y2605093D01*
X2000000Y2605093D01*
X1950000D01*
X1949718Y2605070D01*
X1890000Y2620000D01*
X1870000Y2640000D01*
X1870000Y2660000D01*
X1890000Y2680000D01*
X2110000D01*
X2130000Y2660000D01*
D02*
G37*
G36*
X1630000Y2660000D02*
Y2590000D01*
X1610000Y2570000D01*
X1590000D01*
X1550000Y2580000D01*
X1533410Y2584147D01*
X1521279Y2596279D01*
X1517688Y2599346D01*
X1513662Y2601813D01*
X1509299Y2603620D01*
X1504707Y2604722D01*
X1500000Y2605093D01*
X1500000Y2605093D01*
X1450000D01*
X1449718Y2605070D01*
X1390000Y2620000D01*
X1370000Y2640000D01*
X1370000Y2660000D01*
X1390000Y2680000D01*
X1610000D01*
X1630000Y2660000D01*
D02*
G37*
G36*
X1130000D02*
Y2590000D01*
X1110000Y2570000D01*
X1090000D01*
X1050000Y2580000D01*
X1033410Y2584147D01*
X1021279Y2596279D01*
X1017688Y2599346D01*
X1013662Y2601813D01*
X1009299Y2603620D01*
X1004707Y2604722D01*
X1000000Y2605093D01*
X1000000Y2605093D01*
X950000D01*
X949718Y2605070D01*
X890000Y2620000D01*
X870000Y2640000D01*
X870000Y2660000D01*
X890000Y2680000D01*
X1110000D01*
X1130000Y2660000D01*
D02*
G37*
G36*
X630000D02*
Y2590000D01*
X610000Y2570000D01*
X590000D01*
X550000Y2580000D01*
X533410Y2584147D01*
X521279Y2596279D01*
X517688Y2599346D01*
X513662Y2601813D01*
X509299Y2603620D01*
X504707Y2604722D01*
X500000Y2605093D01*
X500000Y2605093D01*
X450000D01*
X449718Y2605070D01*
X390000Y2620000D01*
X370000Y2640000D01*
X370000Y2660000D01*
X390000Y2680000D01*
X610000D01*
X630000Y2660000D01*
D02*
G37*
G36*
X4067500Y2507500D02*
Y2425000D01*
X4057500Y2415000D01*
X3895000Y2415000D01*
X3892297Y2417703D01*
Y2457348D01*
X3885000Y2464645D01*
X3885000Y2510000D01*
X3950000Y2575000D01*
X4000000D01*
X4067500Y2507500D01*
D02*
G37*
G36*
X3567500D02*
Y2425000D01*
X3557500Y2415000D01*
X3395000Y2415000D01*
X3392297Y2417703D01*
Y2457348D01*
X3385000Y2464645D01*
X3385000Y2510000D01*
X3450000Y2575000D01*
X3500000D01*
X3567500Y2507500D01*
D02*
G37*
G36*
X3067500D02*
Y2425000D01*
X3057500Y2415000D01*
X2895000Y2415000D01*
X2892297Y2417703D01*
Y2457348D01*
X2885000Y2464645D01*
X2885000Y2510000D01*
X2950000Y2575000D01*
X3000000D01*
X3067500Y2507500D01*
D02*
G37*
G36*
X2567500D02*
Y2425000D01*
X2557500Y2415000D01*
X2395000Y2415000D01*
X2392297Y2417703D01*
Y2457348D01*
X2385000Y2464645D01*
X2385000Y2510000D01*
X2450000Y2575000D01*
X2500000D01*
X2567500Y2507500D01*
D02*
G37*
G36*
X2067500D02*
Y2425000D01*
X2057500Y2415000D01*
X1895000Y2415000D01*
X1892297Y2417703D01*
Y2457348D01*
X1885000Y2464645D01*
X1885000Y2510000D01*
X1950000Y2575000D01*
X2000000D01*
X2067500Y2507500D01*
D02*
G37*
G36*
X1567500D02*
Y2425000D01*
X1557500Y2415000D01*
X1395000Y2415000D01*
X1392297Y2417703D01*
Y2457348D01*
X1385000Y2464645D01*
X1385000Y2510000D01*
X1450000Y2575000D01*
X1500000D01*
X1567500Y2507500D01*
D02*
G37*
G36*
X1067500D02*
Y2425000D01*
X1057500Y2415000D01*
X895000Y2415000D01*
X892297Y2417703D01*
Y2457348D01*
X885000Y2464645D01*
X885000Y2510000D01*
X950000Y2575000D01*
X1000000D01*
X1067500Y2507500D01*
D02*
G37*
G36*
X567500D02*
Y2425000D01*
X557500Y2415000D01*
X395000Y2415000D01*
X392297Y2417703D01*
Y2457348D01*
X385000Y2464645D01*
X385000Y2510000D01*
X450000Y2575000D01*
X500000D01*
X567500Y2507500D01*
D02*
G37*
G36*
X3040819Y2111522D02*
X2967132Y2037836D01*
X2233954D01*
X2233143Y2039793D01*
X2224150Y2043518D01*
X2224150Y2043518D01*
X2210500Y2042550D01*
X2202681D01*
X2195325Y2044175D01*
X2159525Y2079975D01*
X2154550Y2082036D01*
X2154550Y2082036D01*
X611664D01*
X590635Y2103064D01*
X584170Y2111205D01*
X591503Y2130000D01*
X593881D01*
X611391Y2123989D01*
X611391Y2123989D01*
X614025Y2117628D01*
X614025D01*
X621947Y2114347D01*
X629868Y2117628D01*
X629868D01*
X632503Y2123989D01*
X632503D01*
X632503Y2123989D01*
X650013Y2130000D01*
X815987D01*
X833497Y2123989D01*
X833497Y2123988D01*
X836132Y2117628D01*
X836132D01*
X844053Y2114347D01*
X851975Y2117628D01*
X851975D01*
X854609Y2123988D01*
X854609D01*
X854609Y2123989D01*
X869453Y2129085D01*
X884297Y2123989D01*
X884297Y2123988D01*
X886932Y2117628D01*
X886932D01*
X894853Y2114347D01*
X902775Y2117628D01*
X902775D01*
X905409Y2123988D01*
X905409D01*
X905409Y2123989D01*
X922919Y2130000D01*
X1043081D01*
X1060591Y2123989D01*
X1060591Y2123988D01*
X1063225Y2117628D01*
X1063225D01*
X1071147Y2114347D01*
X1079068Y2117628D01*
X1079068D01*
X1081703Y2123988D01*
X1081703D01*
X1081703Y2123989D01*
X1096547Y2129085D01*
X1111391Y2123989D01*
X1111391Y2123988D01*
X1114025Y2117628D01*
X1114025D01*
X1121947Y2114347D01*
X1129868Y2117628D01*
X1129868D01*
X1132503Y2123988D01*
X1132503D01*
X1132503Y2123989D01*
X1150013Y2130000D01*
X1315987D01*
X1333497Y2123989D01*
X1333497Y2123988D01*
X1336131Y2117628D01*
X1336132D01*
X1344053Y2114347D01*
X1351975Y2117628D01*
X1351975D01*
X1354609Y2123988D01*
X1354609D01*
X1354609Y2123989D01*
X1369453Y2129085D01*
X1384297Y2123989D01*
X1384297Y2123988D01*
X1386931Y2117628D01*
X1386932D01*
X1394853Y2114347D01*
X1402775Y2117628D01*
X1402775D01*
X1405409Y2123988D01*
X1405409D01*
X1405409Y2123989D01*
X1422919Y2130000D01*
X1543081D01*
X1560591Y2123989D01*
X1560591Y2123988D01*
X1563225Y2117628D01*
X1563225D01*
X1571147Y2114347D01*
X1579068Y2117628D01*
X1579068D01*
X1581703Y2123988D01*
X1581703D01*
X1581703Y2123989D01*
X1596547Y2129085D01*
X1611391Y2123989D01*
X1611391Y2123988D01*
X1614025Y2117628D01*
X1614025D01*
X1621947Y2114347D01*
X1629868Y2117628D01*
X1629868D01*
X1632503Y2123988D01*
X1632503D01*
X1632503Y2123989D01*
X1650013Y2130000D01*
X1815987D01*
X1833497Y2123989D01*
X1833497Y2123988D01*
X1836131Y2117628D01*
X1836132D01*
X1844053Y2114347D01*
X1851975Y2117628D01*
X1851975D01*
X1854609Y2123988D01*
X1854609D01*
X1854609Y2123989D01*
X1869453Y2129085D01*
X1884297Y2123989D01*
X1884297Y2123988D01*
X1886931Y2117628D01*
X1886932D01*
X1894853Y2114347D01*
X1902775Y2117628D01*
X1902775D01*
X1905409Y2123988D01*
X1905409D01*
X1905409Y2123989D01*
X1922919Y2130000D01*
X2043081D01*
X2060591Y2123989D01*
X2060591Y2123988D01*
X2063225Y2117628D01*
X2063225D01*
X2071147Y2114347D01*
X2079068Y2117628D01*
X2079068D01*
X2081703Y2123988D01*
X2081703D01*
X2081703Y2123989D01*
X2096547Y2129085D01*
X2111391Y2123989D01*
X2111391Y2123988D01*
X2114025Y2117628D01*
X2114025D01*
X2121947Y2114347D01*
X2129868Y2117628D01*
X2129868D01*
X2132503Y2123988D01*
X2132503D01*
X2132503Y2123989D01*
X2150013Y2130000D01*
X2315987D01*
X2333497Y2123989D01*
X2333497Y2123988D01*
X2336131Y2117628D01*
X2336132D01*
X2344053Y2114347D01*
X2351975Y2117628D01*
X2351975D01*
X2354609Y2123988D01*
X2354609D01*
X2354609Y2123989D01*
X2369453Y2129085D01*
X2384297Y2123989D01*
X2384297Y2123988D01*
X2386931Y2117628D01*
X2386932D01*
X2394853Y2114347D01*
X2402775Y2117628D01*
X2402775D01*
X2405409Y2123988D01*
X2405409D01*
X2405409Y2123989D01*
X2422919Y2130000D01*
X2543081D01*
X2560591Y2123989D01*
X2560591Y2123988D01*
X2563225Y2117628D01*
X2563225D01*
X2571147Y2114347D01*
X2579068Y2117628D01*
X2579068D01*
X2581703Y2123988D01*
X2581703D01*
X2581703Y2123989D01*
X2596547Y2129085D01*
X2611391Y2123989D01*
X2611391Y2123988D01*
X2614025Y2117628D01*
X2614025D01*
X2621947Y2114347D01*
X2629868Y2117628D01*
X2629868D01*
X2632503Y2123988D01*
X2632503D01*
X2632503Y2123989D01*
X2650013Y2130000D01*
X2815987D01*
X2833497Y2123989D01*
X2833497Y2123989D01*
X2836132Y2117628D01*
X2836132D01*
X2844053Y2114347D01*
X2851974Y2117628D01*
X2851975D01*
X2854609Y2123989D01*
X2854609D01*
X2854609Y2123989D01*
X2869453Y2129085D01*
X2884297Y2123989D01*
X2884297Y2123989D01*
X2886931Y2117628D01*
X2886931D01*
X2894853Y2114347D01*
X2902775Y2117628D01*
X2902775D01*
X2905409Y2123989D01*
X2905409D01*
X2905409Y2123989D01*
X2922919Y2130000D01*
X3033166D01*
X3040819Y2111522D01*
D02*
G37*
G36*
X4250000Y1750000D02*
X3817529D01*
X3807897Y1768652D01*
X3807897Y1770000D01*
Y1784949D01*
X3799749Y1793097D01*
X3783452D01*
X3775303Y1784949D01*
Y1770000D01*
X3775303Y1768652D01*
X3765671Y1750000D01*
X3614329D01*
X3604697Y1768652D01*
X3604697Y1770000D01*
Y1784949D01*
X3596548Y1793097D01*
X3580252D01*
X3572103Y1784949D01*
Y1770000D01*
X3572103Y1768652D01*
X3562471Y1750000D01*
X2809129D01*
X2799496Y1768652D01*
X2799496Y1770000D01*
Y1784949D01*
X2791348Y1793097D01*
X2775051D01*
X2766903Y1784949D01*
Y1770000D01*
X2766903Y1768652D01*
X2757271Y1750000D01*
X2605929D01*
X2596296Y1768652D01*
X2596296Y1770000D01*
Y1784949D01*
X2588148Y1793097D01*
X2571852D01*
X2563703Y1784949D01*
Y1770000D01*
X2563703Y1768652D01*
X2554071Y1750000D01*
X1307529D01*
X1297897Y1768652D01*
X1297897Y1770000D01*
Y1784949D01*
X1289748Y1793097D01*
X1273452D01*
X1265303Y1784949D01*
Y1770000D01*
X1265303Y1768652D01*
X1255671Y1750000D01*
X1104329D01*
X1094697Y1768652D01*
X1094697Y1770000D01*
Y1784949D01*
X1086548Y1793097D01*
X1070252D01*
X1062103Y1784949D01*
Y1770000D01*
X1062103Y1768652D01*
X1052471Y1750000D01*
X200000D01*
Y2130000D01*
X315987D01*
X333497Y2123989D01*
X333497Y2123989D01*
X336132Y2117628D01*
X336132D01*
X344053Y2114347D01*
X351975Y2117628D01*
X351975D01*
X354609Y2123989D01*
X354609D01*
X354609Y2123989D01*
X369453Y2129085D01*
X384297Y2123989D01*
X384297Y2123989D01*
X386931Y2117628D01*
X386932D01*
X394853Y2114347D01*
X402775Y2117628D01*
X402775D01*
X405409Y2123989D01*
X405409D01*
X405409Y2123989D01*
X422919Y2130000D01*
X557826D01*
X564111Y2112603D01*
X566172Y2107628D01*
X603775Y2070025D01*
X603775Y2070025D01*
X608750Y2067964D01*
X608750Y2067964D01*
X1061901D01*
X1063882Y2065000D01*
X1066260Y2059260D01*
X1069695Y2057355D01*
X1071260Y2055791D01*
X1071260Y2055791D01*
X1076234Y2053730D01*
X1076235Y2053730D01*
X1076235Y2053730D01*
X1078743Y2053730D01*
X1569901D01*
X1571882Y2050765D01*
X1574260Y2045025D01*
X1576873Y2043943D01*
X1580790Y2040025D01*
X1580790Y2040025D01*
X1585765Y2037964D01*
X2130836D01*
X2185375Y1983425D01*
X2186097Y1980157D01*
X2186032Y1980000D01*
X2186032Y1980000D01*
X2188916Y1967300D01*
X2186032Y1954600D01*
X2186032Y1954600D01*
X2186032Y1954600D01*
X2188916Y1941900D01*
X2186032Y1929200D01*
X2186032Y1929200D01*
X2189757Y1920207D01*
X2190944Y1919715D01*
X2191891Y1919066D01*
X2196688Y1915775D01*
X2206518Y1909032D01*
X2207622Y1907928D01*
X2234486Y1881064D01*
X2243025Y1872525D01*
X2243025Y1872525D01*
X2248000Y1870464D01*
X2248000Y1870464D01*
X2287465D01*
X2296637Y1870464D01*
X2299250Y1869382D01*
X2304990Y1871760D01*
X2307368Y1877500D01*
X2304990Y1883240D01*
X2299250Y1885618D01*
X2296637Y1884536D01*
X2287396Y1884536D01*
X2260482D01*
X2250914Y1884536D01*
X2243888Y1891562D01*
X2219697Y1915752D01*
X2210284Y1925166D01*
X2210774Y1927269D01*
X2211468Y1929200D01*
X2211468Y1929200D01*
X2211283Y1930017D01*
X2210781Y1932227D01*
X2208585Y1941900D01*
X2211468Y1954600D01*
X2211468Y1954600D01*
X2224150Y1967282D01*
X2233143Y1971007D01*
X2233954Y1972964D01*
X3919247D01*
X3919247Y1972964D01*
X3924222Y1975025D01*
X4065771Y2116574D01*
X4071147Y2114347D01*
X4079068Y2117628D01*
X4082350Y2125550D01*
X4086800Y2130000D01*
X4093881D01*
X4111391Y2123989D01*
X4111391Y2123988D01*
X4114025Y2117628D01*
X4114025D01*
X4121947Y2114347D01*
X4129868Y2117628D01*
X4129868D01*
X4132503Y2123988D01*
X4132503D01*
X4132503Y2123989D01*
X4150013Y2130000D01*
X4250000D01*
Y1750000D01*
D02*
G37*
G36*
X4039297Y2110000D02*
X3916333Y1987036D01*
X3464517D01*
X3456232Y2007036D01*
X3565771Y2116574D01*
X3571147Y2114347D01*
X3579068Y2117628D01*
X3582350Y2125550D01*
X3586800Y2130000D01*
X3593881D01*
X3611391Y2123989D01*
X3611391Y2123988D01*
X3614025Y2117628D01*
X3614025D01*
X3621947Y2114347D01*
X3629868Y2117628D01*
X3629868D01*
X3632503Y2123988D01*
X3632503D01*
X3632503Y2123989D01*
X3650013Y2130000D01*
X3815987D01*
X3833497Y2123989D01*
X3833497Y2123988D01*
X3836132Y2117628D01*
X3836132D01*
X3844053Y2114347D01*
X3851974Y2117628D01*
X3851975D01*
X3854609Y2123988D01*
X3854609D01*
X3854609Y2123989D01*
X3869453Y2129085D01*
X3884297Y2123989D01*
X3884297Y2123988D01*
X3886931Y2117628D01*
X3886931D01*
X3894853Y2114347D01*
X3902775Y2117628D01*
X3902775D01*
X3905409Y2123988D01*
X3905409D01*
X3905409Y2123989D01*
X3922919Y2130000D01*
X4031013D01*
X4039297Y2110000D01*
D02*
G37*
G36*
X3540820Y2111522D02*
X3441733Y2012435D01*
X2989916D01*
X2981632Y2032435D01*
X3065771Y2116574D01*
X3071147Y2114347D01*
X3079068Y2117628D01*
X3082350Y2125550D01*
X3086800Y2130000D01*
X3093881D01*
X3111391Y2123989D01*
X3111391Y2123989D01*
X3114025Y2117628D01*
X3114025D01*
X3121947Y2114347D01*
X3129868Y2117628D01*
X3129868D01*
X3132503Y2123989D01*
X3132503D01*
X3132503Y2123989D01*
X3150013Y2130000D01*
X3315987D01*
X3333497Y2123989D01*
X3333497Y2123988D01*
X3336132Y2117628D01*
X3336132D01*
X3344053Y2114347D01*
X3351974Y2117628D01*
X3351975D01*
X3354609Y2123988D01*
X3354609D01*
X3354609Y2123989D01*
X3369453Y2129085D01*
X3384297Y2123989D01*
X3384297Y2123988D01*
X3386931Y2117628D01*
X3386931D01*
X3394853Y2114347D01*
X3402775Y2117628D01*
X3402775D01*
X3405409Y2123988D01*
X3405409D01*
X3405409Y2123989D01*
X3422919Y2130000D01*
X3533166D01*
X3540820Y2111522D01*
D02*
G37*
%LPC*%
G36*
X730500Y1978500D02*
X711500D01*
Y1959500D01*
X730500D01*
Y1978500D01*
D02*
G37*
G36*
X369500Y1964500D02*
X350500D01*
Y1945500D01*
X369500D01*
Y1964500D01*
D02*
G37*
G36*
X303297Y1983593D02*
X274703D01*
X260407Y1969297D01*
Y1940703D01*
X274703Y1926407D01*
X303297D01*
X317593Y1940703D01*
Y1969297D01*
X303297Y1983593D01*
D02*
G37*
G36*
X1399686Y2011536D02*
X1394711Y2009475D01*
Y2009475D01*
X1376525Y1991289D01*
X1374464Y1986314D01*
X1374465Y1986314D01*
Y1956186D01*
X1374464Y1915484D01*
Y1908400D01*
X1374464Y1908399D01*
X1376525Y1903425D01*
X1381311Y1898639D01*
X1387112Y1892838D01*
X1394819Y1885131D01*
X1398974Y1880976D01*
X1399691Y1877732D01*
X1399673Y1877650D01*
X1399673Y1877650D01*
X1400154Y1874547D01*
X1401643Y1864950D01*
X1399673Y1852250D01*
X1401211Y1848535D01*
X1394763Y1834465D01*
X1392046Y1828536D01*
X1368434Y1828536D01*
X783217D01*
X765003Y1828536D01*
X755214Y1828536D01*
Y1828536D01*
X755214D01*
Y1828536D01*
X735974Y1828535D01*
X716786Y1828536D01*
X702945D01*
X692217D01*
X683101Y1828536D01*
X678126Y1826475D01*
X675263Y1823613D01*
X668456Y1816805D01*
X663186Y1811536D01*
X654080Y1811536D01*
X631749D01*
X624143D01*
X621622Y1815309D01*
X620896Y1816396D01*
X620896Y1816396D01*
X620057Y1816956D01*
X615438Y1820043D01*
X609000Y1821323D01*
X609000Y1821323D01*
X609000Y1821323D01*
X602562Y1820043D01*
X602562Y1820043D01*
X602347Y1819899D01*
X597104Y1816396D01*
X594184Y1812025D01*
X593457Y1810938D01*
X593407Y1810684D01*
X592211Y1804670D01*
X592177Y1804500D01*
X592211Y1804330D01*
X593457Y1798062D01*
X593457Y1798062D01*
X596378Y1793691D01*
X597104Y1792604D01*
X597104D01*
X602347Y1789101D01*
X602562Y1788957D01*
X602562Y1788957D01*
X609000Y1787677D01*
X609000Y1787677D01*
X610282Y1787932D01*
X615438Y1788957D01*
X615438Y1788957D01*
X620896Y1792604D01*
Y1792604D01*
X621622Y1793690D01*
X624143Y1797464D01*
X631733D01*
X655240D01*
X666100D01*
X666100Y1797464D01*
X671075Y1799525D01*
X680745Y1809195D01*
X686015Y1814464D01*
X688394D01*
X700767D01*
X704659Y1812358D01*
X711721Y1808535D01*
X723549Y1793435D01*
X724104Y1792604D01*
X724104Y1792604D01*
X729562Y1788957D01*
X729562Y1788957D01*
X736000Y1787677D01*
X737282Y1787932D01*
X737282D01*
X742438Y1788957D01*
X742438Y1788957D01*
X747896Y1792604D01*
Y1792604D01*
X748451Y1793435D01*
X760279Y1808535D01*
Y1808535D01*
X760279Y1808535D01*
Y1808535D01*
X771233Y1814464D01*
X794641Y1814464D01*
X1379897D01*
X1399464D01*
X1404047Y1814464D01*
X1404047Y1814464D01*
X1406217Y1814464D01*
X1449401D01*
X1454642D01*
X1454642Y1814464D01*
X1459617Y1816525D01*
X1466447Y1823355D01*
X1478201Y1835109D01*
X1505975Y1862883D01*
X1505975Y1862883D01*
X1506297Y1863661D01*
X1518529Y1875893D01*
X1520122Y1877486D01*
X1521260Y1877260D01*
X1527000Y1874882D01*
X1527000Y1874882D01*
X1529613Y1875964D01*
X1578619D01*
X1581086D01*
X1584269Y1872782D01*
X1589927Y1867123D01*
X1591010Y1864510D01*
X1596750Y1862132D01*
X1602490Y1864510D01*
X1604868Y1870250D01*
X1606905Y1881394D01*
X1613740Y1889760D01*
X1616118Y1895500D01*
X1630094Y1906631D01*
X1648760Y1908010D01*
X1654500Y1905632D01*
X1660240Y1908010D01*
X1661945Y1912126D01*
X1681095Y1909376D01*
X1681095Y1909376D01*
X1684107Y1902106D01*
X1693000Y1898423D01*
X1701894Y1902106D01*
X1709507D01*
X1718400Y1898423D01*
X1718400Y1898423D01*
X1727294Y1902106D01*
X1730978Y1911000D01*
X1730978Y1911000D01*
X1730688Y1912266D01*
X1728119Y1923500D01*
X1730978Y1936000D01*
X1730978Y1936000D01*
X1730978Y1936000D01*
X1727294Y1944894D01*
X1718400Y1948578D01*
X1716733Y1947887D01*
X1709839Y1945031D01*
X1705913Y1944894D01*
X1701894D01*
X1693000Y1948578D01*
X1684107Y1944894D01*
X1683337Y1943036D01*
X1597664D01*
X1567073Y1973627D01*
X1565990Y1976240D01*
X1563127Y1983364D01*
X1560290Y1990422D01*
X1560290Y1990422D01*
X1557912Y1996163D01*
X1552172Y1998540D01*
X1546432Y1996163D01*
X1530169Y2006031D01*
X1526725Y2009475D01*
X1521750Y2011536D01*
X1521750Y2011536D01*
X1399686D01*
X1399686Y2011536D01*
D02*
G37*
G36*
X730250Y1884250D02*
X711250D01*
Y1865250D01*
X730250D01*
Y1884250D01*
D02*
G37*
G36*
X1188148Y1894697D02*
X1171852D01*
X1163703Y1886549D01*
Y1870252D01*
X1171852Y1862104D01*
X1188148D01*
X1196297Y1870252D01*
Y1886549D01*
X1188148Y1894697D01*
D02*
G37*
G36*
X2689748Y1894697D02*
X2673452D01*
X2665303Y1886549D01*
Y1870252D01*
X2673452Y1862104D01*
X2689748D01*
X2697896Y1870252D01*
Y1886549D01*
X2689748Y1894697D01*
D02*
G37*
G36*
X3698148Y1894697D02*
X3681852D01*
X3673703Y1886549D01*
Y1870252D01*
X3681852Y1862104D01*
X3698148D01*
X3706297Y1870252D01*
Y1886549D01*
X3698148Y1894697D01*
D02*
G37*
G36*
X1892050Y1833149D02*
X1883057Y1829424D01*
X1879332Y1820431D01*
X1879332Y1820431D01*
X1879371Y1819697D01*
X1879786Y1811762D01*
X1880300Y1801953D01*
X1880300Y1790932D01*
Y1783281D01*
X1887951D01*
X1898973Y1783281D01*
X1917450Y1782313D01*
X1917450Y1782313D01*
X1930150Y1785196D01*
X1942850Y1782313D01*
X1942850Y1782313D01*
X1942850Y1782313D01*
X1955550Y1785196D01*
X1968250Y1782313D01*
X1968250Y1782313D01*
X1968250Y1782313D01*
X1980950Y1785196D01*
X1993650Y1782313D01*
X1993650Y1782313D01*
X2002643Y1786038D01*
X2006368Y1795031D01*
X2002643Y1804024D01*
X1993650Y1807749D01*
X1993650Y1807749D01*
X1992751Y1807545D01*
X1980950Y1804866D01*
X1968250Y1807749D01*
X1968250Y1807749D01*
X1968250Y1807749D01*
X1955550Y1804866D01*
X1942850Y1807749D01*
X1942850Y1807749D01*
X1942850Y1807749D01*
X1930150Y1804866D01*
X1917450Y1807749D01*
X1917450Y1807749D01*
X1912443Y1812756D01*
X1901535Y1828237D01*
X1901043Y1829424D01*
X1892050Y1833149D01*
D02*
G37*
G36*
X4200000Y1821922D02*
X4191611Y1820253D01*
X4184499Y1815501D01*
X4179747Y1808389D01*
X4178078Y1800000D01*
X4179747Y1791611D01*
X4184499Y1784499D01*
X4191611Y1779747D01*
X4200000Y1778078D01*
X4208389Y1779747D01*
X4215501Y1784499D01*
X4220253Y1791611D01*
X4221922Y1800000D01*
X4220253Y1808389D01*
X4215501Y1815501D01*
X4208389Y1820253D01*
X4200000Y1821922D01*
D02*
G37*
G36*
X250000D02*
X241611Y1820253D01*
X234499Y1815501D01*
X229747Y1808389D01*
X228078Y1800000D01*
X229747Y1791611D01*
X234499Y1784499D01*
X241611Y1779747D01*
X250000Y1778078D01*
X258389Y1779747D01*
X265501Y1784499D01*
X270253Y1791611D01*
X271922Y1800000D01*
X270253Y1808389D01*
X265501Y1815501D01*
X258389Y1820253D01*
X250000Y1821922D01*
D02*
G37*
%LPD*%
G36*
X1539850Y1932200D02*
X1539452Y1926727D01*
X1537011Y1918437D01*
X1533476Y1910756D01*
X1533251Y1910515D01*
X1496025Y1873289D01*
X1495703Y1872510D01*
X1484286Y1861093D01*
X1464285Y1869377D01*
Y1908250D01*
X1464286Y1908250D01*
X1462225Y1913225D01*
X1462225Y1913225D01*
X1450526Y1924924D01*
X1449804Y1928193D01*
X1449827Y1928250D01*
X1462804Y1946614D01*
X1525436D01*
X1539850Y1932200D01*
D02*
G37*
D74*
X1076235Y2060765D02*
X2143385D01*
X1072000Y2065000D02*
X1076235Y2060765D01*
X950516Y2280106D02*
X952000Y2281591D01*
X1942850Y1820431D02*
X1993650D01*
X475000Y2005000D02*
X517000D01*
X1490500Y1872500D02*
X1490750Y1872750D01*
X578000Y1944000D02*
X749000D01*
X1687601Y1992199D02*
X1743800Y1936000D01*
X1606600Y1992199D02*
X1687601D01*
X1518000Y1996500D02*
X1544000Y1970500D01*
X1403000Y1996500D02*
X1518000D01*
X1552172Y1963519D02*
Y1990422D01*
X1521750Y2004500D02*
X1536000Y1990250D01*
X1560250Y1970500D02*
X1594750Y1936000D01*
X1490500Y1901000D02*
X1490750Y1900750D01*
Y1872750D02*
Y1900750D01*
X1490500Y1872500D02*
X1491000Y1872000D01*
X1489000Y1901000D02*
X1490500D01*
X1470000Y1920000D02*
X1489000Y1901000D01*
X1501000Y1867858D02*
Y1868314D01*
X1454642Y1821500D02*
X1501000Y1867858D01*
X683100Y1821500D02*
X1454642D01*
X1501000Y1868314D02*
X1538436Y1905750D01*
X1457250Y1842750D02*
Y1908250D01*
X1437250Y1928250D02*
X1457250Y1908250D01*
X755250Y1899750D02*
X800000Y1855000D01*
X720750Y1899750D02*
X755250D01*
X749000Y1944000D02*
X790000Y1985000D01*
X566000Y1956000D02*
X578000Y1944000D01*
X369453Y2070047D02*
X434750Y2004750D01*
X369453Y2070047D02*
Y2131900D01*
X434750Y2004750D02*
X475500D01*
X360000Y1930000D02*
X434750Y2004750D01*
X360000Y1920000D02*
Y1930000D01*
X596547Y2125550D02*
X617097Y2105000D01*
X596547Y2125550D02*
Y2131900D01*
X617097Y2105000D02*
X848903D01*
X869453Y2125550D01*
X890003Y2105000D02*
X1075997D01*
X869453Y2125550D02*
X890003Y2105000D01*
X869453Y2125550D02*
Y2131900D01*
X1075997Y2105000D02*
X1096546Y2125550D01*
X1117096Y2105000D01*
X1096546Y2125550D02*
Y2131900D01*
X1117096Y2105000D02*
X1348903D01*
X1369453Y2125550D01*
X1390003Y2105000D02*
X1575997D01*
X1369453Y2125550D02*
X1390003Y2105000D01*
X1369453Y2125550D02*
Y2131900D01*
X1575997Y2105000D02*
X1596547Y2125550D01*
Y2131900D01*
X1617097Y2105000D02*
X1848903D01*
X1596547Y2125550D02*
X1617097Y2105000D01*
X1848903D02*
X1869453Y2125550D01*
Y2131900D01*
Y2125550D02*
X1890003Y2105000D01*
X2075997D01*
X2096547Y2125550D01*
X2117097Y2105000D02*
X2348904D01*
X2096547Y2125550D02*
X2117097Y2105000D01*
X2096547Y2125550D02*
Y2131900D01*
X2348904Y2105000D02*
X2369453Y2125550D01*
Y2131900D01*
X517000Y2005000D02*
X566000Y1956000D01*
X666100Y1804500D02*
X683100Y1821500D01*
X1538436Y1905750D02*
X1576000D01*
X1528000Y1831000D02*
X1610125D01*
X1510500Y1848500D02*
X1528000Y1831000D01*
X1584000Y1883000D02*
X1596750Y1870250D01*
X1527000Y1883000D02*
X1584000D01*
X1610063Y1831063D02*
X1610125Y1831000D01*
X1610063Y1831063D02*
Y1861937D01*
X1610000Y1862000D02*
X1610063Y1861937D01*
X1993650Y1820431D02*
X1993650Y1820431D01*
X1942850D02*
X1942850Y1820431D01*
X1917450Y1820431D02*
X1942850D01*
X1826881Y1911000D02*
X1917450Y1820431D01*
X1743800Y1911000D02*
X1826881D01*
X2133750Y2045000D02*
X2198750Y1980000D01*
X1585765Y2045000D02*
X2133750D01*
X1580000Y2050765D02*
X1585765Y2045000D01*
X2154550Y2075000D02*
X2198750Y2030800D01*
X608750Y2075000D02*
X2154550D01*
X571147Y2112603D02*
X608750Y2075000D01*
X2143385Y2060765D02*
X2198750Y2005400D01*
X2369453Y2125550D02*
X2390003Y2105000D01*
X2575997D01*
X2596547Y2125550D01*
Y2131900D01*
Y2125550D02*
X2617097Y2105000D01*
X2848903D01*
X2869453Y2125550D01*
Y2131900D01*
X3096547Y2125550D02*
X3117097Y2105000D01*
X3096547Y2125550D02*
Y2131900D01*
X3117097Y2105000D02*
X3348904D01*
X3369453Y2125550D01*
Y2131900D01*
X3850000Y2105000D02*
X3869453Y2124453D01*
X3617097Y2105000D02*
X3850000D01*
X3596547Y2125550D02*
X3617097Y2105000D01*
X3869453Y2124453D02*
Y2131900D01*
X3596547Y2125550D02*
Y2131900D01*
X3444647Y2005400D02*
X3571147Y2131900D01*
X2224150Y2005400D02*
X3444647D01*
X2970047Y2030800D02*
X3071147Y2131900D01*
X2224150Y2030800D02*
X2970047D01*
X2248000Y1877500D02*
X2299250D01*
X2198750Y1926750D02*
X2248000Y1877500D01*
X2198750Y1926750D02*
Y1929200D01*
X2224150Y1980000D02*
X3919247D01*
X4063324Y2124077D01*
X4067590D01*
X4071147Y2127634D01*
Y2131900D01*
X2571147Y2125550D02*
Y2131900D01*
X571147Y2112603D02*
Y2131900D01*
X609000Y1804500D02*
X666100D01*
X735750Y1804250D02*
X736000Y1804500D01*
X1552172Y1963519D02*
X1591811Y1923880D01*
X1597314Y1895750D02*
X1608000D01*
X1579314Y1913750D02*
X1597314Y1895750D01*
X1515450Y1979050D02*
X1572750Y1921750D01*
X1437250Y1979050D02*
X1515450D01*
X1572750Y1921750D02*
X1582627D01*
X1568250Y1913750D02*
X1579314D01*
X1528350Y1953650D02*
X1568250Y1913750D01*
X1437250Y1953650D02*
X1528350D01*
X1582627Y1921750D02*
X1588877Y1915500D01*
X1591811Y1923880D02*
X1706280D01*
X1588877Y1915500D02*
X1652750D01*
X1654500Y1913750D01*
X1706280Y1923880D02*
X1718400Y1936000D01*
X1594750D02*
X1693000D01*
X1381500Y1908399D02*
Y1986314D01*
Y1908399D02*
X1412250Y1877650D01*
X1381500Y1986314D02*
X1399686Y2004500D01*
X1521750D01*
X1389500Y1983000D02*
X1403000Y1996500D01*
X1389500Y1951000D02*
Y1983000D01*
Y1951000D02*
X1412250Y1928250D01*
D78*
X3844053Y2208100D02*
X3844570Y2208617D01*
Y2219760D01*
X3875643Y2250834D01*
X3921243D01*
X3952000Y2281590D01*
X3344053Y2208100D02*
X3344570Y2208616D01*
Y2219760D01*
X3375643Y2250833D01*
X3421243D01*
X3452000Y2281590D01*
X2844053Y2208100D02*
X2844570Y2208617D01*
Y2219760D01*
X2875643Y2250834D01*
X2921244D01*
X2952000Y2281590D01*
X1844053Y2208100D02*
X1844570Y2208617D01*
Y2219760D01*
X1875643Y2250834D01*
X1921243D01*
X1952000Y2281590D01*
X1344053Y2208100D02*
X1344570Y2208616D01*
Y2219760D01*
X1375643Y2250834D01*
X1421243D01*
X1452000Y2281591D01*
X874810Y2250000D02*
X920409D01*
X844053Y2219243D02*
X874810Y2250000D01*
X844053Y2208100D02*
Y2219243D01*
X920409Y2250000D02*
X950516Y2280106D01*
X344053Y2208100D02*
X344570Y2208617D01*
Y2219760D01*
X375643Y2250834D01*
X421244D01*
X452000Y2281590D01*
X339000Y1899000D02*
X360000Y1920000D01*
X289000Y1899000D02*
X339000D01*
X2344053Y2208100D02*
X2344570Y2208616D01*
Y2219760D01*
X2375644Y2250834D01*
X2421243D01*
X2452000Y2281590D01*
D80*
X250000Y2930000D02*
D03*
X4200000D02*
D03*
Y1800000D02*
D03*
X250000D02*
D03*
D81*
X1993650Y1795031D02*
D03*
X1968250Y1820431D02*
D03*
Y1795031D02*
D03*
X1942850Y1820431D02*
D03*
Y1795031D02*
D03*
X1917450Y1820431D02*
D03*
Y1795031D02*
D03*
X1892050Y1820431D02*
D03*
X1993650D02*
D03*
X2198750Y1929200D02*
D03*
X2224150Y1954600D02*
D03*
X2198750D02*
D03*
X2224150Y1980000D02*
D03*
X2198750D02*
D03*
X2224150Y2005400D02*
D03*
X2198750D02*
D03*
X2224150Y2030800D02*
D03*
Y1929200D02*
D03*
D82*
X1892050Y1795031D02*
D03*
D83*
X289000Y1955000D02*
D03*
Y1899000D02*
D03*
X4100000Y2780000D02*
D03*
X3600000Y2780000D02*
D03*
X3100000Y2780000D02*
D03*
X2600000Y2780000D02*
D03*
X2100000Y2780000D02*
D03*
X1600000Y2780000D02*
D03*
X1100000Y2780000D02*
D03*
X600000Y2780000D02*
D03*
X4174000Y2292800D02*
D03*
X3674000Y2292800D02*
D03*
X3174001Y2292800D02*
D03*
X2674000Y2292800D02*
D03*
X2174001Y2292800D02*
D03*
X1674000Y2292800D02*
D03*
X1174000Y2292800D02*
D03*
X674000Y2292800D02*
D03*
X4025000Y2474000D02*
D03*
X3525000Y2474000D02*
D03*
X3025000Y2474000D02*
D03*
X2525000Y2474000D02*
D03*
X2025000Y2474000D02*
D03*
X1525000Y2474000D02*
D03*
X1025000Y2474000D02*
D03*
X525000Y2474000D02*
D03*
X3850000Y2920000D02*
D03*
X3350000D02*
D03*
X2850000D02*
D03*
X2350000D02*
D03*
X1850000D02*
D03*
X1350000D02*
D03*
X850000D02*
D03*
X350000D02*
D03*
X3792000Y2292800D02*
D03*
X3292000Y2292800D02*
D03*
X2792000Y2292800D02*
D03*
X2292000Y2292800D02*
D03*
X1792000Y2292800D02*
D03*
X1292000Y2292800D02*
D03*
X792000Y2292800D02*
D03*
X292000Y2292800D02*
D03*
X3928000Y2474000D02*
D03*
X3428000Y2474000D02*
D03*
X2928000Y2474000D02*
D03*
X2428000Y2474000D02*
D03*
X1928000Y2474000D02*
D03*
X1428000Y2474000D02*
D03*
X928000Y2474000D02*
D03*
X428000Y2474000D02*
D03*
D84*
X4100000Y2600000D02*
D03*
Y2650000D02*
D03*
X3600000Y2600000D02*
D03*
Y2650000D02*
D03*
X3100000Y2600000D02*
D03*
Y2650000D02*
D03*
X2600000Y2600000D02*
D03*
Y2650000D02*
D03*
X2100000Y2600000D02*
D03*
Y2650000D02*
D03*
X1600000Y2600000D02*
D03*
Y2650000D02*
D03*
X1100000Y2600000D02*
D03*
Y2650000D02*
D03*
X600000Y2600000D02*
D03*
Y2650000D02*
D03*
D85*
X3670000Y2750000D02*
D03*
X3720000D02*
D03*
X2725000Y2780000D02*
D03*
X2675000D02*
D03*
X1175000D02*
D03*
X1225000D02*
D03*
X660000Y2920000D02*
D03*
X710000D02*
D03*
D86*
X609000Y1804500D02*
D03*
X736000D02*
D03*
D87*
X3690000Y1878400D02*
D03*
X3791600Y1776800D02*
D03*
X3588400D02*
D03*
X2681600Y1878401D02*
D03*
X2783200Y1776801D02*
D03*
X2580000D02*
D03*
X1180000Y1878401D02*
D03*
X1281600Y1776801D02*
D03*
X1078400D02*
D03*
D88*
X4174001Y2338037D02*
D03*
Y2439637D02*
D03*
X3674001Y2338037D02*
D03*
Y2439637D02*
D03*
X3174001Y2338037D02*
D03*
Y2439637D02*
D03*
X2674000Y2338037D02*
D03*
Y2439637D02*
D03*
X2174001Y2338037D02*
D03*
Y2439637D02*
D03*
X1674000Y2338037D02*
D03*
Y2439637D02*
D03*
X1174001Y2338037D02*
D03*
Y2439637D02*
D03*
X674000Y2338037D02*
D03*
Y2439637D02*
D03*
X3791000Y2338037D02*
D03*
Y2439637D02*
D03*
X3291000Y2338037D02*
D03*
Y2439637D02*
D03*
X2791001Y2338037D02*
D03*
Y2439637D02*
D03*
X2291000Y2338037D02*
D03*
Y2439637D02*
D03*
X1791001Y2338037D02*
D03*
Y2439637D02*
D03*
X1291000Y2338037D02*
D03*
Y2439637D02*
D03*
X791001Y2338037D02*
D03*
Y2439637D02*
D03*
X291000Y2338037D02*
D03*
Y2439637D02*
D03*
D89*
X4050000Y2433990D02*
D03*
Y2281590D02*
D03*
X3550000Y2433990D02*
D03*
Y2281590D02*
D03*
X3050000Y2433990D02*
D03*
Y2281590D02*
D03*
X2550000Y2433991D02*
D03*
Y2281591D02*
D03*
X2050000Y2433990D02*
D03*
Y2281590D02*
D03*
X1550000Y2433990D02*
D03*
Y2281591D02*
D03*
X1050000Y2433991D02*
D03*
Y2281591D02*
D03*
X550000Y2433991D02*
D03*
Y2281591D02*
D03*
X4001000Y2433990D02*
D03*
Y2281590D02*
D03*
X3501000Y2433990D02*
D03*
Y2281590D02*
D03*
X3001000Y2433990D02*
D03*
Y2281590D02*
D03*
X2501000Y2433991D02*
D03*
Y2281591D02*
D03*
X2001000Y2433990D02*
D03*
Y2281590D02*
D03*
X1501000Y2433990D02*
D03*
Y2281591D02*
D03*
X1001000Y2433991D02*
D03*
Y2281591D02*
D03*
X501000Y2433990D02*
D03*
Y2281590D02*
D03*
X3903000Y2433990D02*
D03*
Y2281590D02*
D03*
X3403000Y2433990D02*
D03*
Y2281590D02*
D03*
X2903000Y2433990D02*
D03*
Y2281590D02*
D03*
X2403000Y2433991D02*
D03*
Y2281591D02*
D03*
X1903000Y2433990D02*
D03*
Y2281590D02*
D03*
X1403000Y2433990D02*
D03*
Y2281591D02*
D03*
X903000Y2433991D02*
D03*
Y2281591D02*
D03*
X403000Y2433990D02*
D03*
Y2281590D02*
D03*
X3952000Y2433990D02*
D03*
Y2281590D02*
D03*
X3452000Y2433990D02*
D03*
Y2281590D02*
D03*
X2952000Y2433990D02*
D03*
Y2281590D02*
D03*
X2452000Y2433991D02*
D03*
Y2281591D02*
D03*
X1952000Y2433990D02*
D03*
Y2281590D02*
D03*
X1452000Y2433990D02*
D03*
Y2281591D02*
D03*
X952000Y2433991D02*
D03*
Y2281591D02*
D03*
X452000Y2433990D02*
D03*
Y2281590D02*
D03*
D90*
X1743800Y1911000D02*
D03*
X1718400D02*
D03*
X1693000D02*
D03*
Y1936000D02*
D03*
X1718400D02*
D03*
X1743800D02*
D03*
X1412250Y1979050D02*
D03*
Y1953650D02*
D03*
Y1928250D02*
D03*
X1437250D02*
D03*
Y1953650D02*
D03*
Y1979050D02*
D03*
Y1903050D02*
D03*
Y1877650D02*
D03*
Y1852250D02*
D03*
X1412250D02*
D03*
Y1877650D02*
D03*
Y1903050D02*
D03*
D91*
X2198750Y2030800D02*
D03*
D92*
X3898800Y2651600D02*
D03*
X4051200D02*
D03*
X3398800Y2651600D02*
D03*
X3551200D02*
D03*
X2898800D02*
D03*
X3051200D02*
D03*
X2398800Y2651600D02*
D03*
X2551200D02*
D03*
X1898800Y2651600D02*
D03*
X2051200D02*
D03*
X1398800D02*
D03*
X1551200D02*
D03*
X898800Y2651600D02*
D03*
X1051200D02*
D03*
X398800Y2651600D02*
D03*
X551200D02*
D03*
D93*
X3975000Y2550000D02*
D03*
X3475000Y2550000D02*
D03*
X2975000D02*
D03*
X2475000Y2550000D02*
D03*
X1975000Y2550000D02*
D03*
X1475000D02*
D03*
X975000Y2550000D02*
D03*
X475000Y2550000D02*
D03*
D94*
X3975000Y2956400D02*
D03*
X3475000Y2956400D02*
D03*
X2975000D02*
D03*
X2475000Y2956400D02*
D03*
X1975000Y2956400D02*
D03*
X1475000D02*
D03*
X975000Y2956400D02*
D03*
X475000Y2956400D02*
D03*
D95*
X4071147Y2131900D02*
D03*
X4096547D02*
D03*
Y2208100D02*
D03*
X4071147D02*
D03*
X4121947Y2131900D02*
D03*
Y2208100D02*
D03*
X3571147Y2131900D02*
D03*
X3596547D02*
D03*
Y2208100D02*
D03*
X3571147D02*
D03*
X3621947Y2131900D02*
D03*
Y2208100D02*
D03*
X3071147Y2131900D02*
D03*
X3096547D02*
D03*
Y2208100D02*
D03*
X3071147D02*
D03*
X3121947Y2131900D02*
D03*
Y2208100D02*
D03*
X2571147Y2131900D02*
D03*
X2596547D02*
D03*
Y2208100D02*
D03*
X2571147D02*
D03*
X2621947Y2131900D02*
D03*
Y2208100D02*
D03*
X2071147Y2131900D02*
D03*
X2096547D02*
D03*
Y2208100D02*
D03*
X2071147D02*
D03*
X2121947Y2131900D02*
D03*
Y2208100D02*
D03*
X1571147Y2131900D02*
D03*
X1596547D02*
D03*
Y2208100D02*
D03*
X1571147D02*
D03*
X1621947Y2131900D02*
D03*
Y2208100D02*
D03*
X1071147Y2131900D02*
D03*
X1096547D02*
D03*
Y2208100D02*
D03*
X1071147D02*
D03*
X1121947Y2131900D02*
D03*
Y2208100D02*
D03*
X571147Y2131900D02*
D03*
X596547D02*
D03*
Y2208100D02*
D03*
X571147D02*
D03*
X621947Y2131900D02*
D03*
Y2208100D02*
D03*
X3844053Y2131900D02*
D03*
X3869453D02*
D03*
Y2208100D02*
D03*
X3844053D02*
D03*
X3894853Y2131900D02*
D03*
Y2208100D02*
D03*
X3344053Y2131900D02*
D03*
X3369453D02*
D03*
Y2208100D02*
D03*
X3344053D02*
D03*
X3394853Y2131900D02*
D03*
Y2208100D02*
D03*
X2844053Y2131900D02*
D03*
X2869453D02*
D03*
Y2208100D02*
D03*
X2844053D02*
D03*
X2894853Y2131900D02*
D03*
Y2208100D02*
D03*
X2344053Y2131900D02*
D03*
X2369453D02*
D03*
Y2208100D02*
D03*
X2344053D02*
D03*
X2394853Y2131900D02*
D03*
Y2208100D02*
D03*
X1844053Y2131900D02*
D03*
X1869453D02*
D03*
Y2208100D02*
D03*
X1844053D02*
D03*
X1894853Y2131900D02*
D03*
Y2208100D02*
D03*
X1344053Y2131900D02*
D03*
X1369453D02*
D03*
Y2208100D02*
D03*
X1344053D02*
D03*
X1394853Y2131900D02*
D03*
Y2208100D02*
D03*
X844053Y2131900D02*
D03*
X869453D02*
D03*
Y2208100D02*
D03*
X844053D02*
D03*
X894853Y2131900D02*
D03*
Y2208100D02*
D03*
X344053Y2131900D02*
D03*
X369453D02*
D03*
Y2208100D02*
D03*
X344053D02*
D03*
X394853Y2131900D02*
D03*
Y2208100D02*
D03*
D96*
X720750Y1899750D02*
D03*
X721000Y1944000D02*
D03*
X360000Y1920000D02*
D03*
D97*
X720750Y1874750D02*
D03*
X721000Y1969000D02*
D03*
X360000Y1955000D02*
D03*
D98*
X4116000Y2283800D02*
D03*
Y2436200D02*
D03*
X3616000Y2283800D02*
D03*
Y2436200D02*
D03*
X3116000Y2283800D02*
D03*
Y2436200D02*
D03*
X2616000Y2283800D02*
D03*
Y2436200D02*
D03*
X2116000Y2283800D02*
D03*
Y2436200D02*
D03*
X1616000Y2283800D02*
D03*
Y2436200D02*
D03*
X1116000Y2283800D02*
D03*
Y2436200D02*
D03*
X616000Y2283800D02*
D03*
Y2436200D02*
D03*
X3850000Y2283800D02*
D03*
Y2436200D02*
D03*
X3350000Y2283800D02*
D03*
Y2436200D02*
D03*
X2850000Y2283800D02*
D03*
Y2436200D02*
D03*
X2350000Y2283800D02*
D03*
Y2436200D02*
D03*
X1850000Y2283800D02*
D03*
Y2436200D02*
D03*
X1350000Y2283800D02*
D03*
Y2436200D02*
D03*
X850000Y2283800D02*
D03*
Y2436200D02*
D03*
X350000Y2283800D02*
D03*
Y2436200D02*
D03*
D99*
X1072000Y2065000D02*
D03*
X1606600Y1992199D02*
D03*
X1552172Y1990422D02*
D03*
X1544000Y1970500D02*
D03*
X1536000Y1990250D02*
D03*
X1560250Y1970500D02*
D03*
X1490500Y1901000D02*
D03*
X1491000Y1872000D02*
D03*
X1470000Y1920000D02*
D03*
X800000Y1855000D02*
D03*
X790000Y1985000D02*
D03*
X475500Y2004750D02*
D03*
X566000Y1956000D02*
D03*
X1510500Y1848500D02*
D03*
X1527000Y1883000D02*
D03*
X1596750Y1870250D02*
D03*
X1610125Y1831000D02*
D03*
X1610000Y1862000D02*
D03*
X1580000Y2050765D02*
D03*
X1457250Y1842750D02*
D03*
X2299250Y1877500D02*
D03*
X1608000Y1895500D02*
D03*
X1576000Y1905750D02*
D03*
X1654500Y1913750D02*
D03*
M02*
