G04*
G04 #@! TF.GenerationSoftware,Altium Limited,Altium Designer,19.1.9 (167)*
G04*
G04 Layer_Color=32768*
%FSLAX44Y44*%
%MOMM*%
G71*
G01*
G75*
%ADD100C,0.1000*%
%ADD101C,0.0500*%
D100*
X670000Y1856000D02*
Y1864000D01*
X666000Y1860000D02*
X674000D01*
X1559100Y1938000D02*
X1569100D01*
X1564100Y1933000D02*
Y1943000D01*
X1616678Y1885422D02*
Y1990578D01*
X1511522Y1885422D02*
Y1990578D01*
X1616678D01*
X1511522Y1885422D02*
X1616678D01*
X770500Y1857750D02*
X778500D01*
X774500Y1853750D02*
Y1861750D01*
X770500Y1874750D02*
X778500D01*
X774500Y1870750D02*
Y1878750D01*
X1502250Y1906000D02*
Y1914000D01*
X1498250Y1910000D02*
X1506250D01*
X1584500Y1859500D02*
X1592500D01*
X1588500Y1855500D02*
Y1863500D01*
X890000Y1815266D02*
Y1823266D01*
X886000Y1819266D02*
X894000D01*
X463000Y1993000D02*
Y2001000D01*
X459000Y1997000D02*
X467000D01*
X485250Y1989000D02*
X493250D01*
X489250Y1985000D02*
Y1993000D01*
X830000Y1815266D02*
Y1823266D01*
X826000Y1819266D02*
X834000D01*
X438000Y1914500D02*
Y1924500D01*
X433000Y1919500D02*
X443000D01*
X414000Y1914500D02*
Y1924500D01*
X409000Y1919500D02*
X419000D01*
X3844000Y2092251D02*
Y2102251D01*
X3839000Y2097251D02*
X3849000D01*
X3344000Y2092251D02*
Y2102251D01*
X3339000Y2097251D02*
X3349000D01*
X2844000Y2092250D02*
Y2102250D01*
X2839000Y2097250D02*
X2849000D01*
X2344000Y2092251D02*
Y2102251D01*
X2339000Y2097251D02*
X2349000D01*
X1844000Y2092251D02*
Y2102251D01*
X1839000Y2097251D02*
X1849000D01*
X1344000Y2092251D02*
Y2102251D01*
X1339000Y2097250D02*
X1349000D01*
X844000Y2092251D02*
Y2102251D01*
X839000Y2097251D02*
X849000D01*
X344000Y2092250D02*
Y2102250D01*
X339000Y2097250D02*
X349000D01*
X762000Y1960700D02*
X772000D01*
X767000Y1955700D02*
Y1965700D01*
X490750Y1948050D02*
Y1958050D01*
X485750Y1953050D02*
X495750D01*
X1560500Y1851500D02*
X1568500D01*
X1564500Y1847500D02*
Y1855500D01*
X1533000Y1844500D02*
Y1852500D01*
X1529000Y1848500D02*
X1537000D01*
X1702000Y1840000D02*
Y1848000D01*
X1698000Y1844000D02*
X1706000D01*
X1646100Y1863500D02*
Y1873500D01*
X1641100Y1868500D02*
X1651100D01*
X1620100Y1870500D02*
X1628100D01*
X1624100Y1866500D02*
Y1874500D01*
X1589000Y1839750D02*
Y1847750D01*
X1585000Y1843750D02*
X1593000D01*
X786000Y1960650D02*
X794000D01*
X790000Y1956650D02*
Y1964650D01*
X806000Y1960650D02*
X814000D01*
X810000Y1956650D02*
Y1964650D01*
X826000Y1960650D02*
X834000D01*
X830000Y1956650D02*
Y1964650D01*
X850000Y1955649D02*
Y1965649D01*
X845000Y1960649D02*
X855000D01*
X410000Y1964000D02*
X418000D01*
X414000Y1960000D02*
Y1968000D01*
X432000Y1971000D02*
X442000D01*
X437000Y1966000D02*
Y1976000D01*
X674000Y1973250D02*
X682000D01*
X678000Y1969250D02*
Y1977250D01*
X534000Y1967250D02*
X542000D01*
X538000Y1963250D02*
Y1971250D01*
D101*
X655500Y1853000D02*
X684500D01*
X655500Y1867000D02*
X684500D01*
Y1853000D02*
Y1867000D01*
X655500Y1853000D02*
Y1867000D01*
X1840251Y1762731D02*
Y1852730D01*
Y1762731D02*
X2045450D01*
Y1852730D01*
X1840251D02*
X2045450D01*
X789000Y1850750D02*
Y1864750D01*
X760000Y1850750D02*
Y1864750D01*
Y1850750D02*
X789000D01*
X760000Y1864750D02*
X789000D01*
X760000Y1867750D02*
Y1881750D01*
X789000Y1867750D02*
Y1881750D01*
X760000D02*
X789000D01*
X760000Y1867750D02*
X789000D01*
X1495250Y1895500D02*
X1509250D01*
X1495250Y1924500D02*
X1509250D01*
X1495250Y1895500D02*
Y1924500D01*
X1509250Y1895500D02*
Y1924500D01*
X1574000Y1852500D02*
Y1866500D01*
X1603000Y1852500D02*
Y1866500D01*
X1574000D02*
X1603000D01*
X1574000Y1852500D02*
X1603000D01*
X883000Y1804766D02*
X897000D01*
X883000Y1833766D02*
X897000D01*
X883000Y1804766D02*
Y1833766D01*
X897000Y1804766D02*
Y1833766D01*
X456000Y2011500D02*
X470000D01*
X456000Y1982500D02*
X470000D01*
Y2011500D01*
X456000Y1982500D02*
Y2011500D01*
X474750Y1982000D02*
Y1996000D01*
X503750Y1982000D02*
Y1996000D01*
X474750D02*
X503750D01*
X474750Y1982000D02*
X503750D01*
X823000Y1804766D02*
X837000D01*
X823000Y1833766D02*
X837000D01*
X823000Y1804766D02*
Y1833766D01*
X837000Y1804766D02*
Y1833766D01*
X427500Y1897500D02*
X448500D01*
X427500Y1941500D02*
X448500D01*
X427500Y1897500D02*
Y1941500D01*
X448500Y1897500D02*
Y1941500D01*
X403500D02*
X424500D01*
X403500Y1897500D02*
X424500D01*
Y1941500D01*
X403500Y1897500D02*
Y1941500D01*
X3835000Y2080751D02*
X3853000D01*
X3835000Y2113751D02*
X3853000D01*
X3835000Y2080751D02*
Y2113751D01*
X3853000Y2080751D02*
Y2113751D01*
X3335000Y2080750D02*
X3353000D01*
X3335000Y2113750D02*
X3353000D01*
X3335000Y2080750D02*
Y2113750D01*
X3353000Y2080750D02*
Y2113750D01*
X2835000Y2080750D02*
X2853000D01*
X2835000Y2113750D02*
X2853000D01*
X2835000Y2080750D02*
Y2113750D01*
X2853000Y2080750D02*
Y2113750D01*
X2335000Y2080751D02*
X2353000D01*
X2335000Y2113751D02*
X2353000D01*
X2335000Y2080751D02*
Y2113751D01*
X2353000Y2080751D02*
Y2113751D01*
X1835000Y2080751D02*
X1853000D01*
X1835000Y2113751D02*
X1853000D01*
X1835000Y2080751D02*
Y2113751D01*
X1853000Y2080751D02*
Y2113751D01*
X1335000Y2080750D02*
X1353000D01*
X1335000Y2113750D02*
X1353000D01*
X1335000Y2080750D02*
Y2113750D01*
X1353000Y2080750D02*
Y2113750D01*
X835000Y2080751D02*
X853000D01*
X835000Y2113751D02*
X853000D01*
X835000Y2080751D02*
Y2113751D01*
X853000Y2080751D02*
Y2113751D01*
X335000Y2080750D02*
X353000D01*
X335000Y2113750D02*
X353000D01*
X335000Y2080750D02*
Y2113750D01*
X353000Y2080750D02*
Y2113750D01*
X2166450Y2082599D02*
X2256450D01*
X2166450Y1877399D02*
Y2082599D01*
Y1877399D02*
X2256450D01*
Y2082599D01*
X1673099Y1874015D02*
Y1883515D01*
X1668349Y1878765D02*
X1677849D01*
X1687324Y1871654D02*
Y1885878D01*
X1659130Y1871654D02*
Y1885878D01*
Y1871654D02*
X1687324D01*
X1659130Y1885878D02*
X1687324D01*
X757500Y1943700D02*
Y1977700D01*
X776500Y1943700D02*
Y1977700D01*
X757500Y1943700D02*
X776500D01*
X757500Y1977700D02*
X776500D01*
X453000Y1980550D02*
X528500D01*
X453000Y1925550D02*
X528500D01*
X453000D02*
Y1980550D01*
X528500Y1925550D02*
Y1980550D01*
X1572000Y1836500D02*
Y1866500D01*
X1557000Y1836500D02*
Y1866500D01*
X1572000D01*
X1557000Y1836500D02*
X1572000D01*
X1518000Y1841000D02*
X1548000D01*
X1518000Y1856000D02*
X1548000D01*
Y1841000D02*
Y1856000D01*
X1518000Y1841000D02*
Y1856000D01*
X1687000Y1851500D02*
X1717000D01*
X1687000Y1836500D02*
X1717000D01*
X1687000D02*
X1687000Y1851500D01*
X1717000Y1836500D02*
Y1851500D01*
X1636600Y1851500D02*
X1655600D01*
X1636600Y1885500D02*
X1655600D01*
X1636600Y1851500D02*
Y1885500D01*
X1655600Y1851500D02*
Y1885500D01*
X1631600Y1855500D02*
Y1885500D01*
X1616600Y1855500D02*
Y1885500D01*
X1631600D01*
X1616600Y1855500D02*
X1631600D01*
X1574000Y1851250D02*
X1604000D01*
X1574000Y1836250D02*
X1604000D01*
X1574000D02*
Y1851250D01*
X1604000Y1836250D02*
Y1851250D01*
X782500Y1945650D02*
Y1975650D01*
X797500Y1945650D02*
Y1975650D01*
X782500Y1945650D02*
X797500D01*
X782500Y1975650D02*
X797500D01*
X802500Y1945650D02*
Y1975650D01*
X817500Y1945650D02*
Y1975650D01*
X802500Y1945650D02*
X817500D01*
X802500Y1975650D02*
X817500D01*
X822500Y1945650D02*
Y1975650D01*
X837500Y1945650D02*
Y1975650D01*
X822500Y1945650D02*
X837500D01*
X822500Y1975650D02*
X837500D01*
X840500Y1977649D02*
X859500D01*
X840500Y1943649D02*
X859500D01*
Y1977649D01*
X840500Y1943649D02*
Y1977649D01*
X406500Y1949000D02*
Y1979000D01*
X421500Y1949000D02*
Y1979000D01*
X406500Y1949000D02*
X421500D01*
X406500Y1979000D02*
X421500D01*
X426000Y1948500D02*
Y1993500D01*
X448000Y1948500D02*
Y1993500D01*
X426000Y1948500D02*
X448000D01*
X426000Y1993500D02*
X448000D01*
X685500Y1958250D02*
Y1988250D01*
X670500Y1958250D02*
Y1988250D01*
X685500D01*
X670500Y1958250D02*
X685500D01*
X530500Y1952250D02*
Y1982250D01*
X545500Y1952250D02*
Y1982250D01*
X530500Y1952250D02*
X545500D01*
X530500Y1982250D02*
X545500D01*
M02*
