G04*
G04 #@! TF.GenerationSoftware,Altium Limited,Altium Designer,19.1.9 (167)*
G04*
G04 Layer_Color=65535*
%FSLAX44Y44*%
%MOMM*%
G71*
G01*
G75*
%ADD10C,0.2500*%
%ADD11C,0.2032*%
%ADD12C,0.2540*%
%ADD13C,0.6000*%
%ADD14C,0.1270*%
%ADD15C,0.2000*%
%ADD16C,0.5001*%
%ADD17C,0.1524*%
%ADD18R,0.1651X0.5842*%
%ADD19R,1.7018X0.4572*%
%ADD20R,0.1854X0.6502*%
%ADD21R,3.0480X0.5080*%
D10*
X1893300Y1757231D02*
G03*
X1893300Y1757231I-1250J0D01*
G01*
X1537156Y1883918D02*
G03*
X1537156Y1883918I-1250J0D01*
G01*
X2162200Y2030800D02*
G03*
X2162200Y2030800I-1250J0D01*
G01*
X519750Y1925000D02*
G03*
X519750Y1925000I-1250J0D01*
G01*
D11*
X864666Y1836017D02*
G03*
X862507Y1833858I0J-2159D01*
G01*
X877493D02*
G03*
X875334Y1836017I-2159J0D01*
G01*
X862507Y1806142D02*
G03*
X864666Y1803983I2159J0D01*
G01*
X875334D02*
G03*
X877493Y1806142I0J2159D01*
G01*
X844666Y1836017D02*
G03*
X842507Y1833858I0J-2159D01*
G01*
X857493D02*
G03*
X855334Y1836017I-2159J0D01*
G01*
X842507Y1806142D02*
G03*
X844666Y1803983I2159J0D01*
G01*
X855334D02*
G03*
X857493Y1806142I0J2159D01*
G01*
X864666Y1836017D02*
X875334D01*
X864666Y1803983D02*
X875334D01*
X862507Y1806142D02*
Y1833858D01*
X877493Y1806142D02*
Y1833858D01*
X844666Y1836017D02*
X855334D01*
X844666Y1803983D02*
X855334D01*
X842507Y1806142D02*
Y1833858D01*
X857493Y1806142D02*
Y1833858D01*
D12*
X553354Y1987000D02*
G03*
X553354Y1987000I-353J0D01*
G01*
X752250Y1887250D02*
G03*
X752250Y1887250I-31500J0D01*
G01*
X752500Y1956500D02*
G03*
X752500Y1956500I-31500J0D01*
G01*
X400000Y1937500D02*
G03*
X400000Y1937500I-40000J0D01*
G01*
X260000Y1975000D02*
Y1985000D01*
X255000Y1980000D02*
X265000D01*
X581000Y1935000D02*
Y1973600D01*
X579000D02*
X581000D01*
X579000Y1935000D02*
X581000D01*
X551000Y1974000D02*
X553000D01*
X551000Y1935400D02*
X553000D01*
X551000D02*
Y1974000D01*
X587000Y1757500D02*
Y1849500D01*
Y1757500D02*
X757000D01*
Y1849500D01*
X587000D02*
X757000D01*
X3539000Y1756000D02*
Y1899000D01*
X3841000D01*
Y1756000D02*
Y1899000D01*
X3539000Y1756000D02*
X3841000D01*
X2530599Y1756000D02*
Y1899000D01*
X2832600D01*
Y1756000D02*
Y1899000D01*
X2530599Y1756000D02*
X2832600D01*
X1028999Y1756001D02*
Y1899000D01*
X1331000D01*
Y1756001D02*
Y1899000D01*
X1028999Y1756001D02*
X1331000D01*
X1680000Y1949000D02*
X1756000D01*
Y1898000D02*
Y1949000D01*
X1680000Y1898000D02*
X1756000D01*
X1680000D02*
Y1949000D01*
X1399250Y1992000D02*
X1399250Y1839500D01*
X1399250Y1992000D02*
X1449750D01*
X1449750Y1839500D01*
X1399250D02*
X1449750D01*
X700750Y1874750D02*
X710750D01*
X705750Y1869750D02*
Y1879750D01*
X731000Y1969000D02*
X741000D01*
X736000Y1964000D02*
Y1974000D01*
X490000Y2850000D02*
X495080Y2834760D01*
X484920D02*
X490000Y2850000D01*
X484920Y2725240D02*
X490000Y2710000D01*
X495080Y2725240D01*
X490000Y2813009D02*
Y2850000D01*
Y2710000D02*
Y2738863D01*
X487460Y2850000D02*
X680000D01*
X487460Y2710000D02*
X690000D01*
X250000Y1700000D02*
X265240Y1705080D01*
X250000Y1700000D02*
X265240Y1694920D01*
X4184760D02*
X4200000Y1700000D01*
X4184760Y1705080D02*
X4200000Y1700000D01*
X250000D02*
X2174976D01*
X2266897D02*
X4200000D01*
X250000Y1697460D02*
Y1778943D01*
X4200000Y1697460D02*
Y1778943D01*
X4294920Y1815240D02*
X4300000Y1800000D01*
X4305080Y1815240D01*
X4300000Y2930000D02*
X4305080Y2914760D01*
X4294920D02*
X4300000Y2930000D01*
Y1800000D02*
Y2317515D01*
Y2404357D02*
Y2930000D01*
X4221057Y1800000D02*
X4302540D01*
X4221057Y2930000D02*
X4302540D01*
X4364920Y1765240D02*
X4370000Y1750000D01*
X4375080Y1765240D01*
X4370000Y2980000D02*
X4375080Y2964760D01*
X4364920D02*
X4370000Y2980000D01*
Y1750000D02*
Y2316245D01*
Y2405627D02*
Y2980000D01*
X4253810Y1750000D02*
X4372540D01*
X4253810Y2980000D02*
X4372540D01*
X200000Y1650000D02*
X215240Y1655080D01*
X200000Y1650000D02*
X215240Y1644920D01*
X4234760D02*
X4250000Y1650000D01*
X4234760Y1655080D02*
X4250000Y1650000D01*
X200000D02*
X2174976D01*
X2266897D02*
X4250000D01*
X200000Y1647460D02*
Y1746190D01*
X4250000Y1647460D02*
Y1746190D01*
X1662697Y2013236D02*
X1660157Y2015775D01*
X1655079D01*
X1652540Y2013236D01*
Y2003079D01*
X1655079Y2000540D01*
X1660157D01*
X1662697Y2003079D01*
X1667775Y2000540D02*
Y2010697D01*
X1672853Y2015775D01*
X1677932Y2010697D01*
Y2000540D01*
Y2008158D01*
X1667775D01*
X1683010Y2000540D02*
Y2015775D01*
X1693167Y2000540D01*
Y2015775D01*
X1698245Y2000540D02*
X1708402Y2010697D01*
X1713480Y2015775D02*
Y2003079D01*
X1716019Y2000540D01*
X1721098D01*
X1723637Y2003079D01*
Y2015775D01*
X1738872Y2013236D02*
X1736333Y2015775D01*
X1731255D01*
X1728715Y2013236D01*
Y2010697D01*
X1731255Y2008158D01*
X1736333D01*
X1738872Y2005618D01*
Y2003079D01*
X1736333Y2000540D01*
X1731255D01*
X1728715Y2003079D01*
X1743950Y2000540D02*
Y2010697D01*
X1749029Y2015775D01*
X1754107Y2010697D01*
Y2000540D01*
Y2008158D01*
X1743950D01*
X1759185Y2000540D02*
Y2015775D01*
X1766803D01*
X1769342Y2013236D01*
Y2008158D01*
X1766803Y2005618D01*
X1759185D01*
X1764264D02*
X1769342Y2000540D01*
X1774421Y2015775D02*
X1784577D01*
X1779499D01*
Y2000540D01*
X1853157Y1870696D02*
X1850618Y1873235D01*
X1845539D01*
X1843000Y1870696D01*
Y1860539D01*
X1845539Y1858000D01*
X1850618D01*
X1853157Y1860539D01*
X1858235Y1868157D02*
Y1860539D01*
X1860774Y1858000D01*
X1868392D01*
Y1868157D01*
X1873470D02*
Y1858000D01*
Y1863078D01*
X1876009Y1865618D01*
X1878548Y1868157D01*
X1881088D01*
X1888705D02*
Y1858000D01*
Y1863078D01*
X1891244Y1865618D01*
X1893784Y1868157D01*
X1896323D01*
X1911558Y1858000D02*
X1906479D01*
X1903940Y1860539D01*
Y1865618D01*
X1906479Y1868157D01*
X1911558D01*
X1914097Y1865618D01*
Y1863078D01*
X1903940D01*
X1919175Y1858000D02*
Y1868157D01*
X1926793D01*
X1929332Y1865618D01*
Y1858000D01*
X1936950Y1870696D02*
Y1868157D01*
X1934410D01*
X1939489D01*
X1936950D01*
Y1860539D01*
X1939489Y1858000D01*
X1962341D02*
X1969959D01*
X1972498Y1860539D01*
X1969959Y1863078D01*
X1964881D01*
X1962341Y1865618D01*
X1964881Y1868157D01*
X1972498D01*
X1980116Y1858000D02*
X1985194D01*
X1987733Y1860539D01*
Y1865618D01*
X1985194Y1868157D01*
X1980116D01*
X1977576Y1865618D01*
Y1860539D01*
X1980116Y1858000D01*
X2002968Y1868157D02*
X1995351D01*
X1992811Y1865618D01*
Y1860539D01*
X1995351Y1858000D01*
X2002968D01*
X2008047D02*
Y1873235D01*
Y1863078D02*
X2015664Y1868157D01*
X2008047Y1863078D02*
X2015664Y1858000D01*
X2030899D02*
X2025821D01*
X2023282Y1860539D01*
Y1865618D01*
X2025821Y1868157D01*
X2030899D01*
X2033438Y1865618D01*
Y1863078D01*
X2023282D01*
X2041056Y1870696D02*
Y1868157D01*
X2038517D01*
X2043595D01*
X2041056D01*
Y1860539D01*
X2043595Y1858000D01*
X1689752Y1854000D02*
X1694417D01*
X1696750Y1856333D01*
X1694417Y1858665D01*
X1689752D01*
X1690918Y1865663D02*
X1689752Y1864497D01*
Y1862164D01*
X1690918Y1860998D01*
X1695584D01*
X1696750Y1862164D01*
Y1864497D01*
X1695584Y1865663D01*
X1696750Y1867995D02*
X1689752D01*
Y1871494D01*
X1690918Y1872661D01*
X1693251D01*
X1694417Y1871494D01*
Y1867995D01*
X1697916Y1874993D02*
Y1879658D01*
X1689752Y1881991D02*
Y1886656D01*
Y1884324D01*
X1696750D01*
X1689752Y1888989D02*
X1696750Y1893654D01*
X1689752D02*
X1696750Y1888989D01*
X1715002Y1854000D02*
X1719667D01*
X1722000Y1856333D01*
X1719667Y1858665D01*
X1715002D01*
X1716169Y1865663D02*
X1715002Y1864497D01*
Y1862164D01*
X1716169Y1860998D01*
X1720834D01*
X1722000Y1862164D01*
Y1864497D01*
X1720834Y1865663D01*
X1722000Y1867995D02*
X1715002D01*
Y1871494D01*
X1716169Y1872661D01*
X1718501D01*
X1719667Y1871494D01*
Y1867995D01*
X1723166Y1874993D02*
Y1879658D01*
X1722000Y1881991D02*
X1715002D01*
Y1885490D01*
X1716169Y1886656D01*
X1718501D01*
X1719667Y1885490D01*
Y1881991D01*
Y1884324D02*
X1722000Y1886656D01*
X1715002Y1888989D02*
X1722000Y1893654D01*
X1715002D02*
X1722000Y1888989D01*
X1742169Y1879658D02*
X1741002Y1878492D01*
Y1876160D01*
X1742169Y1874993D01*
X1746834D01*
X1748000Y1876160D01*
Y1878492D01*
X1746834Y1879658D01*
X1744501D01*
Y1877326D01*
X1748000Y1881991D02*
X1741002D01*
X1748000Y1886656D01*
X1741002D01*
Y1888989D02*
X1748000D01*
Y1892488D01*
X1746834Y1893654D01*
X1742169D01*
X1741002Y1892488D01*
Y1888989D01*
X1742168Y1957665D02*
X1741002Y1956499D01*
Y1954166D01*
X1742168Y1953000D01*
X1746834D01*
X1748000Y1954166D01*
Y1956499D01*
X1746834Y1957665D01*
X1744501D01*
Y1955333D01*
X1748000Y1959998D02*
X1741002D01*
X1748000Y1964663D01*
X1741002D01*
Y1966996D02*
X1748000D01*
Y1970494D01*
X1746834Y1971661D01*
X1742168D01*
X1741002Y1970494D01*
Y1966996D01*
X1716169Y1957665D02*
X1715002Y1956499D01*
Y1954166D01*
X1716169Y1953000D01*
X1720834D01*
X1722000Y1954166D01*
Y1956499D01*
X1720834Y1957665D01*
X1722000Y1959998D02*
X1717335D01*
X1715002Y1962330D01*
X1717335Y1964663D01*
X1722000D01*
X1718501D01*
Y1959998D01*
X1722000Y1966996D02*
X1715002D01*
X1722000Y1971661D01*
X1715002D01*
X1723166Y1973993D02*
Y1978658D01*
X1715002Y1980991D02*
Y1985656D01*
Y1983324D01*
X1722000D01*
X1715002Y1987989D02*
X1722000Y1992654D01*
X1715002D02*
X1722000Y1987989D01*
X1689169Y1957665D02*
X1688002Y1956499D01*
Y1954166D01*
X1689169Y1953000D01*
X1693834D01*
X1695000Y1954166D01*
Y1956499D01*
X1693834Y1957665D01*
X1695000Y1959998D02*
X1690335D01*
X1688002Y1962330D01*
X1690335Y1964663D01*
X1695000D01*
X1691501D01*
Y1959998D01*
X1695000Y1966996D02*
X1688002D01*
X1695000Y1971661D01*
X1688002D01*
X1696166Y1973993D02*
Y1978658D01*
X1695000Y1980991D02*
X1688002D01*
Y1984490D01*
X1689169Y1985656D01*
X1691501D01*
X1692667Y1984490D01*
Y1980991D01*
Y1983324D02*
X1695000Y1985656D01*
X1688002Y1987989D02*
X1695000Y1992654D01*
X1688002D02*
X1695000Y1987989D01*
X2139000Y1857000D02*
Y1872235D01*
X2146617D01*
X2149157Y1869696D01*
Y1864617D01*
X2146617Y1862078D01*
X2139000D01*
X2154235Y1872235D02*
Y1857000D01*
X2159313Y1862078D01*
X2164392Y1857000D01*
Y1872235D01*
X2169470Y1857000D02*
Y1872235D01*
X2174548Y1867157D01*
X2179627Y1872235D01*
Y1857000D01*
X2199940D02*
X2207558D01*
X2210097Y1859539D01*
X2207558Y1862078D01*
X2202480D01*
X2199940Y1864617D01*
X2202480Y1867157D01*
X2210097D01*
X2217715Y1857000D02*
X2222793D01*
X2225332Y1859539D01*
Y1864617D01*
X2222793Y1867157D01*
X2217715D01*
X2215175Y1864617D01*
Y1859539D01*
X2217715Y1857000D01*
X2240567Y1867157D02*
X2232950D01*
X2230410Y1864617D01*
Y1859539D01*
X2232950Y1857000D01*
X2240567D01*
X2245645D02*
Y1872235D01*
Y1862078D02*
X2253263Y1867157D01*
X2245645Y1862078D02*
X2253263Y1857000D01*
X2268498D02*
X2263420D01*
X2260881Y1859539D01*
Y1864617D01*
X2263420Y1867157D01*
X2268498D01*
X2271037Y1864617D01*
Y1862078D01*
X2260881D01*
X2278655Y1869696D02*
Y1867157D01*
X2276116D01*
X2281194D01*
X2278655D01*
Y1859539D01*
X2281194Y1857000D01*
X250000Y1880157D02*
Y1870000D01*
X239843Y1880157D01*
X237304D01*
X234765Y1877617D01*
Y1872539D01*
X237304Y1870000D01*
X250000Y1892853D02*
X234765D01*
X242383Y1885235D01*
Y1895392D01*
X234765Y1900470D02*
X244922D01*
X250000Y1905549D01*
X244922Y1910627D01*
X234765D01*
Y1930940D02*
Y1936019D01*
Y1933479D01*
X250000D01*
Y1930940D01*
Y1936019D01*
Y1943636D02*
X239843D01*
Y1951254D01*
X242383Y1953793D01*
X250000D01*
X255078Y1958871D02*
X239843D01*
Y1966489D01*
X242383Y1969028D01*
X247461D01*
X250000Y1966489D01*
Y1958871D01*
X239843Y1974106D02*
X247461D01*
X250000Y1976646D01*
Y1984263D01*
X239843D01*
X237304Y1991881D02*
X239843D01*
Y1989341D01*
Y1994420D01*
Y1991881D01*
X247461D01*
X250000Y1994420D01*
X800157Y1782696D02*
X797617Y1785235D01*
X792539D01*
X790000Y1782696D01*
Y1780157D01*
X792539Y1777617D01*
X797617D01*
X800157Y1775078D01*
Y1772539D01*
X797617Y1770000D01*
X792539D01*
X790000Y1772539D01*
X807774Y1782696D02*
Y1780157D01*
X805235D01*
X810313D01*
X807774D01*
Y1772539D01*
X810313Y1770000D01*
X820470Y1780157D02*
X825548D01*
X828088Y1777617D01*
Y1770000D01*
X820470D01*
X817931Y1772539D01*
X820470Y1775078D01*
X828088D01*
X835705Y1782696D02*
Y1780157D01*
X833166D01*
X838244D01*
X835705D01*
Y1772539D01*
X838244Y1770000D01*
X845862Y1780157D02*
Y1772539D01*
X848401Y1770000D01*
X856019D01*
Y1780157D01*
X861097Y1770000D02*
X868715D01*
X871254Y1772539D01*
X868715Y1775078D01*
X863636D01*
X861097Y1777617D01*
X863636Y1780157D01*
X871254D01*
X891567Y1785235D02*
Y1770000D01*
X901724D01*
X914420D02*
X909341D01*
X906802Y1772539D01*
Y1777617D01*
X909341Y1780157D01*
X914420D01*
X916959Y1777617D01*
Y1775078D01*
X906802D01*
X932194Y1785235D02*
Y1770000D01*
X924576D01*
X922037Y1772539D01*
Y1777617D01*
X924576Y1780157D01*
X932194D01*
X937272Y1770000D02*
X944890D01*
X947429Y1772539D01*
X944890Y1775078D01*
X939811D01*
X937272Y1777617D01*
X939811Y1780157D01*
X947429D01*
X761000Y1832500D02*
Y1847735D01*
X768617D01*
X771157Y1845196D01*
Y1840118D01*
X768617Y1837578D01*
X761000D01*
X766078D02*
X771157Y1832500D01*
X776235D02*
X781313D01*
X778774D01*
Y1847735D01*
X776235Y1845196D01*
X788931D02*
X791470Y1847735D01*
X796548D01*
X799088Y1845196D01*
Y1842657D01*
X796548Y1840118D01*
X799088Y1837578D01*
Y1835039D01*
X796548Y1832500D01*
X791470D01*
X788931Y1835039D01*
Y1837578D01*
X791470Y1840118D01*
X788931Y1842657D01*
Y1845196D01*
X791470Y1840118D02*
X796548D01*
X620000Y1860000D02*
Y1875235D01*
X627617D01*
X630157Y1872696D01*
Y1867617D01*
X627617Y1865078D01*
X620000D01*
X625078D02*
X630157Y1860000D01*
X635235D02*
X640313D01*
X637774D01*
Y1875235D01*
X635235Y1872696D01*
X647931Y1875235D02*
X658088D01*
Y1872696D01*
X647931Y1862539D01*
Y1860000D01*
X762750Y1884000D02*
Y1899235D01*
X770368D01*
X772907Y1896696D01*
Y1891617D01*
X770368Y1889078D01*
X762750D01*
X767828D02*
X772907Y1884000D01*
X777985D02*
X783063D01*
X780524D01*
Y1899235D01*
X777985Y1896696D01*
X800838Y1899235D02*
X795759Y1896696D01*
X790681Y1891617D01*
Y1886539D01*
X793220Y1884000D01*
X798298D01*
X800838Y1886539D01*
Y1889078D01*
X798298Y1891617D01*
X790681D01*
X657157Y1900946D02*
X654617Y1903485D01*
X649539D01*
X647000Y1900946D01*
Y1890789D01*
X649539Y1888250D01*
X654617D01*
X657157Y1890789D01*
X662235Y1888250D02*
X667313D01*
X664774D01*
Y1903485D01*
X662235Y1900946D01*
X674931Y1903485D02*
X685088D01*
Y1900946D01*
X674931Y1890789D01*
Y1888250D01*
X670000Y2895235D02*
X680157Y2880000D01*
Y2895235D02*
X670000Y2880000D01*
X695392Y2892696D02*
X692853Y2895235D01*
X687774D01*
X685235Y2892696D01*
Y2890157D01*
X687774Y2887617D01*
X692853D01*
X695392Y2885078D01*
Y2882539D01*
X692853Y2880000D01*
X687774D01*
X685235Y2882539D01*
X700470Y2880000D02*
X705548D01*
X703009D01*
Y2895235D01*
X700470Y2892696D01*
X761750Y1814485D02*
X771907D01*
X766828D01*
Y1799250D01*
X776985D02*
Y1809407D01*
X782063Y1814485D01*
X787142Y1809407D01*
Y1799250D01*
Y1806868D01*
X776985D01*
X799838Y1799250D02*
Y1814485D01*
X792220Y1806868D01*
X802377D01*
X306453Y2242235D02*
Y2227000D01*
X314071D01*
X316610Y2229539D01*
Y2239696D01*
X314071Y2242235D01*
X306453D01*
X321688Y2227000D02*
Y2237157D01*
X326767Y2242235D01*
X331845Y2237157D01*
Y2227000D01*
Y2234618D01*
X321688D01*
X336923Y2227000D02*
X342002D01*
X339462D01*
Y2242235D01*
X336923Y2239696D01*
X349619Y2224461D02*
X359776D01*
X364854Y2242235D02*
X375011D01*
X369933D01*
Y2227000D01*
X380089Y2242235D02*
Y2227000D01*
Y2234618D01*
X382629Y2237157D01*
X387707D01*
X390246Y2234618D01*
Y2227000D01*
X405481Y2239696D02*
X402942Y2242235D01*
X397864D01*
X395324Y2239696D01*
Y2229539D01*
X397864Y2227000D01*
X402942D01*
X405481Y2229539D01*
X410559Y2242235D02*
Y2227000D01*
Y2234618D01*
X413099Y2237157D01*
X418177D01*
X420716Y2234618D01*
Y2227000D01*
X425794D02*
X430873D01*
X428334D01*
Y2242235D01*
X425794Y2239696D01*
X3883601Y3102413D02*
X3873444D01*
Y3094796D01*
X3878523D01*
X3873444D01*
Y3087178D01*
X3888679Y3102413D02*
Y3089717D01*
X3891218Y3087178D01*
X3896297D01*
X3898836Y3089717D01*
Y3102413D01*
X3903914Y3087178D02*
X3908993D01*
X3906454D01*
Y3102413D01*
X3903914Y3099874D01*
X3916610Y3084639D02*
X3926767D01*
X3931845Y3102413D02*
X3942002D01*
X3936924D01*
Y3087178D01*
X3947080Y3102413D02*
Y3087178D01*
Y3094796D01*
X3949619Y3097335D01*
X3954698D01*
X3957237Y3094796D01*
Y3087178D01*
X3972472Y3099874D02*
X3969933Y3102413D01*
X3964855D01*
X3962315Y3099874D01*
Y3089717D01*
X3964855Y3087178D01*
X3969933D01*
X3972472Y3089717D01*
X3977550Y3102413D02*
Y3087178D01*
Y3094796D01*
X3980090Y3097335D01*
X3985168D01*
X3987707Y3094796D01*
Y3087178D01*
X3992786Y3099874D02*
X3995325Y3102413D01*
X4000403D01*
X4002942Y3099874D01*
Y3097335D01*
X4000403Y3094796D01*
X4002942Y3092256D01*
Y3089717D01*
X4000403Y3087178D01*
X3995325D01*
X3992786Y3089717D01*
Y3092256D01*
X3995325Y3094796D01*
X3992786Y3097335D01*
Y3099874D01*
X3995325Y3094796D02*
X4000403D01*
X3383601Y3102413D02*
X3373444D01*
Y3094796D01*
X3378523D01*
X3373444D01*
Y3087178D01*
X3388679Y3102413D02*
Y3089717D01*
X3391218Y3087178D01*
X3396297D01*
X3398836Y3089717D01*
Y3102413D01*
X3403914Y3087178D02*
X3408993D01*
X3406454D01*
Y3102413D01*
X3403914Y3099874D01*
X3416610Y3084639D02*
X3426767D01*
X3431845Y3102413D02*
X3442002D01*
X3436924D01*
Y3087178D01*
X3447080Y3102413D02*
Y3087178D01*
Y3094796D01*
X3449619Y3097335D01*
X3454698D01*
X3457237Y3094796D01*
Y3087178D01*
X3472472Y3099874D02*
X3469933Y3102413D01*
X3464855D01*
X3462315Y3099874D01*
Y3089717D01*
X3464855Y3087178D01*
X3469933D01*
X3472472Y3089717D01*
X3477550Y3102413D02*
Y3087178D01*
Y3094796D01*
X3480090Y3097335D01*
X3485168D01*
X3487707Y3094796D01*
Y3087178D01*
X3492786Y3102413D02*
X3502942D01*
Y3099874D01*
X3492786Y3089717D01*
Y3087178D01*
X2883601Y3102413D02*
X2873444D01*
Y3094796D01*
X2878523D01*
X2873444D01*
Y3087178D01*
X2888679Y3102413D02*
Y3089717D01*
X2891218Y3087178D01*
X2896297D01*
X2898836Y3089717D01*
Y3102413D01*
X2903914Y3087178D02*
X2908993D01*
X2906454D01*
Y3102413D01*
X2903914Y3099874D01*
X2916610Y3084639D02*
X2926767D01*
X2931845Y3102413D02*
X2942002D01*
X2936924D01*
Y3087178D01*
X2947080Y3102413D02*
Y3087178D01*
Y3094796D01*
X2949620Y3097335D01*
X2954698D01*
X2957237Y3094796D01*
Y3087178D01*
X2972472Y3099874D02*
X2969933Y3102413D01*
X2964855D01*
X2962315Y3099874D01*
Y3089717D01*
X2964855Y3087178D01*
X2969933D01*
X2972472Y3089717D01*
X2977550Y3102413D02*
Y3087178D01*
Y3094796D01*
X2980090Y3097335D01*
X2985168D01*
X2987707Y3094796D01*
Y3087178D01*
X3002942Y3102413D02*
X2997864Y3099874D01*
X2992786Y3094796D01*
Y3089717D01*
X2995325Y3087178D01*
X3000403D01*
X3002942Y3089717D01*
Y3092256D01*
X3000403Y3094796D01*
X2992786D01*
X2383601Y3102413D02*
X2373444D01*
Y3094796D01*
X2378522D01*
X2373444D01*
Y3087178D01*
X2388679Y3102413D02*
Y3089717D01*
X2391218Y3087178D01*
X2396297D01*
X2398836Y3089717D01*
Y3102413D01*
X2403914Y3087178D02*
X2408993D01*
X2406454D01*
Y3102413D01*
X2403914Y3099874D01*
X2416610Y3084639D02*
X2426767D01*
X2431845Y3102413D02*
X2442002D01*
X2436924D01*
Y3087178D01*
X2447080Y3102413D02*
Y3087178D01*
Y3094796D01*
X2449619Y3097335D01*
X2454698D01*
X2457237Y3094796D01*
Y3087178D01*
X2472472Y3099874D02*
X2469933Y3102413D01*
X2464855D01*
X2462315Y3099874D01*
Y3089717D01*
X2464855Y3087178D01*
X2469933D01*
X2472472Y3089717D01*
X2477551Y3102413D02*
Y3087178D01*
Y3094796D01*
X2480090Y3097335D01*
X2485168D01*
X2487707Y3094796D01*
Y3087178D01*
X2502942Y3102413D02*
X2492786D01*
Y3094796D01*
X2497864Y3097335D01*
X2500403D01*
X2502942Y3094796D01*
Y3089717D01*
X2500403Y3087178D01*
X2495325D01*
X2492786Y3089717D01*
X1883601Y3102413D02*
X1873444D01*
Y3094796D01*
X1878522D01*
X1873444D01*
Y3087178D01*
X1888679Y3102413D02*
Y3089717D01*
X1891218Y3087178D01*
X1896297D01*
X1898836Y3089717D01*
Y3102413D01*
X1903914Y3087178D02*
X1908993D01*
X1906454D01*
Y3102413D01*
X1903914Y3099874D01*
X1916610Y3084639D02*
X1926767D01*
X1931845Y3102413D02*
X1942002D01*
X1936924D01*
Y3087178D01*
X1947080Y3102413D02*
Y3087178D01*
Y3094796D01*
X1949619Y3097335D01*
X1954698D01*
X1957237Y3094796D01*
Y3087178D01*
X1972472Y3099874D02*
X1969933Y3102413D01*
X1964855D01*
X1962315Y3099874D01*
Y3089717D01*
X1964855Y3087178D01*
X1969933D01*
X1972472Y3089717D01*
X1977551Y3102413D02*
Y3087178D01*
Y3094796D01*
X1980090Y3097335D01*
X1985168D01*
X1987707Y3094796D01*
Y3087178D01*
X2000403D02*
Y3102413D01*
X1992786Y3094796D01*
X2002942D01*
X1383601Y3102413D02*
X1373444D01*
Y3094796D01*
X1378522D01*
X1373444D01*
Y3087178D01*
X1388679Y3102413D02*
Y3089717D01*
X1391218Y3087178D01*
X1396297D01*
X1398836Y3089717D01*
Y3102413D01*
X1403914Y3087178D02*
X1408993D01*
X1406454D01*
Y3102413D01*
X1403914Y3099874D01*
X1416610Y3084639D02*
X1426767D01*
X1431845Y3102413D02*
X1442002D01*
X1436924D01*
Y3087178D01*
X1447080Y3102413D02*
Y3087178D01*
Y3094796D01*
X1449619Y3097335D01*
X1454698D01*
X1457237Y3094796D01*
Y3087178D01*
X1472472Y3099874D02*
X1469933Y3102413D01*
X1464855D01*
X1462315Y3099874D01*
Y3089717D01*
X1464855Y3087178D01*
X1469933D01*
X1472472Y3089717D01*
X1477551Y3102413D02*
Y3087178D01*
Y3094796D01*
X1480090Y3097335D01*
X1485168D01*
X1487707Y3094796D01*
Y3087178D01*
X1492786Y3099874D02*
X1495325Y3102413D01*
X1500403D01*
X1502942Y3099874D01*
Y3097335D01*
X1500403Y3094796D01*
X1497864D01*
X1500403D01*
X1502942Y3092256D01*
Y3089717D01*
X1500403Y3087178D01*
X1495325D01*
X1492786Y3089717D01*
X883601Y3102413D02*
X873444D01*
Y3094796D01*
X878522D01*
X873444D01*
Y3087178D01*
X888679Y3102413D02*
Y3089717D01*
X891218Y3087178D01*
X896297D01*
X898836Y3089717D01*
Y3102413D01*
X903914Y3087178D02*
X908993D01*
X906453D01*
Y3102413D01*
X903914Y3099874D01*
X916610Y3084639D02*
X926767D01*
X931845Y3102413D02*
X942002D01*
X936924D01*
Y3087178D01*
X947080Y3102413D02*
Y3087178D01*
Y3094796D01*
X949620Y3097335D01*
X954698D01*
X957237Y3094796D01*
Y3087178D01*
X972472Y3099874D02*
X969933Y3102413D01*
X964855D01*
X962315Y3099874D01*
Y3089717D01*
X964855Y3087178D01*
X969933D01*
X972472Y3089717D01*
X977551Y3102413D02*
Y3087178D01*
Y3094796D01*
X980090Y3097335D01*
X985168D01*
X987707Y3094796D01*
Y3087178D01*
X1002942D02*
X992786D01*
X1002942Y3097335D01*
Y3099874D01*
X1000403Y3102413D01*
X995325D01*
X992786Y3099874D01*
X383601Y3102413D02*
X373444D01*
Y3094796D01*
X378522D01*
X373444D01*
Y3087178D01*
X388679Y3102413D02*
Y3089717D01*
X391218Y3087178D01*
X396297D01*
X398836Y3089717D01*
Y3102413D01*
X403914Y3087178D02*
X408993D01*
X406454D01*
Y3102413D01*
X403914Y3099874D01*
X416610Y3084639D02*
X426767D01*
X431845Y3102413D02*
X442002D01*
X436924D01*
Y3087178D01*
X447080Y3102413D02*
Y3087178D01*
Y3094796D01*
X449619Y3097335D01*
X454698D01*
X457237Y3094796D01*
Y3087178D01*
X472472Y3099874D02*
X469933Y3102413D01*
X464855D01*
X462315Y3099874D01*
Y3089717D01*
X464855Y3087178D01*
X469933D01*
X472472Y3089717D01*
X477551Y3102413D02*
Y3087178D01*
Y3094796D01*
X480090Y3097335D01*
X485168D01*
X487707Y3094796D01*
Y3087178D01*
X492786D02*
X497864D01*
X495325D01*
Y3102413D01*
X492786Y3099874D01*
X861765Y1843500D02*
X871921D01*
X877000Y1848578D01*
X871921Y1853657D01*
X861765D01*
Y1858735D02*
X877000D01*
Y1866353D01*
X874461Y1868892D01*
X864304D01*
X861765Y1866353D01*
Y1858735D01*
X864304Y1873970D02*
X861765Y1876509D01*
Y1881588D01*
X864304Y1884127D01*
X866843D01*
X869382Y1881588D01*
Y1879048D01*
Y1881588D01*
X871921Y1884127D01*
X874461D01*
X877000Y1881588D01*
Y1876509D01*
X874461Y1873970D01*
X1501500Y1877485D02*
X1511657D01*
Y1874946D01*
X1501500Y1864789D01*
Y1862250D01*
X1511657D01*
X1526892Y1864789D02*
Y1874946D01*
X1524353Y1877485D01*
X1519274D01*
X1516735Y1874946D01*
Y1864789D01*
X1519274Y1862250D01*
X1524353D01*
X1521813Y1867328D02*
X1526892Y1862250D01*
X1524353D02*
X1526892Y1864789D01*
X1531970Y1862250D02*
X1537048D01*
X1534509D01*
Y1877485D01*
X1531970Y1874946D01*
X315765Y1853000D02*
X331000Y1863157D01*
X315765D02*
X331000Y1853000D01*
X318304Y1878392D02*
X315765Y1875853D01*
Y1870774D01*
X318304Y1868235D01*
X320843D01*
X323382Y1870774D01*
Y1875853D01*
X325922Y1878392D01*
X328461D01*
X331000Y1875853D01*
Y1870774D01*
X328461Y1868235D01*
X331000Y1883470D02*
Y1888548D01*
Y1886009D01*
X315765D01*
X318304Y1883470D01*
Y1896166D02*
X315765Y1898705D01*
Y1903784D01*
X318304Y1906323D01*
X320843D01*
X323382Y1903784D01*
Y1901244D01*
Y1903784D01*
X325922Y1906323D01*
X328461D01*
X331000Y1903784D01*
Y1898705D01*
X328461Y1896166D01*
X311765Y1974000D02*
X327000Y1984157D01*
X311765D02*
X327000Y1974000D01*
X314304Y1999392D02*
X311765Y1996853D01*
Y1991774D01*
X314304Y1989235D01*
X316843D01*
X319382Y1991774D01*
Y1996853D01*
X321922Y1999392D01*
X324461D01*
X327000Y1996853D01*
Y1991774D01*
X324461Y1989235D01*
X327000Y2004470D02*
Y2009548D01*
Y2007009D01*
X311765D01*
X314304Y2004470D01*
X327000Y2027323D02*
Y2017166D01*
X316843Y2027323D01*
X314304D01*
X311765Y2024784D01*
Y2019705D01*
X314304Y2017166D01*
X4025000Y2820235D02*
X4035157Y2805000D01*
Y2820235D02*
X4025000Y2805000D01*
X4050392Y2817696D02*
X4047852Y2820235D01*
X4042774D01*
X4040235Y2817696D01*
Y2815157D01*
X4042774Y2812617D01*
X4047852D01*
X4050392Y2810078D01*
Y2807539D01*
X4047852Y2805000D01*
X4042774D01*
X4040235Y2807539D01*
X4055470Y2805000D02*
X4060548D01*
X4058009D01*
Y2820235D01*
X4055470Y2817696D01*
X4068166Y2805000D02*
X4073244D01*
X4070705D01*
Y2820235D01*
X4068166Y2817696D01*
X4080862Y2802461D02*
X4091019D01*
X4096097Y2820235D02*
X4106254D01*
X4101175D01*
Y2805000D01*
X4111332Y2820235D02*
Y2805000D01*
Y2812617D01*
X4113871Y2815157D01*
X4118950D01*
X4121489Y2812617D01*
Y2805000D01*
X4136724Y2817696D02*
X4134185Y2820235D01*
X4129106D01*
X4126567Y2817696D01*
Y2807539D01*
X4129106Y2805000D01*
X4134185D01*
X4136724Y2807539D01*
X4141802Y2820235D02*
Y2805000D01*
Y2812617D01*
X4144341Y2815157D01*
X4149420D01*
X4151959Y2812617D01*
Y2805000D01*
X4157037Y2817696D02*
X4159576Y2820235D01*
X4164655D01*
X4167194Y2817696D01*
Y2815157D01*
X4164655Y2812617D01*
X4167194Y2810078D01*
Y2807539D01*
X4164655Y2805000D01*
X4159576D01*
X4157037Y2807539D01*
Y2810078D01*
X4159576Y2812617D01*
X4157037Y2815157D01*
Y2817696D01*
X4159576Y2812617D02*
X4164655D01*
X3525000Y2820235D02*
X3535157Y2805000D01*
Y2820235D02*
X3525000Y2805000D01*
X3550392Y2817696D02*
X3547852Y2820235D01*
X3542774D01*
X3540235Y2817696D01*
Y2815157D01*
X3542774Y2812617D01*
X3547852D01*
X3550392Y2810078D01*
Y2807539D01*
X3547852Y2805000D01*
X3542774D01*
X3540235Y2807539D01*
X3555470Y2805000D02*
X3560548D01*
X3558009D01*
Y2820235D01*
X3555470Y2817696D01*
X3568166Y2805000D02*
X3573244D01*
X3570705D01*
Y2820235D01*
X3568166Y2817696D01*
X3580862Y2802461D02*
X3591019D01*
X3596097Y2820235D02*
X3606254D01*
X3601175D01*
Y2805000D01*
X3611332Y2820235D02*
Y2805000D01*
Y2812617D01*
X3613871Y2815157D01*
X3618950D01*
X3621489Y2812617D01*
Y2805000D01*
X3636724Y2817696D02*
X3634185Y2820235D01*
X3629106D01*
X3626567Y2817696D01*
Y2807539D01*
X3629106Y2805000D01*
X3634185D01*
X3636724Y2807539D01*
X3641802Y2820235D02*
Y2805000D01*
Y2812617D01*
X3644341Y2815157D01*
X3649420D01*
X3651959Y2812617D01*
Y2805000D01*
X3657037Y2820235D02*
X3667194D01*
Y2817696D01*
X3657037Y2807539D01*
Y2805000D01*
X3060000Y2825235D02*
X3070157Y2810000D01*
Y2825235D02*
X3060000Y2810000D01*
X3085392Y2822696D02*
X3082852Y2825235D01*
X3077774D01*
X3075235Y2822696D01*
Y2820157D01*
X3077774Y2817617D01*
X3082852D01*
X3085392Y2815078D01*
Y2812539D01*
X3082852Y2810000D01*
X3077774D01*
X3075235Y2812539D01*
X3090470Y2810000D02*
X3095548D01*
X3093009D01*
Y2825235D01*
X3090470Y2822696D01*
X3103166Y2810000D02*
X3108244D01*
X3105705D01*
Y2825235D01*
X3103166Y2822696D01*
X3115862Y2807461D02*
X3126019D01*
X3131097Y2825235D02*
X3141254D01*
X3136175D01*
Y2810000D01*
X3146332Y2825235D02*
Y2810000D01*
Y2817617D01*
X3148871Y2820157D01*
X3153950D01*
X3156489Y2817617D01*
Y2810000D01*
X3171724Y2822696D02*
X3169185Y2825235D01*
X3164106D01*
X3161567Y2822696D01*
Y2812539D01*
X3164106Y2810000D01*
X3169185D01*
X3171724Y2812539D01*
X3176802Y2825235D02*
Y2810000D01*
Y2817617D01*
X3179341Y2820157D01*
X3184420D01*
X3186959Y2817617D01*
Y2810000D01*
X3202194Y2825235D02*
X3197115Y2822696D01*
X3192037Y2817617D01*
Y2812539D01*
X3194576Y2810000D01*
X3199655D01*
X3202194Y2812539D01*
Y2815078D01*
X3199655Y2817617D01*
X3192037D01*
X2580000Y2825235D02*
X2590157Y2810000D01*
Y2825235D02*
X2580000Y2810000D01*
X2605392Y2822696D02*
X2602852Y2825235D01*
X2597774D01*
X2595235Y2822696D01*
Y2820157D01*
X2597774Y2817617D01*
X2602852D01*
X2605392Y2815078D01*
Y2812539D01*
X2602852Y2810000D01*
X2597774D01*
X2595235Y2812539D01*
X2610470Y2810000D02*
X2615548D01*
X2613009D01*
Y2825235D01*
X2610470Y2822696D01*
X2623166Y2810000D02*
X2628244D01*
X2625705D01*
Y2825235D01*
X2623166Y2822696D01*
X2635862Y2807461D02*
X2646019D01*
X2651097Y2825235D02*
X2661254D01*
X2656175D01*
Y2810000D01*
X2666332Y2825235D02*
Y2810000D01*
Y2817617D01*
X2668871Y2820157D01*
X2673950D01*
X2676489Y2817617D01*
Y2810000D01*
X2691724Y2822696D02*
X2689185Y2825235D01*
X2684106D01*
X2681567Y2822696D01*
Y2812539D01*
X2684106Y2810000D01*
X2689185D01*
X2691724Y2812539D01*
X2696802Y2825235D02*
Y2810000D01*
Y2817617D01*
X2699341Y2820157D01*
X2704420D01*
X2706959Y2817617D01*
Y2810000D01*
X2722194Y2825235D02*
X2712037D01*
Y2817617D01*
X2717115Y2820157D01*
X2719655D01*
X2722194Y2817617D01*
Y2812539D01*
X2719655Y2810000D01*
X2714576D01*
X2712037Y2812539D01*
X2080000Y2825235D02*
X2090157Y2810000D01*
Y2825235D02*
X2080000Y2810000D01*
X2105392Y2822696D02*
X2102853Y2825235D01*
X2097774D01*
X2095235Y2822696D01*
Y2820157D01*
X2097774Y2817617D01*
X2102853D01*
X2105392Y2815078D01*
Y2812539D01*
X2102853Y2810000D01*
X2097774D01*
X2095235Y2812539D01*
X2110470Y2810000D02*
X2115549D01*
X2113009D01*
Y2825235D01*
X2110470Y2822696D01*
X2123166Y2810000D02*
X2128244D01*
X2125705D01*
Y2825235D01*
X2123166Y2822696D01*
X2135862Y2807461D02*
X2146019D01*
X2151097Y2825235D02*
X2161254D01*
X2156175D01*
Y2810000D01*
X2166332Y2825235D02*
Y2810000D01*
Y2817617D01*
X2168871Y2820157D01*
X2173950D01*
X2176489Y2817617D01*
Y2810000D01*
X2191724Y2822696D02*
X2189185Y2825235D01*
X2184106D01*
X2181567Y2822696D01*
Y2812539D01*
X2184106Y2810000D01*
X2189185D01*
X2191724Y2812539D01*
X2196802Y2825235D02*
Y2810000D01*
Y2817617D01*
X2199341Y2820157D01*
X2204420D01*
X2206959Y2817617D01*
Y2810000D01*
X2219655D02*
Y2825235D01*
X2212037Y2817617D01*
X2222194D01*
X1570000Y2825235D02*
X1580157Y2810000D01*
Y2825235D02*
X1570000Y2810000D01*
X1595392Y2822696D02*
X1592853Y2825235D01*
X1587774D01*
X1585235Y2822696D01*
Y2820157D01*
X1587774Y2817617D01*
X1592853D01*
X1595392Y2815078D01*
Y2812539D01*
X1592853Y2810000D01*
X1587774D01*
X1585235Y2812539D01*
X1600470Y2810000D02*
X1605549D01*
X1603009D01*
Y2825235D01*
X1600470Y2822696D01*
X1613166Y2810000D02*
X1618244D01*
X1615705D01*
Y2825235D01*
X1613166Y2822696D01*
X1625862Y2807461D02*
X1636019D01*
X1641097Y2825235D02*
X1651254D01*
X1646175D01*
Y2810000D01*
X1656332Y2825235D02*
Y2810000D01*
Y2817617D01*
X1658871Y2820157D01*
X1663950D01*
X1666489Y2817617D01*
Y2810000D01*
X1681724Y2822696D02*
X1679185Y2825235D01*
X1674106D01*
X1671567Y2822696D01*
Y2812539D01*
X1674106Y2810000D01*
X1679185D01*
X1681724Y2812539D01*
X1686802Y2825235D02*
Y2810000D01*
Y2817617D01*
X1689341Y2820157D01*
X1694420D01*
X1696959Y2817617D01*
Y2810000D01*
X1702037Y2822696D02*
X1704577Y2825235D01*
X1709655D01*
X1712194Y2822696D01*
Y2820157D01*
X1709655Y2817617D01*
X1707116D01*
X1709655D01*
X1712194Y2815078D01*
Y2812539D01*
X1709655Y2810000D01*
X1704577D01*
X1702037Y2812539D01*
X1090000Y2825235D02*
X1100157Y2810000D01*
Y2825235D02*
X1090000Y2810000D01*
X1115392Y2822696D02*
X1112853Y2825235D01*
X1107774D01*
X1105235Y2822696D01*
Y2820157D01*
X1107774Y2817617D01*
X1112853D01*
X1115392Y2815078D01*
Y2812539D01*
X1112853Y2810000D01*
X1107774D01*
X1105235Y2812539D01*
X1120470Y2810000D02*
X1125548D01*
X1123009D01*
Y2825235D01*
X1120470Y2822696D01*
X1133166Y2810000D02*
X1138244D01*
X1135705D01*
Y2825235D01*
X1133166Y2822696D01*
X1145862Y2807461D02*
X1156019D01*
X1161097Y2825235D02*
X1171254D01*
X1166175D01*
Y2810000D01*
X1176332Y2825235D02*
Y2810000D01*
Y2817617D01*
X1178871Y2820157D01*
X1183950D01*
X1186489Y2817617D01*
Y2810000D01*
X1201724Y2822696D02*
X1199185Y2825235D01*
X1194106D01*
X1191567Y2822696D01*
Y2812539D01*
X1194106Y2810000D01*
X1199185D01*
X1201724Y2812539D01*
X1206802Y2825235D02*
Y2810000D01*
Y2817617D01*
X1209341Y2820157D01*
X1214420D01*
X1216959Y2817617D01*
Y2810000D01*
X1232194D02*
X1222037D01*
X1232194Y2820157D01*
Y2822696D01*
X1229655Y2825235D01*
X1224576D01*
X1222037Y2822696D01*
X590000Y2825235D02*
X600157Y2810000D01*
Y2825235D02*
X590000Y2810000D01*
X615392Y2822696D02*
X612853Y2825235D01*
X607774D01*
X605235Y2822696D01*
Y2820157D01*
X607774Y2817617D01*
X612853D01*
X615392Y2815078D01*
Y2812539D01*
X612853Y2810000D01*
X607774D01*
X605235Y2812539D01*
X620470Y2810000D02*
X625549D01*
X623009D01*
Y2825235D01*
X620470Y2822696D01*
X633166Y2810000D02*
X638244D01*
X635705D01*
Y2825235D01*
X633166Y2822696D01*
X645862Y2807461D02*
X656019D01*
X661097Y2825235D02*
X671254D01*
X666175D01*
Y2810000D01*
X676332Y2825235D02*
Y2810000D01*
Y2817617D01*
X678871Y2820157D01*
X683950D01*
X686489Y2817617D01*
Y2810000D01*
X701724Y2822696D02*
X699185Y2825235D01*
X694106D01*
X691567Y2822696D01*
Y2812539D01*
X694106Y2810000D01*
X699185D01*
X701724Y2812539D01*
X706802Y2825235D02*
Y2810000D01*
Y2817617D01*
X709341Y2820157D01*
X714420D01*
X716959Y2817617D01*
Y2810000D01*
X722037D02*
X727116D01*
X724576D01*
Y2825235D01*
X722037Y2822696D01*
X4199765Y2136800D02*
X4215000Y2146957D01*
X4199765D02*
X4215000Y2136800D01*
X4202304Y2162192D02*
X4199765Y2159653D01*
Y2154574D01*
X4202304Y2152035D01*
X4204843D01*
X4207383Y2154574D01*
Y2159653D01*
X4209922Y2162192D01*
X4212461D01*
X4215000Y2159653D01*
Y2154574D01*
X4212461Y2152035D01*
X4215000Y2167270D02*
Y2172348D01*
Y2169809D01*
X4199765D01*
X4202304Y2167270D01*
Y2179966D02*
X4199765Y2182505D01*
Y2187583D01*
X4202304Y2190123D01*
X4212461D01*
X4215000Y2187583D01*
Y2182505D01*
X4212461Y2179966D01*
X4202304D01*
X4217539Y2195201D02*
Y2205358D01*
X4199765Y2210436D02*
Y2220593D01*
Y2215515D01*
X4215000D01*
X4199765Y2225671D02*
X4215000D01*
X4207383D01*
X4204843Y2228210D01*
Y2233289D01*
X4207383Y2235828D01*
X4215000D01*
X4202304Y2251063D02*
X4199765Y2248524D01*
Y2243445D01*
X4202304Y2240906D01*
X4212461D01*
X4215000Y2243445D01*
Y2248524D01*
X4212461Y2251063D01*
X4199765Y2256141D02*
X4215000D01*
X4207383D01*
X4204843Y2258681D01*
Y2263759D01*
X4207383Y2266298D01*
X4215000D01*
X4202304Y2271376D02*
X4199765Y2273916D01*
Y2278994D01*
X4202304Y2281533D01*
X4204843D01*
X4207383Y2278994D01*
X4209922Y2281533D01*
X4212461D01*
X4215000Y2278994D01*
Y2273916D01*
X4212461Y2271376D01*
X4209922D01*
X4207383Y2273916D01*
X4204843Y2271376D01*
X4202304D01*
X4207383Y2273916D02*
Y2278994D01*
X3699765Y2136800D02*
X3715000Y2146957D01*
X3699765D02*
X3715000Y2136800D01*
X3702304Y2162192D02*
X3699765Y2159653D01*
Y2154574D01*
X3702304Y2152035D01*
X3704843D01*
X3707383Y2154574D01*
Y2159653D01*
X3709922Y2162192D01*
X3712461D01*
X3715000Y2159653D01*
Y2154574D01*
X3712461Y2152035D01*
X3715000Y2167270D02*
Y2172348D01*
Y2169809D01*
X3699765D01*
X3702304Y2167270D01*
Y2179966D02*
X3699765Y2182505D01*
Y2187583D01*
X3702304Y2190123D01*
X3712461D01*
X3715000Y2187583D01*
Y2182505D01*
X3712461Y2179966D01*
X3702304D01*
X3717539Y2195201D02*
Y2205358D01*
X3699765Y2210436D02*
Y2220593D01*
Y2215514D01*
X3715000D01*
X3699765Y2225671D02*
X3715000D01*
X3707383D01*
X3704843Y2228210D01*
Y2233289D01*
X3707383Y2235828D01*
X3715000D01*
X3702304Y2251063D02*
X3699765Y2248524D01*
Y2243445D01*
X3702304Y2240906D01*
X3712461D01*
X3715000Y2243445D01*
Y2248524D01*
X3712461Y2251063D01*
X3699765Y2256141D02*
X3715000D01*
X3707383D01*
X3704843Y2258681D01*
Y2263759D01*
X3707383Y2266298D01*
X3715000D01*
X3699765Y2271376D02*
Y2281533D01*
X3702304D01*
X3712461Y2271376D01*
X3715000D01*
X3199765Y2136800D02*
X3215000Y2146957D01*
X3199765D02*
X3215000Y2136800D01*
X3202304Y2162192D02*
X3199765Y2159653D01*
Y2154574D01*
X3202304Y2152035D01*
X3204843D01*
X3207383Y2154574D01*
Y2159653D01*
X3209922Y2162192D01*
X3212461D01*
X3215000Y2159653D01*
Y2154574D01*
X3212461Y2152035D01*
X3215000Y2167270D02*
Y2172348D01*
Y2169809D01*
X3199765D01*
X3202304Y2167270D01*
Y2179966D02*
X3199765Y2182505D01*
Y2187583D01*
X3202304Y2190123D01*
X3212461D01*
X3215000Y2187583D01*
Y2182505D01*
X3212461Y2179966D01*
X3202304D01*
X3217539Y2195201D02*
Y2205358D01*
X3199765Y2210436D02*
Y2220593D01*
Y2215515D01*
X3215000D01*
X3199765Y2225671D02*
X3215000D01*
X3207383D01*
X3204843Y2228210D01*
Y2233289D01*
X3207383Y2235828D01*
X3215000D01*
X3202304Y2251063D02*
X3199765Y2248524D01*
Y2243445D01*
X3202304Y2240906D01*
X3212461D01*
X3215000Y2243445D01*
Y2248524D01*
X3212461Y2251063D01*
X3199765Y2256141D02*
X3215000D01*
X3207383D01*
X3204843Y2258681D01*
Y2263759D01*
X3207383Y2266298D01*
X3215000D01*
X3199765Y2281533D02*
X3202304Y2276455D01*
X3207383Y2271376D01*
X3212461D01*
X3215000Y2273916D01*
Y2278994D01*
X3212461Y2281533D01*
X3209922D01*
X3207383Y2278994D01*
Y2271376D01*
X2699765Y2136800D02*
X2715000Y2146957D01*
X2699765D02*
X2715000Y2136800D01*
X2702304Y2162192D02*
X2699765Y2159653D01*
Y2154574D01*
X2702304Y2152035D01*
X2704843D01*
X2707383Y2154574D01*
Y2159653D01*
X2709922Y2162192D01*
X2712461D01*
X2715000Y2159653D01*
Y2154574D01*
X2712461Y2152035D01*
X2715000Y2167270D02*
Y2172348D01*
Y2169809D01*
X2699765D01*
X2702304Y2167270D01*
Y2179966D02*
X2699765Y2182505D01*
Y2187583D01*
X2702304Y2190123D01*
X2712461D01*
X2715000Y2187583D01*
Y2182505D01*
X2712461Y2179966D01*
X2702304D01*
X2717539Y2195201D02*
Y2205358D01*
X2699765Y2210436D02*
Y2220593D01*
Y2215515D01*
X2715000D01*
X2699765Y2225671D02*
X2715000D01*
X2707383D01*
X2704843Y2228210D01*
Y2233289D01*
X2707383Y2235828D01*
X2715000D01*
X2702304Y2251063D02*
X2699765Y2248524D01*
Y2243445D01*
X2702304Y2240906D01*
X2712461D01*
X2715000Y2243445D01*
Y2248524D01*
X2712461Y2251063D01*
X2699765Y2256141D02*
X2715000D01*
X2707383D01*
X2704843Y2258681D01*
Y2263759D01*
X2707383Y2266298D01*
X2715000D01*
X2699765Y2281533D02*
Y2271376D01*
X2707383D01*
X2704843Y2276455D01*
Y2278994D01*
X2707383Y2281533D01*
X2712461D01*
X2715000Y2278994D01*
Y2273916D01*
X2712461Y2271376D01*
X2199765Y2136800D02*
X2215000Y2146957D01*
X2199765D02*
X2215000Y2136800D01*
X2202304Y2162192D02*
X2199765Y2159653D01*
Y2154574D01*
X2202304Y2152035D01*
X2204843D01*
X2207383Y2154574D01*
Y2159653D01*
X2209922Y2162192D01*
X2212461D01*
X2215000Y2159653D01*
Y2154574D01*
X2212461Y2152035D01*
X2215000Y2167270D02*
Y2172348D01*
Y2169809D01*
X2199765D01*
X2202304Y2167270D01*
Y2179966D02*
X2199765Y2182505D01*
Y2187583D01*
X2202304Y2190123D01*
X2212461D01*
X2215000Y2187583D01*
Y2182505D01*
X2212461Y2179966D01*
X2202304D01*
X2217539Y2195201D02*
Y2205358D01*
X2199765Y2210436D02*
Y2220593D01*
Y2215515D01*
X2215000D01*
X2199765Y2225671D02*
X2215000D01*
X2207383D01*
X2204843Y2228210D01*
Y2233289D01*
X2207383Y2235828D01*
X2215000D01*
X2202304Y2251063D02*
X2199765Y2248524D01*
Y2243445D01*
X2202304Y2240906D01*
X2212461D01*
X2215000Y2243445D01*
Y2248524D01*
X2212461Y2251063D01*
X2199765Y2256141D02*
X2215000D01*
X2207383D01*
X2204843Y2258681D01*
Y2263759D01*
X2207383Y2266298D01*
X2215000D01*
Y2278994D02*
X2199765D01*
X2207383Y2271376D01*
Y2281533D01*
X1699765Y2136800D02*
X1715000Y2146957D01*
X1699765D02*
X1715000Y2136800D01*
X1702304Y2162192D02*
X1699765Y2159653D01*
Y2154574D01*
X1702304Y2152035D01*
X1704843D01*
X1707383Y2154574D01*
Y2159653D01*
X1709922Y2162192D01*
X1712461D01*
X1715000Y2159653D01*
Y2154574D01*
X1712461Y2152035D01*
X1715000Y2167270D02*
Y2172348D01*
Y2169809D01*
X1699765D01*
X1702304Y2167270D01*
Y2179966D02*
X1699765Y2182505D01*
Y2187583D01*
X1702304Y2190123D01*
X1712461D01*
X1715000Y2187583D01*
Y2182505D01*
X1712461Y2179966D01*
X1702304D01*
X1717539Y2195201D02*
Y2205358D01*
X1699765Y2210436D02*
Y2220593D01*
Y2215514D01*
X1715000D01*
X1699765Y2225671D02*
X1715000D01*
X1707383D01*
X1704843Y2228210D01*
Y2233289D01*
X1707383Y2235828D01*
X1715000D01*
X1702304Y2251063D02*
X1699765Y2248524D01*
Y2243445D01*
X1702304Y2240906D01*
X1712461D01*
X1715000Y2243445D01*
Y2248524D01*
X1712461Y2251063D01*
X1699765Y2256141D02*
X1715000D01*
X1707383D01*
X1704843Y2258681D01*
Y2263759D01*
X1707383Y2266298D01*
X1715000D01*
X1702304Y2271376D02*
X1699765Y2273916D01*
Y2278994D01*
X1702304Y2281533D01*
X1704843D01*
X1707383Y2278994D01*
Y2276455D01*
Y2278994D01*
X1709922Y2281533D01*
X1712461D01*
X1715000Y2278994D01*
Y2273916D01*
X1712461Y2271376D01*
X1199765Y2136800D02*
X1215000Y2146957D01*
X1199765D02*
X1215000Y2136800D01*
X1202304Y2162192D02*
X1199765Y2159653D01*
Y2154574D01*
X1202304Y2152035D01*
X1204843D01*
X1207383Y2154574D01*
Y2159653D01*
X1209922Y2162192D01*
X1212461D01*
X1215000Y2159653D01*
Y2154574D01*
X1212461Y2152035D01*
X1215000Y2167270D02*
Y2172348D01*
Y2169809D01*
X1199765D01*
X1202304Y2167270D01*
Y2179966D02*
X1199765Y2182505D01*
Y2187583D01*
X1202304Y2190123D01*
X1212461D01*
X1215000Y2187583D01*
Y2182505D01*
X1212461Y2179966D01*
X1202304D01*
X1217539Y2195201D02*
Y2205358D01*
X1199765Y2210436D02*
Y2220593D01*
Y2215514D01*
X1215000D01*
X1199765Y2225671D02*
X1215000D01*
X1207383D01*
X1204843Y2228210D01*
Y2233289D01*
X1207383Y2235828D01*
X1215000D01*
X1202304Y2251063D02*
X1199765Y2248524D01*
Y2243445D01*
X1202304Y2240906D01*
X1212461D01*
X1215000Y2243445D01*
Y2248524D01*
X1212461Y2251063D01*
X1199765Y2256141D02*
X1215000D01*
X1207383D01*
X1204843Y2258681D01*
Y2263759D01*
X1207383Y2266298D01*
X1215000D01*
Y2281533D02*
Y2271376D01*
X1204843Y2281533D01*
X1202304D01*
X1199765Y2278994D01*
Y2273916D01*
X1202304Y2271376D01*
X692265Y2132000D02*
X707500Y2142157D01*
X692265D02*
X707500Y2132000D01*
X694804Y2157392D02*
X692265Y2154853D01*
Y2149774D01*
X694804Y2147235D01*
X697343D01*
X699883Y2149774D01*
Y2154853D01*
X702422Y2157392D01*
X704961D01*
X707500Y2154853D01*
Y2149774D01*
X704961Y2147235D01*
X707500Y2162470D02*
Y2167549D01*
Y2165009D01*
X692265D01*
X694804Y2162470D01*
Y2175166D02*
X692265Y2177705D01*
Y2182784D01*
X694804Y2185323D01*
X704961D01*
X707500Y2182784D01*
Y2177705D01*
X704961Y2175166D01*
X694804D01*
X710039Y2190401D02*
Y2200558D01*
X692265Y2205636D02*
Y2215793D01*
Y2210715D01*
X707500D01*
X692265Y2220871D02*
X707500D01*
X699883D01*
X697343Y2223410D01*
Y2228489D01*
X699883Y2231028D01*
X707500D01*
X694804Y2246263D02*
X692265Y2243724D01*
Y2238645D01*
X694804Y2236106D01*
X704961D01*
X707500Y2238645D01*
Y2243724D01*
X704961Y2246263D01*
X692265Y2251341D02*
X707500D01*
X699883D01*
X697343Y2253881D01*
Y2258959D01*
X699883Y2261498D01*
X707500D01*
Y2266577D02*
Y2271655D01*
Y2269116D01*
X692265D01*
X694804Y2266577D01*
X4054765Y2459000D02*
X4070000Y2469157D01*
X4054765D02*
X4070000Y2459000D01*
X4057304Y2484392D02*
X4054765Y2481853D01*
Y2476774D01*
X4057304Y2474235D01*
X4059843D01*
X4062383Y2476774D01*
Y2481853D01*
X4064922Y2484392D01*
X4067461D01*
X4070000Y2481853D01*
Y2476774D01*
X4067461Y2474235D01*
Y2489470D02*
X4070000Y2492009D01*
Y2497088D01*
X4067461Y2499627D01*
X4057304D01*
X4054765Y2497088D01*
Y2492009D01*
X4057304Y2489470D01*
X4059843D01*
X4062383Y2492009D01*
Y2499627D01*
X4072539Y2504705D02*
Y2514862D01*
X4054765Y2519940D02*
Y2530097D01*
Y2525018D01*
X4070000D01*
X4054765Y2535175D02*
X4070000D01*
X4062383D01*
X4059843Y2537714D01*
Y2542793D01*
X4062383Y2545332D01*
X4070000D01*
X4057304Y2560567D02*
X4054765Y2558028D01*
Y2552950D01*
X4057304Y2550410D01*
X4067461D01*
X4070000Y2552950D01*
Y2558028D01*
X4067461Y2560567D01*
X4054765Y2565645D02*
X4070000D01*
X4062383D01*
X4059843Y2568185D01*
Y2573263D01*
X4062383Y2575802D01*
X4070000D01*
X4057304Y2580880D02*
X4054765Y2583419D01*
Y2588498D01*
X4057304Y2591037D01*
X4059843D01*
X4062383Y2588498D01*
X4064922Y2591037D01*
X4067461D01*
X4070000Y2588498D01*
Y2583419D01*
X4067461Y2580880D01*
X4064922D01*
X4062383Y2583419D01*
X4059843Y2580880D01*
X4057304D01*
X4062383Y2583419D02*
Y2588498D01*
X3554765Y2459000D02*
X3570000Y2469157D01*
X3554765D02*
X3570000Y2459000D01*
X3557304Y2484392D02*
X3554765Y2481853D01*
Y2476774D01*
X3557304Y2474235D01*
X3559843D01*
X3562383Y2476774D01*
Y2481853D01*
X3564922Y2484392D01*
X3567461D01*
X3570000Y2481853D01*
Y2476774D01*
X3567461Y2474235D01*
Y2489470D02*
X3570000Y2492009D01*
Y2497088D01*
X3567461Y2499627D01*
X3557304D01*
X3554765Y2497088D01*
Y2492009D01*
X3557304Y2489470D01*
X3559843D01*
X3562383Y2492009D01*
Y2499627D01*
X3572539Y2504705D02*
Y2514862D01*
X3554765Y2519940D02*
Y2530097D01*
Y2525018D01*
X3570000D01*
X3554765Y2535175D02*
X3570000D01*
X3562383D01*
X3559843Y2537715D01*
Y2542793D01*
X3562383Y2545332D01*
X3570000D01*
X3557304Y2560567D02*
X3554765Y2558028D01*
Y2552950D01*
X3557304Y2550410D01*
X3567461D01*
X3570000Y2552950D01*
Y2558028D01*
X3567461Y2560567D01*
X3554765Y2565645D02*
X3570000D01*
X3562383D01*
X3559843Y2568185D01*
Y2573263D01*
X3562383Y2575802D01*
X3570000D01*
X3554765Y2580880D02*
Y2591037D01*
X3557304D01*
X3567461Y2580880D01*
X3570000D01*
X3054765Y2459000D02*
X3070000Y2469157D01*
X3054765D02*
X3070000Y2459000D01*
X3057304Y2484392D02*
X3054765Y2481853D01*
Y2476774D01*
X3057304Y2474235D01*
X3059843D01*
X3062383Y2476774D01*
Y2481853D01*
X3064922Y2484392D01*
X3067461D01*
X3070000Y2481853D01*
Y2476774D01*
X3067461Y2474235D01*
Y2489470D02*
X3070000Y2492009D01*
Y2497088D01*
X3067461Y2499627D01*
X3057304D01*
X3054765Y2497088D01*
Y2492009D01*
X3057304Y2489470D01*
X3059843D01*
X3062383Y2492009D01*
Y2499627D01*
X3072539Y2504705D02*
Y2514862D01*
X3054765Y2519940D02*
Y2530097D01*
Y2525018D01*
X3070000D01*
X3054765Y2535175D02*
X3070000D01*
X3062383D01*
X3059843Y2537714D01*
Y2542793D01*
X3062383Y2545332D01*
X3070000D01*
X3057304Y2560567D02*
X3054765Y2558028D01*
Y2552950D01*
X3057304Y2550410D01*
X3067461D01*
X3070000Y2552950D01*
Y2558028D01*
X3067461Y2560567D01*
X3054765Y2565645D02*
X3070000D01*
X3062383D01*
X3059843Y2568185D01*
Y2573263D01*
X3062383Y2575802D01*
X3070000D01*
X3054765Y2591037D02*
X3057304Y2585959D01*
X3062383Y2580880D01*
X3067461D01*
X3070000Y2583419D01*
Y2588498D01*
X3067461Y2591037D01*
X3064922D01*
X3062383Y2588498D01*
Y2580880D01*
X2554765Y2459000D02*
X2570000Y2469157D01*
X2554765D02*
X2570000Y2459000D01*
X2557304Y2484392D02*
X2554765Y2481853D01*
Y2476774D01*
X2557304Y2474235D01*
X2559843D01*
X2562383Y2476774D01*
Y2481853D01*
X2564922Y2484392D01*
X2567461D01*
X2570000Y2481853D01*
Y2476774D01*
X2567461Y2474235D01*
Y2489470D02*
X2570000Y2492009D01*
Y2497088D01*
X2567461Y2499627D01*
X2557304D01*
X2554765Y2497088D01*
Y2492009D01*
X2557304Y2489470D01*
X2559843D01*
X2562383Y2492009D01*
Y2499627D01*
X2572539Y2504705D02*
Y2514862D01*
X2554765Y2519940D02*
Y2530097D01*
Y2525018D01*
X2570000D01*
X2554765Y2535175D02*
X2570000D01*
X2562383D01*
X2559843Y2537714D01*
Y2542793D01*
X2562383Y2545332D01*
X2570000D01*
X2557304Y2560567D02*
X2554765Y2558028D01*
Y2552950D01*
X2557304Y2550410D01*
X2567461D01*
X2570000Y2552950D01*
Y2558028D01*
X2567461Y2560567D01*
X2554765Y2565645D02*
X2570000D01*
X2562383D01*
X2559843Y2568185D01*
Y2573263D01*
X2562383Y2575802D01*
X2570000D01*
X2554765Y2591037D02*
Y2580880D01*
X2562383D01*
X2559843Y2585959D01*
Y2588498D01*
X2562383Y2591037D01*
X2567461D01*
X2570000Y2588498D01*
Y2583419D01*
X2567461Y2580880D01*
X2054765Y2459000D02*
X2070000Y2469157D01*
X2054765D02*
X2070000Y2459000D01*
X2057304Y2484392D02*
X2054765Y2481853D01*
Y2476774D01*
X2057304Y2474235D01*
X2059843D01*
X2062382Y2476774D01*
Y2481853D01*
X2064922Y2484392D01*
X2067461D01*
X2070000Y2481853D01*
Y2476774D01*
X2067461Y2474235D01*
Y2489470D02*
X2070000Y2492009D01*
Y2497088D01*
X2067461Y2499627D01*
X2057304D01*
X2054765Y2497088D01*
Y2492009D01*
X2057304Y2489470D01*
X2059843D01*
X2062382Y2492009D01*
Y2499627D01*
X2072539Y2504705D02*
Y2514862D01*
X2054765Y2519940D02*
Y2530097D01*
Y2525018D01*
X2070000D01*
X2054765Y2535175D02*
X2070000D01*
X2062382D01*
X2059843Y2537714D01*
Y2542793D01*
X2062382Y2545332D01*
X2070000D01*
X2057304Y2560567D02*
X2054765Y2558028D01*
Y2552950D01*
X2057304Y2550410D01*
X2067461D01*
X2070000Y2552950D01*
Y2558028D01*
X2067461Y2560567D01*
X2054765Y2565645D02*
X2070000D01*
X2062382D01*
X2059843Y2568185D01*
Y2573263D01*
X2062382Y2575802D01*
X2070000D01*
Y2588498D02*
X2054765D01*
X2062382Y2580880D01*
Y2591037D01*
X1554765Y2459000D02*
X1570000Y2469157D01*
X1554765D02*
X1570000Y2459000D01*
X1557304Y2484392D02*
X1554765Y2481853D01*
Y2476774D01*
X1557304Y2474235D01*
X1559843D01*
X1562382Y2476774D01*
Y2481853D01*
X1564922Y2484392D01*
X1567461D01*
X1570000Y2481853D01*
Y2476774D01*
X1567461Y2474235D01*
Y2489470D02*
X1570000Y2492009D01*
Y2497088D01*
X1567461Y2499627D01*
X1557304D01*
X1554765Y2497088D01*
Y2492009D01*
X1557304Y2489470D01*
X1559843D01*
X1562382Y2492009D01*
Y2499627D01*
X1572539Y2504705D02*
Y2514862D01*
X1554765Y2519940D02*
Y2530097D01*
Y2525018D01*
X1570000D01*
X1554765Y2535175D02*
X1570000D01*
X1562382D01*
X1559843Y2537715D01*
Y2542793D01*
X1562382Y2545332D01*
X1570000D01*
X1557304Y2560567D02*
X1554765Y2558028D01*
Y2552950D01*
X1557304Y2550410D01*
X1567461D01*
X1570000Y2552950D01*
Y2558028D01*
X1567461Y2560567D01*
X1554765Y2565645D02*
X1570000D01*
X1562382D01*
X1559843Y2568185D01*
Y2573263D01*
X1562382Y2575802D01*
X1570000D01*
X1557304Y2580880D02*
X1554765Y2583420D01*
Y2588498D01*
X1557304Y2591037D01*
X1559843D01*
X1562382Y2588498D01*
Y2585959D01*
Y2588498D01*
X1564922Y2591037D01*
X1567461D01*
X1570000Y2588498D01*
Y2583420D01*
X1567461Y2580880D01*
X1054765Y2459000D02*
X1070000Y2469157D01*
X1054765D02*
X1070000Y2459000D01*
X1057304Y2484392D02*
X1054765Y2481853D01*
Y2476774D01*
X1057304Y2474235D01*
X1059843D01*
X1062383Y2476774D01*
Y2481853D01*
X1064922Y2484392D01*
X1067461D01*
X1070000Y2481853D01*
Y2476774D01*
X1067461Y2474235D01*
Y2489470D02*
X1070000Y2492009D01*
Y2497088D01*
X1067461Y2499627D01*
X1057304D01*
X1054765Y2497088D01*
Y2492009D01*
X1057304Y2489470D01*
X1059843D01*
X1062383Y2492009D01*
Y2499627D01*
X1072539Y2504705D02*
Y2514862D01*
X1054765Y2519940D02*
Y2530097D01*
Y2525018D01*
X1070000D01*
X1054765Y2535175D02*
X1070000D01*
X1062383D01*
X1059843Y2537715D01*
Y2542793D01*
X1062383Y2545332D01*
X1070000D01*
X1057304Y2560567D02*
X1054765Y2558028D01*
Y2552950D01*
X1057304Y2550410D01*
X1067461D01*
X1070000Y2552950D01*
Y2558028D01*
X1067461Y2560567D01*
X1054765Y2565645D02*
X1070000D01*
X1062383D01*
X1059843Y2568185D01*
Y2573263D01*
X1062383Y2575802D01*
X1070000D01*
Y2591037D02*
Y2580880D01*
X1059843Y2591037D01*
X1057304D01*
X1054765Y2588498D01*
Y2583420D01*
X1057304Y2580880D01*
X554765Y2459000D02*
X570000Y2469157D01*
X554765D02*
X570000Y2459000D01*
X557304Y2484392D02*
X554765Y2481853D01*
Y2476774D01*
X557304Y2474235D01*
X559843D01*
X562383Y2476774D01*
Y2481853D01*
X564922Y2484392D01*
X567461D01*
X570000Y2481853D01*
Y2476774D01*
X567461Y2474235D01*
Y2489470D02*
X570000Y2492009D01*
Y2497088D01*
X567461Y2499627D01*
X557304D01*
X554765Y2497088D01*
Y2492009D01*
X557304Y2489470D01*
X559843D01*
X562383Y2492009D01*
Y2499627D01*
X572539Y2504705D02*
Y2514862D01*
X554765Y2519940D02*
Y2530097D01*
Y2525018D01*
X570000D01*
X554765Y2535175D02*
X570000D01*
X562383D01*
X559843Y2537715D01*
Y2542793D01*
X562383Y2545332D01*
X570000D01*
X557304Y2560567D02*
X554765Y2558028D01*
Y2552950D01*
X557304Y2550410D01*
X567461D01*
X570000Y2552950D01*
Y2558028D01*
X567461Y2560567D01*
X554765Y2565645D02*
X570000D01*
X562383D01*
X559843Y2568185D01*
Y2573263D01*
X562383Y2575802D01*
X570000D01*
Y2580880D02*
Y2585959D01*
Y2583420D01*
X554765D01*
X557304Y2580880D01*
X4122765Y2526200D02*
X4138000Y2536357D01*
X4122765D02*
X4138000Y2526200D01*
X4125304Y2551592D02*
X4122765Y2549053D01*
Y2543974D01*
X4125304Y2541435D01*
X4127843D01*
X4130382Y2543974D01*
Y2549053D01*
X4132921Y2551592D01*
X4135461D01*
X4138000Y2549053D01*
Y2543974D01*
X4135461Y2541435D01*
X4125304Y2556670D02*
X4122765Y2559209D01*
Y2564288D01*
X4125304Y2566827D01*
X4127843D01*
X4130382Y2564288D01*
X4132921Y2566827D01*
X4135461D01*
X4138000Y2564288D01*
Y2559209D01*
X4135461Y2556670D01*
X4132921D01*
X4130382Y2559209D01*
X4127843Y2556670D01*
X4125304D01*
X4130382Y2559209D02*
Y2564288D01*
X4140539Y2571906D02*
Y2582062D01*
X4122765Y2587141D02*
Y2597297D01*
Y2592219D01*
X4138000D01*
X4122765Y2602375D02*
X4138000D01*
X4130382D01*
X4127843Y2604915D01*
Y2609993D01*
X4130382Y2612532D01*
X4138000D01*
X4125304Y2627767D02*
X4122765Y2625228D01*
Y2620150D01*
X4125304Y2617610D01*
X4135461D01*
X4138000Y2620150D01*
Y2625228D01*
X4135461Y2627767D01*
X4122765Y2632846D02*
X4138000D01*
X4130382D01*
X4127843Y2635385D01*
Y2640463D01*
X4130382Y2643002D01*
X4138000D01*
X4125304Y2648081D02*
X4122765Y2650620D01*
Y2655698D01*
X4125304Y2658238D01*
X4127843D01*
X4130382Y2655698D01*
X4132921Y2658238D01*
X4135461D01*
X4138000Y2655698D01*
Y2650620D01*
X4135461Y2648081D01*
X4132921D01*
X4130382Y2650620D01*
X4127843Y2648081D01*
X4125304D01*
X4130382Y2650620D02*
Y2655698D01*
X3622765Y2526200D02*
X3638000Y2536357D01*
X3622765D02*
X3638000Y2526200D01*
X3625304Y2551592D02*
X3622765Y2549053D01*
Y2543974D01*
X3625304Y2541435D01*
X3627843D01*
X3630382Y2543974D01*
Y2549053D01*
X3632921Y2551592D01*
X3635461D01*
X3638000Y2549053D01*
Y2543974D01*
X3635461Y2541435D01*
X3625304Y2556670D02*
X3622765Y2559209D01*
Y2564288D01*
X3625304Y2566827D01*
X3627843D01*
X3630382Y2564288D01*
X3632921Y2566827D01*
X3635461D01*
X3638000Y2564288D01*
Y2559209D01*
X3635461Y2556670D01*
X3632921D01*
X3630382Y2559209D01*
X3627843Y2556670D01*
X3625304D01*
X3630382Y2559209D02*
Y2564288D01*
X3640539Y2571906D02*
Y2582062D01*
X3622765Y2587141D02*
Y2597297D01*
Y2592219D01*
X3638000D01*
X3622765Y2602375D02*
X3638000D01*
X3630382D01*
X3627843Y2604915D01*
Y2609993D01*
X3630382Y2612532D01*
X3638000D01*
X3625304Y2627767D02*
X3622765Y2625228D01*
Y2620150D01*
X3625304Y2617610D01*
X3635461D01*
X3638000Y2620150D01*
Y2625228D01*
X3635461Y2627767D01*
X3622765Y2632846D02*
X3638000D01*
X3630382D01*
X3627843Y2635385D01*
Y2640463D01*
X3630382Y2643002D01*
X3638000D01*
X3622765Y2648081D02*
Y2658238D01*
X3625304D01*
X3635461Y2648081D01*
X3638000D01*
X3122765Y2526200D02*
X3138000Y2536357D01*
X3122765D02*
X3138000Y2526200D01*
X3125304Y2551592D02*
X3122765Y2549053D01*
Y2543974D01*
X3125304Y2541435D01*
X3127843D01*
X3130382Y2543974D01*
Y2549053D01*
X3132921Y2551592D01*
X3135461D01*
X3138000Y2549053D01*
Y2543974D01*
X3135461Y2541435D01*
X3125304Y2556670D02*
X3122765Y2559209D01*
Y2564288D01*
X3125304Y2566827D01*
X3127843D01*
X3130382Y2564288D01*
X3132921Y2566827D01*
X3135461D01*
X3138000Y2564288D01*
Y2559209D01*
X3135461Y2556670D01*
X3132921D01*
X3130382Y2559209D01*
X3127843Y2556670D01*
X3125304D01*
X3130382Y2559209D02*
Y2564288D01*
X3140539Y2571906D02*
Y2582062D01*
X3122765Y2587141D02*
Y2597297D01*
Y2592219D01*
X3138000D01*
X3122765Y2602375D02*
X3138000D01*
X3130382D01*
X3127843Y2604915D01*
Y2609993D01*
X3130382Y2612532D01*
X3138000D01*
X3125304Y2627767D02*
X3122765Y2625228D01*
Y2620150D01*
X3125304Y2617610D01*
X3135461D01*
X3138000Y2620150D01*
Y2625228D01*
X3135461Y2627767D01*
X3122765Y2632846D02*
X3138000D01*
X3130382D01*
X3127843Y2635385D01*
Y2640463D01*
X3130382Y2643002D01*
X3138000D01*
X3122765Y2658238D02*
X3125304Y2653159D01*
X3130382Y2648081D01*
X3135461D01*
X3138000Y2650620D01*
Y2655698D01*
X3135461Y2658238D01*
X3132921D01*
X3130382Y2655698D01*
Y2648081D01*
X2622765Y2526200D02*
X2638000Y2536357D01*
X2622765D02*
X2638000Y2526200D01*
X2625304Y2551591D02*
X2622765Y2549052D01*
Y2543974D01*
X2625304Y2541435D01*
X2627843D01*
X2630382Y2543974D01*
Y2549052D01*
X2632921Y2551591D01*
X2635461D01*
X2638000Y2549052D01*
Y2543974D01*
X2635461Y2541435D01*
X2625304Y2556670D02*
X2622765Y2559209D01*
Y2564287D01*
X2625304Y2566826D01*
X2627843D01*
X2630382Y2564287D01*
X2632921Y2566826D01*
X2635461D01*
X2638000Y2564287D01*
Y2559209D01*
X2635461Y2556670D01*
X2632921D01*
X2630382Y2559209D01*
X2627843Y2556670D01*
X2625304D01*
X2630382Y2559209D02*
Y2564287D01*
X2640539Y2571905D02*
Y2582062D01*
X2622765Y2587140D02*
Y2597297D01*
Y2592218D01*
X2638000D01*
X2622765Y2602375D02*
X2638000D01*
X2630382D01*
X2627843Y2604914D01*
Y2609993D01*
X2630382Y2612532D01*
X2638000D01*
X2625304Y2627767D02*
X2622765Y2625228D01*
Y2620150D01*
X2625304Y2617610D01*
X2635461D01*
X2638000Y2620150D01*
Y2625228D01*
X2635461Y2627767D01*
X2622765Y2632845D02*
X2638000D01*
X2630382D01*
X2627843Y2635385D01*
Y2640463D01*
X2630382Y2643002D01*
X2638000D01*
X2622765Y2658237D02*
Y2648080D01*
X2630382D01*
X2627843Y2653159D01*
Y2655698D01*
X2630382Y2658237D01*
X2635461D01*
X2638000Y2655698D01*
Y2650620D01*
X2635461Y2648080D01*
X2122765Y2526200D02*
X2138000Y2536357D01*
X2122765D02*
X2138000Y2526200D01*
X2125304Y2551592D02*
X2122765Y2549053D01*
Y2543974D01*
X2125304Y2541435D01*
X2127843D01*
X2130382Y2543974D01*
Y2549053D01*
X2132921Y2551592D01*
X2135461D01*
X2138000Y2549053D01*
Y2543974D01*
X2135461Y2541435D01*
X2125304Y2556670D02*
X2122765Y2559209D01*
Y2564288D01*
X2125304Y2566827D01*
X2127843D01*
X2130382Y2564288D01*
X2132921Y2566827D01*
X2135461D01*
X2138000Y2564288D01*
Y2559209D01*
X2135461Y2556670D01*
X2132921D01*
X2130382Y2559209D01*
X2127843Y2556670D01*
X2125304D01*
X2130382Y2559209D02*
Y2564288D01*
X2140539Y2571906D02*
Y2582062D01*
X2122765Y2587141D02*
Y2597297D01*
Y2592219D01*
X2138000D01*
X2122765Y2602375D02*
X2138000D01*
X2130382D01*
X2127843Y2604915D01*
Y2609993D01*
X2130382Y2612532D01*
X2138000D01*
X2125304Y2627767D02*
X2122765Y2625228D01*
Y2620150D01*
X2125304Y2617610D01*
X2135461D01*
X2138000Y2620150D01*
Y2625228D01*
X2135461Y2627767D01*
X2122765Y2632846D02*
X2138000D01*
X2130382D01*
X2127843Y2635385D01*
Y2640463D01*
X2130382Y2643002D01*
X2138000D01*
Y2655698D02*
X2122765D01*
X2130382Y2648081D01*
Y2658238D01*
X1622765Y2526200D02*
X1638000Y2536357D01*
X1622765D02*
X1638000Y2526200D01*
X1625304Y2551592D02*
X1622765Y2549053D01*
Y2543974D01*
X1625304Y2541435D01*
X1627843D01*
X1630382Y2543974D01*
Y2549053D01*
X1632921Y2551592D01*
X1635461D01*
X1638000Y2549053D01*
Y2543974D01*
X1635461Y2541435D01*
X1625304Y2556670D02*
X1622765Y2559209D01*
Y2564288D01*
X1625304Y2566827D01*
X1627843D01*
X1630382Y2564288D01*
X1632921Y2566827D01*
X1635461D01*
X1638000Y2564288D01*
Y2559209D01*
X1635461Y2556670D01*
X1632921D01*
X1630382Y2559209D01*
X1627843Y2556670D01*
X1625304D01*
X1630382Y2559209D02*
Y2564288D01*
X1640539Y2571906D02*
Y2582062D01*
X1622765Y2587141D02*
Y2597297D01*
Y2592219D01*
X1638000D01*
X1622765Y2602375D02*
X1638000D01*
X1630382D01*
X1627843Y2604915D01*
Y2609993D01*
X1630382Y2612532D01*
X1638000D01*
X1625304Y2627767D02*
X1622765Y2625228D01*
Y2620150D01*
X1625304Y2617610D01*
X1635461D01*
X1638000Y2620150D01*
Y2625228D01*
X1635461Y2627767D01*
X1622765Y2632846D02*
X1638000D01*
X1630382D01*
X1627843Y2635385D01*
Y2640463D01*
X1630382Y2643002D01*
X1638000D01*
X1625304Y2648081D02*
X1622765Y2650620D01*
Y2655698D01*
X1625304Y2658238D01*
X1627843D01*
X1630382Y2655698D01*
Y2653159D01*
Y2655698D01*
X1632921Y2658238D01*
X1635461D01*
X1638000Y2655698D01*
Y2650620D01*
X1635461Y2648081D01*
X1122765Y2526200D02*
X1138000Y2536357D01*
X1122765D02*
X1138000Y2526200D01*
X1125304Y2551592D02*
X1122765Y2549053D01*
Y2543974D01*
X1125304Y2541435D01*
X1127843D01*
X1130382Y2543974D01*
Y2549053D01*
X1132921Y2551592D01*
X1135461D01*
X1138000Y2549053D01*
Y2543974D01*
X1135461Y2541435D01*
X1125304Y2556670D02*
X1122765Y2559209D01*
Y2564288D01*
X1125304Y2566827D01*
X1127843D01*
X1130382Y2564288D01*
X1132921Y2566827D01*
X1135461D01*
X1138000Y2564288D01*
Y2559209D01*
X1135461Y2556670D01*
X1132921D01*
X1130382Y2559209D01*
X1127843Y2556670D01*
X1125304D01*
X1130382Y2559209D02*
Y2564288D01*
X1140539Y2571906D02*
Y2582062D01*
X1122765Y2587141D02*
Y2597297D01*
Y2592219D01*
X1138000D01*
X1122765Y2602375D02*
X1138000D01*
X1130382D01*
X1127843Y2604915D01*
Y2609993D01*
X1130382Y2612532D01*
X1138000D01*
X1125304Y2627767D02*
X1122765Y2625228D01*
Y2620150D01*
X1125304Y2617610D01*
X1135461D01*
X1138000Y2620150D01*
Y2625228D01*
X1135461Y2627767D01*
X1122765Y2632846D02*
X1138000D01*
X1130382D01*
X1127843Y2635385D01*
Y2640463D01*
X1130382Y2643002D01*
X1138000D01*
Y2658238D02*
Y2648081D01*
X1127843Y2658238D01*
X1125304D01*
X1122765Y2655698D01*
Y2650620D01*
X1125304Y2648081D01*
X624765Y2540000D02*
X640000Y2550157D01*
X624765D02*
X640000Y2540000D01*
X627304Y2565392D02*
X624765Y2562852D01*
Y2557774D01*
X627304Y2555235D01*
X629843D01*
X632383Y2557774D01*
Y2562852D01*
X634922Y2565392D01*
X637461D01*
X640000Y2562852D01*
Y2557774D01*
X637461Y2555235D01*
X627304Y2570470D02*
X624765Y2573009D01*
Y2578088D01*
X627304Y2580627D01*
X629843D01*
X632383Y2578088D01*
X634922Y2580627D01*
X637461D01*
X640000Y2578088D01*
Y2573009D01*
X637461Y2570470D01*
X634922D01*
X632383Y2573009D01*
X629843Y2570470D01*
X627304D01*
X632383Y2573009D02*
Y2578088D01*
X642539Y2585705D02*
Y2595862D01*
X624765Y2600940D02*
Y2611097D01*
Y2606019D01*
X640000D01*
X624765Y2616176D02*
X640000D01*
X632383D01*
X629843Y2618715D01*
Y2623793D01*
X632383Y2626332D01*
X640000D01*
X627304Y2641567D02*
X624765Y2639028D01*
Y2633950D01*
X627304Y2631411D01*
X637461D01*
X640000Y2633950D01*
Y2639028D01*
X637461Y2641567D01*
X624765Y2646646D02*
X640000D01*
X632383D01*
X629843Y2649185D01*
Y2654263D01*
X632383Y2656802D01*
X640000D01*
Y2661880D02*
Y2666959D01*
Y2664420D01*
X624765D01*
X627304Y2661880D01*
X3840000Y2965235D02*
X3850157Y2950000D01*
Y2965235D02*
X3840000Y2950000D01*
X3865392Y2962696D02*
X3862852Y2965235D01*
X3857774D01*
X3855235Y2962696D01*
Y2960157D01*
X3857774Y2957617D01*
X3862852D01*
X3865392Y2955078D01*
Y2952539D01*
X3862852Y2950000D01*
X3857774D01*
X3855235Y2952539D01*
X3870470Y2965235D02*
X3880627D01*
Y2962696D01*
X3870470Y2952539D01*
Y2950000D01*
X3885705Y2947461D02*
X3895862D01*
X3900940Y2965235D02*
X3911097D01*
X3906018D01*
Y2950000D01*
X3916175Y2965235D02*
Y2950000D01*
Y2957617D01*
X3918714Y2960157D01*
X3923793D01*
X3926332Y2957617D01*
Y2950000D01*
X3941567Y2962696D02*
X3939028Y2965235D01*
X3933950D01*
X3931410Y2962696D01*
Y2952539D01*
X3933950Y2950000D01*
X3939028D01*
X3941567Y2952539D01*
X3946646Y2965235D02*
Y2950000D01*
Y2957617D01*
X3949185Y2960157D01*
X3954263D01*
X3956802Y2957617D01*
Y2950000D01*
X3961880Y2962696D02*
X3964420Y2965235D01*
X3969498D01*
X3972037Y2962696D01*
Y2960157D01*
X3969498Y2957617D01*
X3972037Y2955078D01*
Y2952539D01*
X3969498Y2950000D01*
X3964420D01*
X3961880Y2952539D01*
Y2955078D01*
X3964420Y2957617D01*
X3961880Y2960157D01*
Y2962696D01*
X3964420Y2957617D02*
X3969498D01*
X3383000Y2930235D02*
X3393157Y2915000D01*
Y2930235D02*
X3383000Y2915000D01*
X3408392Y2927696D02*
X3405852Y2930235D01*
X3400774D01*
X3398235Y2927696D01*
Y2925157D01*
X3400774Y2922618D01*
X3405852D01*
X3408392Y2920079D01*
Y2917539D01*
X3405852Y2915000D01*
X3400774D01*
X3398235Y2917539D01*
X3413470Y2930235D02*
X3423627D01*
Y2927696D01*
X3413470Y2917539D01*
Y2915000D01*
X3428705Y2912461D02*
X3438862D01*
X3443940Y2930235D02*
X3454097D01*
X3449019D01*
Y2915000D01*
X3459175Y2930235D02*
Y2915000D01*
Y2922618D01*
X3461714Y2925157D01*
X3466793D01*
X3469332Y2922618D01*
Y2915000D01*
X3484567Y2927696D02*
X3482028Y2930235D01*
X3476949D01*
X3474410Y2927696D01*
Y2917539D01*
X3476949Y2915000D01*
X3482028D01*
X3484567Y2917539D01*
X3489645Y2930235D02*
Y2915000D01*
Y2922618D01*
X3492184Y2925157D01*
X3497263D01*
X3499802Y2922618D01*
Y2915000D01*
X3504880Y2930235D02*
X3515037D01*
Y2927696D01*
X3504880Y2917539D01*
Y2915000D01*
X2883000Y2930235D02*
X2893157Y2915000D01*
Y2930235D02*
X2883000Y2915000D01*
X2908392Y2927696D02*
X2905853Y2930235D01*
X2900774D01*
X2898235Y2927696D01*
Y2925157D01*
X2900774Y2922617D01*
X2905853D01*
X2908392Y2920078D01*
Y2917539D01*
X2905853Y2915000D01*
X2900774D01*
X2898235Y2917539D01*
X2913470Y2930235D02*
X2923627D01*
Y2927696D01*
X2913470Y2917539D01*
Y2915000D01*
X2928705Y2912461D02*
X2938862D01*
X2943940Y2930235D02*
X2954097D01*
X2949019D01*
Y2915000D01*
X2959175Y2930235D02*
Y2915000D01*
Y2922617D01*
X2961714Y2925157D01*
X2966793D01*
X2969332Y2922617D01*
Y2915000D01*
X2984567Y2927696D02*
X2982028Y2930235D01*
X2976950D01*
X2974410Y2927696D01*
Y2917539D01*
X2976950Y2915000D01*
X2982028D01*
X2984567Y2917539D01*
X2989646Y2930235D02*
Y2915000D01*
Y2922617D01*
X2992185Y2925157D01*
X2997263D01*
X2999802Y2922617D01*
Y2915000D01*
X3015038Y2930235D02*
X3009959Y2927696D01*
X3004881Y2922617D01*
Y2917539D01*
X3007420Y2915000D01*
X3012498D01*
X3015038Y2917539D01*
Y2920078D01*
X3012498Y2922617D01*
X3004881D01*
X2383000Y2930235D02*
X2393157Y2915000D01*
Y2930235D02*
X2383000Y2915000D01*
X2408392Y2927696D02*
X2405853Y2930235D01*
X2400775D01*
X2398235Y2927696D01*
Y2925157D01*
X2400775Y2922617D01*
X2405853D01*
X2408392Y2920078D01*
Y2917539D01*
X2405853Y2915000D01*
X2400775D01*
X2398235Y2917539D01*
X2413470Y2930235D02*
X2423627D01*
Y2927696D01*
X2413470Y2917539D01*
Y2915000D01*
X2428705Y2912461D02*
X2438862D01*
X2443941Y2930235D02*
X2454097D01*
X2449019D01*
Y2915000D01*
X2459176Y2930235D02*
Y2915000D01*
Y2922617D01*
X2461715Y2925157D01*
X2466793D01*
X2469332Y2922617D01*
Y2915000D01*
X2484567Y2927696D02*
X2482028Y2930235D01*
X2476950D01*
X2474411Y2927696D01*
Y2917539D01*
X2476950Y2915000D01*
X2482028D01*
X2484567Y2917539D01*
X2489646Y2930235D02*
Y2915000D01*
Y2922617D01*
X2492185Y2925157D01*
X2497263D01*
X2499803Y2922617D01*
Y2915000D01*
X2515038Y2930235D02*
X2504881D01*
Y2922617D01*
X2509959Y2925157D01*
X2512498D01*
X2515038Y2922617D01*
Y2917539D01*
X2512498Y2915000D01*
X2507420D01*
X2504881Y2917539D01*
X1883000Y2930235D02*
X1893157Y2915000D01*
Y2930235D02*
X1883000Y2915000D01*
X1908392Y2927696D02*
X1905853Y2930235D01*
X1900774D01*
X1898235Y2927696D01*
Y2925157D01*
X1900774Y2922617D01*
X1905853D01*
X1908392Y2920078D01*
Y2917539D01*
X1905853Y2915000D01*
X1900774D01*
X1898235Y2917539D01*
X1913470Y2930235D02*
X1923627D01*
Y2927696D01*
X1913470Y2917539D01*
Y2915000D01*
X1928705Y2912461D02*
X1938862D01*
X1943940Y2930235D02*
X1954097D01*
X1949019D01*
Y2915000D01*
X1959175Y2930235D02*
Y2915000D01*
Y2922617D01*
X1961714Y2925157D01*
X1966793D01*
X1969332Y2922617D01*
Y2915000D01*
X1984567Y2927696D02*
X1982028Y2930235D01*
X1976950D01*
X1974410Y2927696D01*
Y2917539D01*
X1976950Y2915000D01*
X1982028D01*
X1984567Y2917539D01*
X1989646Y2930235D02*
Y2915000D01*
Y2922617D01*
X1992185Y2925157D01*
X1997263D01*
X1999802Y2922617D01*
Y2915000D01*
X2012498D02*
Y2930235D01*
X2004881Y2922617D01*
X2015037D01*
X1383000Y2930235D02*
X1393157Y2915000D01*
Y2930235D02*
X1383000Y2915000D01*
X1408392Y2927696D02*
X1405853Y2930235D01*
X1400774D01*
X1398235Y2927696D01*
Y2925157D01*
X1400774Y2922618D01*
X1405853D01*
X1408392Y2920078D01*
Y2917539D01*
X1405853Y2915000D01*
X1400774D01*
X1398235Y2917539D01*
X1413470Y2930235D02*
X1423627D01*
Y2927696D01*
X1413470Y2917539D01*
Y2915000D01*
X1428705Y2912461D02*
X1438862D01*
X1443940Y2930235D02*
X1454097D01*
X1449019D01*
Y2915000D01*
X1459175Y2930235D02*
Y2915000D01*
Y2922618D01*
X1461715Y2925157D01*
X1466793D01*
X1469332Y2922618D01*
Y2915000D01*
X1484567Y2927696D02*
X1482028Y2930235D01*
X1476950D01*
X1474411Y2927696D01*
Y2917539D01*
X1476950Y2915000D01*
X1482028D01*
X1484567Y2917539D01*
X1489646Y2930235D02*
Y2915000D01*
Y2922618D01*
X1492185Y2925157D01*
X1497263D01*
X1499802Y2922618D01*
Y2915000D01*
X1504881Y2927696D02*
X1507420Y2930235D01*
X1512498D01*
X1515037Y2927696D01*
Y2925157D01*
X1512498Y2922618D01*
X1509959D01*
X1512498D01*
X1515037Y2920078D01*
Y2917539D01*
X1512498Y2915000D01*
X1507420D01*
X1504881Y2917539D01*
X883000Y2930235D02*
X893157Y2915000D01*
Y2930235D02*
X883000Y2915000D01*
X908392Y2927696D02*
X905853Y2930235D01*
X900774D01*
X898235Y2927696D01*
Y2925157D01*
X900774Y2922617D01*
X905853D01*
X908392Y2920078D01*
Y2917539D01*
X905853Y2915000D01*
X900774D01*
X898235Y2917539D01*
X913470Y2930235D02*
X923627D01*
Y2927696D01*
X913470Y2917539D01*
Y2915000D01*
X928705Y2912461D02*
X938862D01*
X943940Y2930235D02*
X954097D01*
X949019D01*
Y2915000D01*
X959175Y2930235D02*
Y2915000D01*
Y2922617D01*
X961715Y2925157D01*
X966793D01*
X969332Y2922617D01*
Y2915000D01*
X984567Y2927696D02*
X982028Y2930235D01*
X976950D01*
X974410Y2927696D01*
Y2917539D01*
X976950Y2915000D01*
X982028D01*
X984567Y2917539D01*
X989645Y2930235D02*
Y2915000D01*
Y2922617D01*
X992185Y2925157D01*
X997263D01*
X999802Y2922617D01*
Y2915000D01*
X1015037D02*
X1004881D01*
X1015037Y2925157D01*
Y2927696D01*
X1012498Y2930235D01*
X1007420D01*
X1004881Y2927696D01*
X330000Y2965235D02*
X340157Y2950000D01*
Y2965235D02*
X330000Y2950000D01*
X355392Y2962696D02*
X352853Y2965235D01*
X347775D01*
X345235Y2962696D01*
Y2960157D01*
X347775Y2957617D01*
X352853D01*
X355392Y2955078D01*
Y2952539D01*
X352853Y2950000D01*
X347775D01*
X345235Y2952539D01*
X360470Y2965235D02*
X370627D01*
Y2962696D01*
X360470Y2952539D01*
Y2950000D01*
X375705Y2947461D02*
X385862D01*
X390941Y2965235D02*
X401097D01*
X396019D01*
Y2950000D01*
X406176Y2965235D02*
Y2950000D01*
Y2957617D01*
X408715Y2960157D01*
X413793D01*
X416332Y2957617D01*
Y2950000D01*
X431567Y2962696D02*
X429028Y2965235D01*
X423950D01*
X421411Y2962696D01*
Y2952539D01*
X423950Y2950000D01*
X429028D01*
X431567Y2952539D01*
X436646Y2965235D02*
Y2950000D01*
Y2957617D01*
X439185Y2960157D01*
X444263D01*
X446802Y2957617D01*
Y2950000D01*
X451881D02*
X456959D01*
X454420D01*
Y2965235D01*
X451881Y2962696D01*
X3782765Y2135800D02*
X3798000Y2145957D01*
X3782765D02*
X3798000Y2135800D01*
X3785304Y2161192D02*
X3782765Y2158652D01*
Y2153574D01*
X3785304Y2151035D01*
X3787843D01*
X3790383Y2153574D01*
Y2158652D01*
X3792922Y2161192D01*
X3795461D01*
X3798000Y2158652D01*
Y2153574D01*
X3795461Y2151035D01*
X3782765Y2176427D02*
X3785304Y2171348D01*
X3790383Y2166270D01*
X3795461D01*
X3798000Y2168809D01*
Y2173887D01*
X3795461Y2176427D01*
X3792922D01*
X3790383Y2173887D01*
Y2166270D01*
X3800539Y2181505D02*
Y2191662D01*
X3782765Y2196740D02*
Y2206897D01*
Y2201818D01*
X3798000D01*
X3782765Y2211975D02*
X3798000D01*
X3790383D01*
X3787843Y2214514D01*
Y2219593D01*
X3790383Y2222132D01*
X3798000D01*
X3785304Y2237367D02*
X3782765Y2234828D01*
Y2229749D01*
X3785304Y2227210D01*
X3795461D01*
X3798000Y2229749D01*
Y2234828D01*
X3795461Y2237367D01*
X3782765Y2242445D02*
X3798000D01*
X3790383D01*
X3787843Y2244984D01*
Y2250063D01*
X3790383Y2252602D01*
X3798000D01*
X3785304Y2257680D02*
X3782765Y2260220D01*
Y2265298D01*
X3785304Y2267837D01*
X3787843D01*
X3790383Y2265298D01*
X3792922Y2267837D01*
X3795461D01*
X3798000Y2265298D01*
Y2260220D01*
X3795461Y2257680D01*
X3792922D01*
X3790383Y2260220D01*
X3787843Y2257680D01*
X3785304D01*
X3790383Y2260220D02*
Y2265298D01*
X3282765Y2135800D02*
X3298000Y2145957D01*
X3282765D02*
X3298000Y2135800D01*
X3285304Y2161192D02*
X3282765Y2158652D01*
Y2153574D01*
X3285304Y2151035D01*
X3287843D01*
X3290383Y2153574D01*
Y2158652D01*
X3292922Y2161192D01*
X3295461D01*
X3298000Y2158652D01*
Y2153574D01*
X3295461Y2151035D01*
X3282765Y2176427D02*
X3285304Y2171348D01*
X3290383Y2166270D01*
X3295461D01*
X3298000Y2168809D01*
Y2173887D01*
X3295461Y2176427D01*
X3292922D01*
X3290383Y2173887D01*
Y2166270D01*
X3300539Y2181505D02*
Y2191662D01*
X3282765Y2196740D02*
Y2206897D01*
Y2201818D01*
X3298000D01*
X3282765Y2211975D02*
X3298000D01*
X3290383D01*
X3287843Y2214514D01*
Y2219593D01*
X3290383Y2222132D01*
X3298000D01*
X3285304Y2237367D02*
X3282765Y2234828D01*
Y2229749D01*
X3285304Y2227210D01*
X3295461D01*
X3298000Y2229749D01*
Y2234828D01*
X3295461Y2237367D01*
X3282765Y2242445D02*
X3298000D01*
X3290383D01*
X3287843Y2244984D01*
Y2250063D01*
X3290383Y2252602D01*
X3298000D01*
X3282765Y2257680D02*
Y2267837D01*
X3285304D01*
X3295461Y2257680D01*
X3298000D01*
X2782765Y2135800D02*
X2798000Y2145957D01*
X2782765D02*
X2798000Y2135800D01*
X2785304Y2161192D02*
X2782765Y2158652D01*
Y2153574D01*
X2785304Y2151035D01*
X2787843D01*
X2790383Y2153574D01*
Y2158652D01*
X2792922Y2161192D01*
X2795461D01*
X2798000Y2158652D01*
Y2153574D01*
X2795461Y2151035D01*
X2782765Y2176427D02*
X2785304Y2171348D01*
X2790383Y2166270D01*
X2795461D01*
X2798000Y2168809D01*
Y2173887D01*
X2795461Y2176427D01*
X2792922D01*
X2790383Y2173887D01*
Y2166270D01*
X2800540Y2181505D02*
Y2191662D01*
X2782765Y2196740D02*
Y2206897D01*
Y2201818D01*
X2798000D01*
X2782765Y2211975D02*
X2798000D01*
X2790383D01*
X2787843Y2214514D01*
Y2219593D01*
X2790383Y2222132D01*
X2798000D01*
X2785304Y2237367D02*
X2782765Y2234828D01*
Y2229749D01*
X2785304Y2227210D01*
X2795461D01*
X2798000Y2229749D01*
Y2234828D01*
X2795461Y2237367D01*
X2782765Y2242445D02*
X2798000D01*
X2790383D01*
X2787843Y2244984D01*
Y2250063D01*
X2790383Y2252602D01*
X2798000D01*
X2782765Y2267837D02*
X2785304Y2262759D01*
X2790383Y2257680D01*
X2795461D01*
X2798000Y2260220D01*
Y2265298D01*
X2795461Y2267837D01*
X2792922D01*
X2790383Y2265298D01*
Y2257680D01*
X2282765Y2135800D02*
X2298000Y2145957D01*
X2282765D02*
X2298000Y2135800D01*
X2285304Y2161192D02*
X2282765Y2158652D01*
Y2153574D01*
X2285304Y2151035D01*
X2287843D01*
X2290383Y2153574D01*
Y2158652D01*
X2292922Y2161192D01*
X2295461D01*
X2298000Y2158652D01*
Y2153574D01*
X2295461Y2151035D01*
X2282765Y2176427D02*
X2285304Y2171348D01*
X2290383Y2166270D01*
X2295461D01*
X2298000Y2168809D01*
Y2173887D01*
X2295461Y2176427D01*
X2292922D01*
X2290383Y2173887D01*
Y2166270D01*
X2300539Y2181505D02*
Y2191662D01*
X2282765Y2196740D02*
Y2206897D01*
Y2201818D01*
X2298000D01*
X2282765Y2211975D02*
X2298000D01*
X2290383D01*
X2287843Y2214514D01*
Y2219593D01*
X2290383Y2222132D01*
X2298000D01*
X2285304Y2237367D02*
X2282765Y2234828D01*
Y2229749D01*
X2285304Y2227210D01*
X2295461D01*
X2298000Y2229749D01*
Y2234828D01*
X2295461Y2237367D01*
X2282765Y2242445D02*
X2298000D01*
X2290383D01*
X2287843Y2244984D01*
Y2250063D01*
X2290383Y2252602D01*
X2298000D01*
X2282765Y2267837D02*
Y2257680D01*
X2290383D01*
X2287843Y2262759D01*
Y2265298D01*
X2290383Y2267837D01*
X2295461D01*
X2298000Y2265298D01*
Y2260220D01*
X2295461Y2257680D01*
X1782765Y2135800D02*
X1798000Y2145957D01*
X1782765D02*
X1798000Y2135800D01*
X1785304Y2161192D02*
X1782765Y2158652D01*
Y2153574D01*
X1785304Y2151035D01*
X1787843D01*
X1790383Y2153574D01*
Y2158652D01*
X1792922Y2161192D01*
X1795461D01*
X1798000Y2158652D01*
Y2153574D01*
X1795461Y2151035D01*
X1782765Y2176427D02*
X1785304Y2171348D01*
X1790383Y2166270D01*
X1795461D01*
X1798000Y2168809D01*
Y2173887D01*
X1795461Y2176427D01*
X1792922D01*
X1790383Y2173887D01*
Y2166270D01*
X1800539Y2181505D02*
Y2191662D01*
X1782765Y2196740D02*
Y2206897D01*
Y2201818D01*
X1798000D01*
X1782765Y2211975D02*
X1798000D01*
X1790383D01*
X1787843Y2214514D01*
Y2219593D01*
X1790383Y2222132D01*
X1798000D01*
X1785304Y2237367D02*
X1782765Y2234828D01*
Y2229749D01*
X1785304Y2227210D01*
X1795461D01*
X1798000Y2229749D01*
Y2234828D01*
X1795461Y2237367D01*
X1782765Y2242445D02*
X1798000D01*
X1790383D01*
X1787843Y2244984D01*
Y2250063D01*
X1790383Y2252602D01*
X1798000D01*
Y2265298D02*
X1782765D01*
X1790383Y2257680D01*
Y2267837D01*
X1282765Y2135800D02*
X1298000Y2145957D01*
X1282765D02*
X1298000Y2135800D01*
X1285304Y2161192D02*
X1282765Y2158652D01*
Y2153574D01*
X1285304Y2151035D01*
X1287843D01*
X1290383Y2153574D01*
Y2158652D01*
X1292922Y2161192D01*
X1295461D01*
X1298000Y2158652D01*
Y2153574D01*
X1295461Y2151035D01*
X1282765Y2176427D02*
X1285304Y2171348D01*
X1290383Y2166270D01*
X1295461D01*
X1298000Y2168809D01*
Y2173887D01*
X1295461Y2176427D01*
X1292922D01*
X1290383Y2173887D01*
Y2166270D01*
X1300539Y2181505D02*
Y2191662D01*
X1282765Y2196740D02*
Y2206897D01*
Y2201818D01*
X1298000D01*
X1282765Y2211975D02*
X1298000D01*
X1290383D01*
X1287843Y2214514D01*
Y2219593D01*
X1290383Y2222132D01*
X1298000D01*
X1285304Y2237367D02*
X1282765Y2234828D01*
Y2229749D01*
X1285304Y2227210D01*
X1295461D01*
X1298000Y2229749D01*
Y2234828D01*
X1295461Y2237367D01*
X1282765Y2242445D02*
X1298000D01*
X1290383D01*
X1287843Y2244984D01*
Y2250063D01*
X1290383Y2252602D01*
X1298000D01*
X1285304Y2257680D02*
X1282765Y2260220D01*
Y2265298D01*
X1285304Y2267837D01*
X1287843D01*
X1290383Y2265298D01*
Y2262759D01*
Y2265298D01*
X1292922Y2267837D01*
X1295461D01*
X1298000Y2265298D01*
Y2260220D01*
X1295461Y2257680D01*
X782765Y2135800D02*
X798000Y2145957D01*
X782765D02*
X798000Y2135800D01*
X785304Y2161192D02*
X782765Y2158652D01*
Y2153574D01*
X785304Y2151035D01*
X787843D01*
X790383Y2153574D01*
Y2158652D01*
X792922Y2161192D01*
X795461D01*
X798000Y2158652D01*
Y2153574D01*
X795461Y2151035D01*
X782765Y2176427D02*
X785304Y2171348D01*
X790383Y2166270D01*
X795461D01*
X798000Y2168809D01*
Y2173887D01*
X795461Y2176427D01*
X792922D01*
X790383Y2173887D01*
Y2166270D01*
X800539Y2181505D02*
Y2191662D01*
X782765Y2196740D02*
Y2206897D01*
Y2201818D01*
X798000D01*
X782765Y2211975D02*
X798000D01*
X790383D01*
X787843Y2214514D01*
Y2219593D01*
X790383Y2222132D01*
X798000D01*
X785304Y2237367D02*
X782765Y2234828D01*
Y2229749D01*
X785304Y2227210D01*
X795461D01*
X798000Y2229749D01*
Y2234828D01*
X795461Y2237367D01*
X782765Y2242445D02*
X798000D01*
X790383D01*
X787843Y2244984D01*
Y2250063D01*
X790383Y2252602D01*
X798000D01*
Y2267837D02*
Y2257680D01*
X787843Y2267837D01*
X785304D01*
X782765Y2265298D01*
Y2260220D01*
X785304Y2257680D01*
X282765Y2135800D02*
X298000Y2145957D01*
X282765D02*
X298000Y2135800D01*
X285304Y2161192D02*
X282765Y2158652D01*
Y2153574D01*
X285304Y2151035D01*
X287843D01*
X290383Y2153574D01*
Y2158652D01*
X292922Y2161192D01*
X295461D01*
X298000Y2158652D01*
Y2153574D01*
X295461Y2151035D01*
X282765Y2176427D02*
X285304Y2171348D01*
X290383Y2166270D01*
X295461D01*
X298000Y2168809D01*
Y2173887D01*
X295461Y2176427D01*
X292922D01*
X290383Y2173887D01*
Y2166270D01*
X300539Y2181505D02*
Y2191662D01*
X282765Y2196740D02*
Y2206897D01*
Y2201818D01*
X298000D01*
X282765Y2211975D02*
X298000D01*
X290383D01*
X287843Y2214514D01*
Y2219593D01*
X290383Y2222132D01*
X298000D01*
X285304Y2237367D02*
X282765Y2234828D01*
Y2229749D01*
X285304Y2227210D01*
X295461D01*
X298000Y2229749D01*
Y2234828D01*
X295461Y2237367D01*
X282765Y2242445D02*
X298000D01*
X290383D01*
X287843Y2244984D01*
Y2250063D01*
X290383Y2252602D01*
X298000D01*
Y2257680D02*
Y2262759D01*
Y2260220D01*
X282765D01*
X285304Y2257680D01*
X3877765Y2459000D02*
X3893000Y2469157D01*
X3877765D02*
X3893000Y2459000D01*
X3880304Y2484392D02*
X3877765Y2481853D01*
Y2476774D01*
X3880304Y2474235D01*
X3882843D01*
X3885382Y2476774D01*
Y2481853D01*
X3887921Y2484392D01*
X3890461D01*
X3893000Y2481853D01*
Y2476774D01*
X3890461Y2474235D01*
X3877765Y2499627D02*
Y2489470D01*
X3885382D01*
X3882843Y2494548D01*
Y2497088D01*
X3885382Y2499627D01*
X3890461D01*
X3893000Y2497088D01*
Y2492009D01*
X3890461Y2489470D01*
X3895539Y2504705D02*
Y2514862D01*
X3877765Y2519940D02*
Y2530097D01*
Y2525018D01*
X3893000D01*
X3877765Y2535175D02*
X3893000D01*
X3885382D01*
X3882843Y2537714D01*
Y2542793D01*
X3885382Y2545332D01*
X3893000D01*
X3880304Y2560567D02*
X3877765Y2558028D01*
Y2552950D01*
X3880304Y2550410D01*
X3890461D01*
X3893000Y2552950D01*
Y2558028D01*
X3890461Y2560567D01*
X3877765Y2565645D02*
X3893000D01*
X3885382D01*
X3882843Y2568185D01*
Y2573263D01*
X3885382Y2575802D01*
X3893000D01*
X3880304Y2580880D02*
X3877765Y2583419D01*
Y2588498D01*
X3880304Y2591037D01*
X3882843D01*
X3885382Y2588498D01*
X3887921Y2591037D01*
X3890461D01*
X3893000Y2588498D01*
Y2583419D01*
X3890461Y2580880D01*
X3887921D01*
X3885382Y2583419D01*
X3882843Y2580880D01*
X3880304D01*
X3885382Y2583419D02*
Y2588498D01*
X3377765Y2459000D02*
X3393000Y2469157D01*
X3377765D02*
X3393000Y2459000D01*
X3380304Y2484392D02*
X3377765Y2481853D01*
Y2476774D01*
X3380304Y2474235D01*
X3382843D01*
X3385382Y2476774D01*
Y2481853D01*
X3387921Y2484392D01*
X3390461D01*
X3393000Y2481853D01*
Y2476774D01*
X3390461Y2474235D01*
X3377765Y2499627D02*
Y2489470D01*
X3385382D01*
X3382843Y2494548D01*
Y2497088D01*
X3385382Y2499627D01*
X3390461D01*
X3393000Y2497088D01*
Y2492009D01*
X3390461Y2489470D01*
X3395539Y2504705D02*
Y2514862D01*
X3377765Y2519940D02*
Y2530097D01*
Y2525018D01*
X3393000D01*
X3377765Y2535175D02*
X3393000D01*
X3385382D01*
X3382843Y2537715D01*
Y2542793D01*
X3385382Y2545332D01*
X3393000D01*
X3380304Y2560567D02*
X3377765Y2558028D01*
Y2552950D01*
X3380304Y2550410D01*
X3390461D01*
X3393000Y2552950D01*
Y2558028D01*
X3390461Y2560567D01*
X3377765Y2565645D02*
X3393000D01*
X3385382D01*
X3382843Y2568185D01*
Y2573263D01*
X3385382Y2575802D01*
X3393000D01*
X3377765Y2580880D02*
Y2591037D01*
X3380304D01*
X3390461Y2580880D01*
X3393000D01*
X2877765Y2459000D02*
X2893000Y2469157D01*
X2877765D02*
X2893000Y2459000D01*
X2880304Y2484392D02*
X2877765Y2481853D01*
Y2476774D01*
X2880304Y2474235D01*
X2882843D01*
X2885382Y2476774D01*
Y2481853D01*
X2887921Y2484392D01*
X2890461D01*
X2893000Y2481853D01*
Y2476774D01*
X2890461Y2474235D01*
X2877765Y2499627D02*
Y2489470D01*
X2885382D01*
X2882843Y2494548D01*
Y2497088D01*
X2885382Y2499627D01*
X2890461D01*
X2893000Y2497088D01*
Y2492009D01*
X2890461Y2489470D01*
X2895539Y2504705D02*
Y2514862D01*
X2877765Y2519940D02*
Y2530097D01*
Y2525018D01*
X2893000D01*
X2877765Y2535175D02*
X2893000D01*
X2885382D01*
X2882843Y2537714D01*
Y2542793D01*
X2885382Y2545332D01*
X2893000D01*
X2880304Y2560567D02*
X2877765Y2558028D01*
Y2552950D01*
X2880304Y2550410D01*
X2890461D01*
X2893000Y2552950D01*
Y2558028D01*
X2890461Y2560567D01*
X2877765Y2565645D02*
X2893000D01*
X2885382D01*
X2882843Y2568185D01*
Y2573263D01*
X2885382Y2575802D01*
X2893000D01*
X2877765Y2591037D02*
X2880304Y2585959D01*
X2885382Y2580880D01*
X2890461D01*
X2893000Y2583419D01*
Y2588498D01*
X2890461Y2591037D01*
X2887921D01*
X2885382Y2588498D01*
Y2580880D01*
X2377765Y2459000D02*
X2393000Y2469157D01*
X2377765D02*
X2393000Y2459000D01*
X2380304Y2484392D02*
X2377765Y2481853D01*
Y2476774D01*
X2380304Y2474235D01*
X2382843D01*
X2385382Y2476774D01*
Y2481853D01*
X2387921Y2484392D01*
X2390461D01*
X2393000Y2481853D01*
Y2476774D01*
X2390461Y2474235D01*
X2377765Y2499627D02*
Y2489470D01*
X2385382D01*
X2382843Y2494548D01*
Y2497088D01*
X2385382Y2499627D01*
X2390461D01*
X2393000Y2497088D01*
Y2492009D01*
X2390461Y2489470D01*
X2395539Y2504705D02*
Y2514862D01*
X2377765Y2519940D02*
Y2530097D01*
Y2525018D01*
X2393000D01*
X2377765Y2535175D02*
X2393000D01*
X2385382D01*
X2382843Y2537714D01*
Y2542793D01*
X2385382Y2545332D01*
X2393000D01*
X2380304Y2560567D02*
X2377765Y2558028D01*
Y2552950D01*
X2380304Y2550410D01*
X2390461D01*
X2393000Y2552950D01*
Y2558028D01*
X2390461Y2560567D01*
X2377765Y2565645D02*
X2393000D01*
X2385382D01*
X2382843Y2568185D01*
Y2573263D01*
X2385382Y2575802D01*
X2393000D01*
X2377765Y2591037D02*
Y2580880D01*
X2385382D01*
X2382843Y2585959D01*
Y2588498D01*
X2385382Y2591037D01*
X2390461D01*
X2393000Y2588498D01*
Y2583419D01*
X2390461Y2580880D01*
X1877765Y2459000D02*
X1893000Y2469157D01*
X1877765D02*
X1893000Y2459000D01*
X1880304Y2484392D02*
X1877765Y2481853D01*
Y2476774D01*
X1880304Y2474235D01*
X1882843D01*
X1885382Y2476774D01*
Y2481853D01*
X1887921Y2484392D01*
X1890461D01*
X1893000Y2481853D01*
Y2476774D01*
X1890461Y2474235D01*
X1877765Y2499627D02*
Y2489470D01*
X1885382D01*
X1882843Y2494548D01*
Y2497088D01*
X1885382Y2499627D01*
X1890461D01*
X1893000Y2497088D01*
Y2492009D01*
X1890461Y2489470D01*
X1895539Y2504705D02*
Y2514862D01*
X1877765Y2519940D02*
Y2530097D01*
Y2525018D01*
X1893000D01*
X1877765Y2535175D02*
X1893000D01*
X1885382D01*
X1882843Y2537714D01*
Y2542793D01*
X1885382Y2545332D01*
X1893000D01*
X1880304Y2560567D02*
X1877765Y2558028D01*
Y2552950D01*
X1880304Y2550410D01*
X1890461D01*
X1893000Y2552950D01*
Y2558028D01*
X1890461Y2560567D01*
X1877765Y2565645D02*
X1893000D01*
X1885382D01*
X1882843Y2568185D01*
Y2573263D01*
X1885382Y2575802D01*
X1893000D01*
Y2588498D02*
X1877765D01*
X1885382Y2580880D01*
Y2591037D01*
X1377765Y2459000D02*
X1393000Y2469157D01*
X1377765D02*
X1393000Y2459000D01*
X1380304Y2484392D02*
X1377765Y2481853D01*
Y2476774D01*
X1380304Y2474235D01*
X1382843D01*
X1385382Y2476774D01*
Y2481853D01*
X1387921Y2484392D01*
X1390461D01*
X1393000Y2481853D01*
Y2476774D01*
X1390461Y2474235D01*
X1377765Y2499627D02*
Y2489470D01*
X1385382D01*
X1382843Y2494548D01*
Y2497088D01*
X1385382Y2499627D01*
X1390461D01*
X1393000Y2497088D01*
Y2492009D01*
X1390461Y2489470D01*
X1395539Y2504705D02*
Y2514862D01*
X1377765Y2519940D02*
Y2530097D01*
Y2525018D01*
X1393000D01*
X1377765Y2535175D02*
X1393000D01*
X1385382D01*
X1382843Y2537715D01*
Y2542793D01*
X1385382Y2545332D01*
X1393000D01*
X1380304Y2560567D02*
X1377765Y2558028D01*
Y2552950D01*
X1380304Y2550410D01*
X1390461D01*
X1393000Y2552950D01*
Y2558028D01*
X1390461Y2560567D01*
X1377765Y2565645D02*
X1393000D01*
X1385382D01*
X1382843Y2568185D01*
Y2573263D01*
X1385382Y2575802D01*
X1393000D01*
X1380304Y2580880D02*
X1377765Y2583420D01*
Y2588498D01*
X1380304Y2591037D01*
X1382843D01*
X1385382Y2588498D01*
Y2585959D01*
Y2588498D01*
X1387921Y2591037D01*
X1390461D01*
X1393000Y2588498D01*
Y2583420D01*
X1390461Y2580880D01*
X877765Y2459000D02*
X893000Y2469157D01*
X877765D02*
X893000Y2459000D01*
X880304Y2484392D02*
X877765Y2481853D01*
Y2476774D01*
X880304Y2474235D01*
X882843D01*
X885382Y2476774D01*
Y2481853D01*
X887922Y2484392D01*
X890461D01*
X893000Y2481853D01*
Y2476774D01*
X890461Y2474235D01*
X877765Y2499627D02*
Y2489470D01*
X885382D01*
X882843Y2494548D01*
Y2497088D01*
X885382Y2499627D01*
X890461D01*
X893000Y2497088D01*
Y2492009D01*
X890461Y2489470D01*
X895539Y2504705D02*
Y2514862D01*
X877765Y2519940D02*
Y2530097D01*
Y2525018D01*
X893000D01*
X877765Y2535175D02*
X893000D01*
X885382D01*
X882843Y2537715D01*
Y2542793D01*
X885382Y2545332D01*
X893000D01*
X880304Y2560567D02*
X877765Y2558028D01*
Y2552950D01*
X880304Y2550410D01*
X890461D01*
X893000Y2552950D01*
Y2558028D01*
X890461Y2560567D01*
X877765Y2565645D02*
X893000D01*
X885382D01*
X882843Y2568185D01*
Y2573263D01*
X885382Y2575802D01*
X893000D01*
Y2591037D02*
Y2580880D01*
X882843Y2591037D01*
X880304D01*
X877765Y2588498D01*
Y2583420D01*
X880304Y2580880D01*
X377765Y2459000D02*
X393000Y2469157D01*
X377765D02*
X393000Y2459000D01*
X380304Y2484392D02*
X377765Y2481853D01*
Y2476774D01*
X380304Y2474235D01*
X382843D01*
X385382Y2476774D01*
Y2481853D01*
X387922Y2484392D01*
X390461D01*
X393000Y2481853D01*
Y2476774D01*
X390461Y2474235D01*
X377765Y2499627D02*
Y2489470D01*
X385382D01*
X382843Y2494548D01*
Y2497088D01*
X385382Y2499627D01*
X390461D01*
X393000Y2497088D01*
Y2492009D01*
X390461Y2489470D01*
X395539Y2504705D02*
Y2514862D01*
X377765Y2519940D02*
Y2530097D01*
Y2525018D01*
X393000D01*
X377765Y2535175D02*
X393000D01*
X385382D01*
X382843Y2537715D01*
Y2542793D01*
X385382Y2545332D01*
X393000D01*
X380304Y2560567D02*
X377765Y2558028D01*
Y2552950D01*
X380304Y2550410D01*
X390461D01*
X393000Y2552950D01*
Y2558028D01*
X390461Y2560567D01*
X377765Y2565645D02*
X393000D01*
X385382D01*
X382843Y2568185D01*
Y2573263D01*
X385382Y2575802D01*
X393000D01*
Y2580880D02*
Y2585959D01*
Y2583420D01*
X377765D01*
X380304Y2580880D01*
X3710000Y2795235D02*
X3720157Y2780000D01*
Y2795235D02*
X3710000Y2780000D01*
X3735392Y2792696D02*
X3732852Y2795235D01*
X3727774D01*
X3725235Y2792696D01*
Y2790157D01*
X3727774Y2787617D01*
X3732852D01*
X3735392Y2785078D01*
Y2782539D01*
X3732852Y2780000D01*
X3727774D01*
X3725235Y2782539D01*
X3748087Y2780000D02*
Y2795235D01*
X3740470Y2787617D01*
X3750627D01*
X2685000Y2755235D02*
X2695157Y2740000D01*
Y2755235D02*
X2685000Y2740000D01*
X2710392Y2752696D02*
X2707852Y2755235D01*
X2702774D01*
X2700235Y2752696D01*
Y2750157D01*
X2702774Y2747617D01*
X2707852D01*
X2710392Y2745078D01*
Y2742539D01*
X2707852Y2740000D01*
X2702774D01*
X2700235Y2742539D01*
X2715470Y2752696D02*
X2718009Y2755235D01*
X2723088D01*
X2725627Y2752696D01*
Y2750157D01*
X2723088Y2747617D01*
X2720548D01*
X2723088D01*
X2725627Y2745078D01*
Y2742539D01*
X2723088Y2740000D01*
X2718009D01*
X2715470Y2742539D01*
X1185000Y2755235D02*
X1195156Y2740000D01*
Y2755235D02*
X1185000Y2740000D01*
X1210392Y2752696D02*
X1207852Y2755235D01*
X1202774D01*
X1200235Y2752696D01*
Y2750157D01*
X1202774Y2747618D01*
X1207852D01*
X1210392Y2745078D01*
Y2742539D01*
X1207852Y2740000D01*
X1202774D01*
X1200235Y2742539D01*
X1225627Y2740000D02*
X1215470D01*
X1225627Y2750157D01*
Y2752696D01*
X1223087Y2755235D01*
X1218009D01*
X1215470Y2752696D01*
X842765Y1843500D02*
X852922D01*
X858000Y1848578D01*
X852922Y1853657D01*
X842765D01*
Y1858735D02*
X858000D01*
Y1866353D01*
X855461Y1868892D01*
X845304D01*
X842765Y1866353D01*
Y1858735D01*
X858000Y1884127D02*
Y1873970D01*
X847843Y1884127D01*
X845304D01*
X842765Y1881588D01*
Y1876509D01*
X845304Y1873970D01*
X560765Y1885000D02*
X570922D01*
X576000Y1890078D01*
X570922Y1895157D01*
X560765D01*
Y1900235D02*
X576000D01*
Y1907853D01*
X573461Y1910392D01*
X563304D01*
X560765Y1907853D01*
Y1900235D01*
X576000Y1915470D02*
Y1920549D01*
Y1918009D01*
X560765D01*
X563304Y1915470D01*
X1497000Y2007735D02*
Y1995039D01*
X1499539Y1992500D01*
X1504617D01*
X1507157Y1995039D01*
Y2007735D01*
X1512235Y1992500D02*
X1517313D01*
X1514774D01*
Y2007735D01*
X1512235Y2005196D01*
X3540272Y1923190D02*
X3550429D01*
X3545350D01*
Y1907954D01*
X3555507D02*
Y1918111D01*
X3560585Y1923190D01*
X3565664Y1918111D01*
Y1907954D01*
Y1915572D01*
X3555507D01*
X3570742Y1920650D02*
X3573281Y1923190D01*
X3578360D01*
X3580899Y1920650D01*
Y1918111D01*
X3578360Y1915572D01*
X3575821D01*
X3578360D01*
X3580899Y1913033D01*
Y1910494D01*
X3578360Y1907954D01*
X3573281D01*
X3570742Y1910494D01*
X2531856Y1923058D02*
X2542012D01*
X2536934D01*
Y1907822D01*
X2547091D02*
Y1917979D01*
X2552169Y1923058D01*
X2557247Y1917979D01*
Y1907822D01*
Y1915440D01*
X2547091D01*
X2572483Y1907822D02*
X2562326D01*
X2572483Y1917979D01*
Y1920518D01*
X2569944Y1923058D01*
X2564865D01*
X2562326Y1920518D01*
X1030262Y1923170D02*
X1040419D01*
X1035340D01*
Y1907935D01*
X1045497D02*
Y1918091D01*
X1050575Y1923170D01*
X1055654Y1918091D01*
Y1907935D01*
Y1915552D01*
X1045497D01*
X1060732Y1907935D02*
X1065810D01*
X1063271D01*
Y1923170D01*
X1060732Y1920631D01*
X1492250Y1883250D02*
X1477015D01*
Y1890867D01*
X1479554Y1893407D01*
X1484632D01*
X1487171Y1890867D01*
Y1883250D01*
Y1888328D02*
X1492250Y1893407D01*
Y1898485D02*
Y1903563D01*
Y1901024D01*
X1477015D01*
X1479554Y1898485D01*
X1477015Y1921338D02*
Y1911181D01*
X1484632D01*
X1482093Y1916259D01*
Y1918798D01*
X1484632Y1921338D01*
X1489711D01*
X1492250Y1918798D01*
Y1913720D01*
X1489711Y1911181D01*
X1566750Y1869250D02*
Y1884485D01*
X1574368D01*
X1576907Y1881946D01*
Y1876868D01*
X1574368Y1874328D01*
X1566750D01*
X1571828D02*
X1576907Y1869250D01*
X1581985D02*
X1587063D01*
X1584524D01*
Y1884485D01*
X1581985Y1881946D01*
X1602298Y1869250D02*
Y1884485D01*
X1594681Y1876868D01*
X1604838D01*
X897000Y1846000D02*
X881765D01*
Y1853618D01*
X884304Y1856157D01*
X889382D01*
X891922Y1853618D01*
Y1846000D01*
Y1851078D02*
X897000Y1856157D01*
Y1861235D02*
Y1866313D01*
Y1863774D01*
X881765D01*
X884304Y1861235D01*
Y1873931D02*
X881765Y1876470D01*
Y1881548D01*
X884304Y1884088D01*
X886843D01*
X889382Y1881548D01*
Y1879009D01*
Y1881548D01*
X891922Y1884088D01*
X894461D01*
X897000Y1881548D01*
Y1876470D01*
X894461Y1873931D01*
X457000Y2018000D02*
Y2033235D01*
X464618D01*
X467157Y2030696D01*
Y2025617D01*
X464618Y2023078D01*
X457000D01*
X462078D02*
X467157Y2018000D01*
X472235D02*
X477313D01*
X474774D01*
Y2033235D01*
X472235Y2030696D01*
X495088Y2018000D02*
X484931D01*
X495088Y2028157D01*
Y2030696D01*
X492548Y2033235D01*
X487470D01*
X484931Y2030696D01*
X482000Y1998000D02*
Y2013235D01*
X489618D01*
X492157Y2010696D01*
Y2005618D01*
X489618Y2003078D01*
X482000D01*
X487078D02*
X492157Y1998000D01*
X497235D02*
X502313D01*
X499774D01*
Y2013235D01*
X497235Y2010696D01*
X509931Y1998000D02*
X515009D01*
X512470D01*
Y2013235D01*
X509931Y2010696D01*
X837000Y1846039D02*
X821765D01*
Y1853657D01*
X824304Y1856196D01*
X829383D01*
X831922Y1853657D01*
Y1846039D01*
Y1851117D02*
X837000Y1856196D01*
Y1861274D02*
Y1866353D01*
Y1863813D01*
X821765D01*
X824304Y1861274D01*
Y1873970D02*
X821765Y1876509D01*
Y1881588D01*
X824304Y1884127D01*
X834461D01*
X837000Y1881588D01*
Y1876509D01*
X834461Y1873970D01*
X824304D01*
X432000Y1879000D02*
Y1894235D01*
X439618D01*
X442157Y1891696D01*
Y1886617D01*
X439618Y1884078D01*
X432000D01*
X437078D02*
X442157Y1879000D01*
X447235Y1881539D02*
X449774Y1879000D01*
X454853D01*
X457392Y1881539D01*
Y1891696D01*
X454853Y1894235D01*
X449774D01*
X447235Y1891696D01*
Y1889157D01*
X449774Y1886617D01*
X457392D01*
X396000Y1879000D02*
Y1894235D01*
X403618D01*
X406157Y1891696D01*
Y1886617D01*
X403618Y1884078D01*
X396000D01*
X401078D02*
X406157Y1879000D01*
X411235Y1891696D02*
X413774Y1894235D01*
X418853D01*
X421392Y1891696D01*
Y1889157D01*
X418853Y1886617D01*
X421392Y1884078D01*
Y1881539D01*
X418853Y1879000D01*
X413774D01*
X411235Y1881539D01*
Y1884078D01*
X413774Y1886617D01*
X411235Y1889157D01*
Y1891696D01*
X413774Y1886617D02*
X418853D01*
X4205000Y2332837D02*
X4189765D01*
Y2340455D01*
X4192304Y2342994D01*
X4197383D01*
X4199922Y2340455D01*
Y2332837D01*
Y2337915D02*
X4205000Y2342994D01*
X4189765Y2348072D02*
Y2358229D01*
X4192304D01*
X4202461Y2348072D01*
X4205000D01*
X4207539Y2363307D02*
Y2373464D01*
X4189765Y2378542D02*
Y2388699D01*
Y2383620D01*
X4205000D01*
X4189765Y2393777D02*
X4205000D01*
X4197383D01*
X4194843Y2396316D01*
Y2401395D01*
X4197383Y2403934D01*
X4205000D01*
X4192304Y2419169D02*
X4189765Y2416630D01*
Y2411552D01*
X4192304Y2409012D01*
X4202461D01*
X4205000Y2411552D01*
Y2416630D01*
X4202461Y2419169D01*
X4189765Y2424247D02*
X4205000D01*
X4197383D01*
X4194843Y2426786D01*
Y2431865D01*
X4197383Y2434404D01*
X4205000D01*
X4192304Y2439482D02*
X4189765Y2442022D01*
Y2447100D01*
X4192304Y2449639D01*
X4194843D01*
X4197383Y2447100D01*
X4199922Y2449639D01*
X4202461D01*
X4205000Y2447100D01*
Y2442022D01*
X4202461Y2439482D01*
X4199922D01*
X4197383Y2442022D01*
X4194843Y2439482D01*
X4192304D01*
X4197383Y2442022D02*
Y2447100D01*
X3705000Y2332837D02*
X3689765D01*
Y2340455D01*
X3692304Y2342994D01*
X3697383D01*
X3699922Y2340455D01*
Y2332837D01*
Y2337915D02*
X3705000Y2342994D01*
X3689765Y2348072D02*
Y2358229D01*
X3692304D01*
X3702461Y2348072D01*
X3705000D01*
X3707539Y2363307D02*
Y2373464D01*
X3689765Y2378542D02*
Y2388699D01*
Y2383620D01*
X3705000D01*
X3689765Y2393777D02*
X3705000D01*
X3697383D01*
X3694843Y2396316D01*
Y2401395D01*
X3697383Y2403934D01*
X3705000D01*
X3692304Y2419169D02*
X3689765Y2416630D01*
Y2411552D01*
X3692304Y2409012D01*
X3702461D01*
X3705000Y2411552D01*
Y2416630D01*
X3702461Y2419169D01*
X3689765Y2424247D02*
X3705000D01*
X3697383D01*
X3694843Y2426787D01*
Y2431865D01*
X3697383Y2434404D01*
X3705000D01*
X3689765Y2439482D02*
Y2449639D01*
X3692304D01*
X3702461Y2439482D01*
X3705000D01*
X3205000Y2332837D02*
X3189765D01*
Y2340455D01*
X3192304Y2342994D01*
X3197383D01*
X3199922Y2340455D01*
Y2332837D01*
Y2337915D02*
X3205000Y2342994D01*
X3189765Y2348072D02*
Y2358229D01*
X3192304D01*
X3202461Y2348072D01*
X3205000D01*
X3207539Y2363307D02*
Y2373464D01*
X3189765Y2378542D02*
Y2388699D01*
Y2383620D01*
X3205000D01*
X3189765Y2393777D02*
X3205000D01*
X3197383D01*
X3194843Y2396316D01*
Y2401395D01*
X3197383Y2403934D01*
X3205000D01*
X3192304Y2419169D02*
X3189765Y2416630D01*
Y2411552D01*
X3192304Y2409012D01*
X3202461D01*
X3205000Y2411552D01*
Y2416630D01*
X3202461Y2419169D01*
X3189765Y2424247D02*
X3205000D01*
X3197383D01*
X3194843Y2426786D01*
Y2431865D01*
X3197383Y2434404D01*
X3205000D01*
X3189765Y2449639D02*
X3192304Y2444561D01*
X3197383Y2439482D01*
X3202461D01*
X3205000Y2442022D01*
Y2447100D01*
X3202461Y2449639D01*
X3199922D01*
X3197383Y2447100D01*
Y2439482D01*
X2705000Y2332837D02*
X2689765D01*
Y2340455D01*
X2692304Y2342994D01*
X2697383D01*
X2699922Y2340455D01*
Y2332837D01*
Y2337915D02*
X2705000Y2342994D01*
X2689765Y2348072D02*
Y2358229D01*
X2692304D01*
X2702461Y2348072D01*
X2705000D01*
X2707539Y2363307D02*
Y2373464D01*
X2689765Y2378542D02*
Y2388699D01*
Y2383620D01*
X2705000D01*
X2689765Y2393777D02*
X2705000D01*
X2697383D01*
X2694843Y2396316D01*
Y2401395D01*
X2697383Y2403934D01*
X2705000D01*
X2692304Y2419169D02*
X2689765Y2416630D01*
Y2411552D01*
X2692304Y2409012D01*
X2702461D01*
X2705000Y2411552D01*
Y2416630D01*
X2702461Y2419169D01*
X2689765Y2424247D02*
X2705000D01*
X2697383D01*
X2694843Y2426786D01*
Y2431865D01*
X2697383Y2434404D01*
X2705000D01*
X2689765Y2449639D02*
Y2439482D01*
X2697383D01*
X2694843Y2444561D01*
Y2447100D01*
X2697383Y2449639D01*
X2702461D01*
X2705000Y2447100D01*
Y2442022D01*
X2702461Y2439482D01*
X2205000Y2332837D02*
X2189765D01*
Y2340455D01*
X2192304Y2342994D01*
X2197383D01*
X2199922Y2340455D01*
Y2332837D01*
Y2337915D02*
X2205000Y2342994D01*
X2189765Y2348072D02*
Y2358229D01*
X2192304D01*
X2202461Y2348072D01*
X2205000D01*
X2207539Y2363307D02*
Y2373464D01*
X2189765Y2378542D02*
Y2388699D01*
Y2383620D01*
X2205000D01*
X2189765Y2393777D02*
X2205000D01*
X2197383D01*
X2194843Y2396316D01*
Y2401395D01*
X2197383Y2403934D01*
X2205000D01*
X2192304Y2419169D02*
X2189765Y2416630D01*
Y2411552D01*
X2192304Y2409012D01*
X2202461D01*
X2205000Y2411552D01*
Y2416630D01*
X2202461Y2419169D01*
X2189765Y2424247D02*
X2205000D01*
X2197383D01*
X2194843Y2426786D01*
Y2431865D01*
X2197383Y2434404D01*
X2205000D01*
Y2447100D02*
X2189765D01*
X2197383Y2439482D01*
Y2449639D01*
X1705000Y2332837D02*
X1689765D01*
Y2340455D01*
X1692304Y2342994D01*
X1697383D01*
X1699922Y2340455D01*
Y2332837D01*
Y2337915D02*
X1705000Y2342994D01*
X1689765Y2348072D02*
Y2358229D01*
X1692304D01*
X1702461Y2348072D01*
X1705000D01*
X1707539Y2363307D02*
Y2373464D01*
X1689765Y2378542D02*
Y2388699D01*
Y2383620D01*
X1705000D01*
X1689765Y2393777D02*
X1705000D01*
X1697383D01*
X1694843Y2396316D01*
Y2401395D01*
X1697383Y2403934D01*
X1705000D01*
X1692304Y2419169D02*
X1689765Y2416630D01*
Y2411552D01*
X1692304Y2409012D01*
X1702461D01*
X1705000Y2411552D01*
Y2416630D01*
X1702461Y2419169D01*
X1689765Y2424247D02*
X1705000D01*
X1697383D01*
X1694843Y2426787D01*
Y2431865D01*
X1697383Y2434404D01*
X1705000D01*
X1692304Y2439482D02*
X1689765Y2442022D01*
Y2447100D01*
X1692304Y2449639D01*
X1694843D01*
X1697383Y2447100D01*
Y2444561D01*
Y2447100D01*
X1699922Y2449639D01*
X1702461D01*
X1705000Y2447100D01*
Y2442022D01*
X1702461Y2439482D01*
X1205000Y2332837D02*
X1189765D01*
Y2340455D01*
X1192304Y2342994D01*
X1197383D01*
X1199922Y2340455D01*
Y2332837D01*
Y2337915D02*
X1205000Y2342994D01*
X1189765Y2348072D02*
Y2358229D01*
X1192304D01*
X1202461Y2348072D01*
X1205000D01*
X1207539Y2363307D02*
Y2373464D01*
X1189765Y2378542D02*
Y2388699D01*
Y2383620D01*
X1205000D01*
X1189765Y2393777D02*
X1205000D01*
X1197383D01*
X1194843Y2396316D01*
Y2401395D01*
X1197383Y2403934D01*
X1205000D01*
X1192304Y2419169D02*
X1189765Y2416630D01*
Y2411552D01*
X1192304Y2409012D01*
X1202461D01*
X1205000Y2411552D01*
Y2416630D01*
X1202461Y2419169D01*
X1189765Y2424247D02*
X1205000D01*
X1197383D01*
X1194843Y2426787D01*
Y2431865D01*
X1197383Y2434404D01*
X1205000D01*
Y2449639D02*
Y2439482D01*
X1194843Y2449639D01*
X1192304D01*
X1189765Y2447100D01*
Y2442022D01*
X1192304Y2439482D01*
X705000Y2332837D02*
X689765D01*
Y2340455D01*
X692304Y2342994D01*
X697383D01*
X699922Y2340455D01*
Y2332837D01*
Y2337915D02*
X705000Y2342994D01*
X689765Y2348072D02*
Y2358229D01*
X692304D01*
X702461Y2348072D01*
X705000D01*
X707539Y2363307D02*
Y2373464D01*
X689765Y2378542D02*
Y2388699D01*
Y2383620D01*
X705000D01*
X689765Y2393777D02*
X705000D01*
X697383D01*
X694843Y2396316D01*
Y2401395D01*
X697383Y2403934D01*
X705000D01*
X692304Y2419169D02*
X689765Y2416630D01*
Y2411552D01*
X692304Y2409012D01*
X702461D01*
X705000Y2411552D01*
Y2416630D01*
X702461Y2419169D01*
X689765Y2424247D02*
X705000D01*
X697383D01*
X694843Y2426787D01*
Y2431865D01*
X697383Y2434404D01*
X705000D01*
Y2439482D02*
Y2444561D01*
Y2442022D01*
X689765D01*
X692304Y2439482D01*
X4081000Y2303591D02*
X4065765D01*
Y2311208D01*
X4068304Y2313747D01*
X4073383D01*
X4075922Y2311208D01*
Y2303591D01*
Y2308669D02*
X4081000Y2313747D01*
X4065765Y2328982D02*
X4068304Y2323904D01*
X4073383Y2318826D01*
X4078461D01*
X4081000Y2321365D01*
Y2326443D01*
X4078461Y2328982D01*
X4075922D01*
X4073383Y2326443D01*
Y2318826D01*
X4083539Y2334061D02*
Y2344218D01*
X4065765Y2349296D02*
Y2359453D01*
Y2354374D01*
X4081000D01*
X4065765Y2364531D02*
X4081000D01*
X4073383D01*
X4070844Y2367070D01*
Y2372148D01*
X4073383Y2374688D01*
X4081000D01*
X4068304Y2389923D02*
X4065765Y2387384D01*
Y2382305D01*
X4068304Y2379766D01*
X4078461D01*
X4081000Y2382305D01*
Y2387384D01*
X4078461Y2389923D01*
X4065765Y2395001D02*
X4081000D01*
X4073383D01*
X4070844Y2397540D01*
Y2402619D01*
X4073383Y2405158D01*
X4081000D01*
X4068304Y2410236D02*
X4065765Y2412775D01*
Y2417854D01*
X4068304Y2420393D01*
X4070844D01*
X4073383Y2417854D01*
X4075922Y2420393D01*
X4078461D01*
X4081000Y2417854D01*
Y2412775D01*
X4078461Y2410236D01*
X4075922D01*
X4073383Y2412775D01*
X4070844Y2410236D01*
X4068304D01*
X4073383Y2412775D02*
Y2417854D01*
X3581000Y2303591D02*
X3565765D01*
Y2311208D01*
X3568304Y2313747D01*
X3573383D01*
X3575922Y2311208D01*
Y2303591D01*
Y2308669D02*
X3581000Y2313747D01*
X3565765Y2328982D02*
X3568304Y2323904D01*
X3573383Y2318826D01*
X3578461D01*
X3581000Y2321365D01*
Y2326443D01*
X3578461Y2328982D01*
X3575922D01*
X3573383Y2326443D01*
Y2318826D01*
X3583539Y2334061D02*
Y2344218D01*
X3565765Y2349296D02*
Y2359453D01*
Y2354374D01*
X3581000D01*
X3565765Y2364531D02*
X3581000D01*
X3573383D01*
X3570844Y2367070D01*
Y2372148D01*
X3573383Y2374688D01*
X3581000D01*
X3568304Y2389923D02*
X3565765Y2387384D01*
Y2382305D01*
X3568304Y2379766D01*
X3578461D01*
X3581000Y2382305D01*
Y2387384D01*
X3578461Y2389923D01*
X3565765Y2395001D02*
X3581000D01*
X3573383D01*
X3570844Y2397540D01*
Y2402619D01*
X3573383Y2405158D01*
X3581000D01*
X3565765Y2410236D02*
Y2420393D01*
X3568304D01*
X3578461Y2410236D01*
X3581000D01*
X3081000Y2303591D02*
X3065765D01*
Y2311208D01*
X3068304Y2313747D01*
X3073383D01*
X3075922Y2311208D01*
Y2303591D01*
Y2308669D02*
X3081000Y2313747D01*
X3065765Y2328982D02*
X3068304Y2323904D01*
X3073383Y2318826D01*
X3078461D01*
X3081000Y2321365D01*
Y2326443D01*
X3078461Y2328982D01*
X3075922D01*
X3073383Y2326443D01*
Y2318826D01*
X3083539Y2334061D02*
Y2344218D01*
X3065765Y2349296D02*
Y2359453D01*
Y2354374D01*
X3081000D01*
X3065765Y2364531D02*
X3081000D01*
X3073383D01*
X3070844Y2367070D01*
Y2372148D01*
X3073383Y2374688D01*
X3081000D01*
X3068304Y2389923D02*
X3065765Y2387384D01*
Y2382305D01*
X3068304Y2379766D01*
X3078461D01*
X3081000Y2382305D01*
Y2387384D01*
X3078461Y2389923D01*
X3065765Y2395001D02*
X3081000D01*
X3073383D01*
X3070844Y2397540D01*
Y2402619D01*
X3073383Y2405158D01*
X3081000D01*
X3065765Y2420393D02*
X3068304Y2415314D01*
X3073383Y2410236D01*
X3078461D01*
X3081000Y2412775D01*
Y2417854D01*
X3078461Y2420393D01*
X3075922D01*
X3073383Y2417854D01*
Y2410236D01*
X2581000Y2303591D02*
X2565765D01*
Y2311208D01*
X2568304Y2313747D01*
X2573383D01*
X2575922Y2311208D01*
Y2303591D01*
Y2308669D02*
X2581000Y2313747D01*
X2565765Y2328982D02*
X2568304Y2323904D01*
X2573383Y2318826D01*
X2578461D01*
X2581000Y2321365D01*
Y2326443D01*
X2578461Y2328982D01*
X2575922D01*
X2573383Y2326443D01*
Y2318826D01*
X2583539Y2334061D02*
Y2344218D01*
X2565765Y2349296D02*
Y2359453D01*
Y2354374D01*
X2581000D01*
X2565765Y2364531D02*
X2581000D01*
X2573383D01*
X2570844Y2367070D01*
Y2372148D01*
X2573383Y2374688D01*
X2581000D01*
X2568304Y2389923D02*
X2565765Y2387384D01*
Y2382305D01*
X2568304Y2379766D01*
X2578461D01*
X2581000Y2382305D01*
Y2387384D01*
X2578461Y2389923D01*
X2565765Y2395001D02*
X2581000D01*
X2573383D01*
X2570844Y2397540D01*
Y2402619D01*
X2573383Y2405158D01*
X2581000D01*
X2565765Y2420393D02*
Y2410236D01*
X2573383D01*
X2570844Y2415314D01*
Y2417854D01*
X2573383Y2420393D01*
X2578461D01*
X2581000Y2417854D01*
Y2412775D01*
X2578461Y2410236D01*
X2081000Y2303591D02*
X2065765D01*
Y2311208D01*
X2068304Y2313747D01*
X2073383D01*
X2075922Y2311208D01*
Y2303591D01*
Y2308669D02*
X2081000Y2313747D01*
X2065765Y2328982D02*
X2068304Y2323904D01*
X2073383Y2318826D01*
X2078461D01*
X2081000Y2321365D01*
Y2326443D01*
X2078461Y2328982D01*
X2075922D01*
X2073383Y2326443D01*
Y2318826D01*
X2083539Y2334061D02*
Y2344218D01*
X2065765Y2349296D02*
Y2359453D01*
Y2354374D01*
X2081000D01*
X2065765Y2364531D02*
X2081000D01*
X2073383D01*
X2070843Y2367070D01*
Y2372148D01*
X2073383Y2374688D01*
X2081000D01*
X2068304Y2389923D02*
X2065765Y2387384D01*
Y2382305D01*
X2068304Y2379766D01*
X2078461D01*
X2081000Y2382305D01*
Y2387384D01*
X2078461Y2389923D01*
X2065765Y2395001D02*
X2081000D01*
X2073383D01*
X2070843Y2397540D01*
Y2402619D01*
X2073383Y2405158D01*
X2081000D01*
Y2417854D02*
X2065765D01*
X2073383Y2410236D01*
Y2420393D01*
X1581000Y2303591D02*
X1565765D01*
Y2311208D01*
X1568304Y2313747D01*
X1573383D01*
X1575922Y2311208D01*
Y2303591D01*
Y2308669D02*
X1581000Y2313747D01*
X1565765Y2328982D02*
X1568304Y2323904D01*
X1573383Y2318826D01*
X1578461D01*
X1581000Y2321365D01*
Y2326443D01*
X1578461Y2328982D01*
X1575922D01*
X1573383Y2326443D01*
Y2318826D01*
X1583539Y2334061D02*
Y2344218D01*
X1565765Y2349296D02*
Y2359453D01*
Y2354374D01*
X1581000D01*
X1565765Y2364531D02*
X1581000D01*
X1573383D01*
X1570843Y2367070D01*
Y2372148D01*
X1573383Y2374688D01*
X1581000D01*
X1568304Y2389923D02*
X1565765Y2387384D01*
Y2382305D01*
X1568304Y2379766D01*
X1578461D01*
X1581000Y2382305D01*
Y2387384D01*
X1578461Y2389923D01*
X1565765Y2395001D02*
X1581000D01*
X1573383D01*
X1570843Y2397540D01*
Y2402619D01*
X1573383Y2405158D01*
X1581000D01*
X1568304Y2410236D02*
X1565765Y2412775D01*
Y2417854D01*
X1568304Y2420393D01*
X1570843D01*
X1573383Y2417854D01*
Y2415314D01*
Y2417854D01*
X1575922Y2420393D01*
X1578461D01*
X1581000Y2417854D01*
Y2412775D01*
X1578461Y2410236D01*
X1081000Y2303591D02*
X1065765D01*
Y2311208D01*
X1068304Y2313747D01*
X1073383D01*
X1075922Y2311208D01*
Y2303591D01*
Y2308669D02*
X1081000Y2313747D01*
X1065765Y2328982D02*
X1068304Y2323904D01*
X1073383Y2318826D01*
X1078461D01*
X1081000Y2321365D01*
Y2326443D01*
X1078461Y2328982D01*
X1075922D01*
X1073383Y2326443D01*
Y2318826D01*
X1083539Y2334061D02*
Y2344218D01*
X1065765Y2349296D02*
Y2359453D01*
Y2354374D01*
X1081000D01*
X1065765Y2364531D02*
X1081000D01*
X1073383D01*
X1070844Y2367070D01*
Y2372148D01*
X1073383Y2374688D01*
X1081000D01*
X1068304Y2389923D02*
X1065765Y2387384D01*
Y2382305D01*
X1068304Y2379766D01*
X1078461D01*
X1081000Y2382305D01*
Y2387384D01*
X1078461Y2389923D01*
X1065765Y2395001D02*
X1081000D01*
X1073383D01*
X1070844Y2397540D01*
Y2402619D01*
X1073383Y2405158D01*
X1081000D01*
Y2420393D02*
Y2410236D01*
X1070844Y2420393D01*
X1068304D01*
X1065765Y2417854D01*
Y2412775D01*
X1068304Y2410236D01*
X581000Y2303591D02*
X565765D01*
Y2311208D01*
X568304Y2313747D01*
X573383D01*
X575922Y2311208D01*
Y2303591D01*
Y2308669D02*
X581000Y2313747D01*
X565765Y2328982D02*
X568304Y2323904D01*
X573383Y2318826D01*
X578461D01*
X581000Y2321365D01*
Y2326443D01*
X578461Y2328982D01*
X575922D01*
X573383Y2326443D01*
Y2318826D01*
X583539Y2334061D02*
Y2344218D01*
X565765Y2349296D02*
Y2359453D01*
Y2354374D01*
X581000D01*
X565765Y2364531D02*
X581000D01*
X573383D01*
X570843Y2367070D01*
Y2372148D01*
X573383Y2374688D01*
X581000D01*
X568304Y2389923D02*
X565765Y2387384D01*
Y2382305D01*
X568304Y2379766D01*
X578461D01*
X581000Y2382305D01*
Y2387384D01*
X578461Y2389923D01*
X565765Y2395001D02*
X581000D01*
X573383D01*
X570843Y2397540D01*
Y2402619D01*
X573383Y2405158D01*
X581000D01*
Y2410236D02*
Y2415314D01*
Y2412775D01*
X565765D01*
X568304Y2410236D01*
X4032000Y2304583D02*
X4016765D01*
Y2312200D01*
X4019304Y2314739D01*
X4024383D01*
X4026922Y2312200D01*
Y2304583D01*
Y2309661D02*
X4032000Y2314739D01*
X4016765Y2329974D02*
Y2319818D01*
X4024383D01*
X4021843Y2324896D01*
Y2327435D01*
X4024383Y2329974D01*
X4029461D01*
X4032000Y2327435D01*
Y2322357D01*
X4029461Y2319818D01*
X4034539Y2335053D02*
Y2345209D01*
X4016765Y2350288D02*
Y2360444D01*
Y2355366D01*
X4032000D01*
X4016765Y2365523D02*
X4032000D01*
X4024383D01*
X4021843Y2368062D01*
Y2373140D01*
X4024383Y2375679D01*
X4032000D01*
X4019304Y2390914D02*
X4016765Y2388375D01*
Y2383297D01*
X4019304Y2380758D01*
X4029461D01*
X4032000Y2383297D01*
Y2388375D01*
X4029461Y2390914D01*
X4016765Y2395993D02*
X4032000D01*
X4024383D01*
X4021843Y2398532D01*
Y2403610D01*
X4024383Y2406150D01*
X4032000D01*
X4019304Y2411228D02*
X4016765Y2413767D01*
Y2418846D01*
X4019304Y2421385D01*
X4021843D01*
X4024383Y2418846D01*
X4026922Y2421385D01*
X4029461D01*
X4032000Y2418846D01*
Y2413767D01*
X4029461Y2411228D01*
X4026922D01*
X4024383Y2413767D01*
X4021843Y2411228D01*
X4019304D01*
X4024383Y2413767D02*
Y2418846D01*
X3532000Y2304583D02*
X3516765D01*
Y2312200D01*
X3519304Y2314739D01*
X3524383D01*
X3526922Y2312200D01*
Y2304583D01*
Y2309661D02*
X3532000Y2314739D01*
X3516765Y2329974D02*
Y2319818D01*
X3524383D01*
X3521844Y2324896D01*
Y2327435D01*
X3524383Y2329974D01*
X3529461D01*
X3532000Y2327435D01*
Y2322357D01*
X3529461Y2319818D01*
X3534539Y2335053D02*
Y2345209D01*
X3516765Y2350288D02*
Y2360444D01*
Y2355366D01*
X3532000D01*
X3516765Y2365523D02*
X3532000D01*
X3524383D01*
X3521844Y2368062D01*
Y2373140D01*
X3524383Y2375679D01*
X3532000D01*
X3519304Y2390915D02*
X3516765Y2388375D01*
Y2383297D01*
X3519304Y2380758D01*
X3529461D01*
X3532000Y2383297D01*
Y2388375D01*
X3529461Y2390915D01*
X3516765Y2395993D02*
X3532000D01*
X3524383D01*
X3521844Y2398532D01*
Y2403611D01*
X3524383Y2406150D01*
X3532000D01*
X3516765Y2411228D02*
Y2421385D01*
X3519304D01*
X3529461Y2411228D01*
X3532000D01*
X3032000Y2304583D02*
X3016765D01*
Y2312200D01*
X3019304Y2314739D01*
X3024383D01*
X3026922Y2312200D01*
Y2304583D01*
Y2309661D02*
X3032000Y2314739D01*
X3016765Y2329974D02*
Y2319818D01*
X3024383D01*
X3021843Y2324896D01*
Y2327435D01*
X3024383Y2329974D01*
X3029461D01*
X3032000Y2327435D01*
Y2322357D01*
X3029461Y2319818D01*
X3034539Y2335053D02*
Y2345209D01*
X3016765Y2350288D02*
Y2360444D01*
Y2355366D01*
X3032000D01*
X3016765Y2365523D02*
X3032000D01*
X3024383D01*
X3021843Y2368062D01*
Y2373140D01*
X3024383Y2375679D01*
X3032000D01*
X3019304Y2390914D02*
X3016765Y2388375D01*
Y2383297D01*
X3019304Y2380758D01*
X3029461D01*
X3032000Y2383297D01*
Y2388375D01*
X3029461Y2390914D01*
X3016765Y2395993D02*
X3032000D01*
X3024383D01*
X3021843Y2398532D01*
Y2403610D01*
X3024383Y2406150D01*
X3032000D01*
X3016765Y2421385D02*
X3019304Y2416306D01*
X3024383Y2411228D01*
X3029461D01*
X3032000Y2413767D01*
Y2418846D01*
X3029461Y2421385D01*
X3026922D01*
X3024383Y2418846D01*
Y2411228D01*
X2532000Y2304583D02*
X2516765D01*
Y2312200D01*
X2519304Y2314739D01*
X2524383D01*
X2526922Y2312200D01*
Y2304583D01*
Y2309661D02*
X2532000Y2314739D01*
X2516765Y2329974D02*
Y2319818D01*
X2524383D01*
X2521843Y2324896D01*
Y2327435D01*
X2524383Y2329974D01*
X2529461D01*
X2532000Y2327435D01*
Y2322357D01*
X2529461Y2319818D01*
X2534539Y2335053D02*
Y2345209D01*
X2516765Y2350288D02*
Y2360444D01*
Y2355366D01*
X2532000D01*
X2516765Y2365523D02*
X2532000D01*
X2524383D01*
X2521843Y2368062D01*
Y2373140D01*
X2524383Y2375679D01*
X2532000D01*
X2519304Y2390914D02*
X2516765Y2388375D01*
Y2383297D01*
X2519304Y2380758D01*
X2529461D01*
X2532000Y2383297D01*
Y2388375D01*
X2529461Y2390914D01*
X2516765Y2395993D02*
X2532000D01*
X2524383D01*
X2521843Y2398532D01*
Y2403610D01*
X2524383Y2406150D01*
X2532000D01*
X2516765Y2421385D02*
Y2411228D01*
X2524383D01*
X2521843Y2416306D01*
Y2418846D01*
X2524383Y2421385D01*
X2529461D01*
X2532000Y2418846D01*
Y2413767D01*
X2529461Y2411228D01*
X2032000Y2304583D02*
X2016765D01*
Y2312200D01*
X2019304Y2314739D01*
X2024383D01*
X2026922Y2312200D01*
Y2304583D01*
Y2309661D02*
X2032000Y2314739D01*
X2016765Y2329974D02*
Y2319818D01*
X2024383D01*
X2021843Y2324896D01*
Y2327435D01*
X2024383Y2329974D01*
X2029461D01*
X2032000Y2327435D01*
Y2322357D01*
X2029461Y2319818D01*
X2034539Y2335053D02*
Y2345209D01*
X2016765Y2350288D02*
Y2360444D01*
Y2355366D01*
X2032000D01*
X2016765Y2365523D02*
X2032000D01*
X2024383D01*
X2021843Y2368062D01*
Y2373140D01*
X2024383Y2375679D01*
X2032000D01*
X2019304Y2390914D02*
X2016765Y2388375D01*
Y2383297D01*
X2019304Y2380758D01*
X2029461D01*
X2032000Y2383297D01*
Y2388375D01*
X2029461Y2390914D01*
X2016765Y2395993D02*
X2032000D01*
X2024383D01*
X2021843Y2398532D01*
Y2403610D01*
X2024383Y2406150D01*
X2032000D01*
Y2418846D02*
X2016765D01*
X2024383Y2411228D01*
Y2421385D01*
X1532000Y2304583D02*
X1516765D01*
Y2312200D01*
X1519304Y2314739D01*
X1524383D01*
X1526922Y2312200D01*
Y2304583D01*
Y2309661D02*
X1532000Y2314739D01*
X1516765Y2329974D02*
Y2319818D01*
X1524383D01*
X1521843Y2324896D01*
Y2327435D01*
X1524383Y2329974D01*
X1529461D01*
X1532000Y2327435D01*
Y2322357D01*
X1529461Y2319818D01*
X1534539Y2335053D02*
Y2345209D01*
X1516765Y2350288D02*
Y2360444D01*
Y2355366D01*
X1532000D01*
X1516765Y2365523D02*
X1532000D01*
X1524383D01*
X1521843Y2368062D01*
Y2373140D01*
X1524383Y2375679D01*
X1532000D01*
X1519304Y2390915D02*
X1516765Y2388375D01*
Y2383297D01*
X1519304Y2380758D01*
X1529461D01*
X1532000Y2383297D01*
Y2388375D01*
X1529461Y2390915D01*
X1516765Y2395993D02*
X1532000D01*
X1524383D01*
X1521843Y2398532D01*
Y2403611D01*
X1524383Y2406150D01*
X1532000D01*
X1519304Y2411228D02*
X1516765Y2413767D01*
Y2418846D01*
X1519304Y2421385D01*
X1521843D01*
X1524383Y2418846D01*
Y2416306D01*
Y2418846D01*
X1526922Y2421385D01*
X1529461D01*
X1532000Y2418846D01*
Y2413767D01*
X1529461Y2411228D01*
X1032000Y2304583D02*
X1016765D01*
Y2312200D01*
X1019304Y2314739D01*
X1024383D01*
X1026922Y2312200D01*
Y2304583D01*
Y2309661D02*
X1032000Y2314739D01*
X1016765Y2329974D02*
Y2319818D01*
X1024383D01*
X1021843Y2324896D01*
Y2327435D01*
X1024383Y2329974D01*
X1029461D01*
X1032000Y2327435D01*
Y2322357D01*
X1029461Y2319818D01*
X1034539Y2335053D02*
Y2345209D01*
X1016765Y2350288D02*
Y2360444D01*
Y2355366D01*
X1032000D01*
X1016765Y2365523D02*
X1032000D01*
X1024383D01*
X1021843Y2368062D01*
Y2373140D01*
X1024383Y2375679D01*
X1032000D01*
X1019304Y2390915D02*
X1016765Y2388375D01*
Y2383297D01*
X1019304Y2380758D01*
X1029461D01*
X1032000Y2383297D01*
Y2388375D01*
X1029461Y2390915D01*
X1016765Y2395993D02*
X1032000D01*
X1024383D01*
X1021843Y2398532D01*
Y2403611D01*
X1024383Y2406150D01*
X1032000D01*
Y2421385D02*
Y2411228D01*
X1021843Y2421385D01*
X1019304D01*
X1016765Y2418846D01*
Y2413767D01*
X1019304Y2411228D01*
X532000Y2304583D02*
X516765D01*
Y2312200D01*
X519304Y2314739D01*
X524383D01*
X526922Y2312200D01*
Y2304583D01*
Y2309661D02*
X532000Y2314739D01*
X516765Y2329974D02*
Y2319818D01*
X524383D01*
X521843Y2324896D01*
Y2327435D01*
X524383Y2329974D01*
X529461D01*
X532000Y2327435D01*
Y2322357D01*
X529461Y2319818D01*
X534539Y2335053D02*
Y2345209D01*
X516765Y2350288D02*
Y2360444D01*
Y2355366D01*
X532000D01*
X516765Y2365523D02*
X532000D01*
X524383D01*
X521843Y2368062D01*
Y2373140D01*
X524383Y2375679D01*
X532000D01*
X519304Y2390914D02*
X516765Y2388375D01*
Y2383297D01*
X519304Y2380758D01*
X529461D01*
X532000Y2383297D01*
Y2388375D01*
X529461Y2390914D01*
X516765Y2395993D02*
X532000D01*
X524383D01*
X521843Y2398532D01*
Y2403610D01*
X524383Y2406150D01*
X532000D01*
Y2411228D02*
Y2416306D01*
Y2413767D01*
X516765D01*
X519304Y2411228D01*
X3773000Y2340038D02*
X3757765D01*
Y2347655D01*
X3760304Y2350194D01*
X3765382D01*
X3767921Y2347655D01*
Y2340038D01*
Y2345116D02*
X3773000Y2350194D01*
Y2362890D02*
X3757765D01*
X3765382Y2355273D01*
Y2365429D01*
X3775539Y2370508D02*
Y2380664D01*
X3757765Y2385743D02*
Y2395899D01*
Y2390821D01*
X3773000D01*
X3757765Y2400978D02*
X3773000D01*
X3765382D01*
X3762843Y2403517D01*
Y2408595D01*
X3765382Y2411134D01*
X3773000D01*
X3760304Y2426370D02*
X3757765Y2423830D01*
Y2418752D01*
X3760304Y2416213D01*
X3770461D01*
X3773000Y2418752D01*
Y2423830D01*
X3770461Y2426370D01*
X3757765Y2431448D02*
X3773000D01*
X3765382D01*
X3762843Y2433987D01*
Y2439066D01*
X3765382Y2441605D01*
X3773000D01*
X3760304Y2446683D02*
X3757765Y2449222D01*
Y2454301D01*
X3760304Y2456840D01*
X3762843D01*
X3765382Y2454301D01*
X3767921Y2456840D01*
X3770461D01*
X3773000Y2454301D01*
Y2449222D01*
X3770461Y2446683D01*
X3767921D01*
X3765382Y2449222D01*
X3762843Y2446683D01*
X3760304D01*
X3765382Y2449222D02*
Y2454301D01*
X3273000Y2340038D02*
X3257765D01*
Y2347655D01*
X3260304Y2350194D01*
X3265382D01*
X3267922Y2347655D01*
Y2340038D01*
Y2345116D02*
X3273000Y2350194D01*
Y2362890D02*
X3257765D01*
X3265382Y2355273D01*
Y2365429D01*
X3275539Y2370508D02*
Y2380664D01*
X3257765Y2385743D02*
Y2395900D01*
Y2390821D01*
X3273000D01*
X3257765Y2400978D02*
X3273000D01*
X3265382D01*
X3262843Y2403517D01*
Y2408595D01*
X3265382Y2411134D01*
X3273000D01*
X3260304Y2426370D02*
X3257765Y2423830D01*
Y2418752D01*
X3260304Y2416213D01*
X3270461D01*
X3273000Y2418752D01*
Y2423830D01*
X3270461Y2426370D01*
X3257765Y2431448D02*
X3273000D01*
X3265382D01*
X3262843Y2433987D01*
Y2439066D01*
X3265382Y2441605D01*
X3273000D01*
X3257765Y2446683D02*
Y2456840D01*
X3260304D01*
X3270461Y2446683D01*
X3273000D01*
X2773000Y2340038D02*
X2757765D01*
Y2347655D01*
X2760304Y2350194D01*
X2765382D01*
X2767921Y2347655D01*
Y2340038D01*
Y2345116D02*
X2773000Y2350194D01*
Y2362890D02*
X2757765D01*
X2765382Y2355273D01*
Y2365429D01*
X2775539Y2370508D02*
Y2380664D01*
X2757765Y2385743D02*
Y2395899D01*
Y2390821D01*
X2773000D01*
X2757765Y2400978D02*
X2773000D01*
X2765382D01*
X2762843Y2403517D01*
Y2408595D01*
X2765382Y2411134D01*
X2773000D01*
X2760304Y2426370D02*
X2757765Y2423830D01*
Y2418752D01*
X2760304Y2416213D01*
X2770461D01*
X2773000Y2418752D01*
Y2423830D01*
X2770461Y2426370D01*
X2757765Y2431448D02*
X2773000D01*
X2765382D01*
X2762843Y2433987D01*
Y2439066D01*
X2765382Y2441605D01*
X2773000D01*
X2757765Y2456840D02*
X2760304Y2451761D01*
X2765382Y2446683D01*
X2770461D01*
X2773000Y2449222D01*
Y2454301D01*
X2770461Y2456840D01*
X2767921D01*
X2765382Y2454301D01*
Y2446683D01*
X2273000Y2340038D02*
X2257765D01*
Y2347655D01*
X2260304Y2350194D01*
X2265382D01*
X2267922Y2347655D01*
Y2340038D01*
Y2345116D02*
X2273000Y2350194D01*
Y2362890D02*
X2257765D01*
X2265382Y2355273D01*
Y2365429D01*
X2275539Y2370508D02*
Y2380664D01*
X2257765Y2385743D02*
Y2395899D01*
Y2390821D01*
X2273000D01*
X2257765Y2400978D02*
X2273000D01*
X2265382D01*
X2262843Y2403517D01*
Y2408595D01*
X2265382Y2411134D01*
X2273000D01*
X2260304Y2426370D02*
X2257765Y2423830D01*
Y2418752D01*
X2260304Y2416213D01*
X2270461D01*
X2273000Y2418752D01*
Y2423830D01*
X2270461Y2426370D01*
X2257765Y2431448D02*
X2273000D01*
X2265382D01*
X2262843Y2433987D01*
Y2439066D01*
X2265382Y2441605D01*
X2273000D01*
X2257765Y2456840D02*
Y2446683D01*
X2265382D01*
X2262843Y2451761D01*
Y2454301D01*
X2265382Y2456840D01*
X2270461D01*
X2273000Y2454301D01*
Y2449222D01*
X2270461Y2446683D01*
X1773000Y2340038D02*
X1757765D01*
Y2347655D01*
X1760304Y2350194D01*
X1765382D01*
X1767922Y2347655D01*
Y2340038D01*
Y2345116D02*
X1773000Y2350194D01*
Y2362890D02*
X1757765D01*
X1765382Y2355273D01*
Y2365429D01*
X1775539Y2370508D02*
Y2380664D01*
X1757765Y2385743D02*
Y2395899D01*
Y2390821D01*
X1773000D01*
X1757765Y2400978D02*
X1773000D01*
X1765382D01*
X1762843Y2403517D01*
Y2408595D01*
X1765382Y2411134D01*
X1773000D01*
X1760304Y2426370D02*
X1757765Y2423830D01*
Y2418752D01*
X1760304Y2416213D01*
X1770461D01*
X1773000Y2418752D01*
Y2423830D01*
X1770461Y2426370D01*
X1757765Y2431448D02*
X1773000D01*
X1765382D01*
X1762843Y2433987D01*
Y2439066D01*
X1765382Y2441605D01*
X1773000D01*
Y2454301D02*
X1757765D01*
X1765382Y2446683D01*
Y2456840D01*
X1273000Y2340038D02*
X1257765D01*
Y2347655D01*
X1260304Y2350194D01*
X1265383D01*
X1267922Y2347655D01*
Y2340038D01*
Y2345116D02*
X1273000Y2350194D01*
Y2362890D02*
X1257765D01*
X1265383Y2355273D01*
Y2365429D01*
X1275539Y2370508D02*
Y2380664D01*
X1257765Y2385743D02*
Y2395900D01*
Y2390821D01*
X1273000D01*
X1257765Y2400978D02*
X1273000D01*
X1265383D01*
X1262843Y2403517D01*
Y2408595D01*
X1265383Y2411134D01*
X1273000D01*
X1260304Y2426370D02*
X1257765Y2423830D01*
Y2418752D01*
X1260304Y2416213D01*
X1270461D01*
X1273000Y2418752D01*
Y2423830D01*
X1270461Y2426370D01*
X1257765Y2431448D02*
X1273000D01*
X1265383D01*
X1262843Y2433987D01*
Y2439066D01*
X1265383Y2441605D01*
X1273000D01*
X1260304Y2446683D02*
X1257765Y2449222D01*
Y2454301D01*
X1260304Y2456840D01*
X1262843D01*
X1265383Y2454301D01*
Y2451761D01*
Y2454301D01*
X1267922Y2456840D01*
X1270461D01*
X1273000Y2454301D01*
Y2449222D01*
X1270461Y2446683D01*
X773000Y2340038D02*
X757765D01*
Y2347655D01*
X760304Y2350194D01*
X765383D01*
X767922Y2347655D01*
Y2340038D01*
Y2345116D02*
X773000Y2350194D01*
Y2362890D02*
X757765D01*
X765383Y2355273D01*
Y2365429D01*
X775539Y2370508D02*
Y2380664D01*
X757765Y2385743D02*
Y2395900D01*
Y2390821D01*
X773000D01*
X757765Y2400978D02*
X773000D01*
X765383D01*
X762843Y2403517D01*
Y2408595D01*
X765383Y2411134D01*
X773000D01*
X760304Y2426370D02*
X757765Y2423830D01*
Y2418752D01*
X760304Y2416213D01*
X770461D01*
X773000Y2418752D01*
Y2423830D01*
X770461Y2426370D01*
X757765Y2431448D02*
X773000D01*
X765383D01*
X762843Y2433987D01*
Y2439066D01*
X765383Y2441605D01*
X773000D01*
Y2456840D02*
Y2446683D01*
X762843Y2456840D01*
X760304D01*
X757765Y2454301D01*
Y2449222D01*
X760304Y2446683D01*
X273000Y2340038D02*
X257765D01*
Y2347655D01*
X260304Y2350194D01*
X265382D01*
X267922Y2347655D01*
Y2340038D01*
Y2345116D02*
X273000Y2350194D01*
Y2362890D02*
X257765D01*
X265382Y2355273D01*
Y2365429D01*
X275539Y2370508D02*
Y2380664D01*
X257765Y2385743D02*
Y2395899D01*
Y2390821D01*
X273000D01*
X257765Y2400978D02*
X273000D01*
X265382D01*
X262843Y2403517D01*
Y2408595D01*
X265382Y2411134D01*
X273000D01*
X260304Y2426370D02*
X257765Y2423830D01*
Y2418752D01*
X260304Y2416213D01*
X270461D01*
X273000Y2418752D01*
Y2423830D01*
X270461Y2426370D01*
X257765Y2431448D02*
X273000D01*
X265382D01*
X262843Y2433987D01*
Y2439066D01*
X265382Y2441605D01*
X273000D01*
Y2446683D02*
Y2451761D01*
Y2449222D01*
X257765D01*
X260304Y2446683D01*
X3934000Y2305590D02*
X3918765D01*
Y2313208D01*
X3921304Y2315747D01*
X3926383D01*
X3928922Y2313208D01*
Y2305590D01*
Y2310669D02*
X3934000Y2315747D01*
X3921304Y2320825D02*
X3918765Y2323365D01*
Y2328443D01*
X3921304Y2330982D01*
X3923843D01*
X3926383Y2328443D01*
Y2325904D01*
Y2328443D01*
X3928922Y2330982D01*
X3931461D01*
X3934000Y2328443D01*
Y2323365D01*
X3931461Y2320825D01*
X3936539Y2336060D02*
Y2346217D01*
X3918765Y2351296D02*
Y2361452D01*
Y2356374D01*
X3934000D01*
X3918765Y2366531D02*
X3934000D01*
X3926383D01*
X3923843Y2369070D01*
Y2374148D01*
X3926383Y2376687D01*
X3934000D01*
X3921304Y2391922D02*
X3918765Y2389383D01*
Y2384305D01*
X3921304Y2381766D01*
X3931461D01*
X3934000Y2384305D01*
Y2389383D01*
X3931461Y2391922D01*
X3918765Y2397001D02*
X3934000D01*
X3926383D01*
X3923843Y2399540D01*
Y2404618D01*
X3926383Y2407157D01*
X3934000D01*
X3921304Y2412236D02*
X3918765Y2414775D01*
Y2419853D01*
X3921304Y2422393D01*
X3923843D01*
X3926383Y2419853D01*
X3928922Y2422393D01*
X3931461D01*
X3934000Y2419853D01*
Y2414775D01*
X3931461Y2412236D01*
X3928922D01*
X3926383Y2414775D01*
X3923843Y2412236D01*
X3921304D01*
X3926383Y2414775D02*
Y2419853D01*
X3434000Y2305590D02*
X3418765D01*
Y2313208D01*
X3421304Y2315747D01*
X3426383D01*
X3428922Y2313208D01*
Y2305590D01*
Y2310669D02*
X3434000Y2315747D01*
X3421304Y2320825D02*
X3418765Y2323365D01*
Y2328443D01*
X3421304Y2330982D01*
X3423843D01*
X3426383Y2328443D01*
Y2325904D01*
Y2328443D01*
X3428922Y2330982D01*
X3431461D01*
X3434000Y2328443D01*
Y2323365D01*
X3431461Y2320825D01*
X3436539Y2336060D02*
Y2346217D01*
X3418765Y2351296D02*
Y2361452D01*
Y2356374D01*
X3434000D01*
X3418765Y2366531D02*
X3434000D01*
X3426383D01*
X3423843Y2369070D01*
Y2374148D01*
X3426383Y2376687D01*
X3434000D01*
X3421304Y2391922D02*
X3418765Y2389383D01*
Y2384305D01*
X3421304Y2381766D01*
X3431461D01*
X3434000Y2384305D01*
Y2389383D01*
X3431461Y2391922D01*
X3418765Y2397001D02*
X3434000D01*
X3426383D01*
X3423843Y2399540D01*
Y2404618D01*
X3426383Y2407157D01*
X3434000D01*
X3418765Y2412236D02*
Y2422393D01*
X3421304D01*
X3431461Y2412236D01*
X3434000D01*
X2934000Y2305590D02*
X2918765D01*
Y2313208D01*
X2921304Y2315747D01*
X2926383D01*
X2928922Y2313208D01*
Y2305590D01*
Y2310669D02*
X2934000Y2315747D01*
X2921304Y2320825D02*
X2918765Y2323365D01*
Y2328443D01*
X2921304Y2330982D01*
X2923843D01*
X2926383Y2328443D01*
Y2325904D01*
Y2328443D01*
X2928922Y2330982D01*
X2931461D01*
X2934000Y2328443D01*
Y2323365D01*
X2931461Y2320825D01*
X2936539Y2336060D02*
Y2346217D01*
X2918765Y2351296D02*
Y2361452D01*
Y2356374D01*
X2934000D01*
X2918765Y2366531D02*
X2934000D01*
X2926383D01*
X2923843Y2369070D01*
Y2374148D01*
X2926383Y2376687D01*
X2934000D01*
X2921304Y2391922D02*
X2918765Y2389383D01*
Y2384305D01*
X2921304Y2381766D01*
X2931461D01*
X2934000Y2384305D01*
Y2389383D01*
X2931461Y2391922D01*
X2918765Y2397001D02*
X2934000D01*
X2926383D01*
X2923843Y2399540D01*
Y2404618D01*
X2926383Y2407157D01*
X2934000D01*
X2918765Y2422393D02*
X2921304Y2417314D01*
X2926383Y2412236D01*
X2931461D01*
X2934000Y2414775D01*
Y2419853D01*
X2931461Y2422393D01*
X2928922D01*
X2926383Y2419853D01*
Y2412236D01*
X2434000Y2305590D02*
X2418765D01*
Y2313208D01*
X2421304Y2315747D01*
X2426383D01*
X2428922Y2313208D01*
Y2305590D01*
Y2310669D02*
X2434000Y2315747D01*
X2421304Y2320825D02*
X2418765Y2323365D01*
Y2328443D01*
X2421304Y2330982D01*
X2423843D01*
X2426383Y2328443D01*
Y2325904D01*
Y2328443D01*
X2428922Y2330982D01*
X2431461D01*
X2434000Y2328443D01*
Y2323365D01*
X2431461Y2320825D01*
X2436539Y2336060D02*
Y2346217D01*
X2418765Y2351296D02*
Y2361452D01*
Y2356374D01*
X2434000D01*
X2418765Y2366531D02*
X2434000D01*
X2426383D01*
X2423843Y2369070D01*
Y2374148D01*
X2426383Y2376687D01*
X2434000D01*
X2421304Y2391922D02*
X2418765Y2389383D01*
Y2384305D01*
X2421304Y2381766D01*
X2431461D01*
X2434000Y2384305D01*
Y2389383D01*
X2431461Y2391922D01*
X2418765Y2397001D02*
X2434000D01*
X2426383D01*
X2423843Y2399540D01*
Y2404618D01*
X2426383Y2407157D01*
X2434000D01*
X2418765Y2422393D02*
Y2412236D01*
X2426383D01*
X2423843Y2417314D01*
Y2419853D01*
X2426383Y2422393D01*
X2431461D01*
X2434000Y2419853D01*
Y2414775D01*
X2431461Y2412236D01*
X1934000Y2305590D02*
X1918765D01*
Y2313208D01*
X1921304Y2315747D01*
X1926383D01*
X1928922Y2313208D01*
Y2305590D01*
Y2310669D02*
X1934000Y2315747D01*
X1921304Y2320825D02*
X1918765Y2323365D01*
Y2328443D01*
X1921304Y2330982D01*
X1923843D01*
X1926383Y2328443D01*
Y2325904D01*
Y2328443D01*
X1928922Y2330982D01*
X1931461D01*
X1934000Y2328443D01*
Y2323365D01*
X1931461Y2320825D01*
X1936539Y2336060D02*
Y2346217D01*
X1918765Y2351296D02*
Y2361452D01*
Y2356374D01*
X1934000D01*
X1918765Y2366531D02*
X1934000D01*
X1926383D01*
X1923843Y2369070D01*
Y2374148D01*
X1926383Y2376687D01*
X1934000D01*
X1921304Y2391922D02*
X1918765Y2389383D01*
Y2384305D01*
X1921304Y2381766D01*
X1931461D01*
X1934000Y2384305D01*
Y2389383D01*
X1931461Y2391922D01*
X1918765Y2397001D02*
X1934000D01*
X1926383D01*
X1923843Y2399540D01*
Y2404618D01*
X1926383Y2407157D01*
X1934000D01*
Y2419853D02*
X1918765D01*
X1926383Y2412236D01*
Y2422393D01*
X1434000Y2305590D02*
X1418765D01*
Y2313208D01*
X1421304Y2315747D01*
X1426383D01*
X1428922Y2313208D01*
Y2305590D01*
Y2310669D02*
X1434000Y2315747D01*
X1421304Y2320825D02*
X1418765Y2323365D01*
Y2328443D01*
X1421304Y2330982D01*
X1423843D01*
X1426383Y2328443D01*
Y2325904D01*
Y2328443D01*
X1428922Y2330982D01*
X1431461D01*
X1434000Y2328443D01*
Y2323365D01*
X1431461Y2320825D01*
X1436539Y2336060D02*
Y2346217D01*
X1418765Y2351296D02*
Y2361452D01*
Y2356374D01*
X1434000D01*
X1418765Y2366531D02*
X1434000D01*
X1426383D01*
X1423843Y2369070D01*
Y2374148D01*
X1426383Y2376687D01*
X1434000D01*
X1421304Y2391922D02*
X1418765Y2389383D01*
Y2384305D01*
X1421304Y2381766D01*
X1431461D01*
X1434000Y2384305D01*
Y2389383D01*
X1431461Y2391922D01*
X1418765Y2397001D02*
X1434000D01*
X1426383D01*
X1423843Y2399540D01*
Y2404618D01*
X1426383Y2407157D01*
X1434000D01*
X1421304Y2412236D02*
X1418765Y2414775D01*
Y2419853D01*
X1421304Y2422393D01*
X1423843D01*
X1426383Y2419853D01*
Y2417314D01*
Y2419853D01*
X1428922Y2422393D01*
X1431461D01*
X1434000Y2419853D01*
Y2414775D01*
X1431461Y2412236D01*
X934000Y2305590D02*
X918765D01*
Y2313208D01*
X921304Y2315747D01*
X926383D01*
X928922Y2313208D01*
Y2305590D01*
Y2310669D02*
X934000Y2315747D01*
X921304Y2320825D02*
X918765Y2323365D01*
Y2328443D01*
X921304Y2330982D01*
X923843D01*
X926383Y2328443D01*
Y2325904D01*
Y2328443D01*
X928922Y2330982D01*
X931461D01*
X934000Y2328443D01*
Y2323365D01*
X931461Y2320825D01*
X936539Y2336060D02*
Y2346217D01*
X918765Y2351296D02*
Y2361452D01*
Y2356374D01*
X934000D01*
X918765Y2366531D02*
X934000D01*
X926383D01*
X923843Y2369070D01*
Y2374148D01*
X926383Y2376687D01*
X934000D01*
X921304Y2391922D02*
X918765Y2389383D01*
Y2384305D01*
X921304Y2381766D01*
X931461D01*
X934000Y2384305D01*
Y2389383D01*
X931461Y2391922D01*
X918765Y2397001D02*
X934000D01*
X926383D01*
X923843Y2399540D01*
Y2404618D01*
X926383Y2407157D01*
X934000D01*
Y2422393D02*
Y2412236D01*
X923843Y2422393D01*
X921304D01*
X918765Y2419853D01*
Y2414775D01*
X921304Y2412236D01*
X434000Y2305590D02*
X418765D01*
Y2313208D01*
X421304Y2315747D01*
X426383D01*
X428922Y2313208D01*
Y2305590D01*
Y2310669D02*
X434000Y2315747D01*
X421304Y2320825D02*
X418765Y2323365D01*
Y2328443D01*
X421304Y2330982D01*
X423843D01*
X426383Y2328443D01*
Y2325904D01*
Y2328443D01*
X428922Y2330982D01*
X431461D01*
X434000Y2328443D01*
Y2323365D01*
X431461Y2320825D01*
X436539Y2336060D02*
Y2346217D01*
X418765Y2351296D02*
Y2361452D01*
Y2356374D01*
X434000D01*
X418765Y2366531D02*
X434000D01*
X426383D01*
X423843Y2369070D01*
Y2374148D01*
X426383Y2376687D01*
X434000D01*
X421304Y2391922D02*
X418765Y2389383D01*
Y2384305D01*
X421304Y2381766D01*
X431461D01*
X434000Y2384305D01*
Y2389383D01*
X431461Y2391922D01*
X418765Y2397001D02*
X434000D01*
X426383D01*
X423843Y2399540D01*
Y2404618D01*
X426383Y2407157D01*
X434000D01*
Y2412236D02*
Y2417314D01*
Y2414775D01*
X418765D01*
X421304Y2412236D01*
X3983000Y2304590D02*
X3967765D01*
Y2312208D01*
X3970304Y2314747D01*
X3975383D01*
X3977922Y2312208D01*
Y2304590D01*
Y2309669D02*
X3983000Y2314747D01*
Y2329982D02*
Y2319825D01*
X3972843Y2329982D01*
X3970304D01*
X3967765Y2327443D01*
Y2322365D01*
X3970304Y2319825D01*
X3985539Y2335060D02*
Y2345217D01*
X3967765Y2350296D02*
Y2360452D01*
Y2355374D01*
X3983000D01*
X3967765Y2365531D02*
X3983000D01*
X3975383D01*
X3972843Y2368070D01*
Y2373148D01*
X3975383Y2375687D01*
X3983000D01*
X3970304Y2390922D02*
X3967765Y2388383D01*
Y2383305D01*
X3970304Y2380766D01*
X3980461D01*
X3983000Y2383305D01*
Y2388383D01*
X3980461Y2390922D01*
X3967765Y2396001D02*
X3983000D01*
X3975383D01*
X3972843Y2398540D01*
Y2403618D01*
X3975383Y2406158D01*
X3983000D01*
X3970304Y2411236D02*
X3967765Y2413775D01*
Y2418853D01*
X3970304Y2421393D01*
X3972843D01*
X3975383Y2418853D01*
X3977922Y2421393D01*
X3980461D01*
X3983000Y2418853D01*
Y2413775D01*
X3980461Y2411236D01*
X3977922D01*
X3975383Y2413775D01*
X3972843Y2411236D01*
X3970304D01*
X3975383Y2413775D02*
Y2418853D01*
X3483000Y2304590D02*
X3467765D01*
Y2312208D01*
X3470304Y2314747D01*
X3475383D01*
X3477922Y2312208D01*
Y2304590D01*
Y2309669D02*
X3483000Y2314747D01*
Y2329982D02*
Y2319825D01*
X3472843Y2329982D01*
X3470304D01*
X3467765Y2327443D01*
Y2322365D01*
X3470304Y2319825D01*
X3485540Y2335060D02*
Y2345217D01*
X3467765Y2350296D02*
Y2360452D01*
Y2355374D01*
X3483000D01*
X3467765Y2365531D02*
X3483000D01*
X3475383D01*
X3472843Y2368070D01*
Y2373148D01*
X3475383Y2375687D01*
X3483000D01*
X3470304Y2390922D02*
X3467765Y2388383D01*
Y2383305D01*
X3470304Y2380766D01*
X3480461D01*
X3483000Y2383305D01*
Y2388383D01*
X3480461Y2390922D01*
X3467765Y2396001D02*
X3483000D01*
X3475383D01*
X3472843Y2398540D01*
Y2403618D01*
X3475383Y2406158D01*
X3483000D01*
X3467765Y2411236D02*
Y2421393D01*
X3470304D01*
X3480461Y2411236D01*
X3483000D01*
X2983000Y2304590D02*
X2967765D01*
Y2312208D01*
X2970304Y2314747D01*
X2975383D01*
X2977922Y2312208D01*
Y2304590D01*
Y2309669D02*
X2983000Y2314747D01*
Y2329982D02*
Y2319825D01*
X2972843Y2329982D01*
X2970304D01*
X2967765Y2327443D01*
Y2322365D01*
X2970304Y2319825D01*
X2985539Y2335060D02*
Y2345217D01*
X2967765Y2350296D02*
Y2360452D01*
Y2355374D01*
X2983000D01*
X2967765Y2365531D02*
X2983000D01*
X2975383D01*
X2972843Y2368070D01*
Y2373148D01*
X2975383Y2375687D01*
X2983000D01*
X2970304Y2390922D02*
X2967765Y2388383D01*
Y2383305D01*
X2970304Y2380766D01*
X2980461D01*
X2983000Y2383305D01*
Y2388383D01*
X2980461Y2390922D01*
X2967765Y2396001D02*
X2983000D01*
X2975383D01*
X2972843Y2398540D01*
Y2403618D01*
X2975383Y2406158D01*
X2983000D01*
X2967765Y2421393D02*
X2970304Y2416314D01*
X2975383Y2411236D01*
X2980461D01*
X2983000Y2413775D01*
Y2418853D01*
X2980461Y2421393D01*
X2977922D01*
X2975383Y2418853D01*
Y2411236D01*
X2483000Y2304590D02*
X2467765D01*
Y2312208D01*
X2470304Y2314747D01*
X2475383D01*
X2477922Y2312208D01*
Y2304590D01*
Y2309669D02*
X2483000Y2314747D01*
Y2329982D02*
Y2319825D01*
X2472843Y2329982D01*
X2470304D01*
X2467765Y2327443D01*
Y2322365D01*
X2470304Y2319825D01*
X2485539Y2335060D02*
Y2345217D01*
X2467765Y2350296D02*
Y2360452D01*
Y2355374D01*
X2483000D01*
X2467765Y2365531D02*
X2483000D01*
X2475383D01*
X2472843Y2368070D01*
Y2373148D01*
X2475383Y2375687D01*
X2483000D01*
X2470304Y2390922D02*
X2467765Y2388383D01*
Y2383305D01*
X2470304Y2380766D01*
X2480461D01*
X2483000Y2383305D01*
Y2388383D01*
X2480461Y2390922D01*
X2467765Y2396001D02*
X2483000D01*
X2475383D01*
X2472843Y2398540D01*
Y2403618D01*
X2475383Y2406158D01*
X2483000D01*
X2467765Y2421393D02*
Y2411236D01*
X2475383D01*
X2472843Y2416314D01*
Y2418853D01*
X2475383Y2421393D01*
X2480461D01*
X2483000Y2418853D01*
Y2413775D01*
X2480461Y2411236D01*
X1983000Y2304590D02*
X1967765D01*
Y2312208D01*
X1970304Y2314747D01*
X1975383D01*
X1977922Y2312208D01*
Y2304590D01*
Y2309669D02*
X1983000Y2314747D01*
Y2329982D02*
Y2319825D01*
X1972843Y2329982D01*
X1970304D01*
X1967765Y2327443D01*
Y2322365D01*
X1970304Y2319825D01*
X1985539Y2335060D02*
Y2345217D01*
X1967765Y2350296D02*
Y2360452D01*
Y2355374D01*
X1983000D01*
X1967765Y2365531D02*
X1983000D01*
X1975383D01*
X1972843Y2368070D01*
Y2373148D01*
X1975383Y2375687D01*
X1983000D01*
X1970304Y2390922D02*
X1967765Y2388383D01*
Y2383305D01*
X1970304Y2380766D01*
X1980461D01*
X1983000Y2383305D01*
Y2388383D01*
X1980461Y2390922D01*
X1967765Y2396001D02*
X1983000D01*
X1975383D01*
X1972843Y2398540D01*
Y2403618D01*
X1975383Y2406158D01*
X1983000D01*
Y2418853D02*
X1967765D01*
X1975383Y2411236D01*
Y2421393D01*
X1483000Y2304590D02*
X1467765D01*
Y2312208D01*
X1470304Y2314747D01*
X1475383D01*
X1477922Y2312208D01*
Y2304590D01*
Y2309669D02*
X1483000Y2314747D01*
Y2329982D02*
Y2319825D01*
X1472843Y2329982D01*
X1470304D01*
X1467765Y2327443D01*
Y2322365D01*
X1470304Y2319825D01*
X1485539Y2335060D02*
Y2345217D01*
X1467765Y2350296D02*
Y2360452D01*
Y2355374D01*
X1483000D01*
X1467765Y2365531D02*
X1483000D01*
X1475383D01*
X1472843Y2368070D01*
Y2373148D01*
X1475383Y2375687D01*
X1483000D01*
X1470304Y2390922D02*
X1467765Y2388383D01*
Y2383305D01*
X1470304Y2380766D01*
X1480461D01*
X1483000Y2383305D01*
Y2388383D01*
X1480461Y2390922D01*
X1467765Y2396001D02*
X1483000D01*
X1475383D01*
X1472843Y2398540D01*
Y2403618D01*
X1475383Y2406158D01*
X1483000D01*
X1470304Y2411236D02*
X1467765Y2413775D01*
Y2418853D01*
X1470304Y2421393D01*
X1472843D01*
X1475383Y2418853D01*
Y2416314D01*
Y2418853D01*
X1477922Y2421393D01*
X1480461D01*
X1483000Y2418853D01*
Y2413775D01*
X1480461Y2411236D01*
X983000Y2304590D02*
X967765D01*
Y2312208D01*
X970304Y2314747D01*
X975383D01*
X977922Y2312208D01*
Y2304590D01*
Y2309669D02*
X983000Y2314747D01*
Y2329982D02*
Y2319825D01*
X972843Y2329982D01*
X970304D01*
X967765Y2327443D01*
Y2322365D01*
X970304Y2319825D01*
X985539Y2335060D02*
Y2345217D01*
X967765Y2350296D02*
Y2360452D01*
Y2355374D01*
X983000D01*
X967765Y2365531D02*
X983000D01*
X975383D01*
X972843Y2368070D01*
Y2373148D01*
X975383Y2375687D01*
X983000D01*
X970304Y2390922D02*
X967765Y2388383D01*
Y2383305D01*
X970304Y2380766D01*
X980461D01*
X983000Y2383305D01*
Y2388383D01*
X980461Y2390922D01*
X967765Y2396001D02*
X983000D01*
X975383D01*
X972843Y2398540D01*
Y2403618D01*
X975383Y2406158D01*
X983000D01*
Y2421393D02*
Y2411236D01*
X972843Y2421393D01*
X970304D01*
X967765Y2418853D01*
Y2413775D01*
X970304Y2411236D01*
X483000Y2304590D02*
X467765D01*
Y2312208D01*
X470304Y2314747D01*
X475383D01*
X477922Y2312208D01*
Y2304590D01*
Y2309669D02*
X483000Y2314747D01*
Y2329982D02*
Y2319825D01*
X472843Y2329982D01*
X470304D01*
X467765Y2327443D01*
Y2322365D01*
X470304Y2319825D01*
X485539Y2335060D02*
Y2345217D01*
X467765Y2350296D02*
Y2360452D01*
Y2355374D01*
X483000D01*
X467765Y2365531D02*
X483000D01*
X475383D01*
X472843Y2368070D01*
Y2373148D01*
X475383Y2375687D01*
X483000D01*
X470304Y2390922D02*
X467765Y2388383D01*
Y2383305D01*
X470304Y2380766D01*
X480461D01*
X483000Y2383305D01*
Y2388383D01*
X480461Y2390922D01*
X467765Y2396001D02*
X483000D01*
X475383D01*
X472843Y2398540D01*
Y2403618D01*
X475383Y2406158D01*
X483000D01*
Y2411236D02*
Y2416314D01*
Y2413775D01*
X467765D01*
X470304Y2411236D01*
X3856000Y2096000D02*
Y2111235D01*
X3863618D01*
X3866157Y2108696D01*
Y2103618D01*
X3863618Y2101078D01*
X3856000D01*
X3861078D02*
X3866157Y2096000D01*
X3871235D02*
X3876313D01*
X3873774D01*
Y2111235D01*
X3871235Y2108696D01*
X3883931Y2093461D02*
X3894088D01*
X3899166Y2111235D02*
X3909323D01*
X3904244D01*
Y2096000D01*
X3914401Y2111235D02*
Y2096000D01*
Y2103618D01*
X3916940Y2106157D01*
X3922019D01*
X3924558Y2103618D01*
Y2096000D01*
X3939793Y2108696D02*
X3937254Y2111235D01*
X3932175D01*
X3929636Y2108696D01*
Y2098539D01*
X3932175Y2096000D01*
X3937254D01*
X3939793Y2098539D01*
X3944871Y2111235D02*
Y2096000D01*
Y2103618D01*
X3947410Y2106157D01*
X3952489D01*
X3955028Y2103618D01*
Y2096000D01*
X3960106Y2108696D02*
X3962646Y2111235D01*
X3967724D01*
X3970263Y2108696D01*
Y2106157D01*
X3967724Y2103618D01*
X3970263Y2101078D01*
Y2098539D01*
X3967724Y2096000D01*
X3962646D01*
X3960106Y2098539D01*
Y2101078D01*
X3962646Y2103618D01*
X3960106Y2106157D01*
Y2108696D01*
X3962646Y2103618D02*
X3967724D01*
X3356000Y2096000D02*
Y2111235D01*
X3363618D01*
X3366157Y2108696D01*
Y2103618D01*
X3363618Y2101078D01*
X3356000D01*
X3361078D02*
X3366157Y2096000D01*
X3371235D02*
X3376313D01*
X3373774D01*
Y2111235D01*
X3371235Y2108696D01*
X3383931Y2093461D02*
X3394088D01*
X3399166Y2111235D02*
X3409323D01*
X3404244D01*
Y2096000D01*
X3414401Y2111235D02*
Y2096000D01*
Y2103618D01*
X3416940Y2106157D01*
X3422019D01*
X3424558Y2103618D01*
Y2096000D01*
X3439793Y2108696D02*
X3437254Y2111235D01*
X3432175D01*
X3429636Y2108696D01*
Y2098539D01*
X3432175Y2096000D01*
X3437254D01*
X3439793Y2098539D01*
X3444871Y2111235D02*
Y2096000D01*
Y2103618D01*
X3447410Y2106157D01*
X3452489D01*
X3455028Y2103618D01*
Y2096000D01*
X3460106Y2111235D02*
X3470263D01*
Y2108696D01*
X3460106Y2098539D01*
Y2096000D01*
X2856000D02*
Y2111235D01*
X2863618D01*
X2866157Y2108696D01*
Y2103618D01*
X2863618Y2101078D01*
X2856000D01*
X2861078D02*
X2866157Y2096000D01*
X2871235D02*
X2876313D01*
X2873774D01*
Y2111235D01*
X2871235Y2108696D01*
X2883931Y2093461D02*
X2894088D01*
X2899166Y2111235D02*
X2909323D01*
X2904244D01*
Y2096000D01*
X2914401Y2111235D02*
Y2096000D01*
Y2103618D01*
X2916940Y2106157D01*
X2922019D01*
X2924558Y2103618D01*
Y2096000D01*
X2939793Y2108696D02*
X2937254Y2111235D01*
X2932175D01*
X2929636Y2108696D01*
Y2098539D01*
X2932175Y2096000D01*
X2937254D01*
X2939793Y2098539D01*
X2944871Y2111235D02*
Y2096000D01*
Y2103618D01*
X2947410Y2106157D01*
X2952489D01*
X2955028Y2103618D01*
Y2096000D01*
X2970263Y2111235D02*
X2965185Y2108696D01*
X2960106Y2103618D01*
Y2098539D01*
X2962646Y2096000D01*
X2967724D01*
X2970263Y2098539D01*
Y2101078D01*
X2967724Y2103618D01*
X2960106D01*
X2356000Y2096000D02*
Y2111235D01*
X2363618D01*
X2366157Y2108696D01*
Y2103618D01*
X2363618Y2101078D01*
X2356000D01*
X2361078D02*
X2366157Y2096000D01*
X2371235D02*
X2376313D01*
X2373774D01*
Y2111235D01*
X2371235Y2108696D01*
X2383931Y2093461D02*
X2394088D01*
X2399166Y2111235D02*
X2409323D01*
X2404244D01*
Y2096000D01*
X2414401Y2111235D02*
Y2096000D01*
Y2103618D01*
X2416940Y2106157D01*
X2422019D01*
X2424558Y2103618D01*
Y2096000D01*
X2439793Y2108696D02*
X2437254Y2111235D01*
X2432175D01*
X2429636Y2108696D01*
Y2098539D01*
X2432175Y2096000D01*
X2437254D01*
X2439793Y2098539D01*
X2444871Y2111235D02*
Y2096000D01*
Y2103618D01*
X2447410Y2106157D01*
X2452489D01*
X2455028Y2103618D01*
Y2096000D01*
X2470263Y2111235D02*
X2460106D01*
Y2103618D01*
X2465185Y2106157D01*
X2467724D01*
X2470263Y2103618D01*
Y2098539D01*
X2467724Y2096000D01*
X2462646D01*
X2460106Y2098539D01*
X1856000Y2096000D02*
Y2111235D01*
X1863618D01*
X1866157Y2108696D01*
Y2103618D01*
X1863618Y2101078D01*
X1856000D01*
X1861078D02*
X1866157Y2096000D01*
X1871235D02*
X1876313D01*
X1873774D01*
Y2111235D01*
X1871235Y2108696D01*
X1883931Y2093461D02*
X1894088D01*
X1899166Y2111235D02*
X1909323D01*
X1904244D01*
Y2096000D01*
X1914401Y2111235D02*
Y2096000D01*
Y2103618D01*
X1916940Y2106157D01*
X1922019D01*
X1924558Y2103618D01*
Y2096000D01*
X1939793Y2108696D02*
X1937254Y2111235D01*
X1932175D01*
X1929636Y2108696D01*
Y2098539D01*
X1932175Y2096000D01*
X1937254D01*
X1939793Y2098539D01*
X1944871Y2111235D02*
Y2096000D01*
Y2103618D01*
X1947410Y2106157D01*
X1952489D01*
X1955028Y2103618D01*
Y2096000D01*
X1967724D02*
Y2111235D01*
X1960106Y2103618D01*
X1970263D01*
X1356000Y2096000D02*
Y2111235D01*
X1363618D01*
X1366157Y2108696D01*
Y2103618D01*
X1363618Y2101078D01*
X1356000D01*
X1361078D02*
X1366157Y2096000D01*
X1371235D02*
X1376313D01*
X1373774D01*
Y2111235D01*
X1371235Y2108696D01*
X1383931Y2093461D02*
X1394088D01*
X1399166Y2111235D02*
X1409323D01*
X1404244D01*
Y2096000D01*
X1414401Y2111235D02*
Y2096000D01*
Y2103618D01*
X1416940Y2106157D01*
X1422019D01*
X1424558Y2103618D01*
Y2096000D01*
X1439793Y2108696D02*
X1437254Y2111235D01*
X1432175D01*
X1429636Y2108696D01*
Y2098539D01*
X1432175Y2096000D01*
X1437254D01*
X1439793Y2098539D01*
X1444871Y2111235D02*
Y2096000D01*
Y2103618D01*
X1447410Y2106157D01*
X1452489D01*
X1455028Y2103618D01*
Y2096000D01*
X1460106Y2108696D02*
X1462646Y2111235D01*
X1467724D01*
X1470263Y2108696D01*
Y2106157D01*
X1467724Y2103618D01*
X1465185D01*
X1467724D01*
X1470263Y2101078D01*
Y2098539D01*
X1467724Y2096000D01*
X1462646D01*
X1460106Y2098539D01*
X856000Y2096000D02*
Y2111235D01*
X863617D01*
X866157Y2108696D01*
Y2103618D01*
X863617Y2101078D01*
X856000D01*
X861078D02*
X866157Y2096000D01*
X871235D02*
X876313D01*
X873774D01*
Y2111235D01*
X871235Y2108696D01*
X883931Y2093461D02*
X894088D01*
X899166Y2111235D02*
X909323D01*
X904244D01*
Y2096000D01*
X914401Y2111235D02*
Y2096000D01*
Y2103618D01*
X916940Y2106157D01*
X922019D01*
X924558Y2103618D01*
Y2096000D01*
X939793Y2108696D02*
X937254Y2111235D01*
X932175D01*
X929636Y2108696D01*
Y2098539D01*
X932175Y2096000D01*
X937254D01*
X939793Y2098539D01*
X944871Y2111235D02*
Y2096000D01*
Y2103618D01*
X947410Y2106157D01*
X952489D01*
X955028Y2103618D01*
Y2096000D01*
X970263D02*
X960106D01*
X970263Y2106157D01*
Y2108696D01*
X967724Y2111235D01*
X962645D01*
X960106Y2108696D01*
X356000Y2096000D02*
Y2111235D01*
X363618D01*
X366157Y2108696D01*
Y2103618D01*
X363618Y2101078D01*
X356000D01*
X361078D02*
X366157Y2096000D01*
X371235D02*
X376313D01*
X373774D01*
Y2111235D01*
X371235Y2108696D01*
X383931Y2093461D02*
X394088D01*
X399166Y2111235D02*
X409323D01*
X404244D01*
Y2096000D01*
X414401Y2111235D02*
Y2096000D01*
Y2103618D01*
X416940Y2106157D01*
X422019D01*
X424558Y2103618D01*
Y2096000D01*
X439793Y2108696D02*
X437254Y2111235D01*
X432175D01*
X429636Y2108696D01*
Y2098539D01*
X432175Y2096000D01*
X437254D01*
X439793Y2098539D01*
X444871Y2111235D02*
Y2096000D01*
Y2103618D01*
X447410Y2106157D01*
X452489D01*
X455028Y2103618D01*
Y2096000D01*
X460106D02*
X465185D01*
X462645D01*
Y2111235D01*
X460106Y2108696D01*
X1760000Y1898000D02*
Y1913235D01*
X1767617D01*
X1770157Y1910696D01*
Y1905618D01*
X1767617Y1903078D01*
X1760000D01*
X1782853Y1898000D02*
Y1913235D01*
X1775235Y1905618D01*
X1785392D01*
X1364500Y1974500D02*
Y1989735D01*
X1372118D01*
X1374657Y1987196D01*
Y1982117D01*
X1372118Y1979578D01*
X1364500D01*
X1379735Y1987196D02*
X1382274Y1989735D01*
X1387353D01*
X1389892Y1987196D01*
Y1984657D01*
X1387353Y1982117D01*
X1384813D01*
X1387353D01*
X1389892Y1979578D01*
Y1977039D01*
X1387353Y1974500D01*
X1382274D01*
X1379735Y1977039D01*
X2260900Y2069350D02*
Y2084585D01*
X2268518D01*
X2271057Y2082046D01*
Y2076967D01*
X2268518Y2074428D01*
X2260900D01*
X2286292Y2069350D02*
X2276135D01*
X2286292Y2079507D01*
Y2082046D01*
X2283753Y2084585D01*
X2278674D01*
X2276135Y2082046D01*
X1807000Y1832000D02*
Y1847235D01*
X1814617D01*
X1817157Y1844696D01*
Y1839617D01*
X1814617Y1837078D01*
X1807000D01*
X1822235Y1832000D02*
X1827313D01*
X1824774D01*
Y1847235D01*
X1822235Y1844696D01*
X1666865Y1843750D02*
X1682100D01*
Y1853907D01*
Y1869142D02*
Y1858985D01*
X1671943Y1869142D01*
X1669404D01*
X1666865Y1866602D01*
Y1861524D01*
X1669404Y1858985D01*
X592000Y2007235D02*
Y1992000D01*
X602157D01*
X607235D02*
X612313D01*
X609774D01*
Y2007235D01*
X607235Y2004696D01*
X759765Y1916157D02*
Y1906000D01*
X767383D01*
Y1911078D01*
Y1906000D01*
X775000D01*
X759765Y1921235D02*
X775000D01*
Y1928853D01*
X772461Y1931392D01*
X769922D01*
X767383Y1928853D01*
Y1921235D01*
Y1928853D01*
X764843Y1931392D01*
X762304D01*
X759765Y1928853D01*
Y1921235D01*
X775000Y1936470D02*
Y1941548D01*
Y1939009D01*
X759765D01*
X762304Y1936470D01*
X473000Y1924235D02*
Y1909000D01*
X480618D01*
X483157Y1911539D01*
Y1921696D01*
X480618Y1924235D01*
X473000D01*
X488235Y1909000D02*
Y1919157D01*
X493313Y1924235D01*
X498392Y1919157D01*
Y1909000D01*
Y1916617D01*
X488235D01*
X503470Y1921696D02*
X506009Y1924235D01*
X511088D01*
X513627Y1921696D01*
Y1919157D01*
X511088Y1916617D01*
X508549D01*
X511088D01*
X513627Y1914078D01*
Y1911539D01*
X511088Y1909000D01*
X506009D01*
X503470Y1911539D01*
X4030547Y2241235D02*
Y2226000D01*
X4038164D01*
X4040703Y2228539D01*
Y2238696D01*
X4038164Y2241235D01*
X4030547D01*
X4045782Y2226000D02*
Y2236157D01*
X4050860Y2241235D01*
X4055939Y2236157D01*
Y2226000D01*
Y2233618D01*
X4045782D01*
X4071174Y2226000D02*
X4061017D01*
X4071174Y2236157D01*
Y2238696D01*
X4068635Y2241235D01*
X4063556D01*
X4061017Y2238696D01*
X4076252Y2223461D02*
X4086409D01*
X4091487Y2241235D02*
X4101644D01*
X4096566D01*
Y2226000D01*
X4106722Y2241235D02*
Y2226000D01*
Y2233618D01*
X4109261Y2236157D01*
X4114340D01*
X4116879Y2233618D01*
Y2226000D01*
X4132114Y2238696D02*
X4129575Y2241235D01*
X4124496D01*
X4121957Y2238696D01*
Y2228539D01*
X4124496Y2226000D01*
X4129575D01*
X4132114Y2228539D01*
X4137192Y2241235D02*
Y2226000D01*
Y2233618D01*
X4139731Y2236157D01*
X4144810D01*
X4147349Y2233618D01*
Y2226000D01*
X4152427Y2238696D02*
X4154966Y2241235D01*
X4160045D01*
X4162584Y2238696D01*
Y2236157D01*
X4160045Y2233618D01*
X4162584Y2231078D01*
Y2228539D01*
X4160045Y2226000D01*
X4154966D01*
X4152427Y2228539D01*
Y2231078D01*
X4154966Y2233618D01*
X4152427Y2236157D01*
Y2238696D01*
X4154966Y2233618D02*
X4160045D01*
X3530547Y2241235D02*
Y2226000D01*
X3538164D01*
X3540703Y2228539D01*
Y2238696D01*
X3538164Y2241235D01*
X3530547D01*
X3545782Y2226000D02*
Y2236157D01*
X3550860Y2241235D01*
X3555939Y2236157D01*
Y2226000D01*
Y2233618D01*
X3545782D01*
X3571174Y2226000D02*
X3561017D01*
X3571174Y2236157D01*
Y2238696D01*
X3568635Y2241235D01*
X3563556D01*
X3561017Y2238696D01*
X3576252Y2223461D02*
X3586409D01*
X3591487Y2241235D02*
X3601644D01*
X3596566D01*
Y2226000D01*
X3606722Y2241235D02*
Y2226000D01*
Y2233618D01*
X3609261Y2236157D01*
X3614340D01*
X3616879Y2233618D01*
Y2226000D01*
X3632114Y2238696D02*
X3629575Y2241235D01*
X3624496D01*
X3621957Y2238696D01*
Y2228539D01*
X3624496Y2226000D01*
X3629575D01*
X3632114Y2228539D01*
X3637192Y2241235D02*
Y2226000D01*
Y2233618D01*
X3639731Y2236157D01*
X3644810D01*
X3647349Y2233618D01*
Y2226000D01*
X3652427Y2241235D02*
X3662584D01*
Y2238696D01*
X3652427Y2228539D01*
Y2226000D01*
X3030547Y2241235D02*
Y2226000D01*
X3038164D01*
X3040703Y2228539D01*
Y2238696D01*
X3038164Y2241235D01*
X3030547D01*
X3045782Y2226000D02*
Y2236157D01*
X3050860Y2241235D01*
X3055939Y2236157D01*
Y2226000D01*
Y2233618D01*
X3045782D01*
X3071174Y2226000D02*
X3061017D01*
X3071174Y2236157D01*
Y2238696D01*
X3068635Y2241235D01*
X3063556D01*
X3061017Y2238696D01*
X3076252Y2223461D02*
X3086409D01*
X3091487Y2241235D02*
X3101644D01*
X3096566D01*
Y2226000D01*
X3106722Y2241235D02*
Y2226000D01*
Y2233618D01*
X3109261Y2236157D01*
X3114340D01*
X3116879Y2233618D01*
Y2226000D01*
X3132114Y2238696D02*
X3129575Y2241235D01*
X3124496D01*
X3121957Y2238696D01*
Y2228539D01*
X3124496Y2226000D01*
X3129575D01*
X3132114Y2228539D01*
X3137192Y2241235D02*
Y2226000D01*
Y2233618D01*
X3139731Y2236157D01*
X3144810D01*
X3147349Y2233618D01*
Y2226000D01*
X3162584Y2241235D02*
X3157506Y2238696D01*
X3152427Y2233618D01*
Y2228539D01*
X3154967Y2226000D01*
X3160045D01*
X3162584Y2228539D01*
Y2231078D01*
X3160045Y2233618D01*
X3152427D01*
X2530547Y2241235D02*
Y2226000D01*
X2538164D01*
X2540703Y2228539D01*
Y2238696D01*
X2538164Y2241235D01*
X2530547D01*
X2545782Y2226000D02*
Y2236157D01*
X2550860Y2241235D01*
X2555939Y2236157D01*
Y2226000D01*
Y2233618D01*
X2545782D01*
X2571174Y2226000D02*
X2561017D01*
X2571174Y2236157D01*
Y2238696D01*
X2568635Y2241235D01*
X2563556D01*
X2561017Y2238696D01*
X2576252Y2223461D02*
X2586409D01*
X2591487Y2241235D02*
X2601644D01*
X2596566D01*
Y2226000D01*
X2606722Y2241235D02*
Y2226000D01*
Y2233618D01*
X2609261Y2236157D01*
X2614340D01*
X2616879Y2233618D01*
Y2226000D01*
X2632114Y2238696D02*
X2629575Y2241235D01*
X2624496D01*
X2621957Y2238696D01*
Y2228539D01*
X2624496Y2226000D01*
X2629575D01*
X2632114Y2228539D01*
X2637192Y2241235D02*
Y2226000D01*
Y2233618D01*
X2639731Y2236157D01*
X2644810D01*
X2647349Y2233618D01*
Y2226000D01*
X2662584Y2241235D02*
X2652427D01*
Y2233618D01*
X2657506Y2236157D01*
X2660045D01*
X2662584Y2233618D01*
Y2228539D01*
X2660045Y2226000D01*
X2654966D01*
X2652427Y2228539D01*
X2030547Y2241235D02*
Y2226000D01*
X2038164D01*
X2040703Y2228539D01*
Y2238696D01*
X2038164Y2241235D01*
X2030547D01*
X2045782Y2226000D02*
Y2236157D01*
X2050860Y2241235D01*
X2055939Y2236157D01*
Y2226000D01*
Y2233618D01*
X2045782D01*
X2071174Y2226000D02*
X2061017D01*
X2071174Y2236157D01*
Y2238696D01*
X2068634Y2241235D01*
X2063556D01*
X2061017Y2238696D01*
X2076252Y2223461D02*
X2086409D01*
X2091487Y2241235D02*
X2101644D01*
X2096565D01*
Y2226000D01*
X2106722Y2241235D02*
Y2226000D01*
Y2233618D01*
X2109261Y2236157D01*
X2114340D01*
X2116879Y2233618D01*
Y2226000D01*
X2132114Y2238696D02*
X2129575Y2241235D01*
X2124496D01*
X2121957Y2238696D01*
Y2228539D01*
X2124496Y2226000D01*
X2129575D01*
X2132114Y2228539D01*
X2137192Y2241235D02*
Y2226000D01*
Y2233618D01*
X2139731Y2236157D01*
X2144810D01*
X2147349Y2233618D01*
Y2226000D01*
X2160045D02*
Y2241235D01*
X2152427Y2233618D01*
X2162584D01*
X1530547Y2241235D02*
Y2226000D01*
X1538164D01*
X1540703Y2228539D01*
Y2238696D01*
X1538164Y2241235D01*
X1530547D01*
X1545782Y2226000D02*
Y2236157D01*
X1550860Y2241235D01*
X1555939Y2236157D01*
Y2226000D01*
Y2233618D01*
X1545782D01*
X1571174Y2226000D02*
X1561017D01*
X1571174Y2236157D01*
Y2238696D01*
X1568634Y2241235D01*
X1563556D01*
X1561017Y2238696D01*
X1576252Y2223461D02*
X1586409D01*
X1591487Y2241235D02*
X1601644D01*
X1596565D01*
Y2226000D01*
X1606722Y2241235D02*
Y2226000D01*
Y2233618D01*
X1609261Y2236157D01*
X1614340D01*
X1616879Y2233618D01*
Y2226000D01*
X1632114Y2238696D02*
X1629575Y2241235D01*
X1624496D01*
X1621957Y2238696D01*
Y2228539D01*
X1624496Y2226000D01*
X1629575D01*
X1632114Y2228539D01*
X1637192Y2241235D02*
Y2226000D01*
Y2233618D01*
X1639731Y2236157D01*
X1644810D01*
X1647349Y2233618D01*
Y2226000D01*
X1652427Y2238696D02*
X1654966Y2241235D01*
X1660045D01*
X1662584Y2238696D01*
Y2236157D01*
X1660045Y2233618D01*
X1657506D01*
X1660045D01*
X1662584Y2231078D01*
Y2228539D01*
X1660045Y2226000D01*
X1654966D01*
X1652427Y2228539D01*
X1030547Y2241235D02*
Y2226000D01*
X1038164D01*
X1040704Y2228539D01*
Y2238696D01*
X1038164Y2241235D01*
X1030547D01*
X1045782Y2226000D02*
Y2236157D01*
X1050860Y2241235D01*
X1055939Y2236157D01*
Y2226000D01*
Y2233618D01*
X1045782D01*
X1071174Y2226000D02*
X1061017D01*
X1071174Y2236157D01*
Y2238696D01*
X1068634Y2241235D01*
X1063556D01*
X1061017Y2238696D01*
X1076252Y2223461D02*
X1086409D01*
X1091487Y2241235D02*
X1101644D01*
X1096565D01*
Y2226000D01*
X1106722Y2241235D02*
Y2226000D01*
Y2233618D01*
X1109261Y2236157D01*
X1114340D01*
X1116879Y2233618D01*
Y2226000D01*
X1132114Y2238696D02*
X1129575Y2241235D01*
X1124496D01*
X1121957Y2238696D01*
Y2228539D01*
X1124496Y2226000D01*
X1129575D01*
X1132114Y2228539D01*
X1137192Y2241235D02*
Y2226000D01*
Y2233618D01*
X1139732Y2236157D01*
X1144810D01*
X1147349Y2233618D01*
Y2226000D01*
X1162584D02*
X1152427D01*
X1162584Y2236157D01*
Y2238696D01*
X1160045Y2241235D01*
X1154967D01*
X1152427Y2238696D01*
X530547Y2241235D02*
Y2226000D01*
X538164D01*
X540704Y2228539D01*
Y2238696D01*
X538164Y2241235D01*
X530547D01*
X545782Y2226000D02*
Y2236157D01*
X550860Y2241235D01*
X555939Y2236157D01*
Y2226000D01*
Y2233618D01*
X545782D01*
X571174Y2226000D02*
X561017D01*
X571174Y2236157D01*
Y2238696D01*
X568634Y2241235D01*
X563556D01*
X561017Y2238696D01*
X576252Y2223461D02*
X586409D01*
X591487Y2241235D02*
X601644D01*
X596565D01*
Y2226000D01*
X606722Y2241235D02*
Y2226000D01*
Y2233618D01*
X609261Y2236157D01*
X614340D01*
X616879Y2233618D01*
Y2226000D01*
X632114Y2238696D02*
X629575Y2241235D01*
X624496D01*
X621957Y2238696D01*
Y2228539D01*
X624496Y2226000D01*
X629575D01*
X632114Y2228539D01*
X637192Y2241235D02*
Y2226000D01*
Y2233618D01*
X639731Y2236157D01*
X644810D01*
X647349Y2233618D01*
Y2226000D01*
X652427D02*
X657506D01*
X654967D01*
Y2241235D01*
X652427Y2238696D01*
X3806453Y2242235D02*
Y2227000D01*
X3814071D01*
X3816610Y2229539D01*
Y2239696D01*
X3814071Y2242235D01*
X3806453D01*
X3821688Y2227000D02*
Y2237157D01*
X3826766Y2242235D01*
X3831845Y2237157D01*
Y2227000D01*
Y2234618D01*
X3821688D01*
X3836923Y2227000D02*
X3842002D01*
X3839462D01*
Y2242235D01*
X3836923Y2239696D01*
X3849619Y2224461D02*
X3859776D01*
X3864854Y2242235D02*
X3875011D01*
X3869933D01*
Y2227000D01*
X3880089Y2242235D02*
Y2227000D01*
Y2234618D01*
X3882628Y2237157D01*
X3887707D01*
X3890246Y2234618D01*
Y2227000D01*
X3905481Y2239696D02*
X3902942Y2242235D01*
X3897863D01*
X3895324Y2239696D01*
Y2229539D01*
X3897863Y2227000D01*
X3902942D01*
X3905481Y2229539D01*
X3910559Y2242235D02*
Y2227000D01*
Y2234618D01*
X3913098Y2237157D01*
X3918177D01*
X3920716Y2234618D01*
Y2227000D01*
X3925794Y2239696D02*
X3928334Y2242235D01*
X3933412D01*
X3935951Y2239696D01*
Y2237157D01*
X3933412Y2234618D01*
X3935951Y2232078D01*
Y2229539D01*
X3933412Y2227000D01*
X3928334D01*
X3925794Y2229539D01*
Y2232078D01*
X3928334Y2234618D01*
X3925794Y2237157D01*
Y2239696D01*
X3928334Y2234618D02*
X3933412D01*
X3306453Y2242235D02*
Y2227000D01*
X3314071D01*
X3316610Y2229539D01*
Y2239696D01*
X3314071Y2242235D01*
X3306453D01*
X3321688Y2227000D02*
Y2237157D01*
X3326766Y2242235D01*
X3331845Y2237157D01*
Y2227000D01*
Y2234618D01*
X3321688D01*
X3336923Y2227000D02*
X3342002D01*
X3339462D01*
Y2242235D01*
X3336923Y2239696D01*
X3349619Y2224461D02*
X3359776D01*
X3364854Y2242235D02*
X3375011D01*
X3369933D01*
Y2227000D01*
X3380089Y2242235D02*
Y2227000D01*
Y2234618D01*
X3382628Y2237157D01*
X3387707D01*
X3390246Y2234618D01*
Y2227000D01*
X3405481Y2239696D02*
X3402942Y2242235D01*
X3397863D01*
X3395324Y2239696D01*
Y2229539D01*
X3397863Y2227000D01*
X3402942D01*
X3405481Y2229539D01*
X3410559Y2242235D02*
Y2227000D01*
Y2234618D01*
X3413098Y2237157D01*
X3418177D01*
X3420716Y2234618D01*
Y2227000D01*
X3425794Y2242235D02*
X3435951D01*
Y2239696D01*
X3425794Y2229539D01*
Y2227000D01*
X2806453Y2242235D02*
Y2227000D01*
X2814071D01*
X2816610Y2229539D01*
Y2239696D01*
X2814071Y2242235D01*
X2806453D01*
X2821688Y2227000D02*
Y2237157D01*
X2826766Y2242235D01*
X2831845Y2237157D01*
Y2227000D01*
Y2234618D01*
X2821688D01*
X2836923Y2227000D02*
X2842002D01*
X2839462D01*
Y2242235D01*
X2836923Y2239696D01*
X2849619Y2224461D02*
X2859776D01*
X2864854Y2242235D02*
X2875011D01*
X2869933D01*
Y2227000D01*
X2880089Y2242235D02*
Y2227000D01*
Y2234618D01*
X2882628Y2237157D01*
X2887707D01*
X2890246Y2234618D01*
Y2227000D01*
X2905481Y2239696D02*
X2902942Y2242235D01*
X2897863D01*
X2895324Y2239696D01*
Y2229539D01*
X2897863Y2227000D01*
X2902942D01*
X2905481Y2229539D01*
X2910559Y2242235D02*
Y2227000D01*
Y2234618D01*
X2913098Y2237157D01*
X2918177D01*
X2920716Y2234618D01*
Y2227000D01*
X2935951Y2242235D02*
X2930873Y2239696D01*
X2925794Y2234618D01*
Y2229539D01*
X2928334Y2227000D01*
X2933412D01*
X2935951Y2229539D01*
Y2232078D01*
X2933412Y2234618D01*
X2925794D01*
X2306453Y2242235D02*
Y2227000D01*
X2314071D01*
X2316610Y2229539D01*
Y2239696D01*
X2314071Y2242235D01*
X2306453D01*
X2321688Y2227000D02*
Y2237157D01*
X2326767Y2242235D01*
X2331845Y2237157D01*
Y2227000D01*
Y2234618D01*
X2321688D01*
X2336923Y2227000D02*
X2342002D01*
X2339462D01*
Y2242235D01*
X2336923Y2239696D01*
X2349619Y2224461D02*
X2359776D01*
X2364854Y2242235D02*
X2375011D01*
X2369933D01*
Y2227000D01*
X2380089Y2242235D02*
Y2227000D01*
Y2234618D01*
X2382628Y2237157D01*
X2387707D01*
X2390246Y2234618D01*
Y2227000D01*
X2405481Y2239696D02*
X2402942Y2242235D01*
X2397863D01*
X2395324Y2239696D01*
Y2229539D01*
X2397863Y2227000D01*
X2402942D01*
X2405481Y2229539D01*
X2410559Y2242235D02*
Y2227000D01*
Y2234618D01*
X2413099Y2237157D01*
X2418177D01*
X2420716Y2234618D01*
Y2227000D01*
X2435951Y2242235D02*
X2425795D01*
Y2234618D01*
X2430873Y2237157D01*
X2433412D01*
X2435951Y2234618D01*
Y2229539D01*
X2433412Y2227000D01*
X2428334D01*
X2425795Y2229539D01*
X1806453Y2242235D02*
Y2227000D01*
X1814071D01*
X1816610Y2229539D01*
Y2239696D01*
X1814071Y2242235D01*
X1806453D01*
X1821688Y2227000D02*
Y2237157D01*
X1826767Y2242235D01*
X1831845Y2237157D01*
Y2227000D01*
Y2234618D01*
X1821688D01*
X1836923Y2227000D02*
X1842002D01*
X1839462D01*
Y2242235D01*
X1836923Y2239696D01*
X1849619Y2224461D02*
X1859776D01*
X1864854Y2242235D02*
X1875011D01*
X1869933D01*
Y2227000D01*
X1880089Y2242235D02*
Y2227000D01*
Y2234618D01*
X1882628Y2237157D01*
X1887707D01*
X1890246Y2234618D01*
Y2227000D01*
X1905481Y2239696D02*
X1902942Y2242235D01*
X1897863D01*
X1895324Y2239696D01*
Y2229539D01*
X1897863Y2227000D01*
X1902942D01*
X1905481Y2229539D01*
X1910559Y2242235D02*
Y2227000D01*
Y2234618D01*
X1913099Y2237157D01*
X1918177D01*
X1920716Y2234618D01*
Y2227000D01*
X1933412D02*
Y2242235D01*
X1925795Y2234618D01*
X1935951D01*
X1306453Y2242235D02*
Y2227000D01*
X1314071D01*
X1316610Y2229539D01*
Y2239696D01*
X1314071Y2242235D01*
X1306453D01*
X1321688Y2227000D02*
Y2237157D01*
X1326767Y2242235D01*
X1331845Y2237157D01*
Y2227000D01*
Y2234618D01*
X1321688D01*
X1336923Y2227000D02*
X1342002D01*
X1339462D01*
Y2242235D01*
X1336923Y2239696D01*
X1349619Y2224461D02*
X1359776D01*
X1364854Y2242235D02*
X1375011D01*
X1369933D01*
Y2227000D01*
X1380089Y2242235D02*
Y2227000D01*
Y2234618D01*
X1382628Y2237157D01*
X1387707D01*
X1390246Y2234618D01*
Y2227000D01*
X1405481Y2239696D02*
X1402942Y2242235D01*
X1397863D01*
X1395324Y2239696D01*
Y2229539D01*
X1397863Y2227000D01*
X1402942D01*
X1405481Y2229539D01*
X1410559Y2242235D02*
Y2227000D01*
Y2234618D01*
X1413099Y2237157D01*
X1418177D01*
X1420716Y2234618D01*
Y2227000D01*
X1425795Y2239696D02*
X1428334Y2242235D01*
X1433412D01*
X1435951Y2239696D01*
Y2237157D01*
X1433412Y2234618D01*
X1430873D01*
X1433412D01*
X1435951Y2232078D01*
Y2229539D01*
X1433412Y2227000D01*
X1428334D01*
X1425795Y2229539D01*
X806453Y2242235D02*
Y2227000D01*
X814071D01*
X816610Y2229539D01*
Y2239696D01*
X814071Y2242235D01*
X806453D01*
X821688Y2227000D02*
Y2237157D01*
X826767Y2242235D01*
X831845Y2237157D01*
Y2227000D01*
Y2234618D01*
X821688D01*
X836923Y2227000D02*
X842002D01*
X839462D01*
Y2242235D01*
X836923Y2239696D01*
X849619Y2224461D02*
X859776D01*
X864854Y2242235D02*
X875011D01*
X869933D01*
Y2227000D01*
X880089Y2242235D02*
Y2227000D01*
Y2234618D01*
X882628Y2237157D01*
X887707D01*
X890246Y2234618D01*
Y2227000D01*
X905481Y2239696D02*
X902942Y2242235D01*
X897863D01*
X895324Y2239696D01*
Y2229539D01*
X897863Y2227000D01*
X902942D01*
X905481Y2229539D01*
X910559Y2242235D02*
Y2227000D01*
Y2234618D01*
X913099Y2237157D01*
X918177D01*
X920716Y2234618D01*
Y2227000D01*
X935951D02*
X925795D01*
X935951Y2237157D01*
Y2239696D01*
X933412Y2242235D01*
X928334D01*
X925795Y2239696D01*
X1559304Y1804157D02*
X1556765Y1801617D01*
Y1796539D01*
X1559304Y1794000D01*
X1569461D01*
X1572000Y1796539D01*
Y1801617D01*
X1569461Y1804157D01*
X1572000Y1809235D02*
Y1814313D01*
Y1811774D01*
X1556765D01*
X1559304Y1809235D01*
X1569461Y1821931D02*
X1572000Y1824470D01*
Y1829548D01*
X1569461Y1832088D01*
X1559304D01*
X1556765Y1829548D01*
Y1824470D01*
X1559304Y1821931D01*
X1561843D01*
X1564382Y1824470D01*
Y1832088D01*
X1524907Y1837196D02*
X1522368Y1839735D01*
X1517289D01*
X1514750Y1837196D01*
Y1827039D01*
X1517289Y1824500D01*
X1522368D01*
X1524907Y1827039D01*
X1529985Y1824500D02*
X1535063D01*
X1532524D01*
Y1839735D01*
X1529985Y1837196D01*
X1542681D02*
X1545220Y1839735D01*
X1550298D01*
X1552838Y1837196D01*
Y1834657D01*
X1550298Y1832117D01*
X1552838Y1829578D01*
Y1827039D01*
X1550298Y1824500D01*
X1545220D01*
X1542681Y1827039D01*
Y1829578D01*
X1545220Y1832117D01*
X1542681Y1834657D01*
Y1837196D01*
X1545220Y1832117D02*
X1550298D01*
X1700157Y1833696D02*
X1697617Y1836235D01*
X1692539D01*
X1690000Y1833696D01*
Y1823539D01*
X1692539Y1821000D01*
X1697617D01*
X1700157Y1823539D01*
X1705235Y1821000D02*
X1710313D01*
X1707774D01*
Y1836235D01*
X1705235Y1833696D01*
X1728088Y1836235D02*
X1723009Y1833696D01*
X1717931Y1828618D01*
Y1823539D01*
X1720470Y1821000D01*
X1725549D01*
X1728088Y1823539D01*
Y1826078D01*
X1725549Y1828618D01*
X1717931D01*
X1648804Y1821157D02*
X1646265Y1818618D01*
Y1813539D01*
X1648804Y1811000D01*
X1658961D01*
X1661500Y1813539D01*
Y1818618D01*
X1658961Y1821157D01*
X1661500Y1826235D02*
Y1831313D01*
Y1828774D01*
X1646265D01*
X1648804Y1826235D01*
X1646265Y1849088D02*
Y1838931D01*
X1653882D01*
X1651343Y1844009D01*
Y1846548D01*
X1653882Y1849088D01*
X1658961D01*
X1661500Y1846548D01*
Y1841470D01*
X1658961Y1838931D01*
X1622554Y1822907D02*
X1620015Y1820367D01*
Y1815289D01*
X1622554Y1812750D01*
X1632711D01*
X1635250Y1815289D01*
Y1820367D01*
X1632711Y1822907D01*
X1635250Y1827985D02*
Y1833063D01*
Y1830524D01*
X1620015D01*
X1622554Y1827985D01*
X1635250Y1848298D02*
X1620015D01*
X1627632Y1840681D01*
Y1850838D01*
X1579304Y1805657D02*
X1576765Y1803118D01*
Y1798039D01*
X1579304Y1795500D01*
X1589461D01*
X1592000Y1798039D01*
Y1803118D01*
X1589461Y1805657D01*
X1592000Y1810735D02*
Y1815813D01*
Y1813274D01*
X1576765D01*
X1579304Y1810735D01*
Y1823431D02*
X1576765Y1825970D01*
Y1831048D01*
X1579304Y1833588D01*
X1581843D01*
X1584382Y1831048D01*
Y1828509D01*
Y1831048D01*
X1586922Y1833588D01*
X1589461D01*
X1592000Y1831048D01*
Y1825970D01*
X1589461Y1823431D01*
X783904Y1916056D02*
X781365Y1913517D01*
Y1908439D01*
X783904Y1905900D01*
X794061D01*
X796600Y1908439D01*
Y1913517D01*
X794061Y1916056D01*
X796600Y1921135D02*
Y1926213D01*
Y1923674D01*
X781365D01*
X783904Y1921135D01*
X796600Y1943987D02*
Y1933831D01*
X786443Y1943987D01*
X783904D01*
X781365Y1941448D01*
Y1936370D01*
X783904Y1933831D01*
X803904Y1916056D02*
X801365Y1913517D01*
Y1908439D01*
X803904Y1905900D01*
X814061D01*
X816600Y1908439D01*
Y1913517D01*
X814061Y1916056D01*
X816600Y1921135D02*
Y1926213D01*
Y1923674D01*
X801365D01*
X803904Y1921135D01*
X816600Y1933831D02*
Y1938909D01*
Y1936370D01*
X801365D01*
X803904Y1933831D01*
X824904Y1916056D02*
X822365Y1913517D01*
Y1908439D01*
X824904Y1905900D01*
X835061D01*
X837600Y1908439D01*
Y1913517D01*
X835061Y1916056D01*
X837600Y1921135D02*
Y1926213D01*
Y1923674D01*
X822365D01*
X824904Y1921135D01*
Y1933831D02*
X822365Y1936370D01*
Y1941448D01*
X824904Y1943987D01*
X835061D01*
X837600Y1941448D01*
Y1936370D01*
X835061Y1933831D01*
X824904D01*
X845904Y1915056D02*
X843365Y1912517D01*
Y1907439D01*
X845904Y1904899D01*
X856061D01*
X858600Y1907439D01*
Y1912517D01*
X856061Y1915056D01*
Y1920134D02*
X858600Y1922674D01*
Y1927752D01*
X856061Y1930291D01*
X845904D01*
X843365Y1927752D01*
Y1922674D01*
X845904Y1920134D01*
X848443D01*
X850983Y1922674D01*
Y1930291D01*
X408304Y1993157D02*
X405765Y1990618D01*
Y1985539D01*
X408304Y1983000D01*
X418461D01*
X421000Y1985539D01*
Y1990618D01*
X418461Y1993157D01*
X408304Y1998235D02*
X405765Y2000774D01*
Y2005853D01*
X408304Y2008392D01*
X410843D01*
X413382Y2005853D01*
X415922Y2008392D01*
X418461D01*
X421000Y2005853D01*
Y2000774D01*
X418461Y1998235D01*
X415922D01*
X413382Y2000774D01*
X410843Y1998235D01*
X408304D01*
X413382Y2000774D02*
Y2005853D01*
X432304Y2008157D02*
X429765Y2005617D01*
Y2000539D01*
X432304Y1998000D01*
X442461D01*
X445000Y2000539D01*
Y2005617D01*
X442461Y2008157D01*
X429765Y2013235D02*
Y2023392D01*
X432304D01*
X442461Y2013235D01*
X445000D01*
X703657Y2004446D02*
X701117Y2006985D01*
X696039D01*
X693500Y2004446D01*
Y1994289D01*
X696039Y1991750D01*
X701117D01*
X703657Y1994289D01*
X718892Y2006985D02*
X713813Y2004446D01*
X708735Y1999368D01*
Y1994289D01*
X711274Y1991750D01*
X716353D01*
X718892Y1994289D01*
Y1996828D01*
X716353Y1999368D01*
X708735D01*
X673304Y1938157D02*
X670765Y1935618D01*
Y1930539D01*
X673304Y1928000D01*
X683461D01*
X686000Y1930539D01*
Y1935618D01*
X683461Y1938157D01*
X670765Y1953392D02*
Y1943235D01*
X678382D01*
X675843Y1948314D01*
Y1950853D01*
X678382Y1953392D01*
X683461D01*
X686000Y1950853D01*
Y1945775D01*
X683461Y1943235D01*
X533304Y1995157D02*
X530765Y1992617D01*
Y1987539D01*
X533304Y1985000D01*
X543461D01*
X546000Y1987539D01*
Y1992617D01*
X543461Y1995157D01*
X546000Y2007852D02*
X530765D01*
X538382Y2000235D01*
Y2010392D01*
X347157Y1887696D02*
X344618Y1890235D01*
X339539D01*
X337000Y1887696D01*
Y1877539D01*
X339539Y1875000D01*
X344618D01*
X347157Y1877539D01*
X352235Y1887696D02*
X354774Y1890235D01*
X359853D01*
X362392Y1887696D01*
Y1885157D01*
X359853Y1882617D01*
X357313D01*
X359853D01*
X362392Y1880078D01*
Y1877539D01*
X359853Y1875000D01*
X354774D01*
X352235Y1877539D01*
X4080157Y2258496D02*
X4077618Y2261035D01*
X4072539D01*
X4070000Y2258496D01*
Y2248339D01*
X4072539Y2245800D01*
X4077618D01*
X4080157Y2248339D01*
X4095392Y2245800D02*
X4085235D01*
X4095392Y2255957D01*
Y2258496D01*
X4092853Y2261035D01*
X4087774D01*
X4085235Y2258496D01*
X4100470Y2243261D02*
X4110627D01*
X4115705Y2261035D02*
X4125862D01*
X4120784D01*
Y2245800D01*
X4130941Y2261035D02*
Y2245800D01*
Y2253417D01*
X4133480Y2255957D01*
X4138558D01*
X4141097Y2253417D01*
Y2245800D01*
X4156332Y2258496D02*
X4153793Y2261035D01*
X4148715D01*
X4146176Y2258496D01*
Y2248339D01*
X4148715Y2245800D01*
X4153793D01*
X4156332Y2248339D01*
X4161411Y2261035D02*
Y2245800D01*
Y2253417D01*
X4163950Y2255957D01*
X4169028D01*
X4171567Y2253417D01*
Y2245800D01*
X4176646Y2258496D02*
X4179185Y2261035D01*
X4184263D01*
X4186802Y2258496D01*
Y2255957D01*
X4184263Y2253417D01*
X4186802Y2250878D01*
Y2248339D01*
X4184263Y2245800D01*
X4179185D01*
X4176646Y2248339D01*
Y2250878D01*
X4179185Y2253417D01*
X4176646Y2255957D01*
Y2258496D01*
X4179185Y2253417D02*
X4184263D01*
X3580157Y2258496D02*
X3577618Y2261035D01*
X3572539D01*
X3570000Y2258496D01*
Y2248339D01*
X3572539Y2245800D01*
X3577618D01*
X3580157Y2248339D01*
X3595392Y2245800D02*
X3585235D01*
X3595392Y2255957D01*
Y2258496D01*
X3592853Y2261035D01*
X3587774D01*
X3585235Y2258496D01*
X3600470Y2243261D02*
X3610627D01*
X3615705Y2261035D02*
X3625862D01*
X3620784D01*
Y2245800D01*
X3630941Y2261035D02*
Y2245800D01*
Y2253417D01*
X3633480Y2255957D01*
X3638558D01*
X3641097Y2253417D01*
Y2245800D01*
X3656332Y2258496D02*
X3653793Y2261035D01*
X3648715D01*
X3646176Y2258496D01*
Y2248339D01*
X3648715Y2245800D01*
X3653793D01*
X3656332Y2248339D01*
X3661411Y2261035D02*
Y2245800D01*
Y2253417D01*
X3663950Y2255957D01*
X3669028D01*
X3671567Y2253417D01*
Y2245800D01*
X3676646Y2261035D02*
X3686802D01*
Y2258496D01*
X3676646Y2248339D01*
Y2245800D01*
X3080157Y2258496D02*
X3077618Y2261035D01*
X3072539D01*
X3070000Y2258496D01*
Y2248339D01*
X3072539Y2245800D01*
X3077618D01*
X3080157Y2248339D01*
X3095392Y2245800D02*
X3085235D01*
X3095392Y2255957D01*
Y2258496D01*
X3092853Y2261035D01*
X3087774D01*
X3085235Y2258496D01*
X3100470Y2243261D02*
X3110627D01*
X3115705Y2261035D02*
X3125862D01*
X3120784D01*
Y2245800D01*
X3130941Y2261035D02*
Y2245800D01*
Y2253417D01*
X3133480Y2255957D01*
X3138558D01*
X3141097Y2253417D01*
Y2245800D01*
X3156332Y2258496D02*
X3153793Y2261035D01*
X3148715D01*
X3146176Y2258496D01*
Y2248339D01*
X3148715Y2245800D01*
X3153793D01*
X3156332Y2248339D01*
X3161411Y2261035D02*
Y2245800D01*
Y2253417D01*
X3163950Y2255957D01*
X3169028D01*
X3171567Y2253417D01*
Y2245800D01*
X3186802Y2261035D02*
X3181724Y2258496D01*
X3176646Y2253417D01*
Y2248339D01*
X3179185Y2245800D01*
X3184263D01*
X3186802Y2248339D01*
Y2250878D01*
X3184263Y2253417D01*
X3176646D01*
X2580157Y2258496D02*
X2577618Y2261035D01*
X2572539D01*
X2570000Y2258496D01*
Y2248339D01*
X2572539Y2245800D01*
X2577618D01*
X2580157Y2248339D01*
X2595392Y2245800D02*
X2585235D01*
X2595392Y2255957D01*
Y2258496D01*
X2592853Y2261035D01*
X2587774D01*
X2585235Y2258496D01*
X2600470Y2243261D02*
X2610627D01*
X2615705Y2261035D02*
X2625862D01*
X2620784D01*
Y2245800D01*
X2630941Y2261035D02*
Y2245800D01*
Y2253417D01*
X2633480Y2255957D01*
X2638558D01*
X2641097Y2253417D01*
Y2245800D01*
X2656332Y2258496D02*
X2653793Y2261035D01*
X2648715D01*
X2646176Y2258496D01*
Y2248339D01*
X2648715Y2245800D01*
X2653793D01*
X2656332Y2248339D01*
X2661411Y2261035D02*
Y2245800D01*
Y2253417D01*
X2663950Y2255957D01*
X2669028D01*
X2671567Y2253417D01*
Y2245800D01*
X2686802Y2261035D02*
X2676646D01*
Y2253417D01*
X2681724Y2255957D01*
X2684263D01*
X2686802Y2253417D01*
Y2248339D01*
X2684263Y2245800D01*
X2679185D01*
X2676646Y2248339D01*
X2080157Y2258496D02*
X2077618Y2261035D01*
X2072539D01*
X2070000Y2258496D01*
Y2248339D01*
X2072539Y2245800D01*
X2077618D01*
X2080157Y2248339D01*
X2095392Y2245800D02*
X2085235D01*
X2095392Y2255957D01*
Y2258496D01*
X2092853Y2261035D01*
X2087774D01*
X2085235Y2258496D01*
X2100470Y2243261D02*
X2110627D01*
X2115705Y2261035D02*
X2125862D01*
X2120784D01*
Y2245800D01*
X2130940Y2261035D02*
Y2245800D01*
Y2253417D01*
X2133480Y2255957D01*
X2138558D01*
X2141097Y2253417D01*
Y2245800D01*
X2156332Y2258496D02*
X2153793Y2261035D01*
X2148715D01*
X2146176Y2258496D01*
Y2248339D01*
X2148715Y2245800D01*
X2153793D01*
X2156332Y2248339D01*
X2161411Y2261035D02*
Y2245800D01*
Y2253417D01*
X2163950Y2255957D01*
X2169028D01*
X2171567Y2253417D01*
Y2245800D01*
X2184263D02*
Y2261035D01*
X2176646Y2253417D01*
X2186802D01*
X1580157Y2258496D02*
X1577618Y2261035D01*
X1572539D01*
X1570000Y2258496D01*
Y2248339D01*
X1572539Y2245800D01*
X1577618D01*
X1580157Y2248339D01*
X1595392Y2245800D02*
X1585235D01*
X1595392Y2255957D01*
Y2258496D01*
X1592853Y2261035D01*
X1587774D01*
X1585235Y2258496D01*
X1600470Y2243261D02*
X1610627D01*
X1615705Y2261035D02*
X1625862D01*
X1620784D01*
Y2245800D01*
X1630940Y2261035D02*
Y2245800D01*
Y2253417D01*
X1633480Y2255957D01*
X1638558D01*
X1641097Y2253417D01*
Y2245800D01*
X1656332Y2258496D02*
X1653793Y2261035D01*
X1648715D01*
X1646176Y2258496D01*
Y2248339D01*
X1648715Y2245800D01*
X1653793D01*
X1656332Y2248339D01*
X1661411Y2261035D02*
Y2245800D01*
Y2253417D01*
X1663950Y2255957D01*
X1669028D01*
X1671567Y2253417D01*
Y2245800D01*
X1676646Y2258496D02*
X1679185Y2261035D01*
X1684263D01*
X1686802Y2258496D01*
Y2255957D01*
X1684263Y2253417D01*
X1681724D01*
X1684263D01*
X1686802Y2250878D01*
Y2248339D01*
X1684263Y2245800D01*
X1679185D01*
X1676646Y2248339D01*
X1080157Y2258496D02*
X1077618Y2261035D01*
X1072539D01*
X1070000Y2258496D01*
Y2248339D01*
X1072539Y2245800D01*
X1077618D01*
X1080157Y2248339D01*
X1095392Y2245800D02*
X1085235D01*
X1095392Y2255957D01*
Y2258496D01*
X1092853Y2261035D01*
X1087774D01*
X1085235Y2258496D01*
X1100470Y2243261D02*
X1110627D01*
X1115705Y2261035D02*
X1125862D01*
X1120784D01*
Y2245800D01*
X1130940Y2261035D02*
Y2245800D01*
Y2253417D01*
X1133480Y2255957D01*
X1138558D01*
X1141097Y2253417D01*
Y2245800D01*
X1156332Y2258496D02*
X1153793Y2261035D01*
X1148715D01*
X1146176Y2258496D01*
Y2248339D01*
X1148715Y2245800D01*
X1153793D01*
X1156332Y2248339D01*
X1161411Y2261035D02*
Y2245800D01*
Y2253417D01*
X1163950Y2255957D01*
X1169028D01*
X1171567Y2253417D01*
Y2245800D01*
X1186802D02*
X1176646D01*
X1186802Y2255957D01*
Y2258496D01*
X1184263Y2261035D01*
X1179185D01*
X1176646Y2258496D01*
X580157D02*
X577618Y2261035D01*
X572539D01*
X570000Y2258496D01*
Y2248339D01*
X572539Y2245800D01*
X577618D01*
X580157Y2248339D01*
X595392Y2245800D02*
X585235D01*
X595392Y2255957D01*
Y2258496D01*
X592853Y2261035D01*
X587774D01*
X585235Y2258496D01*
X600470Y2243261D02*
X610627D01*
X615705Y2261035D02*
X625862D01*
X620784D01*
Y2245800D01*
X630940Y2261035D02*
Y2245800D01*
Y2253417D01*
X633480Y2255957D01*
X638558D01*
X641097Y2253417D01*
Y2245800D01*
X656332Y2258496D02*
X653793Y2261035D01*
X648715D01*
X646176Y2258496D01*
Y2248339D01*
X648715Y2245800D01*
X653793D01*
X656332Y2248339D01*
X661411Y2261035D02*
Y2245800D01*
Y2253417D01*
X663950Y2255957D01*
X669028D01*
X671567Y2253417D01*
Y2245800D01*
X676646D02*
X681724D01*
X679185D01*
Y2261035D01*
X676646Y2258496D01*
X3815157D02*
X3812618Y2261035D01*
X3807539D01*
X3805000Y2258496D01*
Y2248339D01*
X3807539Y2245800D01*
X3812618D01*
X3815157Y2248339D01*
X3820235Y2245800D02*
X3825314D01*
X3822774D01*
Y2261035D01*
X3820235Y2258496D01*
X3832931Y2243261D02*
X3843088D01*
X3848166Y2261035D02*
X3858323D01*
X3853245D01*
Y2245800D01*
X3863401Y2261035D02*
Y2245800D01*
Y2253417D01*
X3865941Y2255957D01*
X3871019D01*
X3873558Y2253417D01*
Y2245800D01*
X3888793Y2258496D02*
X3886254Y2261035D01*
X3881176D01*
X3878636Y2258496D01*
Y2248339D01*
X3881176Y2245800D01*
X3886254D01*
X3888793Y2248339D01*
X3893871Y2261035D02*
Y2245800D01*
Y2253417D01*
X3896411Y2255957D01*
X3901489D01*
X3904028Y2253417D01*
Y2245800D01*
X3909106Y2258496D02*
X3911646Y2261035D01*
X3916724D01*
X3919263Y2258496D01*
Y2255957D01*
X3916724Y2253417D01*
X3919263Y2250878D01*
Y2248339D01*
X3916724Y2245800D01*
X3911646D01*
X3909106Y2248339D01*
Y2250878D01*
X3911646Y2253417D01*
X3909106Y2255957D01*
Y2258496D01*
X3911646Y2253417D02*
X3916724D01*
X3315157Y2258496D02*
X3312618Y2261035D01*
X3307539D01*
X3305000Y2258496D01*
Y2248339D01*
X3307539Y2245800D01*
X3312618D01*
X3315157Y2248339D01*
X3320235Y2245800D02*
X3325314D01*
X3322774D01*
Y2261035D01*
X3320235Y2258496D01*
X3332931Y2243261D02*
X3343088D01*
X3348166Y2261035D02*
X3358323D01*
X3353245D01*
Y2245800D01*
X3363401Y2261035D02*
Y2245800D01*
Y2253417D01*
X3365941Y2255957D01*
X3371019D01*
X3373558Y2253417D01*
Y2245800D01*
X3388793Y2258496D02*
X3386254Y2261035D01*
X3381176D01*
X3378636Y2258496D01*
Y2248339D01*
X3381176Y2245800D01*
X3386254D01*
X3388793Y2248339D01*
X3393871Y2261035D02*
Y2245800D01*
Y2253417D01*
X3396411Y2255957D01*
X3401489D01*
X3404028Y2253417D01*
Y2245800D01*
X3409106Y2261035D02*
X3419263D01*
Y2258496D01*
X3409106Y2248339D01*
Y2245800D01*
X2815157Y2258496D02*
X2812618Y2261035D01*
X2807539D01*
X2805000Y2258496D01*
Y2248339D01*
X2807539Y2245800D01*
X2812618D01*
X2815157Y2248339D01*
X2820235Y2245800D02*
X2825314D01*
X2822774D01*
Y2261035D01*
X2820235Y2258496D01*
X2832931Y2243261D02*
X2843088D01*
X2848166Y2261035D02*
X2858323D01*
X2853245D01*
Y2245800D01*
X2863401Y2261035D02*
Y2245800D01*
Y2253417D01*
X2865941Y2255957D01*
X2871019D01*
X2873558Y2253417D01*
Y2245800D01*
X2888793Y2258496D02*
X2886254Y2261035D01*
X2881176D01*
X2878636Y2258496D01*
Y2248339D01*
X2881176Y2245800D01*
X2886254D01*
X2888793Y2248339D01*
X2893871Y2261035D02*
Y2245800D01*
Y2253417D01*
X2896411Y2255957D01*
X2901489D01*
X2904028Y2253417D01*
Y2245800D01*
X2919263Y2261035D02*
X2914185Y2258496D01*
X2909106Y2253417D01*
Y2248339D01*
X2911646Y2245800D01*
X2916724D01*
X2919263Y2248339D01*
Y2250878D01*
X2916724Y2253417D01*
X2909106D01*
X2315157Y2258496D02*
X2312618Y2261035D01*
X2307539D01*
X2305000Y2258496D01*
Y2248339D01*
X2307539Y2245800D01*
X2312618D01*
X2315157Y2248339D01*
X2320235Y2245800D02*
X2325314D01*
X2322774D01*
Y2261035D01*
X2320235Y2258496D01*
X2332931Y2243261D02*
X2343088D01*
X2348166Y2261035D02*
X2358323D01*
X2353244D01*
Y2245800D01*
X2363401Y2261035D02*
Y2245800D01*
Y2253417D01*
X2365940Y2255957D01*
X2371019D01*
X2373558Y2253417D01*
Y2245800D01*
X2388793Y2258496D02*
X2386254Y2261035D01*
X2381176D01*
X2378636Y2258496D01*
Y2248339D01*
X2381176Y2245800D01*
X2386254D01*
X2388793Y2248339D01*
X2393871Y2261035D02*
Y2245800D01*
Y2253417D01*
X2396411Y2255957D01*
X2401489D01*
X2404028Y2253417D01*
Y2245800D01*
X2419263Y2261035D02*
X2409106D01*
Y2253417D01*
X2414185Y2255957D01*
X2416724D01*
X2419263Y2253417D01*
Y2248339D01*
X2416724Y2245800D01*
X2411646D01*
X2409106Y2248339D01*
X1815157Y2258496D02*
X1812618Y2261035D01*
X1807539D01*
X1805000Y2258496D01*
Y2248339D01*
X1807539Y2245800D01*
X1812618D01*
X1815157Y2248339D01*
X1820235Y2245800D02*
X1825314D01*
X1822774D01*
Y2261035D01*
X1820235Y2258496D01*
X1832931Y2243261D02*
X1843088D01*
X1848166Y2261035D02*
X1858323D01*
X1853244D01*
Y2245800D01*
X1863401Y2261035D02*
Y2245800D01*
Y2253417D01*
X1865940Y2255957D01*
X1871019D01*
X1873558Y2253417D01*
Y2245800D01*
X1888793Y2258496D02*
X1886254Y2261035D01*
X1881176D01*
X1878636Y2258496D01*
Y2248339D01*
X1881176Y2245800D01*
X1886254D01*
X1888793Y2248339D01*
X1893871Y2261035D02*
Y2245800D01*
Y2253417D01*
X1896411Y2255957D01*
X1901489D01*
X1904028Y2253417D01*
Y2245800D01*
X1916724D02*
Y2261035D01*
X1909106Y2253417D01*
X1919263D01*
X1315157Y2258496D02*
X1312618Y2261035D01*
X1307539D01*
X1305000Y2258496D01*
Y2248339D01*
X1307539Y2245800D01*
X1312618D01*
X1315157Y2248339D01*
X1320235Y2245800D02*
X1325314D01*
X1322774D01*
Y2261035D01*
X1320235Y2258496D01*
X1332931Y2243261D02*
X1343088D01*
X1348166Y2261035D02*
X1358323D01*
X1353244D01*
Y2245800D01*
X1363401Y2261035D02*
Y2245800D01*
Y2253417D01*
X1365940Y2255957D01*
X1371019D01*
X1373558Y2253417D01*
Y2245800D01*
X1388793Y2258496D02*
X1386254Y2261035D01*
X1381176D01*
X1378636Y2258496D01*
Y2248339D01*
X1381176Y2245800D01*
X1386254D01*
X1388793Y2248339D01*
X1393871Y2261035D02*
Y2245800D01*
Y2253417D01*
X1396411Y2255957D01*
X1401489D01*
X1404028Y2253417D01*
Y2245800D01*
X1409106Y2258496D02*
X1411646Y2261035D01*
X1416724D01*
X1419263Y2258496D01*
Y2255957D01*
X1416724Y2253417D01*
X1414185D01*
X1416724D01*
X1419263Y2250878D01*
Y2248339D01*
X1416724Y2245800D01*
X1411646D01*
X1409106Y2248339D01*
X815157Y2258496D02*
X812618Y2261035D01*
X807539D01*
X805000Y2258496D01*
Y2248339D01*
X807539Y2245800D01*
X812618D01*
X815157Y2248339D01*
X820235Y2245800D02*
X825314D01*
X822774D01*
Y2261035D01*
X820235Y2258496D01*
X832931Y2243261D02*
X843088D01*
X848166Y2261035D02*
X858323D01*
X853244D01*
Y2245800D01*
X863401Y2261035D02*
Y2245800D01*
Y2253417D01*
X865940Y2255957D01*
X871019D01*
X873558Y2253417D01*
Y2245800D01*
X888793Y2258496D02*
X886254Y2261035D01*
X881176D01*
X878636Y2258496D01*
Y2248339D01*
X881176Y2245800D01*
X886254D01*
X888793Y2248339D01*
X893871Y2261035D02*
Y2245800D01*
Y2253417D01*
X896411Y2255957D01*
X901489D01*
X904028Y2253417D01*
Y2245800D01*
X919263D02*
X909107D01*
X919263Y2255957D01*
Y2258496D01*
X916724Y2261035D01*
X911646D01*
X909107Y2258496D01*
X315157D02*
X312618Y2261035D01*
X307539D01*
X305000Y2258496D01*
Y2248339D01*
X307539Y2245800D01*
X312618D01*
X315157Y2248339D01*
X320235Y2245800D02*
X325314D01*
X322774D01*
Y2261035D01*
X320235Y2258496D01*
X332931Y2243261D02*
X343088D01*
X348166Y2261035D02*
X358323D01*
X353245D01*
Y2245800D01*
X363401Y2261035D02*
Y2245800D01*
Y2253417D01*
X365940Y2255957D01*
X371019D01*
X373558Y2253417D01*
Y2245800D01*
X388793Y2258496D02*
X386254Y2261035D01*
X381175D01*
X378636Y2258496D01*
Y2248339D01*
X381175Y2245800D01*
X386254D01*
X388793Y2248339D01*
X393871Y2261035D02*
Y2245800D01*
Y2253417D01*
X396411Y2255957D01*
X401489D01*
X404028Y2253417D01*
Y2245800D01*
X409106D02*
X414185D01*
X411646D01*
Y2261035D01*
X409106Y2258496D01*
D13*
X499750Y1938050D02*
G03*
X499750Y1938050I-3000J0D01*
G01*
D14*
X4058447Y2159840D02*
G03*
X4058447Y2180160I0J10160D01*
G01*
X3558447Y2159840D02*
G03*
X3558447Y2180160I0J10160D01*
G01*
X3058447Y2159840D02*
G03*
X3058447Y2180160I0J10160D01*
G01*
X2558447Y2159840D02*
G03*
X2558447Y2180160I0J10160D01*
G01*
X2058447Y2159840D02*
G03*
X2058447Y2180160I0J10160D01*
G01*
X1558447Y2159840D02*
G03*
X1558447Y2180160I0J10160D01*
G01*
X1058447Y2159840D02*
G03*
X1058447Y2180160I0J10160D01*
G01*
X558447Y2159840D02*
G03*
X558447Y2180160I0J10160D01*
G01*
X3831353Y2159840D02*
G03*
X3831353Y2180160I0J10160D01*
G01*
X3331353Y2159840D02*
G03*
X3331353Y2180160I0J10160D01*
G01*
X2831353Y2159840D02*
G03*
X2831353Y2180160I0J10160D01*
G01*
X2331353Y2159840D02*
G03*
X2331353Y2180160I0J10160D01*
G01*
X1831353Y2159840D02*
G03*
X1831353Y2180160I0J10160D01*
G01*
X1331353Y2159840D02*
G03*
X1331353Y2180160I0J10160D01*
G01*
X831353Y2159840D02*
G03*
X831353Y2180160I0J10160D01*
G01*
X331353Y2159840D02*
G03*
X331353Y2180160I0J10160D01*
G01*
X4161300Y2426937D02*
X4174001D01*
Y2350737D02*
X4186700D01*
X4174001Y2426937D02*
X4186700D01*
X4161300Y2350737D02*
X4174001D01*
X4186700D02*
Y2426937D01*
X4161300Y2350737D02*
Y2426937D01*
X3661300Y2426937D02*
X3674001D01*
Y2350737D02*
X3686700D01*
X3674001Y2426937D02*
X3686700D01*
X3661300Y2350737D02*
X3674001D01*
X3686700D02*
Y2426937D01*
X3661300Y2350737D02*
Y2426937D01*
X3161301Y2426937D02*
X3174001D01*
Y2350737D02*
X3186701D01*
X3174001Y2426937D02*
X3186701D01*
X3161301Y2350737D02*
X3174001D01*
X3186701D02*
Y2426937D01*
X3161301Y2350737D02*
Y2426937D01*
X2661300Y2426937D02*
X2674000D01*
Y2350737D02*
X2686700D01*
X2674000Y2426937D02*
X2686700D01*
X2661300Y2350737D02*
X2674000D01*
X2686700D02*
Y2426937D01*
X2661300Y2350737D02*
Y2426937D01*
X2161301Y2426937D02*
X2174001D01*
Y2350737D02*
X2186700D01*
X2174001Y2426937D02*
X2186700D01*
X2161301Y2350737D02*
X2174001D01*
X2186700D02*
Y2426937D01*
X2161301Y2350737D02*
Y2426937D01*
X1661300Y2426937D02*
X1674000D01*
Y2350737D02*
X1686700D01*
X1674000Y2426937D02*
X1686700D01*
X1661300Y2350737D02*
X1674000D01*
X1686700D02*
Y2426937D01*
X1661300Y2350737D02*
Y2426937D01*
X1161301Y2426937D02*
X1174001D01*
Y2350737D02*
X1186701D01*
X1174001Y2426937D02*
X1186701D01*
X1161301Y2350737D02*
X1174001D01*
X1186701D02*
Y2426937D01*
X1161301Y2350737D02*
Y2426937D01*
X661300Y2426937D02*
X674000D01*
Y2350737D02*
X686700D01*
X674000Y2426937D02*
X686700D01*
X661300Y2350737D02*
X674000D01*
X686700D02*
Y2426937D01*
X661300Y2350737D02*
Y2426937D01*
X4037300Y2421290D02*
X4062700D01*
Y2294290D02*
Y2421290D01*
X4037300Y2294290D02*
X4062700D01*
X4037300D02*
Y2421290D01*
X3537300Y2421290D02*
X3562700D01*
Y2294290D02*
Y2421290D01*
X3537300Y2294290D02*
X3562700D01*
X3537300D02*
Y2421290D01*
X3037300Y2421290D02*
X3062700D01*
Y2294290D02*
Y2421290D01*
X3037300Y2294290D02*
X3062700D01*
X3037300D02*
Y2421290D01*
X2537300Y2421291D02*
X2562700D01*
Y2294291D02*
Y2421291D01*
X2537300Y2294291D02*
X2562700D01*
X2537300D02*
Y2421291D01*
X2037300Y2421290D02*
X2062700D01*
Y2294290D02*
Y2421290D01*
X2037300Y2294290D02*
X2062700D01*
X2037300D02*
Y2421290D01*
X1537300Y2421290D02*
X1562700D01*
Y2294290D02*
Y2421290D01*
X1537300Y2294290D02*
X1562700D01*
X1537300D02*
Y2421290D01*
X1037300Y2421291D02*
X1062700D01*
Y2294291D02*
Y2421291D01*
X1037300Y2294291D02*
X1062700D01*
X1037300D02*
Y2421291D01*
X537300Y2421291D02*
X562700D01*
Y2294291D02*
Y2421291D01*
X537300Y2294291D02*
X562700D01*
X537300D02*
Y2421291D01*
X3988300Y2421290D02*
X4013700D01*
Y2294290D02*
Y2421290D01*
X3988300Y2294290D02*
X4013700D01*
X3988300D02*
Y2421290D01*
X3488300Y2421290D02*
X3513700D01*
Y2294290D02*
Y2421290D01*
X3488300Y2294290D02*
X3513700D01*
X3488300D02*
Y2421290D01*
X2988300Y2421290D02*
X3013700D01*
Y2294290D02*
Y2421290D01*
X2988300Y2294290D02*
X3013700D01*
X2988300D02*
Y2421290D01*
X2488300Y2421291D02*
X2513700D01*
Y2294291D02*
Y2421291D01*
X2488300Y2294291D02*
X2513700D01*
X2488300D02*
Y2421291D01*
X1988300Y2421290D02*
X2013700D01*
Y2294290D02*
Y2421290D01*
X1988300Y2294290D02*
X2013700D01*
X1988300D02*
Y2421290D01*
X1488300Y2421290D02*
X1513700D01*
Y2294290D02*
Y2421290D01*
X1488300Y2294290D02*
X1513700D01*
X1488300D02*
Y2421290D01*
X988300Y2421291D02*
X1013700D01*
Y2294291D02*
Y2421291D01*
X988300Y2294291D02*
X1013700D01*
X988300D02*
Y2421291D01*
X488300Y2421290D02*
X513700D01*
Y2294290D02*
Y2421290D01*
X488300Y2294290D02*
X513700D01*
X488300D02*
Y2421290D01*
X3778300Y2426937D02*
X3791000D01*
Y2350737D02*
X3803700D01*
X3791000Y2426937D02*
X3803700D01*
X3778300Y2350737D02*
X3791000D01*
X3803700D02*
Y2426937D01*
X3778300Y2350737D02*
Y2426937D01*
X3278300Y2426937D02*
X3291000D01*
Y2350737D02*
X3303700D01*
X3291000Y2426937D02*
X3303700D01*
X3278300Y2350737D02*
X3291000D01*
X3303700D02*
Y2426937D01*
X3278300Y2350737D02*
Y2426937D01*
X2778300Y2426937D02*
X2791001D01*
Y2350737D02*
X2803701D01*
X2791001Y2426937D02*
X2803701D01*
X2778300Y2350737D02*
X2791001D01*
X2803701D02*
Y2426937D01*
X2778300Y2350737D02*
Y2426937D01*
X2278300Y2426937D02*
X2291000D01*
Y2350737D02*
X2303700D01*
X2291000Y2426937D02*
X2303700D01*
X2278300Y2350737D02*
X2291000D01*
X2303700D02*
Y2426937D01*
X2278300Y2350737D02*
Y2426937D01*
X1778300Y2426937D02*
X1791001D01*
Y2350737D02*
X1803701D01*
X1791001Y2426937D02*
X1803701D01*
X1778300Y2350737D02*
X1791001D01*
X1803701D02*
Y2426937D01*
X1778300Y2350737D02*
Y2426937D01*
X1278300Y2426937D02*
X1291000D01*
Y2350737D02*
X1303700D01*
X1291000Y2426937D02*
X1303700D01*
X1278300Y2350737D02*
X1291000D01*
X1303700D02*
Y2426937D01*
X1278300Y2350737D02*
Y2426937D01*
X778301Y2426937D02*
X791001D01*
Y2350737D02*
X803701D01*
X791001Y2426937D02*
X803701D01*
X778301Y2350737D02*
X791001D01*
X803701D02*
Y2426937D01*
X778301Y2350737D02*
Y2426937D01*
X278300Y2426937D02*
X291000D01*
Y2350737D02*
X303700D01*
X291000Y2426937D02*
X303700D01*
X278300Y2350737D02*
X291000D01*
X303700D02*
Y2426937D01*
X278300Y2350737D02*
Y2426937D01*
X3890300Y2421290D02*
X3915700D01*
Y2294290D02*
Y2421290D01*
X3890300Y2294290D02*
X3915700D01*
X3890300D02*
Y2421290D01*
X3390300Y2421290D02*
X3415700D01*
Y2294290D02*
Y2421290D01*
X3390300Y2294290D02*
X3415700D01*
X3390300D02*
Y2421290D01*
X2890300Y2421290D02*
X2915700D01*
Y2294290D02*
Y2421290D01*
X2890300Y2294290D02*
X2915700D01*
X2890300D02*
Y2421290D01*
X2390300Y2421291D02*
X2415700D01*
Y2294291D02*
Y2421291D01*
X2390300Y2294291D02*
X2415700D01*
X2390300D02*
Y2421291D01*
X1890300Y2421290D02*
X1915700D01*
Y2294290D02*
Y2421290D01*
X1890300Y2294290D02*
X1915700D01*
X1890300D02*
Y2421290D01*
X1390300Y2421290D02*
X1415700D01*
Y2294290D02*
Y2421290D01*
X1390300Y2294290D02*
X1415700D01*
X1390300D02*
Y2421290D01*
X890300Y2421291D02*
X915700D01*
Y2294291D02*
Y2421291D01*
X890300Y2294291D02*
X915700D01*
X890300D02*
Y2421291D01*
X390300Y2421290D02*
X415700D01*
Y2294290D02*
Y2421290D01*
X390300Y2294290D02*
X415700D01*
X390300D02*
Y2421290D01*
X3939300Y2421290D02*
X3964700D01*
Y2294290D02*
Y2421290D01*
X3939300Y2294290D02*
X3964700D01*
X3939300D02*
Y2421290D01*
X3439300Y2421290D02*
X3464700D01*
Y2294290D02*
Y2421290D01*
X3439300Y2294290D02*
X3464700D01*
X3439300D02*
Y2421290D01*
X2939300Y2421290D02*
X2964700D01*
Y2294290D02*
Y2421290D01*
X2939300Y2294290D02*
X2964700D01*
X2939300D02*
Y2421290D01*
X2439300Y2421291D02*
X2464700D01*
Y2294291D02*
Y2421291D01*
X2439300Y2294291D02*
X2464700D01*
X2439300D02*
Y2421291D01*
X1939300Y2421290D02*
X1964700D01*
Y2294290D02*
Y2421290D01*
X1939300Y2294290D02*
X1964700D01*
X1939300D02*
Y2421290D01*
X1439300Y2421290D02*
X1464700D01*
Y2294290D02*
Y2421290D01*
X1439300Y2294290D02*
X1464700D01*
X1439300D02*
Y2421290D01*
X939300Y2421291D02*
X964700D01*
Y2294291D02*
Y2421291D01*
X939300Y2294291D02*
X964700D01*
X939300D02*
Y2421291D01*
X439300Y2421290D02*
X464700D01*
Y2294290D02*
Y2421290D01*
X439300Y2294290D02*
X464700D01*
X439300D02*
Y2421290D01*
X4134647Y2139520D02*
Y2200480D01*
X4058447Y2180160D02*
Y2200480D01*
Y2139520D02*
Y2159840D01*
X3634647Y2139520D02*
Y2200480D01*
X3558447Y2180160D02*
Y2200480D01*
Y2139520D02*
Y2159840D01*
X3134647Y2139520D02*
Y2200480D01*
X3058447Y2180160D02*
Y2200480D01*
Y2139520D02*
Y2159840D01*
X2634647Y2139520D02*
Y2200480D01*
X2558447Y2180160D02*
Y2200480D01*
Y2139520D02*
Y2159840D01*
X2134647Y2139520D02*
Y2200480D01*
X2058447Y2180160D02*
Y2200480D01*
Y2139520D02*
Y2159840D01*
X1634647Y2139520D02*
Y2200480D01*
X1558447Y2180160D02*
Y2200480D01*
Y2139520D02*
Y2159840D01*
X1134647Y2139520D02*
Y2200480D01*
X1058447Y2180160D02*
Y2200480D01*
Y2139520D02*
Y2159840D01*
X634647Y2139520D02*
Y2200480D01*
X558447Y2180160D02*
Y2200480D01*
Y2139520D02*
Y2159840D01*
X3907553Y2139520D02*
Y2200480D01*
X3831353Y2180160D02*
Y2200480D01*
Y2139520D02*
Y2159840D01*
X3407553Y2139520D02*
Y2200480D01*
X3331353Y2180160D02*
Y2200480D01*
Y2139520D02*
Y2159840D01*
X2907553Y2139520D02*
Y2200480D01*
X2831353Y2180160D02*
Y2200480D01*
Y2139520D02*
Y2159840D01*
X2407553Y2139520D02*
Y2200480D01*
X2331353Y2180160D02*
Y2200480D01*
Y2139520D02*
Y2159840D01*
X1907553Y2139520D02*
Y2200480D01*
X1831353Y2180160D02*
Y2200480D01*
Y2139520D02*
Y2159840D01*
X1407553Y2139520D02*
Y2200480D01*
X1331353Y2180160D02*
Y2200480D01*
Y2139520D02*
Y2159840D01*
X907553Y2139520D02*
Y2200480D01*
X831353Y2180160D02*
Y2200480D01*
Y2139520D02*
Y2159840D01*
X407553Y2139520D02*
Y2200480D01*
X331353Y2180160D02*
Y2200480D01*
Y2139520D02*
Y2159840D01*
X4086790Y2271100D02*
X4103300D01*
X4128700D02*
X4145210D01*
X4086790Y2448900D02*
X4103300D01*
X4128700D02*
X4145210D01*
X4086790Y2271100D02*
Y2448900D01*
X4145210Y2271100D02*
Y2448900D01*
X4116000Y2365080D02*
Y2410800D01*
Y2309200D02*
Y2353650D01*
X3586790Y2271100D02*
X3603300D01*
X3628700D02*
X3645210D01*
X3586790Y2448900D02*
X3603300D01*
X3628700D02*
X3645210D01*
X3586790Y2271100D02*
Y2448900D01*
X3645210Y2271100D02*
Y2448900D01*
X3616000Y2365080D02*
Y2410800D01*
Y2309200D02*
Y2353650D01*
X3086790Y2271100D02*
X3103300D01*
X3128700D02*
X3145210D01*
X3086790Y2448900D02*
X3103300D01*
X3128700D02*
X3145210D01*
X3086790Y2271100D02*
Y2448900D01*
X3145210Y2271100D02*
Y2448900D01*
X3116000Y2365080D02*
Y2410800D01*
Y2309200D02*
Y2353650D01*
X2586790Y2271100D02*
X2603300D01*
X2628700D02*
X2645210D01*
X2586790Y2448900D02*
X2603300D01*
X2628700D02*
X2645210D01*
X2586790Y2271100D02*
Y2448900D01*
X2645210Y2271100D02*
Y2448900D01*
X2616000Y2365080D02*
Y2410800D01*
Y2309200D02*
Y2353650D01*
X2086790Y2271100D02*
X2103300D01*
X2128700D02*
X2145210D01*
X2086790Y2448900D02*
X2103300D01*
X2128700D02*
X2145210D01*
X2086790Y2271100D02*
Y2448900D01*
X2145210Y2271100D02*
Y2448900D01*
X2116000Y2365080D02*
Y2410800D01*
Y2309200D02*
Y2353650D01*
X1586790Y2271100D02*
X1603300D01*
X1628700D02*
X1645210D01*
X1586790Y2448900D02*
X1603300D01*
X1628700D02*
X1645210D01*
X1586790Y2271100D02*
Y2448900D01*
X1645210Y2271100D02*
Y2448900D01*
X1616000Y2365080D02*
Y2410800D01*
Y2309200D02*
Y2353650D01*
X1086790Y2271100D02*
X1103300D01*
X1128700D02*
X1145210D01*
X1086790Y2448900D02*
X1103300D01*
X1128700D02*
X1145210D01*
X1086790Y2271100D02*
Y2448900D01*
X1145210Y2271100D02*
Y2448900D01*
X1116000Y2365080D02*
Y2410800D01*
Y2309200D02*
Y2353650D01*
X586790Y2271100D02*
X603300D01*
X628700D02*
X645210D01*
X586790Y2448900D02*
X603300D01*
X628700D02*
X645210D01*
X586790Y2271100D02*
Y2448900D01*
X645210Y2271100D02*
Y2448900D01*
X616000Y2365080D02*
Y2410800D01*
Y2309200D02*
Y2353650D01*
X3820790Y2271100D02*
X3837300D01*
X3862700D02*
X3879210D01*
X3820790Y2448900D02*
X3837300D01*
X3862700D02*
X3879210D01*
X3820790Y2271100D02*
Y2448900D01*
X3879210Y2271100D02*
Y2448900D01*
X3850000Y2365080D02*
Y2410800D01*
Y2309200D02*
Y2353650D01*
X3320790Y2271100D02*
X3337300D01*
X3362700D02*
X3379210D01*
X3320790Y2448900D02*
X3337300D01*
X3362700D02*
X3379210D01*
X3320790Y2271100D02*
Y2448900D01*
X3379210Y2271100D02*
Y2448900D01*
X3350000Y2365080D02*
Y2410800D01*
Y2309200D02*
Y2353650D01*
X2820790Y2271100D02*
X2837300D01*
X2862700D02*
X2879210D01*
X2820790Y2448900D02*
X2837300D01*
X2862700D02*
X2879210D01*
X2820790Y2271100D02*
Y2448900D01*
X2879210Y2271100D02*
Y2448900D01*
X2850000Y2365080D02*
Y2410800D01*
Y2309200D02*
Y2353650D01*
X2320790Y2271100D02*
X2337300D01*
X2362700D02*
X2379210D01*
X2320790Y2448900D02*
X2337300D01*
X2362700D02*
X2379210D01*
X2320790Y2271100D02*
Y2448900D01*
X2379210Y2271100D02*
Y2448900D01*
X2350000Y2365080D02*
Y2410800D01*
Y2309200D02*
Y2353650D01*
X1820790Y2271100D02*
X1837300D01*
X1862700D02*
X1879210D01*
X1820790Y2448900D02*
X1837300D01*
X1862700D02*
X1879210D01*
X1820790Y2271100D02*
Y2448900D01*
X1879210Y2271100D02*
Y2448900D01*
X1850000Y2365080D02*
Y2410800D01*
Y2309200D02*
Y2353650D01*
X1320790Y2271100D02*
X1337300D01*
X1362700D02*
X1379210D01*
X1320790Y2448900D02*
X1337300D01*
X1362700D02*
X1379210D01*
X1320790Y2271100D02*
Y2448900D01*
X1379210Y2271100D02*
Y2448900D01*
X1350000Y2365080D02*
Y2410800D01*
Y2309200D02*
Y2353650D01*
X820790Y2271100D02*
X837300D01*
X862700D02*
X879210D01*
X820790Y2448900D02*
X837300D01*
X862700D02*
X879210D01*
X820790Y2271100D02*
Y2448900D01*
X879210Y2271100D02*
Y2448900D01*
X850000Y2365080D02*
Y2410800D01*
Y2309200D02*
Y2353650D01*
X320790Y2271100D02*
X337300D01*
X362700D02*
X379210D01*
X320790Y2448900D02*
X337300D01*
X362700D02*
X379210D01*
X320790Y2271100D02*
Y2448900D01*
X379210Y2271100D02*
Y2448900D01*
X350000Y2365080D02*
Y2410800D01*
Y2309200D02*
Y2353650D01*
D15*
X669000Y1856750D02*
X671000D01*
X669000Y1863250D02*
X671000D01*
X1841250Y1763730D02*
Y1851731D01*
Y1763730D02*
X2044450D01*
Y1851731D01*
X1841250D02*
X2044450D01*
X1600100Y1974000D02*
Y1974250D01*
Y1974000D02*
X1600350D01*
X1527850D02*
X1528100D01*
Y1974250D01*
Y1901750D02*
Y1902000D01*
X1527850D02*
X1528100D01*
X773500Y1854500D02*
X775500D01*
X773500Y1861000D02*
X775500D01*
X773500Y1878000D02*
X775500D01*
X773500Y1871500D02*
X775500D01*
X1499000Y1909000D02*
Y1911000D01*
X1505500Y1909000D02*
Y1911000D01*
X1587500Y1862750D02*
X1589500D01*
X1587500Y1856250D02*
X1589500D01*
X886750Y1818266D02*
Y1820266D01*
X893250Y1818266D02*
Y1820266D01*
X466250Y1996000D02*
Y1998000D01*
X459750Y1996000D02*
Y1998000D01*
X488250Y1992250D02*
X490250D01*
X488250Y1985750D02*
X490250D01*
X826750Y1818266D02*
Y1820266D01*
X833250Y1818266D02*
Y1820266D01*
X431000Y1913500D02*
Y1925500D01*
X445000Y1913500D02*
Y1925500D01*
X421000Y1913500D02*
Y1925500D01*
X407000Y1913500D02*
Y1925500D01*
X3838500Y2095251D02*
Y2099250D01*
X3849500Y2095251D02*
Y2099250D01*
X3338500Y2095251D02*
Y2099250D01*
X3349500Y2095251D02*
Y2099250D01*
X2838500Y2095250D02*
Y2099250D01*
X2849500Y2095250D02*
Y2099250D01*
X2338500Y2095251D02*
Y2099251D01*
X2349500Y2095251D02*
Y2099251D01*
X1838500Y2095251D02*
Y2099251D01*
X1849500Y2095251D02*
Y2099251D01*
X1338500Y2095250D02*
Y2099250D01*
X1349500Y2095250D02*
Y2099250D01*
X838500Y2095251D02*
Y2099251D01*
X849500Y2095251D02*
Y2099251D01*
X338500Y2095250D02*
Y2099250D01*
X349500Y2095250D02*
Y2099250D01*
X2167450Y2081600D02*
X2255450D01*
X2167450Y1878400D02*
Y2081600D01*
Y1878400D02*
X2255450D01*
Y2081600D01*
X1672600Y1874766D02*
X1673600D01*
X1672600Y1882766D02*
X1673600D01*
X1672599Y1882765D02*
X1673599D01*
X1672599Y1874765D02*
X1673599D01*
X761050Y1960200D02*
Y1961200D01*
X772950Y1960200D02*
Y1961200D01*
X474750Y1978050D02*
X506750D01*
X474750Y1928050D02*
X506750D01*
X474750D02*
Y1978050D01*
X506750Y1928050D02*
Y1978050D01*
X1568250Y1851000D02*
Y1852000D01*
X1560750Y1851000D02*
Y1852000D01*
X1532500Y1844750D02*
X1533500D01*
X1532500Y1852250D02*
X1533500D01*
X1701500Y1847750D02*
X1702500D01*
X1701500Y1840250D02*
X1702500D01*
X1640100Y1868000D02*
Y1869000D01*
X1652100Y1868000D02*
Y1869000D01*
X1627850Y1870000D02*
Y1871000D01*
X1620350Y1870000D02*
Y1871000D01*
X1588500Y1847500D02*
X1589500D01*
X1588500Y1840000D02*
X1589500D01*
X786250Y1960150D02*
Y1961150D01*
X793750Y1960150D02*
Y1961150D01*
X806250Y1960150D02*
Y1961150D01*
X813750Y1960150D02*
Y1961150D01*
X826250Y1960150D02*
Y1961150D01*
X833750Y1960150D02*
Y1961150D01*
X856000Y1960149D02*
Y1961149D01*
X844000Y1960149D02*
Y1961149D01*
X410250Y1963500D02*
Y1964500D01*
X417750Y1963500D02*
Y1964500D01*
X429500Y1965500D02*
Y1976500D01*
X444500Y1965500D02*
Y1976500D01*
X681750Y1972750D02*
Y1973750D01*
X674250Y1972750D02*
Y1973750D01*
X534250Y1966750D02*
Y1967750D01*
X541750Y1966750D02*
Y1967750D01*
X375000Y1950000D02*
Y1960000D01*
X370000Y1955000D02*
X380000D01*
D16*
X4051200Y2683350D02*
Y3019900D01*
X4038500Y2628740D02*
X4051200D01*
X3873400Y3019900D02*
Y3068160D01*
Y3019900D02*
X3898800D01*
Y2628740D02*
X3911500D01*
Y2501740D02*
Y2628740D01*
Y2501740D02*
X4038500D01*
Y2628740D01*
X4051200Y3019900D02*
X4076600D01*
Y3068160D01*
X3873400D02*
X4076600D01*
X3898800Y2683350D02*
Y3019900D01*
X3551200Y2683350D02*
Y3019900D01*
X3538500Y2628740D02*
X3551200D01*
X3373400Y3019900D02*
Y3068160D01*
Y3019900D02*
X3398800D01*
Y2628740D02*
X3411500D01*
Y2501740D02*
Y2628740D01*
Y2501740D02*
X3538500D01*
Y2628740D01*
X3551200Y3019900D02*
X3576600D01*
Y3068160D01*
X3373400D02*
X3576600D01*
X3398800Y2683350D02*
Y3019900D01*
X3051200Y2683350D02*
Y3019900D01*
X3038500Y2628740D02*
X3051200D01*
X2873400Y3019900D02*
Y3068160D01*
Y3019900D02*
X2898800D01*
Y2628740D02*
X2911500D01*
Y2501740D02*
Y2628740D01*
Y2501740D02*
X3038500D01*
Y2628740D01*
X3051200Y3019900D02*
X3076600D01*
Y3068160D01*
X2873400D02*
X3076600D01*
X2898800Y2683350D02*
Y3019900D01*
X2551200Y2683350D02*
Y3019900D01*
X2538500Y2628740D02*
X2551200D01*
X2373400Y3019900D02*
Y3068160D01*
Y3019900D02*
X2398800D01*
Y2628740D02*
X2411500D01*
Y2501740D02*
Y2628740D01*
Y2501740D02*
X2538500D01*
Y2628740D01*
X2551200Y3019900D02*
X2576600D01*
Y3068160D01*
X2373400D02*
X2576600D01*
X2398800Y2683350D02*
Y3019900D01*
X2051200Y2683350D02*
Y3019900D01*
X2038500Y2628740D02*
X2051200D01*
X1873400Y3019900D02*
Y3068160D01*
Y3019900D02*
X1898800D01*
Y2628740D02*
X1911500D01*
Y2501740D02*
Y2628740D01*
Y2501740D02*
X2038500D01*
Y2628740D01*
X2051200Y3019900D02*
X2076600D01*
Y3068160D01*
X1873400D02*
X2076600D01*
X1898800Y2683350D02*
Y3019900D01*
X1551200Y2683350D02*
Y3019900D01*
X1538500Y2628740D02*
X1551200D01*
X1373400Y3019900D02*
Y3068160D01*
Y3019900D02*
X1398800D01*
Y2628740D02*
X1411500D01*
Y2501740D02*
Y2628740D01*
Y2501740D02*
X1538500D01*
Y2628740D01*
X1551200Y3019900D02*
X1576600D01*
Y3068160D01*
X1373400D02*
X1576600D01*
X1398800Y2683350D02*
Y3019900D01*
X1051200Y2683350D02*
Y3019900D01*
X1038500Y2628740D02*
X1051200D01*
X873400Y3019900D02*
Y3068160D01*
Y3019900D02*
X898800D01*
Y2628740D02*
X911500D01*
Y2501740D02*
Y2628740D01*
Y2501740D02*
X1038500D01*
Y2628740D01*
X1051200Y3019900D02*
X1076600D01*
Y3068160D01*
X873400D02*
X1076600D01*
X898800Y2683350D02*
Y3019900D01*
X551200Y2683350D02*
Y3019900D01*
X538500Y2628740D02*
X551200D01*
X373400Y3019900D02*
Y3068160D01*
Y3019900D02*
X398800D01*
Y2628740D02*
X411500D01*
Y2501740D02*
Y2628740D01*
Y2501740D02*
X538500D01*
Y2628740D01*
X551200Y3019900D02*
X576600D01*
Y3068160D01*
X373400D02*
X576600D01*
X398800Y2683350D02*
Y3019900D01*
D17*
X499142Y2742927D02*
Y2748005D01*
Y2745466D01*
X483907D01*
X486446Y2742927D01*
X499142Y2763240D02*
X483907D01*
X491524Y2755623D01*
Y2765779D01*
X499142Y2770858D02*
X496602D01*
Y2773397D01*
X499142D01*
Y2770858D01*
X486446Y2783553D02*
X483907Y2786093D01*
Y2791171D01*
X486446Y2793710D01*
X496602D01*
X499142Y2791171D01*
Y2786093D01*
X496602Y2783553D01*
X486446D01*
Y2798788D02*
X483907Y2801328D01*
Y2806406D01*
X486446Y2808945D01*
X496602D01*
X499142Y2806406D01*
Y2801328D01*
X496602Y2798788D01*
X486446D01*
X2179040Y1703554D02*
X2181579Y1706093D01*
X2186657D01*
X2189196Y1703554D01*
Y1701015D01*
X2186657Y1698476D01*
X2184118D01*
X2186657D01*
X2189196Y1695937D01*
Y1693398D01*
X2186657Y1690858D01*
X2181579D01*
X2179040Y1693398D01*
X2194275D02*
X2196814Y1690858D01*
X2201892D01*
X2204431Y1693398D01*
Y1703554D01*
X2201892Y1706093D01*
X2196814D01*
X2194275Y1703554D01*
Y1701015D01*
X2196814Y1698476D01*
X2204431D01*
X2219666Y1706093D02*
X2209510D01*
Y1698476D01*
X2214588Y1701015D01*
X2217127D01*
X2219666Y1698476D01*
Y1693398D01*
X2217127Y1690858D01*
X2212049D01*
X2209510Y1693398D01*
X2224745Y1690858D02*
Y1693398D01*
X2227284D01*
Y1690858D01*
X2224745D01*
X2237441Y1703554D02*
X2239980Y1706093D01*
X2245058D01*
X2247597Y1703554D01*
Y1693398D01*
X2245058Y1690858D01*
X2239980D01*
X2237441Y1693398D01*
Y1703554D01*
X2252676D02*
X2255215Y1706093D01*
X2260293D01*
X2262832Y1703554D01*
Y1693398D01*
X2260293Y1690858D01*
X2255215D01*
X2252676Y1693398D01*
Y1703554D01*
X4309142Y2321579D02*
Y2326657D01*
Y2324118D01*
X4293907D01*
X4296446Y2321579D01*
X4309142Y2334275D02*
Y2339353D01*
Y2336814D01*
X4293907D01*
X4296446Y2334275D01*
Y2346971D02*
X4293907Y2349510D01*
Y2354588D01*
X4296446Y2357127D01*
X4298985D01*
X4301524Y2354588D01*
Y2352049D01*
Y2354588D01*
X4304063Y2357127D01*
X4306602D01*
X4309142Y2354588D01*
Y2349510D01*
X4306602Y2346971D01*
X4309142Y2362206D02*
X4306602D01*
Y2364745D01*
X4309142D01*
Y2362206D01*
X4296446Y2374901D02*
X4293907Y2377441D01*
Y2382519D01*
X4296446Y2385058D01*
X4306602D01*
X4309142Y2382519D01*
Y2377441D01*
X4306602Y2374901D01*
X4296446D01*
Y2390137D02*
X4293907Y2392676D01*
Y2397754D01*
X4296446Y2400293D01*
X4306602D01*
X4309142Y2397754D01*
Y2392676D01*
X4306602Y2390137D01*
X4296446D01*
X4379142Y2320309D02*
Y2325388D01*
Y2322848D01*
X4363907D01*
X4366446Y2320309D01*
X4379142Y2343162D02*
Y2333005D01*
X4368985Y2343162D01*
X4366446D01*
X4363907Y2340623D01*
Y2335544D01*
X4366446Y2333005D01*
Y2348240D02*
X4363907Y2350779D01*
Y2355858D01*
X4366446Y2358397D01*
X4368985D01*
X4371524Y2355858D01*
Y2353318D01*
Y2355858D01*
X4374063Y2358397D01*
X4376602D01*
X4379142Y2355858D01*
Y2350779D01*
X4376602Y2348240D01*
X4379142Y2363475D02*
X4376602D01*
Y2366014D01*
X4379142D01*
Y2363475D01*
X4366446Y2376171D02*
X4363907Y2378710D01*
Y2383789D01*
X4366446Y2386328D01*
X4376602D01*
X4379142Y2383789D01*
Y2378710D01*
X4376602Y2376171D01*
X4366446D01*
Y2391406D02*
X4363907Y2393945D01*
Y2399024D01*
X4366446Y2401563D01*
X4376602D01*
X4379142Y2399024D01*
Y2393945D01*
X4376602Y2391406D01*
X4366446D01*
X2186657Y1640858D02*
Y1656093D01*
X2179040Y1648476D01*
X2189196D01*
X2194275Y1653554D02*
X2196814Y1656093D01*
X2201892D01*
X2204431Y1653554D01*
Y1643398D01*
X2201892Y1640858D01*
X2196814D01*
X2194275Y1643398D01*
Y1653554D01*
X2219666Y1656093D02*
X2209510D01*
Y1648476D01*
X2214588Y1651015D01*
X2217127D01*
X2219666Y1648476D01*
Y1643398D01*
X2217127Y1640858D01*
X2212049D01*
X2209510Y1643398D01*
X2224745Y1640858D02*
Y1643398D01*
X2227284D01*
Y1640858D01*
X2224745D01*
X2237441Y1653554D02*
X2239980Y1656093D01*
X2245058D01*
X2247597Y1653554D01*
Y1643398D01*
X2245058Y1640858D01*
X2239980D01*
X2237441Y1643398D01*
Y1653554D01*
X2252676D02*
X2255215Y1656093D01*
X2260293D01*
X2262832Y1653554D01*
Y1643398D01*
X2260293Y1640858D01*
X2255215D01*
X2252676Y1643398D01*
Y1653554D01*
D18*
X862264Y1834820D02*
D03*
X842376Y1834868D02*
D03*
D19*
X869947Y1837360D02*
D03*
X850059Y1837408D02*
D03*
D20*
X877529Y1834490D02*
D03*
X857641Y1834538D02*
D03*
D21*
X4115999Y2365080D02*
D03*
X4116000Y2354920D02*
D03*
X3615999Y2365080D02*
D03*
X3615999Y2354920D02*
D03*
X3116000Y2365080D02*
D03*
X3116000Y2354920D02*
D03*
X2615999Y2365080D02*
D03*
X2616000Y2354920D02*
D03*
X2115999Y2365080D02*
D03*
X2115999Y2354920D02*
D03*
X1615999Y2365080D02*
D03*
X1615999Y2354920D02*
D03*
X1116000Y2365080D02*
D03*
X1116000Y2354920D02*
D03*
X615999Y2365080D02*
D03*
X615999Y2354920D02*
D03*
X3849999Y2365080D02*
D03*
X3849999Y2354920D02*
D03*
X3350000Y2365080D02*
D03*
X3350000Y2354920D02*
D03*
X2849999Y2365080D02*
D03*
X2849999Y2354920D02*
D03*
X2349999Y2365080D02*
D03*
X2349999Y2354920D02*
D03*
X1850000Y2365080D02*
D03*
X1850000Y2354920D02*
D03*
X1350000Y2365080D02*
D03*
X1350000Y2354920D02*
D03*
X849999Y2365080D02*
D03*
X849999Y2354920D02*
D03*
X350000Y2365080D02*
D03*
X350000Y2354920D02*
D03*
M02*
