G04*
G04 #@! TF.GenerationSoftware,Altium Limited,Altium Designer,19.1.9 (167)*
G04*
G04 Layer_Physical_Order=1*
G04 Layer_Color=255*
%FSLAX44Y44*%
%MOMM*%
G71*
G01*
G75*
%ADD24R,1.0000X1.0000*%
%ADD58R,0.7000X0.8500*%
%ADD59R,0.4750X0.5750*%
G04:AMPARAMS|DCode=60|XSize=2.07mm|YSize=2.06mm|CornerRadius=0.515mm|HoleSize=0mm|Usage=FLASHONLY|Rotation=90.000|XOffset=0mm|YOffset=0mm|HoleType=Round|Shape=RoundedRectangle|*
%AMROUNDEDRECTD60*
21,1,2.0700,1.0300,0,0,90.0*
21,1,1.0400,2.0600,0,0,90.0*
1,1,1.0300,0.5150,0.5200*
1,1,1.0300,0.5150,-0.5200*
1,1,1.0300,-0.5150,-0.5200*
1,1,1.0300,-0.5150,0.5200*
%
%ADD60ROUNDEDRECTD60*%
%ADD61R,1.2000X0.5000*%
%ADD62R,0.5000X1.2000*%
%ADD63R,0.8500X0.7000*%
%ADD64R,1.6000X0.9500*%
%ADD65R,1.3000X0.8000*%
%ADD66R,0.7620X0.7620*%
G04:AMPARAMS|DCode=67|XSize=8mm|YSize=2.7mm|CornerRadius=0.675mm|HoleSize=0mm|Usage=FLASHONLY|Rotation=180.000|XOffset=0mm|YOffset=0mm|HoleType=Round|Shape=RoundedRectangle|*
%AMROUNDEDRECTD67*
21,1,8.0000,1.3500,0,0,180.0*
21,1,6.6500,2.7000,0,0,180.0*
1,1,1.3500,-3.3250,0.6750*
1,1,1.3500,3.3250,0.6750*
1,1,1.3500,3.3250,-0.6750*
1,1,1.3500,-3.3250,-0.6750*
%
%ADD67ROUNDEDRECTD67*%
%ADD68R,1.3900X1.0000*%
%ADD69O,1.5500X0.7000*%
%ADD70R,0.9500X0.8000*%
%ADD71R,0.8000X0.9500*%
%ADD72R,1.4000X1.0000*%
%ADD73R,1.7000X1.0500*%
%ADD74C,0.5000*%
%ADD75C,1.5000*%
%ADD76C,0.3810*%
%ADD77C,0.3000*%
%ADD78C,1.0000*%
%ADD79C,0.4000*%
%ADD80C,3.5001*%
%ADD81C,1.5500*%
%ADD82R,1.5500X1.5500*%
%ADD83P,5.3240X8X292.5*%
%ADD84P,3.9930X8X292.5*%
%ADD85P,3.9930X8X202.5*%
%ADD86C,2.5000*%
%ADD87P,2.6620X8X22.5*%
%ADD88P,2.0231X8X292.5*%
%ADD89P,2.2893X8X112.5*%
%ADD90C,1.5240*%
%ADD91R,1.5500X1.5500*%
%ADD92P,3.5741X8X292.5*%
%ADD93C,3.8100*%
%ADD94C,2.5400*%
%ADD95O,1.2700X2.5400*%
%ADD96C,1.1000*%
%ADD97R,1.1000X1.1000*%
%ADD98P,2.6620X8X292.5*%
%ADD99C,0.7000*%
G36*
X3890000Y2940000D02*
Y2900000D01*
X3870092Y2880092D01*
X3590000Y2880092D01*
X3588824Y2880000D01*
X3111179D01*
X3110001Y2880093D01*
X3110000Y2880093D01*
X3110000D01*
X2090000Y2880093D01*
X2088822Y2880000D01*
X1611179D01*
X1610000Y2880093D01*
X1610000Y2880093D01*
X1610000D01*
X590000Y2880093D01*
X590000Y2880093D01*
X588821Y2880000D01*
X330000D01*
X310000Y2900000D01*
Y2940000D01*
X330000Y2960000D01*
X3870000D01*
X3890000Y2940000D01*
D02*
G37*
G36*
X4140000Y2820000D02*
X4140000Y2740000D01*
X4110086Y2710086D01*
X4110000Y2710093D01*
X4110000Y2710093D01*
X3890000D01*
X3888822Y2710000D01*
X3611178Y2710000D01*
X3610000Y2710093D01*
X3610000Y2710093D01*
X3589908D01*
X3560000Y2740000D01*
X3560000Y2820000D01*
X3590000Y2850000D01*
X4110000Y2850000D01*
X4140000Y2820000D01*
D02*
G37*
G36*
X3110000Y2850000D02*
X3140000Y2820000D01*
X3140000Y2740000D01*
X3110086Y2710086D01*
X3110000Y2710093D01*
X3110000Y2710093D01*
X2890000D01*
X2888821Y2710000D01*
X2611180D01*
X2610000Y2710093D01*
X2610000Y2710093D01*
X2390000D01*
X2388821Y2710000D01*
X2111180D01*
X2110000Y2710093D01*
X2110000Y2710093D01*
X2089907D01*
X2060000Y2740000D01*
X2060000Y2820000D01*
X2090000Y2850000D01*
X3110000Y2850000D01*
D02*
G37*
G36*
X1610000Y2850000D02*
X1640000Y2820000D01*
X1640000Y2740000D01*
X1610000Y2710000D01*
X590000Y2710000D01*
X560000Y2740000D01*
X560000Y2820000D01*
X590000Y2850000D01*
X1610000Y2850000D01*
D02*
G37*
G36*
X4130000Y2660000D02*
Y2590000D01*
X4110000Y2570000D01*
X4090000D01*
X4050000Y2580000D01*
X4033410Y2584147D01*
X4021279Y2596279D01*
X4017688Y2599346D01*
X4013662Y2601813D01*
X4009299Y2603620D01*
X4004708Y2604722D01*
X4000000Y2605093D01*
X4000000Y2605093D01*
X3950000D01*
X3950000Y2605093D01*
X3949718Y2605070D01*
X3890000Y2620000D01*
X3870000Y2640000D01*
X3870000Y2660000D01*
X3890000Y2680000D01*
X4110000D01*
X4130000Y2660000D01*
D02*
G37*
G36*
X3630000D02*
Y2590000D01*
X3610000Y2570000D01*
X3590000D01*
X3550000Y2580000D01*
X3533410Y2584147D01*
X3521279Y2596279D01*
X3517688Y2599346D01*
X3513662Y2601813D01*
X3509299Y2603620D01*
X3504708Y2604722D01*
X3500000Y2605093D01*
X3500000Y2605093D01*
X3450000D01*
X3450000Y2605093D01*
X3449718Y2605070D01*
X3390000Y2620000D01*
X3370000Y2640000D01*
X3370000Y2660000D01*
X3390000Y2680000D01*
X3610000D01*
X3630000Y2660000D01*
D02*
G37*
G36*
X3130000D02*
Y2590000D01*
X3110000Y2570000D01*
X3090000D01*
X3050000Y2580000D01*
X3033410Y2584147D01*
X3021279Y2596279D01*
X3017688Y2599346D01*
X3013662Y2601813D01*
X3009299Y2603620D01*
X3004708Y2604722D01*
X3000000Y2605093D01*
X3000000Y2605093D01*
X2950000D01*
X2950000Y2605093D01*
X2949718Y2605070D01*
X2890000Y2620000D01*
X2870000Y2640000D01*
X2870000Y2660000D01*
X2890000Y2680000D01*
X3110000D01*
X3130000Y2660000D01*
D02*
G37*
G36*
X2630000D02*
Y2590000D01*
X2610000Y2570000D01*
X2590000D01*
X2550000Y2580000D01*
X2533410Y2584147D01*
X2521279Y2596279D01*
X2517688Y2599346D01*
X2513662Y2601813D01*
X2509299Y2603620D01*
X2504707Y2604722D01*
X2500000Y2605093D01*
X2500000Y2605093D01*
X2450000D01*
X2450000Y2605093D01*
X2449718Y2605070D01*
X2390000Y2620000D01*
X2370000Y2640000D01*
X2370000Y2660000D01*
X2390000Y2680000D01*
X2610000D01*
X2630000Y2660000D01*
D02*
G37*
G36*
X2130000D02*
Y2590000D01*
X2110000Y2570000D01*
X2090000D01*
X2050000Y2580000D01*
X2033410Y2584147D01*
X2021279Y2596279D01*
X2017688Y2599346D01*
X2013662Y2601813D01*
X2009299Y2603620D01*
X2004707Y2604722D01*
X2000000Y2605093D01*
X2000000Y2605093D01*
X1950000D01*
X1950000Y2605093D01*
X1949718Y2605070D01*
X1890000Y2620000D01*
X1870000Y2640000D01*
X1870000Y2660000D01*
X1890000Y2680000D01*
X2110000D01*
X2130000Y2660000D01*
D02*
G37*
G36*
X1630000D02*
Y2590000D01*
X1610000Y2570000D01*
X1590000D01*
X1550000Y2580000D01*
X1533410Y2584147D01*
X1521279Y2596279D01*
X1517688Y2599346D01*
X1513662Y2601813D01*
X1509299Y2603620D01*
X1504707Y2604722D01*
X1500000Y2605093D01*
X1500000Y2605093D01*
X1450000D01*
X1450000Y2605093D01*
X1449718Y2605070D01*
X1390000Y2620000D01*
X1370000Y2640000D01*
X1370000Y2660000D01*
X1389907Y2679907D01*
X1610000Y2679907D01*
X1610086Y2679914D01*
X1630000Y2660000D01*
D02*
G37*
G36*
X1130000D02*
Y2590000D01*
X1110000Y2570000D01*
X1090000D01*
X1050000Y2580000D01*
X1033410Y2584147D01*
X1021279Y2596279D01*
X1017688Y2599346D01*
X1013662Y2601813D01*
X1009299Y2603620D01*
X1004707Y2604722D01*
X1000000Y2605093D01*
X1000000Y2605093D01*
X950000D01*
X950000Y2605093D01*
X949718Y2605070D01*
X890000Y2620000D01*
X870000Y2640000D01*
X870000Y2660000D01*
X889907Y2679907D01*
X1110093Y2679907D01*
X1130000Y2660000D01*
D02*
G37*
G36*
X590000Y2679907D02*
X590000Y2679907D01*
X610093D01*
X630000Y2660000D01*
Y2590000D01*
X610000Y2570000D01*
X590000D01*
X550000Y2580000D01*
X533410Y2584147D01*
X521279Y2596279D01*
X517688Y2599346D01*
X513662Y2601813D01*
X509299Y2603620D01*
X504707Y2604722D01*
X500000Y2605093D01*
X500000Y2605093D01*
X450000D01*
X450000Y2605093D01*
X449718Y2605070D01*
X390000Y2620000D01*
X370000Y2640000D01*
X370000Y2660000D01*
X390000Y2680000D01*
X588821D01*
X590000Y2679907D01*
D02*
G37*
G36*
X4067500Y2507500D02*
Y2425000D01*
X4057500Y2415000D01*
X3895000Y2415000D01*
X3892297Y2417703D01*
Y2457348D01*
X3885000Y2464645D01*
X3885000Y2510000D01*
X3950000Y2575000D01*
X4000000D01*
X4067500Y2507500D01*
D02*
G37*
G36*
X3567500D02*
Y2425000D01*
X3557500Y2415000D01*
X3395000Y2415000D01*
X3392297Y2417703D01*
Y2457348D01*
X3385000Y2464645D01*
X3385000Y2510000D01*
X3450000Y2575000D01*
X3500000D01*
X3567500Y2507500D01*
D02*
G37*
G36*
X3067500D02*
Y2425000D01*
X3057500Y2415000D01*
X2895000Y2415000D01*
X2892297Y2417703D01*
Y2457348D01*
X2885000Y2464645D01*
X2885000Y2510000D01*
X2950000Y2575000D01*
X3000000D01*
X3067500Y2507500D01*
D02*
G37*
G36*
X2567500D02*
Y2425000D01*
X2557500Y2415000D01*
X2395000Y2415000D01*
X2392297Y2417703D01*
Y2457348D01*
X2385000Y2464645D01*
X2385000Y2510000D01*
X2450000Y2575000D01*
X2500000D01*
X2567500Y2507500D01*
D02*
G37*
G36*
X2067500D02*
Y2425000D01*
X2057500Y2415000D01*
X1895000Y2415000D01*
X1892297Y2417703D01*
Y2457348D01*
X1885000Y2464645D01*
X1885000Y2510000D01*
X1950000Y2575000D01*
X2000000D01*
X2067500Y2507500D01*
D02*
G37*
G36*
X1567500D02*
Y2425000D01*
X1557500Y2415000D01*
X1395000Y2415000D01*
X1392297Y2417703D01*
Y2457348D01*
X1385000Y2464645D01*
X1385000Y2510000D01*
X1450000Y2575000D01*
X1500000D01*
X1567500Y2507500D01*
D02*
G37*
G36*
X1067500D02*
Y2425000D01*
X1057500Y2415000D01*
X895000Y2415000D01*
X892297Y2417703D01*
Y2457348D01*
X885000Y2464645D01*
X885000Y2510000D01*
X950000Y2575000D01*
X1000000D01*
X1067500Y2507500D01*
D02*
G37*
G36*
X567500D02*
Y2425000D01*
X557500Y2415000D01*
X395000Y2415000D01*
X392297Y2417703D01*
Y2457348D01*
X385000Y2464645D01*
X385000Y2510000D01*
X450000Y2575000D01*
X500000D01*
X567500Y2507500D01*
D02*
G37*
D24*
X870000Y1811500D02*
D03*
Y1828500D02*
D03*
X850000Y1811500D02*
D03*
Y1828500D02*
D03*
D58*
X678250Y1860000D02*
D03*
X661750D02*
D03*
X782750Y1857750D02*
D03*
X766250D02*
D03*
X766250Y1874750D02*
D03*
X782750D02*
D03*
X1580250Y1859500D02*
D03*
X1596750D02*
D03*
X481000Y1989000D02*
D03*
X497500D02*
D03*
D59*
X1542101Y1874650D02*
D03*
X1552101D02*
D03*
Y1861150D02*
D03*
X1542101D02*
D03*
D60*
X566000Y1974250D02*
D03*
Y1935000D02*
D03*
D61*
X1521600Y1910000D02*
D03*
Y1918000D02*
D03*
Y1926000D02*
D03*
Y1934000D02*
D03*
Y1942000D02*
D03*
Y1950000D02*
D03*
Y1958000D02*
D03*
Y1966000D02*
D03*
X1606600D02*
D03*
Y1958000D02*
D03*
Y1950000D02*
D03*
Y1942000D02*
D03*
Y1934000D02*
D03*
Y1926000D02*
D03*
Y1918000D02*
D03*
Y1910000D02*
D03*
D62*
X1536100Y1980500D02*
D03*
X1544100D02*
D03*
X1552100D02*
D03*
X1560100D02*
D03*
X1568100D02*
D03*
X1576100D02*
D03*
X1584100D02*
D03*
X1592100D02*
D03*
Y1895500D02*
D03*
X1584100D02*
D03*
X1576100D02*
D03*
X1568100D02*
D03*
X1560100D02*
D03*
X1552100D02*
D03*
X1544100D02*
D03*
X1536100D02*
D03*
D63*
X1502250Y1901750D02*
D03*
Y1918250D02*
D03*
X890000Y1811016D02*
D03*
Y1827516D02*
D03*
X463000Y2005250D02*
D03*
Y1988750D02*
D03*
X830000Y1811016D02*
D03*
Y1827516D02*
D03*
D64*
X438000Y1905000D02*
D03*
Y1934000D02*
D03*
X414000D02*
D03*
Y1905000D02*
D03*
D65*
X3844000Y2087500D02*
D03*
Y2107001D02*
D03*
X3344000Y2087500D02*
D03*
Y2107000D02*
D03*
X2844000Y2087500D02*
D03*
Y2107000D02*
D03*
X2344000Y2087501D02*
D03*
Y2107001D02*
D03*
X1844000Y2087501D02*
D03*
Y2107001D02*
D03*
X1344000Y2087500D02*
D03*
Y2107000D02*
D03*
X844000Y2087501D02*
D03*
Y2107001D02*
D03*
X344000Y2087500D02*
D03*
Y2107000D02*
D03*
D66*
X1666115Y1878766D02*
D03*
X1680085D02*
D03*
D67*
X627000Y1975000D02*
D03*
Y1923000D02*
D03*
D68*
X767000Y1951400D02*
D03*
Y1970000D02*
D03*
D69*
X463000Y1972100D02*
D03*
Y1959400D02*
D03*
Y1946700D02*
D03*
Y1934000D02*
D03*
X518500Y1972100D02*
D03*
Y1959400D02*
D03*
Y1946700D02*
D03*
Y1934000D02*
D03*
D70*
X1564500Y1859750D02*
D03*
Y1843250D02*
D03*
X1624100Y1878750D02*
D03*
Y1862250D02*
D03*
X790000Y1952400D02*
D03*
Y1968900D02*
D03*
X810000Y1952400D02*
D03*
Y1968900D02*
D03*
X830000Y1952400D02*
D03*
Y1968900D02*
D03*
X414000Y1955750D02*
D03*
Y1972250D02*
D03*
X678000Y1981500D02*
D03*
Y1965000D02*
D03*
X538000Y1959000D02*
D03*
Y1975500D02*
D03*
D71*
X1541250Y1848500D02*
D03*
X1524750D02*
D03*
X1693750Y1844000D02*
D03*
X1710250D02*
D03*
X1580750Y1843750D02*
D03*
X1597250D02*
D03*
D72*
X1646100Y1859250D02*
D03*
Y1877750D02*
D03*
X850000Y1969899D02*
D03*
Y1951399D02*
D03*
D73*
X437000Y1956500D02*
D03*
Y1985500D02*
D03*
D74*
X390003Y2105000D02*
X575997D01*
X369453Y2125550D02*
X390003Y2105000D01*
X575997D02*
X596547Y2125550D01*
X1096546D02*
X1149108Y2072988D01*
X1525811D01*
X1606600Y1992199D01*
X661750Y1859250D02*
Y1860000D01*
X609000Y1806500D02*
X661750Y1859250D01*
X609000Y1804500D02*
Y1806500D01*
X680000Y1861750D02*
X693000Y1874750D01*
X679250Y1861750D02*
X680000D01*
X678250Y1860750D02*
X679250Y1861750D01*
X678250Y1860000D02*
Y1860750D01*
X693000Y1874750D02*
X720750D01*
X1072000Y2065000D02*
Y2131046D01*
X1071146Y2131900D02*
X1072000Y2131046D01*
X1527000Y1892000D02*
X1536100D01*
X790000Y1952400D02*
X830000D01*
X1129040Y1852250D02*
X1456392D01*
X1743800Y1878300D02*
Y1936000D01*
X1710250Y1844750D02*
X1743800Y1878300D01*
X1710250Y1844000D02*
Y1844750D01*
X1698000Y1831000D02*
X1710250Y1843250D01*
Y1844000D01*
X1610000Y1862000D02*
X1624350D01*
X790000Y1968900D02*
X830000D01*
X1610125Y1831000D02*
X1698000D01*
X1606600Y1958000D02*
X1616600D01*
Y1996341D01*
X1525441Y2087500D02*
X1616600Y1996341D01*
X1344000Y2087500D02*
X1525441D01*
X1552100Y1990350D02*
X1552172Y1990422D01*
X1544000Y1970500D02*
X1544100Y1970600D01*
X1536000Y1990250D02*
X1536100Y1990150D01*
X1560100Y1970650D02*
X1560250Y1970500D01*
X1491000Y1868000D02*
X1510500Y1848500D01*
X1491000Y1868000D02*
Y1872000D01*
X1490500Y1901000D02*
X1499500D01*
X1496142Y1892000D02*
X1527000D01*
X1456392Y1852250D02*
X1496142Y1892000D01*
X1488250Y1918250D02*
X1502250D01*
X1447650Y1877650D02*
X1488250Y1918250D01*
X1437250Y1877650D02*
X1447650D01*
X1454200Y1920000D02*
X1470000D01*
X1437250Y1903050D02*
X1454200Y1920000D01*
X2224150Y1954600D02*
X2245000Y1975450D01*
Y2040000D01*
X2204610Y2080390D02*
X2245000Y2040000D01*
X2141707Y2080390D02*
X2204610D01*
X2096547Y2125550D02*
X2141707Y2080390D01*
X2096547Y2125550D02*
Y2131900D01*
X2224150Y1929200D02*
Y1954600D01*
X1096546Y2125550D02*
Y2131900D01*
X1606600Y1966000D02*
Y1992199D01*
X785500Y1855000D02*
X800000D01*
X784500Y1856000D02*
X785500Y1855000D01*
X783750Y1856000D02*
X784500D01*
X782750Y1857000D02*
X783750Y1856000D01*
X782750Y1857000D02*
Y1857750D01*
X790000Y1882750D02*
X815250Y1857500D01*
X850000Y1828500D02*
X870000D01*
Y1951899D01*
X852000Y1969899D02*
X870000Y1951899D01*
X850000Y1969899D02*
X852000D01*
X849500Y1969400D02*
X850000Y1969899D01*
X830500Y1969400D02*
X849500D01*
X830000Y1968900D02*
X830500Y1969400D01*
X790000Y1968900D02*
Y1985000D01*
X720750Y1899750D02*
X720875Y1899875D01*
Y1943875D01*
X721000Y1944000D01*
X678750Y1965000D02*
X699750Y1944000D01*
X678000Y1965000D02*
X678750D01*
X699750Y1944000D02*
X721000D01*
X596547Y2125550D02*
Y2131900D01*
X369453Y2125550D02*
Y2131900D01*
X475250Y2005000D02*
X475500Y2004750D01*
X463250Y2005000D02*
X475250D01*
X463000Y2005250D02*
X463250Y2005000D01*
X462000Y2004250D02*
X463000Y2005250D01*
X459000Y2004250D02*
X462000D01*
X440250Y1985500D02*
X459000Y2004250D01*
X437000Y1985500D02*
X440250D01*
X434250Y1982750D02*
X437000Y1985500D01*
X425250Y1982750D02*
X434250D01*
X414750Y1972250D02*
X425250Y1982750D01*
X414000Y1972250D02*
X414750D01*
X1529000Y1833000D02*
X1553500D01*
X1563750Y1843250D01*
X1564500D01*
X1525750Y1836250D02*
X1529000Y1833000D01*
X1525750Y1836250D02*
Y1847500D01*
X1524750Y1848500D02*
X1525750Y1847500D01*
X1541975Y1849225D02*
Y1861025D01*
X1538100Y1861150D02*
X1542100D01*
X1532500Y1866750D02*
X1538100Y1861150D01*
X1541250Y1848500D02*
X1541975Y1849225D01*
Y1861025D02*
X1542100Y1861150D01*
X1560100Y1880150D02*
X1580500Y1859750D01*
X1580750Y1833750D02*
Y1843750D01*
X1571000Y1824000D02*
X1580750Y1833750D01*
X1476000Y1824000D02*
X1571000D01*
X1457250Y1842750D02*
X1476000Y1824000D01*
X1510500Y1848500D02*
X1524750D01*
X1527000Y1883000D02*
Y1892000D01*
X1609250Y1831000D02*
X1610125D01*
X1597250Y1843000D02*
X1609250Y1831000D01*
X1597250Y1843000D02*
Y1843750D01*
X1624350Y1862000D02*
X1625600Y1860750D01*
X1624100Y1862250D02*
X1624350Y1862000D01*
X1570383Y2060383D02*
X1580000Y2050765D01*
X1570383Y2060383D02*
Y2131136D01*
X1571147Y2131900D01*
X2890003Y2105000D02*
X3075997D01*
X3096547Y2125550D01*
Y2131900D01*
X2869453Y2125550D02*
X2890003Y2105000D01*
X2869453Y2125550D02*
Y2131900D01*
X3390003Y2105000D02*
X3575997D01*
X3596547Y2125550D01*
Y2131900D01*
X3369453Y2125550D02*
X3390003Y2105000D01*
X3369453Y2125550D02*
Y2131900D01*
X4073372Y2105000D02*
X4096547Y2128175D01*
X3890003Y2105000D02*
X4073372D01*
X3869453Y2125550D02*
X3890003Y2105000D01*
X2465936Y1914750D02*
X3168750D01*
X2406000Y1854814D02*
X2465936Y1914750D01*
X2132000Y1854814D02*
X2406000D01*
X2014814Y1972000D02*
X2132000Y1854814D01*
X1680941Y1972000D02*
X2014814D01*
X2469250Y1906750D02*
X3660750D01*
X2409314Y1846814D02*
X2469250Y1906750D01*
X2128686Y1846814D02*
X2409314D01*
X2011500Y1964000D02*
X2128686Y1846814D01*
X1684255Y1964000D02*
X2011500D01*
X1906300Y1834681D02*
X3733719D01*
X1844000Y2077000D02*
Y2087500D01*
X2071147Y2082203D02*
Y2131900D01*
X2299250Y1877500D02*
X2316747D01*
X2563323Y2124077D01*
X2567590D01*
X2571147Y2127634D01*
Y2131900D01*
X2071147Y2082203D02*
X2198750Y1954600D01*
X2261564Y1870814D02*
X2344000Y1953250D01*
X2139471Y1870814D02*
X2261564D01*
X2022284Y1988000D02*
X2139471Y1870814D01*
X2344000Y1953250D02*
Y2087500D01*
X1674314Y1988000D02*
X2022284D01*
X2676750Y1922750D02*
X2841500Y2087500D01*
X2462623Y1922750D02*
X2676750D01*
X2402686Y1862814D02*
X2462623Y1922750D01*
X2136157Y1862814D02*
X2402686D01*
X2018970Y1980000D02*
X2136157Y1862814D01*
X1677627Y1980000D02*
X2018970D01*
X3168750Y1914750D02*
X3341500Y2087500D01*
X3660750Y1906750D02*
X3841500Y2087500D01*
X1892050Y1820431D02*
X1906300Y1834681D01*
X3733719D02*
X3791600Y1776801D01*
X3553000Y1818000D02*
X3588400Y1782600D01*
X2326500Y1818000D02*
X3553000D01*
X2303531Y1795031D02*
X2326500Y1818000D01*
X2764000Y1799000D02*
X2783200Y1779800D01*
X2335908Y1799000D02*
X2764000D01*
X2311908Y1775000D02*
X2335908Y1799000D01*
X2783200Y1776801D02*
Y1779800D01*
X3588400Y1776801D02*
Y1782600D01*
X1993650Y1795031D02*
X2303531D01*
X1988281Y1775000D02*
X2311908D01*
X1968250Y1795031D02*
X1988281Y1775000D01*
X2562449Y1759250D02*
X2580000Y1776801D01*
X1978631Y1759250D02*
X2562449D01*
X1942850Y1795031D02*
X1978631Y1759250D01*
X1899220Y1776801D02*
X1917450Y1795031D01*
X1281600Y1776801D02*
X1899220D01*
X1890616Y1793597D02*
X1892050Y1795031D01*
X1194746Y1793597D02*
X1890616D01*
X1177950Y1776801D02*
X1194746Y1793597D01*
X1078400Y1776801D02*
X1177950D01*
X1059540Y1782750D02*
X1129040Y1852250D01*
X829000Y1782750D02*
X1059540D01*
X815250Y1796500D02*
X829000Y1782750D01*
X642000Y2017000D02*
X1559172D01*
X899000Y2025000D02*
X1562485D01*
X815250Y1796500D02*
Y1857500D01*
X830000Y1842750D01*
Y1827516D02*
Y1842750D01*
X830000Y1827516D02*
X830000Y1827516D01*
X782750Y1875500D02*
X790000Y1882750D01*
Y1952400D01*
X720750Y1874750D02*
X766250D01*
X720750Y1874750D02*
X720750Y1874750D01*
X766250Y1857750D02*
Y1874750D01*
X766250Y1857750D02*
X766250Y1857750D01*
X766250Y1834750D02*
Y1857750D01*
X736000Y1804500D02*
X766250Y1834750D01*
X1552100Y1980500D02*
Y1990350D01*
X1576000Y1905750D02*
X1576100Y1905650D01*
Y1895500D02*
Y1905650D01*
X1654500Y1913750D02*
X1663870Y1923120D01*
X1650750Y1910000D02*
X1654500Y1913750D01*
X1663870Y1923120D02*
X1706280D01*
X1606600Y1910000D02*
X1650750D01*
X1412250Y1903050D02*
X1437250D01*
X1412250Y1953250D02*
X1437250Y1928250D01*
X1412250Y1953250D02*
Y1953650D01*
X1502250Y1901750D02*
X1509850D01*
X1518100Y1910000D01*
X1536100Y1892000D02*
Y1895500D01*
Y1980500D02*
Y1990150D01*
X1544100Y1970600D02*
Y1980500D01*
X1560100Y1970650D02*
Y1980500D01*
X1457600Y2009000D02*
X1508600Y1958000D01*
X1071484Y2009000D02*
X1457600D01*
X892750Y1830266D02*
X1071484Y2009000D01*
X870484Y1811016D02*
X890000D01*
X830000D02*
X849516D01*
X1552975Y1854025D02*
X1563750Y1843250D01*
X1552975Y1854025D02*
Y1860275D01*
X1644600Y1860750D02*
X1646100Y1859250D01*
X1625600Y1860750D02*
X1644600D01*
X1572814Y1878750D02*
X1624100D01*
X1568100Y1883463D02*
X1572814Y1878750D01*
X1568100Y1883463D02*
Y1895500D01*
X1580500Y1844000D02*
X1580750Y1843750D01*
X1580500Y1844000D02*
Y1859250D01*
X1580250Y1859500D02*
X1580500Y1859250D01*
X1565000Y1860250D02*
Y1861650D01*
X1564500Y1859750D02*
X1565000Y1860250D01*
X1552100Y1874549D02*
X1565000Y1861650D01*
X1552100Y1874549D02*
Y1874650D01*
X1560100Y1880150D02*
Y1895500D01*
X1532500Y1866750D02*
Y1877000D01*
X1544100Y1888600D02*
Y1895500D01*
X1532500Y1877000D02*
X1544100Y1888600D01*
X1552100Y1874650D02*
Y1895500D01*
X1502500Y1918000D02*
X1521600D01*
X1502250Y1918250D02*
X1502500Y1918000D01*
X1559172Y2017000D02*
X1576100Y2000071D01*
X1562485Y2025000D02*
X1584100Y2003385D01*
X1645600Y1878250D02*
X1646100Y1877750D01*
X1624600Y1878250D02*
X1645600D01*
X1624100Y1878750D02*
X1624600Y1878250D01*
X1646100Y1877750D02*
X1646608Y1878258D01*
X1665607D01*
X1666115Y1878766D01*
X1677500Y1895500D02*
X1693000Y1911000D01*
X1592100Y1895500D02*
X1677500D01*
X1706280Y1923120D02*
X1718400Y1911000D01*
X1638255Y1918000D02*
X1684255Y1964000D01*
X1606600Y1918000D02*
X1638255D01*
X3841500Y2087500D02*
X3844000D01*
X1763000Y1996000D02*
X1844000Y2077000D01*
X1671000Y1996000D02*
X1763000D01*
X1634941Y1926000D02*
X1680941Y1972000D01*
X1631627Y1934000D02*
X1677627Y1980000D01*
X1628314Y1942000D02*
X1674314Y1988000D01*
X1606600Y1926000D02*
X1634941D01*
X1606600Y1934000D02*
X1631627D01*
X1606600Y1942000D02*
X1628314D01*
X844000Y2080000D02*
X899000Y2025000D01*
X844000Y2080000D02*
Y2087500D01*
X571500D02*
X642000Y2017000D01*
X344000Y2087500D02*
X571500D01*
X1576100Y1980500D02*
Y2000071D01*
X3341500Y2087500D02*
X3344000D01*
X1625000Y1950000D02*
X1671000Y1996000D01*
X2841500Y2087500D02*
X2844000D01*
X1606600Y1950000D02*
X1625000D01*
X1584100Y1980500D02*
Y2003385D01*
X830500Y1951900D02*
X849500D01*
X767500D02*
X789500D01*
X721500Y1969500D02*
X766500D01*
X708500Y1981500D02*
X721000Y1969000D01*
X678000Y1981500D02*
X708500D01*
X632673Y1980673D02*
X677172D01*
X567706Y1935000D02*
X579706Y1923000D01*
X627000D01*
X583878Y1989000D02*
X597878Y1975000D01*
X497500Y1989000D02*
X583878D01*
X480875Y1988875D02*
X481000Y1989000D01*
X463125Y1988875D02*
X480875D01*
X463000Y1988750D02*
X463125Y1988875D01*
X552594Y1946700D02*
X564294Y1935000D01*
X518500Y1946700D02*
X552594D01*
X518700Y1959200D02*
X537800D01*
X414000Y1905000D02*
X438000D01*
Y1934000D02*
X463000D01*
X518500D01*
X463000Y1972100D02*
Y1988750D01*
Y1934000D02*
Y1946700D01*
X1508600Y1958000D02*
X1521600D01*
X344053Y2107053D02*
Y2131900D01*
D75*
X291000Y2466000D02*
X330000Y2505000D01*
X291000Y2439637D02*
Y2466000D01*
X330000Y2505000D02*
Y2880000D01*
X337500Y2887500D01*
X3672434Y2438071D02*
X3674000Y2439637D01*
X3674000Y2439637D02*
X3674001Y2439637D01*
X3672434Y2441203D02*
X3674000Y2439637D01*
X3670000Y2750000D02*
X3672434Y2747566D01*
Y2441203D02*
Y2747566D01*
X2672434Y2438071D02*
X2674500Y2440137D01*
Y2779500D01*
X2675000Y2780000D01*
X3290000Y2900000D02*
X3291000Y2899000D01*
Y2439637D02*
Y2899000D01*
X4130000Y2730000D02*
X4174000Y2686000D01*
Y2439637D02*
Y2686000D01*
X3174001Y2439637D02*
Y2685999D01*
X3130000Y2730000D02*
X3174001Y2685999D01*
X1791000Y2901000D02*
X1800000Y2910000D01*
X1791000Y2439637D02*
Y2901000D01*
X2170000Y2720000D02*
X2174000Y2715999D01*
Y2439637D02*
Y2715999D01*
X1630000Y2730000D02*
X1674000Y2686000D01*
Y2439637D02*
Y2686000D01*
X1174000Y2439637D02*
X1175000Y2780000D01*
X674000Y2439637D02*
X680000Y2740000D01*
X2116000Y2436200D02*
X2117871Y2438071D01*
X2172434D01*
X2174000Y2439637D01*
X1840000Y2360000D02*
X2120000D01*
X1791000Y2409000D02*
X1840000Y2360000D01*
X1791000Y2409000D02*
Y2439637D01*
X1792567Y2438071D02*
X1848129D01*
X1791000Y2439637D02*
X1792567Y2438071D01*
X2120000Y2360000D02*
X2150000Y2390000D01*
X2200000D01*
X2249637Y2439637D01*
X1848129Y2438071D02*
X1850000Y2436200D01*
X3694206Y2392792D02*
X3741052Y2439637D01*
X3662792Y2392792D02*
X3694206D01*
X3630000Y2360000D02*
X3662792Y2392792D01*
X3370638Y2360000D02*
X3630000D01*
X3292567Y2438071D02*
X3370638Y2360000D01*
X3741052Y2439637D02*
X3791000D01*
X2700000Y2390000D02*
X2749637Y2439637D01*
X2650000Y2390000D02*
X2700000D01*
X2620000Y2360000D02*
X2650000Y2390000D01*
X2380000Y2360000D02*
X2620000D01*
X2350000Y2390000D02*
X2380000Y2360000D01*
X2749637Y2439637D02*
X2791000D01*
X2348129Y2438071D02*
X2350000Y2436200D01*
Y2390000D02*
Y2436200D01*
X2249637Y2439637D02*
X2291000D01*
X848129Y2438071D02*
X850000Y2436200D01*
Y2390000D02*
Y2436200D01*
Y2390000D02*
X880000Y2360000D01*
X1120000Y2360000D02*
X1150000Y2390000D01*
X880000Y2360000D02*
X1120000Y2360000D01*
X1150000Y2390000D02*
X1200000D01*
X1249637Y2439637D01*
X1291000D01*
X660000Y2390000D02*
X741363D01*
X630000Y2360000D02*
X660000Y2390000D01*
X338792Y2360000D02*
X630000D01*
X291000Y2407792D02*
X338792Y2360000D01*
X741363Y2390000D02*
X791000Y2439637D01*
X3291000D02*
X3292567Y2438071D01*
X3792567D02*
X3848129D01*
X3791000Y2439637D02*
X3792567Y2438071D01*
X3848129D02*
X3850000Y2436200D01*
X4117871Y2438071D02*
X4172434D01*
X4174000Y2439637D01*
X4116000Y2436200D02*
X4117871Y2438071D01*
X3292567D02*
X3348129D01*
X3350000Y2436200D01*
X3617871Y2438071D02*
X3672434D01*
X3616000Y2436200D02*
X3617871Y2438071D01*
X2792567D02*
X2848129D01*
X2791000Y2439637D02*
X2792567Y2438071D01*
X2848129D02*
X2850000Y2436200D01*
X3117871Y2438071D02*
X3172434D01*
X3174001Y2439637D01*
X3116000Y2436200D02*
X3117871Y2438071D01*
X2291000Y2439637D02*
X2292567Y2438071D01*
X2348129D01*
X2617871D02*
X2672434D01*
X2616000Y2436200D02*
X2617871Y2438071D01*
X1291000Y2439637D02*
X1292567Y2438071D01*
X1348129D01*
X1350000Y2436200D01*
X1672434Y2438071D02*
X1674000Y2439637D01*
X1617871Y2438071D02*
X1672434D01*
X1616000Y2436200D02*
X1617871Y2438071D01*
X791000Y2439637D02*
X792567Y2438071D01*
X848129D01*
X1172434D02*
X1174000Y2439637D01*
X1117871Y2438071D02*
X1172434D01*
X1116000Y2436200D02*
X1117871Y2438071D01*
X291000Y2407792D02*
Y2439637D01*
X292567Y2438071D01*
X348129D01*
X350000Y2436200D01*
X616000Y2436200D02*
X617871Y2438071D01*
X672434D01*
X674000Y2439637D01*
D76*
X1693742Y1843992D02*
Y1848178D01*
X1596750Y1858750D02*
Y1870250D01*
X1680085Y1861835D02*
X1693742Y1848178D01*
X1659250Y1841000D02*
X1680085Y1861835D01*
Y1878766D01*
X1592100Y1966000D02*
Y1980500D01*
X1536100Y1910000D02*
X1592100Y1966000D01*
X1536100Y1895500D02*
Y1910000D01*
X2113791Y2281590D02*
X2116000Y2283800D01*
X830000Y1952400D02*
X830500Y1951900D01*
X1614500Y1841000D02*
X1659250D01*
X1596750Y1858750D02*
X1614500Y1841000D01*
X1693742Y1843992D02*
X1693750Y1844000D01*
X1680085Y1878766D02*
X1680094Y1878758D01*
X789500Y1951900D02*
X790000Y1952400D01*
X766500Y1969500D02*
X767000Y1970000D01*
X721000Y1969000D02*
X721500Y1969500D01*
X677172Y1980673D02*
X678000Y1981500D01*
X627000Y1975000D02*
X632673Y1980673D01*
X566000Y1935000D02*
X567706D01*
X597878Y1975000D02*
X627000D01*
X564294Y1935000D02*
X566000D01*
X537800Y1959200D02*
X537800Y1959200D01*
X518500Y1959400D02*
X518700Y1959200D01*
X414000Y1955750D02*
X414375Y1956125D01*
X436625D02*
X437000Y1956500D01*
X4113791Y2281590D02*
X4116000Y2283800D01*
X3613791Y2281590D02*
X3616000Y2283800D01*
X3113791Y2281590D02*
X3116000Y2283800D01*
X2613791Y2281590D02*
X2616000Y2283800D01*
X1613791Y2281590D02*
X1616000Y2283800D01*
X1113791Y2281590D02*
X1116000Y2283800D01*
X613791Y2281590D02*
X616000Y2283800D01*
X462389Y1958790D02*
X463000Y1959400D01*
X537800Y1959200D02*
X538000Y1959000D01*
D77*
X528733Y1977000D02*
X563250D01*
X565000Y1973250D02*
X566000Y1972250D01*
Y1956000D02*
Y1972250D01*
X565000Y1973250D02*
X566000Y1974250D01*
X3869453Y2125550D02*
Y2131900D01*
X4096547Y2128175D02*
Y2131900D01*
X563250Y1977000D02*
X566000Y1974250D01*
X518500Y1972100D02*
X523833D01*
X528733Y1977000D01*
X1518100Y1910000D02*
X1521600D01*
X892750Y1829516D02*
Y1830266D01*
X890750Y1827516D02*
X892750Y1829516D01*
X890000Y1827516D02*
X890750D01*
X870000Y1811500D02*
X870484Y1811016D01*
X849516D02*
X850000Y1811500D01*
X1552100Y1861150D02*
X1552975Y1860275D01*
X1547125Y1866375D02*
X1552000Y1861500D01*
X1547125Y1866375D02*
Y1869625D01*
X1542100Y1874650D02*
X1547125Y1869625D01*
D78*
X3791000Y2293800D02*
Y2338037D01*
X2121947Y2208100D02*
Y2240746D01*
X2174000Y2292800D01*
Y2338037D01*
X1792000Y2292800D02*
X1835351Y2249449D01*
X1791000Y2293800D02*
Y2338037D01*
X1894853Y2208100D02*
Y2215181D01*
X1835351Y2249449D02*
X1864647D01*
X1896000Y2218097D01*
X2050000Y2281590D02*
X2113791D01*
X2002503D02*
X2071147Y2212947D01*
X1852209Y2281590D02*
X1903000D01*
X1896000Y2216327D02*
Y2218097D01*
X1894853Y2215181D02*
X1896000Y2216327D01*
X437000Y1956500D02*
X448000D01*
X450900Y1959400D01*
X463000D01*
X414375Y1956125D02*
X436625D01*
X414000Y1934000D02*
Y1955750D01*
X413250Y1955000D02*
X414000Y1955750D01*
X360000Y1955000D02*
X413250D01*
X289000D02*
X360000D01*
X3896000Y2216327D02*
Y2218097D01*
X3894853Y2215181D02*
X3896000Y2216327D01*
X3852209Y2281590D02*
X3903000D01*
X4002503D02*
X4071147Y2212947D01*
X4050000Y2281590D02*
X4113791D01*
X3864647Y2249449D02*
X3896000Y2218097D01*
X3835351Y2249449D02*
X3864647D01*
X3894853Y2208100D02*
Y2215181D01*
X3792000Y2292800D02*
X3835351Y2249449D01*
X4174000Y2292800D02*
Y2338037D01*
X4121947Y2240746D02*
X4174000Y2292800D01*
X4121947Y2208100D02*
Y2240746D01*
X3396000Y2216327D02*
Y2218097D01*
X3394853Y2215181D02*
X3396000Y2216327D01*
X3352209Y2281590D02*
X3403000D01*
X3502503D02*
X3571147Y2212947D01*
X3550000Y2281590D02*
X3613791D01*
X3364647Y2249449D02*
X3396000Y2218097D01*
X3335351Y2249449D02*
X3364647D01*
X3394853Y2208100D02*
Y2215181D01*
X3291000Y2293800D02*
Y2338037D01*
X3292000Y2292800D02*
X3335351Y2249449D01*
X3674000Y2292800D02*
Y2338037D01*
X3621947Y2240746D02*
X3674000Y2292800D01*
X3621947Y2208100D02*
Y2240746D01*
X2896000Y2216327D02*
Y2218097D01*
X2894853Y2215181D02*
X2896000Y2216327D01*
X2852209Y2281590D02*
X2903000D01*
X3002503D02*
X3071147Y2212947D01*
X3050000Y2281590D02*
X3113791D01*
X2864648Y2249449D02*
X2896000Y2218097D01*
X2835351Y2249449D02*
X2864648D01*
X2894853Y2208100D02*
Y2215181D01*
X2791000Y2293800D02*
Y2338037D01*
X2792000Y2292800D02*
X2835351Y2249449D01*
X3174001Y2292800D02*
Y2338037D01*
X3121947Y2240746D02*
X3174001Y2292800D01*
X3121947Y2208100D02*
Y2240746D01*
X2396000Y2216327D02*
Y2218097D01*
X2394853Y2215181D02*
X2396000Y2216327D01*
X2352209Y2281590D02*
X2403000D01*
X2502503D02*
X2571147Y2212947D01*
X2550000Y2281590D02*
X2613791D01*
X2364647Y2249449D02*
X2396000Y2218097D01*
X2335351Y2249449D02*
X2364647D01*
X2394853Y2208100D02*
Y2215181D01*
X2291000Y2293800D02*
Y2338037D01*
X2292000Y2292800D02*
X2335351Y2249449D01*
X2674000Y2292800D02*
Y2338037D01*
X2621947Y2240746D02*
X2674000Y2292800D01*
X2621947Y2208100D02*
Y2240746D01*
X1352209Y2281590D02*
X1403000D01*
X1502503D02*
X1571147Y2212947D01*
X1550000Y2281590D02*
X1613791D01*
X1291000Y2293800D02*
Y2338037D01*
X1674000Y2292800D02*
Y2338037D01*
X1621947Y2240746D02*
X1674000Y2292800D01*
X1621947Y2208100D02*
Y2240746D01*
X1364647Y2249449D02*
X1396000Y2218097D01*
Y2216327D02*
Y2218097D01*
X1335351Y2249449D02*
X1364647D01*
X1394853Y2215181D02*
X1396000Y2216327D01*
X1394853Y2208100D02*
Y2215181D01*
X1292000Y2292800D02*
X1335351Y2249449D01*
X852209Y2281590D02*
X903000D01*
X1002503D02*
X1071147Y2212947D01*
X1050000Y2281590D02*
X1113791D01*
X791000Y2293800D02*
Y2338037D01*
X1174000Y2292800D02*
Y2338037D01*
X1121947Y2240746D02*
X1174000Y2292800D01*
X1121947Y2208100D02*
Y2240746D01*
X864647Y2249449D02*
X896000Y2218097D01*
Y2216327D02*
Y2218097D01*
X835351Y2249449D02*
X864647D01*
X894853Y2215181D02*
X896000Y2216327D01*
X894853Y2208100D02*
Y2215181D01*
X792000Y2292800D02*
X835351Y2249449D01*
X364647D02*
X396000Y2218097D01*
Y2216327D02*
Y2218097D01*
X394853Y2215181D02*
X396000Y2216327D01*
X394853Y2208100D02*
Y2215181D01*
X335351Y2249449D02*
X364647D01*
X292000Y2292800D02*
X335351Y2249449D01*
X352210Y2281590D02*
X403000D01*
X674000Y2292800D02*
Y2338037D01*
X621947Y2240746D02*
X674000Y2292800D01*
X621947Y2208100D02*
Y2240746D01*
X502503Y2281590D02*
X571147Y2212947D01*
X291000Y2293800D02*
Y2338037D01*
X550000Y2281590D02*
X613791D01*
D79*
X1791000Y2293800D02*
X1792000Y2292800D01*
X2001000Y2281590D02*
X2002503D01*
X2001000Y2278247D02*
Y2281590D01*
X2071147Y2208100D02*
Y2212947D01*
X1850000Y2283800D02*
X1852209Y2281590D01*
X1844000Y2107000D02*
X1844053Y2107053D01*
Y2131900D01*
X3844053Y2107053D02*
Y2131900D01*
X3844000Y2107000D02*
X3844053Y2107053D01*
X3850000Y2283800D02*
X3852209Y2281590D01*
X4071147Y2208100D02*
Y2212947D01*
X4001000Y2281590D02*
X4002503D01*
X4001000Y2278247D02*
Y2281590D01*
X3791000Y2293800D02*
X3792000Y2292800D01*
X3344053Y2107053D02*
Y2131900D01*
X3344000Y2107000D02*
X3344053Y2107053D01*
X3350000Y2283800D02*
X3352209Y2281590D01*
X3571147Y2208100D02*
Y2212947D01*
X3501000Y2281590D02*
X3502503D01*
X3501000Y2278247D02*
Y2281590D01*
X3291000Y2293800D02*
X3292000Y2292800D01*
X2844053Y2107053D02*
Y2131900D01*
X2844000Y2107000D02*
X2844053Y2107053D01*
X2850000Y2283800D02*
X2852209Y2281590D01*
X3071147Y2208100D02*
Y2212947D01*
X3001000Y2281590D02*
X3002503D01*
X3001000Y2278247D02*
Y2281590D01*
X2791000Y2293800D02*
X2792000Y2292800D01*
X2344053Y2107053D02*
Y2131900D01*
X2344000Y2107000D02*
X2344053Y2107053D01*
X2350000Y2283800D02*
X2352209Y2281590D01*
X2571147Y2208100D02*
Y2212947D01*
X2501000Y2281590D02*
X2502503D01*
X2501000Y2278247D02*
Y2281590D01*
X2291000Y2293800D02*
X2292000Y2292800D01*
X1350000Y2283800D02*
X1352209Y2281590D01*
X1571147Y2208100D02*
Y2212947D01*
X1501000Y2278247D02*
Y2281590D01*
X1502503D01*
X1291000Y2293800D02*
X1292000Y2292800D01*
X1344053Y2107053D02*
Y2131900D01*
X1344000Y2107000D02*
X1344053Y2107053D01*
X850000Y2283800D02*
X852209Y2281590D01*
X1071147Y2208100D02*
Y2212947D01*
X1001000Y2278247D02*
Y2281590D01*
X1002503D01*
X791000Y2293800D02*
X792000Y2292800D01*
X844053Y2107053D02*
Y2131900D01*
X844000Y2107000D02*
X844053Y2107053D01*
X350000Y2283800D02*
X352210Y2281590D01*
X344000Y2107000D02*
X344053Y2107053D01*
X571147Y2208100D02*
Y2212947D01*
X501000Y2281590D02*
X502503D01*
X291000Y2293800D02*
X292000Y2292800D01*
X501000Y2278247D02*
Y2281590D01*
D80*
X250000Y2930000D02*
D03*
X4200000D02*
D03*
Y1800000D02*
D03*
X250000D02*
D03*
D81*
X1993650Y1795031D02*
D03*
X1968250Y1820431D02*
D03*
Y1795031D02*
D03*
X1942850Y1820431D02*
D03*
Y1795031D02*
D03*
X1917450Y1820431D02*
D03*
Y1795031D02*
D03*
X1892050Y1820431D02*
D03*
X1993650D02*
D03*
X2198750Y1929200D02*
D03*
X2224150Y1954600D02*
D03*
X2198750D02*
D03*
X2224150Y1980000D02*
D03*
X2198750D02*
D03*
X2224150Y2005400D02*
D03*
X2198750D02*
D03*
X2224150Y2030800D02*
D03*
Y1929200D02*
D03*
D82*
X1892050Y1795031D02*
D03*
D83*
X289000Y1955000D02*
D03*
Y1899000D02*
D03*
X4100000Y2780000D02*
D03*
X3600000Y2780000D02*
D03*
X3100000Y2780000D02*
D03*
X2600000Y2780000D02*
D03*
X2100000Y2780000D02*
D03*
X1600000Y2780000D02*
D03*
X1100000Y2780000D02*
D03*
X600000Y2780000D02*
D03*
X4174000Y2292800D02*
D03*
X3674000Y2292800D02*
D03*
X3174001Y2292800D02*
D03*
X2674000Y2292800D02*
D03*
X2174001Y2292800D02*
D03*
X1674000Y2292800D02*
D03*
X1174000Y2292800D02*
D03*
X674000Y2292800D02*
D03*
X4025000Y2474000D02*
D03*
X3525000Y2474000D02*
D03*
X3025000Y2474000D02*
D03*
X2525000Y2474000D02*
D03*
X2025000Y2474000D02*
D03*
X1525000Y2474000D02*
D03*
X1025000Y2474000D02*
D03*
X525000Y2474000D02*
D03*
X3850000Y2920000D02*
D03*
X3350000D02*
D03*
X2850000D02*
D03*
X2350000D02*
D03*
X1850000D02*
D03*
X1350000D02*
D03*
X850000D02*
D03*
X350000D02*
D03*
X3792000Y2292800D02*
D03*
X3292000Y2292800D02*
D03*
X2792000Y2292800D02*
D03*
X2292000Y2292800D02*
D03*
X1792000Y2292800D02*
D03*
X1292000Y2292800D02*
D03*
X792000Y2292800D02*
D03*
X292000Y2292800D02*
D03*
X3928000Y2474000D02*
D03*
X3428000Y2474000D02*
D03*
X2928000Y2474000D02*
D03*
X2428000Y2474000D02*
D03*
X1928000Y2474000D02*
D03*
X1428000Y2474000D02*
D03*
X928000Y2474000D02*
D03*
X428000Y2474000D02*
D03*
D84*
X4100000Y2600000D02*
D03*
Y2650000D02*
D03*
X3600000Y2600000D02*
D03*
Y2650000D02*
D03*
X3100000Y2600000D02*
D03*
Y2650000D02*
D03*
X2600000Y2600000D02*
D03*
Y2650000D02*
D03*
X2100000Y2600000D02*
D03*
Y2650000D02*
D03*
X1600000Y2600000D02*
D03*
Y2650000D02*
D03*
X1100000Y2600000D02*
D03*
Y2650000D02*
D03*
X600000Y2600000D02*
D03*
Y2650000D02*
D03*
D85*
X3670000Y2750000D02*
D03*
X3720000D02*
D03*
X2725000Y2780000D02*
D03*
X2675000D02*
D03*
X1175000D02*
D03*
X1225000D02*
D03*
X660000Y2920000D02*
D03*
X710000D02*
D03*
D86*
X609000Y1804500D02*
D03*
X736000D02*
D03*
D87*
X3690000Y1878400D02*
D03*
X3791600Y1776800D02*
D03*
X3588400D02*
D03*
X2681600Y1878401D02*
D03*
X2783200Y1776801D02*
D03*
X2580000D02*
D03*
X1180000Y1878401D02*
D03*
X1281600Y1776801D02*
D03*
X1078400D02*
D03*
D88*
X4174001Y2338037D02*
D03*
Y2439637D02*
D03*
X3674001Y2338037D02*
D03*
Y2439637D02*
D03*
X3174001Y2338037D02*
D03*
Y2439637D02*
D03*
X2674000Y2338037D02*
D03*
Y2439637D02*
D03*
X2174001Y2338037D02*
D03*
Y2439637D02*
D03*
X1674000Y2338037D02*
D03*
Y2439637D02*
D03*
X1174001Y2338037D02*
D03*
Y2439637D02*
D03*
X674000Y2338037D02*
D03*
Y2439637D02*
D03*
X3791000Y2338037D02*
D03*
Y2439637D02*
D03*
X3291000Y2338037D02*
D03*
Y2439637D02*
D03*
X2791001Y2338037D02*
D03*
Y2439637D02*
D03*
X2291000Y2338037D02*
D03*
Y2439637D02*
D03*
X1791001Y2338037D02*
D03*
Y2439637D02*
D03*
X1291000Y2338037D02*
D03*
Y2439637D02*
D03*
X791001Y2338037D02*
D03*
Y2439637D02*
D03*
X291000Y2338037D02*
D03*
Y2439637D02*
D03*
D89*
X4050000Y2433990D02*
D03*
Y2281590D02*
D03*
X3550000Y2433990D02*
D03*
Y2281590D02*
D03*
X3050000Y2433990D02*
D03*
Y2281590D02*
D03*
X2550000Y2433991D02*
D03*
Y2281591D02*
D03*
X2050000Y2433990D02*
D03*
Y2281590D02*
D03*
X1550000Y2433990D02*
D03*
Y2281591D02*
D03*
X1050000Y2433991D02*
D03*
Y2281591D02*
D03*
X550000Y2433991D02*
D03*
Y2281591D02*
D03*
X4001000Y2433990D02*
D03*
Y2281590D02*
D03*
X3501000Y2433990D02*
D03*
Y2281590D02*
D03*
X3001000Y2433990D02*
D03*
Y2281590D02*
D03*
X2501000Y2433991D02*
D03*
Y2281591D02*
D03*
X2001000Y2433990D02*
D03*
Y2281590D02*
D03*
X1501000Y2433990D02*
D03*
Y2281591D02*
D03*
X1001000Y2433991D02*
D03*
Y2281591D02*
D03*
X501000Y2433990D02*
D03*
Y2281590D02*
D03*
X3903000Y2433990D02*
D03*
Y2281590D02*
D03*
X3403000Y2433990D02*
D03*
Y2281590D02*
D03*
X2903000Y2433990D02*
D03*
Y2281590D02*
D03*
X2403000Y2433991D02*
D03*
Y2281591D02*
D03*
X1903000Y2433990D02*
D03*
Y2281590D02*
D03*
X1403000Y2433990D02*
D03*
Y2281591D02*
D03*
X903000Y2433991D02*
D03*
Y2281591D02*
D03*
X403000Y2433990D02*
D03*
Y2281590D02*
D03*
X3952000Y2433990D02*
D03*
Y2281590D02*
D03*
X3452000Y2433990D02*
D03*
Y2281590D02*
D03*
X2952000Y2433990D02*
D03*
Y2281590D02*
D03*
X2452000Y2433991D02*
D03*
Y2281591D02*
D03*
X1952000Y2433990D02*
D03*
Y2281590D02*
D03*
X1452000Y2433990D02*
D03*
Y2281591D02*
D03*
X952000Y2433991D02*
D03*
Y2281591D02*
D03*
X452000Y2433990D02*
D03*
Y2281590D02*
D03*
D90*
X1743800Y1911000D02*
D03*
X1718400D02*
D03*
X1693000D02*
D03*
Y1936000D02*
D03*
X1718400D02*
D03*
X1743800D02*
D03*
X1412250Y1979050D02*
D03*
Y1953650D02*
D03*
Y1928250D02*
D03*
X1437250D02*
D03*
Y1953650D02*
D03*
Y1979050D02*
D03*
Y1903050D02*
D03*
Y1877650D02*
D03*
Y1852250D02*
D03*
X1412250D02*
D03*
Y1877650D02*
D03*
Y1903050D02*
D03*
D91*
X2198750Y2030800D02*
D03*
D92*
X3898800Y2651600D02*
D03*
X4051200D02*
D03*
X3398800Y2651600D02*
D03*
X3551200D02*
D03*
X2898800D02*
D03*
X3051200D02*
D03*
X2398800Y2651600D02*
D03*
X2551200D02*
D03*
X1898800Y2651600D02*
D03*
X2051200D02*
D03*
X1398800D02*
D03*
X1551200D02*
D03*
X898800Y2651600D02*
D03*
X1051200D02*
D03*
X398800Y2651600D02*
D03*
X551200D02*
D03*
D93*
X3975000Y2550000D02*
D03*
X3475000Y2550000D02*
D03*
X2975000D02*
D03*
X2475000Y2550000D02*
D03*
X1975000Y2550000D02*
D03*
X1475000D02*
D03*
X975000Y2550000D02*
D03*
X475000Y2550000D02*
D03*
D94*
X3975000Y2956400D02*
D03*
X3475000Y2956400D02*
D03*
X2975000D02*
D03*
X2475000Y2956400D02*
D03*
X1975000Y2956400D02*
D03*
X1475000D02*
D03*
X975000Y2956400D02*
D03*
X475000Y2956400D02*
D03*
D95*
X4071147Y2131900D02*
D03*
X4096547D02*
D03*
Y2208100D02*
D03*
X4071147D02*
D03*
X4121947Y2131900D02*
D03*
Y2208100D02*
D03*
X3571147Y2131900D02*
D03*
X3596547D02*
D03*
Y2208100D02*
D03*
X3571147D02*
D03*
X3621947Y2131900D02*
D03*
Y2208100D02*
D03*
X3071147Y2131900D02*
D03*
X3096547D02*
D03*
Y2208100D02*
D03*
X3071147D02*
D03*
X3121947Y2131900D02*
D03*
Y2208100D02*
D03*
X2571147Y2131900D02*
D03*
X2596547D02*
D03*
Y2208100D02*
D03*
X2571147D02*
D03*
X2621947Y2131900D02*
D03*
Y2208100D02*
D03*
X2071147Y2131900D02*
D03*
X2096547D02*
D03*
Y2208100D02*
D03*
X2071147D02*
D03*
X2121947Y2131900D02*
D03*
Y2208100D02*
D03*
X1571147Y2131900D02*
D03*
X1596547D02*
D03*
Y2208100D02*
D03*
X1571147D02*
D03*
X1621947Y2131900D02*
D03*
Y2208100D02*
D03*
X1071147Y2131900D02*
D03*
X1096547D02*
D03*
Y2208100D02*
D03*
X1071147D02*
D03*
X1121947Y2131900D02*
D03*
Y2208100D02*
D03*
X571147Y2131900D02*
D03*
X596547D02*
D03*
Y2208100D02*
D03*
X571147D02*
D03*
X621947Y2131900D02*
D03*
Y2208100D02*
D03*
X3844053Y2131900D02*
D03*
X3869453D02*
D03*
Y2208100D02*
D03*
X3844053D02*
D03*
X3894853Y2131900D02*
D03*
Y2208100D02*
D03*
X3344053Y2131900D02*
D03*
X3369453D02*
D03*
Y2208100D02*
D03*
X3344053D02*
D03*
X3394853Y2131900D02*
D03*
Y2208100D02*
D03*
X2844053Y2131900D02*
D03*
X2869453D02*
D03*
Y2208100D02*
D03*
X2844053D02*
D03*
X2894853Y2131900D02*
D03*
Y2208100D02*
D03*
X2344053Y2131900D02*
D03*
X2369453D02*
D03*
Y2208100D02*
D03*
X2344053D02*
D03*
X2394853Y2131900D02*
D03*
Y2208100D02*
D03*
X1844053Y2131900D02*
D03*
X1869453D02*
D03*
Y2208100D02*
D03*
X1844053D02*
D03*
X1894853Y2131900D02*
D03*
Y2208100D02*
D03*
X1344053Y2131900D02*
D03*
X1369453D02*
D03*
Y2208100D02*
D03*
X1344053D02*
D03*
X1394853Y2131900D02*
D03*
Y2208100D02*
D03*
X844053Y2131900D02*
D03*
X869453D02*
D03*
Y2208100D02*
D03*
X844053D02*
D03*
X894853Y2131900D02*
D03*
Y2208100D02*
D03*
X344053Y2131900D02*
D03*
X369453D02*
D03*
Y2208100D02*
D03*
X344053D02*
D03*
X394853Y2131900D02*
D03*
Y2208100D02*
D03*
D96*
X720750Y1899750D02*
D03*
X721000Y1944000D02*
D03*
X360000Y1920000D02*
D03*
D97*
X720750Y1874750D02*
D03*
X721000Y1969000D02*
D03*
X360000Y1955000D02*
D03*
D98*
X4116000Y2283800D02*
D03*
Y2436200D02*
D03*
X3616000Y2283800D02*
D03*
Y2436200D02*
D03*
X3116000Y2283800D02*
D03*
Y2436200D02*
D03*
X2616000Y2283800D02*
D03*
Y2436200D02*
D03*
X2116000Y2283800D02*
D03*
Y2436200D02*
D03*
X1616000Y2283800D02*
D03*
Y2436200D02*
D03*
X1116000Y2283800D02*
D03*
Y2436200D02*
D03*
X616000Y2283800D02*
D03*
Y2436200D02*
D03*
X3850000Y2283800D02*
D03*
Y2436200D02*
D03*
X3350000Y2283800D02*
D03*
Y2436200D02*
D03*
X2850000Y2283800D02*
D03*
Y2436200D02*
D03*
X2350000Y2283800D02*
D03*
Y2436200D02*
D03*
X1850000Y2283800D02*
D03*
Y2436200D02*
D03*
X1350000Y2283800D02*
D03*
Y2436200D02*
D03*
X850000Y2283800D02*
D03*
Y2436200D02*
D03*
X350000Y2283800D02*
D03*
Y2436200D02*
D03*
D99*
X1072000Y2065000D02*
D03*
X1606600Y1992199D02*
D03*
X1552172Y1990422D02*
D03*
X1544000Y1970500D02*
D03*
X1536000Y1990250D02*
D03*
X1560250Y1970500D02*
D03*
X1490500Y1901000D02*
D03*
X1491000Y1872000D02*
D03*
X1470000Y1920000D02*
D03*
X800000Y1855000D02*
D03*
X790000Y1985000D02*
D03*
X475500Y2004750D02*
D03*
X566000Y1956000D02*
D03*
X1510500Y1848500D02*
D03*
X1527000Y1883000D02*
D03*
X1596750Y1870250D02*
D03*
X1610125Y1831000D02*
D03*
X1610000Y1862000D02*
D03*
X1580000Y2050765D02*
D03*
X1457250Y1842750D02*
D03*
X2299250Y1877500D02*
D03*
X1608000Y1895500D02*
D03*
X1576000Y1905750D02*
D03*
X1654500Y1913750D02*
D03*
M02*
